<?xml version="1.0" encoding="utf-8"?>
<!-- Generator: $$$/GeneralStr/196=Adobe Illustrator 27.6.0, SVG Export Plug-In . SVG Version: 6.00 Build 0)  -->
<svg version="1.1" id="Livello_1" xmlns="http://www.w3.org/2000/svg" xmlns:xlink="http://www.w3.org/1999/xlink" x="0px" y="0px"
	 viewBox="0 0 563.9 329.5" style="enable-background:new 0 0 563.9 329.5;" xml:space="preserve">
<style type="text/css">
	.st0{fill:none;}
	.st1{fill:#FFFFFF;filter:url(#Adobe_OpacityMaskFilter);}
	.st2{mask:url(#mask1_61_3851_00000145778575628271797580000015520209130141230007_);}
	.st3{fill:#C190C2;}
	.st4{fill:#FFC566;}
	.st5{fill:#EDE6CF;}
	.st6{fill:#C2E798;}
	.st7{fill:#A2DAD9;}
	.st8{fill:#FF9295;}
	.st9{fill:#F1F038;}
	.st10{fill:#FFFFFF;filter:url(#Adobe_OpacityMaskFilter_00000016048651510102990470000004257861112606444426_);}
	.st11{mask:url(#mask2_61_3851_00000103266854416037209220000002259285906958585229_);}
	.st12{fill:#FFFFFF;filter:url(#Adobe_OpacityMaskFilter_00000039130855875127340280000009750257426652413089_);}
	.st13{mask:url(#mask3_61_3851_00000131340171915247712280000012123674506806986125_);}
	.st14{fill:#424242;}
</style>
<rect x="30.1" y="-87.6" class="st0" width="500" height="500"/>
<defs>
	<filter id="Adobe_OpacityMaskFilter" filterUnits="userSpaceOnUse" x="168.6" y="57.9" width="223.4" height="222">
		<feColorMatrix  type="matrix" values="1 0 0 0 0  0 1 0 0 0  0 0 1 0 0  0 0 0 1 0"/>
	</filter>
</defs>
<mask maskUnits="userSpaceOnUse" x="168.6" y="57.9" width="223.4" height="222" id="mask1_61_3851_00000145778575628271797580000015520209130141230007_">
	<path class="st1" d="M392.8,56.4H167.4V283h225.3V56.4z"/>
</mask>
<g class="st2">
	<path class="st3" d="M237,126.8c0.9-1.4,3.8-12.1,5.3-8.9c2.2,4.7-1.7,11.2,0.8,10.8c2.9-0.4,5.8-16.9,9.2-13.8
		c7.8,7.5-9.8,15.7-6.4,17.9c1.8,1.3,8.1,0.9,8.8,3.3c1.9,6.9-5,6.8-0.6,11.7c-2.6,0-1.8,2.6-1,5.2c0.4,1.8-3.2,2.6-2.5,5.2
		c0.9,3.9,4.2-0.6,6.5,3c2.2,3.6-5.5,5.1-7.4,6.2c-2.5,1.4-3.6,2.2-1.3,6.3c2.6,4.5,15.8,6.7,13.7,15.4c-1.9,8.6-11.7-9.9-14.9-10.8
		c-4-1.2-9.7-2-10.2,3.8c-0.4,5,4.3,16.6,1,17.7c-7,2.4-2.2-13.7-2.9-16.7c-0.3-1.1-1.1-0.5-2,1.1c-1.4,2.5-1.4,11.2-3.7,11.3
		c-2.4,0.1-0.6-7.4-1.6-9.3c-0.8-1.4-1.9-1.9-2.9-1.1c-1,0.8,2.4,8.3-2.6,5.8c-5.1-2.4,0.1-7.3-0.3-9.2c-0.5-2-3.9-3.6-5.2-1.8
		c-1.4,1.6,0.9,31.3-4.9,29c-6.4-1.9,4.3-27.5,2.4-31.2c-4.2-5.9-14.8,3.8-18,2.7c-4.2-1.2,6-3.3,3.3-9c-0.6-1.3-5.5-0.7-4.6-4.5
		c1-3.8,14.4-0.6,15.3-1.2c1.4-0.9,0.8-2.5-1.4-4.9c-1.3-1.4-5.5-2.1-5.4-4.9c0.2-2.9,4.7,1.9,5.5,0.7c4.4-6.7-2.9-4.9-3.6-7.9
		c-0.8-3.4,7.5-0.8,3.7-6.3c-1.7-2.8-24.9-3.4-24.4-12.5c1-9.6,23.3,7.2,26.1,6.9c3.1-0.7,4.7-2.6,5.6-6.5c0.9-3.9-3.4-15.8,1.1-18
		c4.5-2.1-1.6,15.1,3.3,12.6c4.8-2.5,3.7,3.7,5.2,0.5c1.2-2.8,7.1-22,13.7-20.4c6.2,1.7-13,17.4-10.5,21.1
		C231.1,129.2,235,129.6,237,126.8z"/>
	<path class="st3" d="M237.5,148.9c0-0.1,26.8-1.2,32.7,0.1c5.9,1.2,8.9-3.9,7.4-5.3c-1.6-1.3-4.8,4-35.1,2.4
		C240.9,147.1,239.2,148,237.5,148.9z"/>
	<path class="st4" d="M261.8,137.4c0.7,0.8,6.9,3.6,4.4,4.5c-3.6,1.3-6.9-1.9-7.3-0.1c-0.4,2.2,9.5,5.2,6.5,7.5
		c-6.8,5.5-7.5-8-9.9-5.6c-1.3,1.3-2.5,6.1-4.3,6.5c-4.8,1.2-3.3-4.2-7.5-1c0.6-2-1.3-1.5-3.2-1c-1.2,0.2-1-2.7-2.9-2.3
		c-2.8,0.5-0.4,3.4-3.2,5.1c-2.7,1.6-2.4-4.7-2.8-6.4c-0.5-2.1-0.9-3.1-4.1-1.5c-3.6,1.8-6.9,13-12.3,11c-5.5-2,8.1-9.8,9.3-12.2
		c1.5-3.3,3-8-1-8.9c-3.5-0.8-12.4,2.2-12.8-0.8c-0.9-6.5,10.3-0.6,12.4-0.9c0.8-0.2,0.5-0.9-0.5-1.8c-1.5-1.4-7.9-2.3-7.7-4.4
		c0.2-2.1,5.6,0.4,7.1-0.3c1.2-0.5,1.7-1.4,1.2-2.4c-0.4-0.9-6.6,1.1-4-3c2.6-4,5.5,1,7,0.9c1.5-0.2,3.4-2.7,2.3-4.1
		c-0.8-1.3-24.3-3.8-22.2-8.7c2.5-5.2,21.6,8.3,24.3,7c5.4-2.5-0.1-12.6,1.2-15c1.8-3.1,1.5,5.4,6.6,4.2c1.2-0.3,1.8-4.2,4.7-2.7
		c2.8,1.4-2.9,11.2-2.6,12.1c0.4,1.2,1.7,1,4.1-0.4c1.3-0.8,2.9-3.9,5.1-3.4c2.1,0.6-2.6,3.3-1.9,4.1c3.9,4.3,4.4-1.5,6.9-1.6
		c2.8-0.1-1.4,5.7,3.7,3.6c2.3-1,10-17.4,17.2-15.3c6.8,2-13.3,14.9-13.6,17.3c-0.4,2.4,0.5,3.8,3,4.8c2.5,1.1,12.3-0.6,12.3,2.7
		c0.1,3.3-10-2.7-9.8,1c0.3,3.7-3.6,2.3-1.9,3.7c1.7,1.2,12.7,6.9,9.5,11.3c-2.8,4.4-7.6-10.4-10.9-9
		C261.8,132.8,260.4,135.8,261.8,137.4z"/>
	<path class="st4" d="M246.8,136.1c0,0-5.1,21-6.9,25.7c-1.9,4.7,0.7,7.1,1.9,5.9c1.3-1.2-1.9-3.8,5.8-27.5
		C247.3,138.8,247,137.5,246.8,136.1z"/>
	<path class="st5" d="M291,175.4c0.9,0.8,7.9,2.3,5.5,4.2c-3.6,2.7-7.5-0.2-7.6,2.2c-0.1,2.9,10.9,3.4,8.2,7.1
		c-6.2,8.9-9.4-7.3-11.4-3.7c-1.1,2-1.5,8.3-3.2,9.4c-4.7,3.1-4-4.1-7.6,1.3c0.2-2.7-1.5-1.5-3.3-0.2c-1.2,0.7-1.4-3-3.2-1.9
		c-2.6,1.6,0.1,4.5-2.3,7.5c-2.3,3-2.9-5.2-3.5-7.2c-0.7-2.5-1.2-3.7-3.9-0.5c-3,3.5-4.7,19.3-9.7,18.5c-5.1-0.8,6-15.7,6.8-19.2
		c0.9-4.8,1.7-11.4-2-11.4c-3.3,0-10.6,6.7-11.3,2.8c-1.6-8.5,8.8-3.7,10.7-4.9c0.7-0.5,0.4-1.3-0.6-2.2c-1.6-1.4-7.2-0.8-7.3-3.7
		c-0.1-2.9,4.9-1.1,6.1-2.5c1-1.1,1.3-2.3,0.8-3.5c-0.5-1.1-5.6,3.3-3.8-2.8c1.8-6.1,5-0.1,6.2-0.7c1.4-0.6,2.7-4.6,1.5-6.1
		c-1.2-1.4-21.5,1.5-20-6c1.4-7.5,19.2,5.8,21.8,3.1c4.5-4.7-1.6-16.7-0.7-20.3c1.3-4.6,2,6.9,6.4,3.9c1.1-0.7,1.1-6,3.9-4.8
		c2.8,1.1-1.2,15.5-0.8,16.6c0.5,1.5,1.7,0.8,3.7-1.6c1.2-1.4,2.2-5.9,4.3-5.8c2.1,0.1-2,5-1.2,5.8c4.3,4.4,4-3.1,6.4-3.9
		c2.6-0.9-0.5,7.7,4.1,3.6c2.1-2,7-25.1,14.5-24.1c7.2,0.9-10.9,22.4-10.6,25.7c0,3.1,1.1,4.7,3.8,5.3c2.6,0.6,12.4-4.2,13.1,0
		c0.7,4.1-10.9-0.6-10,4c0.9,4.5-3.3,3.9-1.2,5.2c1.8,1.1,14.6,4.9,12.3,11.1c-2.3,6.2-10.2-10.5-13.3-7.9
		C290.1,169.8,289.2,173.8,291,175.4z"/>
	<path class="st5" d="M275.7,178.5c0,0-1.8,28.2-2.9,34.6c-1.1,6.5,1.8,8.5,2.8,6.6c1.1-2-2.5-3.9,1.4-36.2
		C276.6,181.8,276.1,180.2,275.7,178.5z"/>
	<path class="st6" d="M287.5,134.8c-0.3-1.6-6.1-8.5-2.7-8.7c5-0.3,7,6.1,8.5,3.6c1.9-3.1-8.4-12.3-3.7-14.4
		c11.5-4.7,4.7,15.6,8.7,13.4c2.3-1.2,6.7-7.5,9.1-7.1c6.6,1.1,1.1,7.9,8.2,5.7c-2,2.5,0.5,2.9,2.9,3.4c1.6,0.5-0.7,4.3,1.7,5
		c3.5,1,3-4.5,7.4-5c4.4-0.5-0.9,8-1.8,10.5c-1.1,3.2-1.4,4.7,3.2,4.6c5.1-0.2,18.2-12.5,22.4-5.7c4,6.6-17.1,6.5-20.3,9.4
		c-4.2,3.4-9.4,8.7-6.1,12.5c2.8,3.2,13.9,5.2,11.7,9.4c-4.6,8.8-10.1-6-12.6-6.8c-1-0.3-1.2,0.8-1,2.6c0.4,2.8,5.6,8,3.7,10.6
		c-1.9,2.6-4.8-3.9-6.8-3.9c-1.5,0-2.7,0.8-3,2.4c-0.3,1.4,6.9,2.5,1.3,6.2c-5.5,3.7-4.2-4.5-5.7-5.2c-1.6-0.7-5.2,1.8-5.2,4.3
		c0.2,1.9,18.6,18.7,12.4,23.7c-5.9,5-11.6-22.8-15.7-22.5c-6.7,0.7-9,17.1-11.9,19.7c-3.8,3.5,2.5-8.1-2.8-8.7
		c-1.3-0.1-4.4,5-5.9,1.8c-1.6-3.2,10-14.4,10.4-15.8c0.5-1.9-1-2.2-4.1-1.3c-1.8,0.5-5.3,4.3-6.9,2.6c-1.7-1.7,4.6-3.6,4.4-5
		c-1.1-7.8-5.2,0.2-7.6-0.6c-2.7-0.9,4.8-7.7-1.4-6.7c-3.1,0.4-19.3,22-24.6,17.1c-5.6-5.3,20.1-18.5,22.1-21.5
		c1.8-3.3,1.6-5.8-0.4-8.3c-2-2.6-13.1-3.6-11.6-8.7c1.6-5.2,9.4,7.7,11,2.1c1.6-5.7,5.2-1.9,4-4.8c-1-2.6-10.8-15.6-5.3-21.1
		c5.6-5.4,3.9,19,8,18.3C284.9,141.5,288.2,137.9,287.5,134.8z"/>
	<path class="st6" d="M303.5,144.2c-0.2-0.1,19.9-26.9,25.9-32c5.8-5.2,4.2-10.4,1.8-9.5c-2.2,1-1.1,6.2-25.8,35.3
		C304.8,140.1,304.1,142.1,303.5,144.2z"/>
	<path class="st7" d="M239.9,159.8c-0.1-1.4-3.5-8.7-1-8c3.6,1.1,4.3,7,5.6,5.3c1.7-2-4.5-12.4-0.9-12.8c8.6-0.9,1.4,14.2,4.5,13.3
		c1.7-0.4,5.5-4.5,7.1-3.6c4.3,2.5-0.2,6.9,4.9,6.7c-1.7,1.6,0,2.6,1.6,3.5c1,0.7-0.9,3.5,0.6,4.6c2.2,1.6,2.5-3.1,5.4-2.6
		c2.9,0.5-1.5,6.5-2.3,8.5c-1,2.5-1.4,3.7,1.7,4.6c3.3,1,13.1-7,14.9-0.5c1.8,6.4-11.6,2.5-13.9,4.1c-3.1,2-6.9,5.4-5,9.3
		c1.6,3.4,8.6,7.4,6.9,10.6c-3.5,6.7-6.1-7.3-7.6-8.6c-0.6-0.5-0.9,0.4-0.8,2c0.1,2.5,3.1,8.2,1.7,10c-1.4,1.8-2.9-4.5-4.2-5
		c-1-0.3-1.8,0.1-2.1,1.3c-0.3,1.1,4.4,3.8,0.6,5.7c-3.8,1.9-2.6-5-3.5-5.9c-1-1-3.6,0.2-3.7,2.3c0.1,1.7,11.4,21,7.3,23.9
		c-3.9,2.8-6.9-23-9.5-23.8c-4.6-1.3-6.7,12.1-8.7,13.5c-2.7,1.8,1.9-6.1-1.8-8.3c-0.9-0.5-3.2,2.8-4.2-0.4c-1.1-3.2,7.5-9,7.8-10.1
		c0.4-1.5-0.6-2.1-2.8-2.3c-1.3-0.1-3.9,2-5,0.1c-1.1-1.9,3.4-1.6,3.3-2.8c-0.4-6.9-3.7-1.4-5.4-2.9c-1.9-1.6,3.9-4.9-0.7-6
		c-2.3-0.5-15.3,11.8-19.3,5.8c-4.1-6.1,16.3-8.1,17.8-10.2c1.5-2.2,1.6-4.3,0.2-7c-1.2-2.8-9.5-7-7.9-10.7c1.6-3.7,6.4,9.2,8,5.1
		c1.7-4.2,3.9-0.1,3.3-2.8c-0.5-2.4-6.4-15.9-1.7-18.8c4.7-2.9,0.8,16.6,3.9,17.3C237.4,164.6,240,162.5,239.9,159.8z"/>
	<path class="st7" d="M250.1,171.9c-0.2,0,16.2-17.7,21-20.8c4.5-3.2,4.3-7.8,2.6-7.5c-1.5,0.3-1.9,5.2-21.7,23.6
		C251.4,168.7,250.7,170.3,250.1,171.9z"/>
	<path class="st6" d="M363.4,171.1c0.9,0.4,6.8-0.5,5.3,1.8c-2.2,3.4-6,2-5.5,4.1c0.6,2.5,9.5-0.3,8.3,3.6
		c-2.9,9.3-9.3-3.5-10.1,0.1c-0.4,2,0.6,7.3-0.6,8.7c-3.3,3.7-4.2-2.5-6.2,2.8c-0.3-2.3-1.6-0.9-2.8,0.4c-0.9,0.8-1.8-2.2-3.1-1
		c-1.9,1.8,0.9,3.7-0.6,6.5c-1.5,2.8-3.5-3.8-4.4-5.2c-1.1-1.9-1.7-2.7-3.6,0.2c-2,3.2-1.1,15.9-6,15.6c-4.9-0.2,3.4-12.7,3.4-15.7
		c0-3.9-0.5-9.1-3.7-8.5c-2.8,0.6-8.4,6.6-9.6,3.7c-2.6-6,7.2-4,8.7-5.2c0.6-0.5,0.1-1.1-0.9-1.6c-1.6-0.8-6.4,0.5-7-1.6
		c-0.5-2.1,4.1-1.6,4.9-2.8c0.6-1,0.7-2,0.1-2.8c-0.6-0.7-4.2,3.4-3.8-1.4c0.4-4.9,4.2-1,5.1-1.7c1-0.7,1.4-4,0.1-4.9
		c-1.1-0.6-17.9,5.1-17.9-0.6c-0.1-5.6,17.2,0.6,18.7-2c2.7-4.6-4.8-12.2-4.9-15c-0.1-3.8,3.1,4.6,5.9,1.3c0.7-0.8-0.5-4.8,1.9-4.7
		c2.4,0.1,2.7,12.1,3.3,12.8c0.8,1,1.6,0.2,2.6-2.2c0.6-1.4,0.3-5.1,1.9-5.6c1.6-0.5-0.3,4.4,0.5,4.8c4.4,2.3,2.3-3.5,3.9-4.8
		c1.8-1.5,1.6,6.2,4,1.6c1.3-2.2-1.7-21.7,3.6-23.6c5.5-1.9-0.9,21.3-0.3,23.6c0.8,2.5,2.1,3.3,4.3,3c2.2-0.3,8.1-7.5,9.8-4.5
		c1.7,3.2-8.2,3.3-6.3,6.7c1.9,3.4-1.5,4.2,0.4,4.6c1.7,0.4,12.4-0.9,12.3,5.1c-0.1,6-10.6-5.2-12.3-2.1
		C361.4,166.7,361.7,170.2,363.4,171.1z"/>
	<path class="st6" d="M351.8,177.6c0.1-0.1,4.3,23.3,4.3,29.1c0.1,5.7,3.1,7,3.7,5.2c0.4-1.8-2.5-3.3-5.8-30.5
		C353.2,180.1,352.5,178.8,351.8,177.6z"/>
	<path class="st8" d="M328.8,178c-0.4,1,0,7.8-1.9,6.2c-2.7-2.4-1.4-6.9-3.1-6.2c-2.1,0.8-0.3,10.8-3.5,9.6
		c-7.5-2.8,3.4-10.7,0.4-11.4c-1.7-0.4-6.2,1.1-7.4-0.1c-3.2-3.4,2.1-5-2.6-6.7c1.9-0.6,0.7-1.9-0.6-3.2c-0.8-0.9,1.8-2.2,0.6-3.6
		c-1.7-2-3.1,1.4-5.7,0.1c-2.6-1.4,2.9-4.4,4.1-5.6c1.6-1.5,2.2-2.3-0.6-4c-3.2-1.9-14.3,1.1-15.1-4.2c-0.9-5.4,12.2,1.4,14.8,1.1
		c3.5-0.5,8.2-1.7,7.2-5.4c-0.9-3.2-7.7-8.6-5.3-10.4c5.2-4,5.3,7.7,6.6,9.2c0.5,0.6,1,0,1.3-1.3c0.5-2-1.6-7.4,0.3-8.3
		c2-0.9,2.2,4.5,3.6,5.4c1,0.6,2,0.6,2.6-0.2c0.6-0.8-3.9-4.6,0.8-4.7c4.7,0,1.6,4.9,2.4,5.9c0.8,1.1,3.9,1.3,4.6-0.3
		c0.8-1.4-7.8-20.9-2.4-21.7c5.7-0.8,2.5,20.9,4.9,22.5c4.6,3,11-6.6,13.8-6.8c3.6-0.2-4.1,4-0.8,7.4c0.8,0.8,4.5-0.7,4.5,2.3
		c0,3-11.1,3.5-11.8,4.3c-0.9,1-0.1,1.9,2.1,3.1c1.3,0.7,4.7,0.3,5.2,2.3c0.5,2-4.1-0.4-4.4,0.6c-2,5.4,3.2,2.8,4.4,4.8
		c1.3,2.2-5.6,1.9-1.5,4.9c1.9,1.4,19.6-1.2,20.8,5.8c1.1,6.7-18.8-2.9-21-1.8c-2.2,0.9-3.1,2.5-2.9,5.1c0.2,2.6,5.8,9.9,2.9,11.7
		c-2.8,1.9-1.9-9.8-5.1-7.6c-3.1,2.2-3.6-1.8-4,0.5c-0.3,2-0.5,14.5-5.6,14.3c-4.9-0.1,5.6-12.2,3-14.2
		C332.7,175.6,329.6,176,328.8,178z"/>
	<path class="st8" d="M323.2,164.8c-0.1,0-20.1,6.9-24.7,7.8c-4.7,0.9-5.5,4.3-4,4.7c1.6,0.4,2.1-3.6,25.6-9.7
		C321.1,166.7,322.2,165.8,323.2,164.8z"/>
	<path class="st7" d="M299.4,212.2c-1.2-0.2-7.7,2.2-6.9-0.4c1.1-3.8,6.1-3.6,4.7-5.4c-1.8-2.2-10.8,3-11.1-1.1
		c-1-9.8,12.3,0.6,11.5-3.1c-0.4-2.1-4.1-7-3.5-8.7c1.9-4.8,6.1,1.1,5.6-4.9c1.6,2.2,2.3,0.4,3-1.5c0.6-1.1,3.2,1.6,4-0.1
		c1.2-2.6-3-3.5-2.9-7c0.1-3.6,6,2.6,7.8,3.9c2.3,1.6,3.5,2.3,3.9-1.5c0.6-4.2-8.1-17.7-2.8-19.7c5.5-1.9,4.3,15.7,5.9,18.8
		c2.2,4.3,5.5,9.9,8.9,8.2c3-1.4,5.8-10.4,8.9-7.4c6.5,6.3-6.1,7-7,8.9c-0.4,0.7,0.5,1.2,1.9,1.5c2.3,0.5,7.2-2.6,9-0.2
		c1.8,2.4-3.9,3-4.2,4.7c-0.2,1.3,0.2,2.4,1.3,3.2c1.1,0.7,3.3-5.1,5.2,0.7c1.9,5.8-4.4,2.2-5.2,3.2c-0.8,1.1,0.2,4.8,2.2,5.6
		c1.6,0.6,18.9-10,21.8-3c2.8,6.8-21.1,2.6-21.7,6c-1.2,5.6,10.9,12.9,12.1,16.3c1.5,4.2-5.5-4.8-7.8-0.7c-0.5,1,2.4,5.2-0.6,5.4
		c-2.9,0.2-7.7-12.8-8.7-13.5c-1.3-1-1.9,0.1-2.2,2.8c-0.2,1.6,1.6,5.6-0.3,6.3c-1.8,0.8-1.2-4.8-2.3-5c-6.2-1.6-1.5,4.1-3,5.7
		c-1.6,1.8-4.1-6.2-5.4-1c-0.5,2.5,8.7,22,2.4,24.2c-5.9,2.4-4.4-21.2-6.4-23.7c-1.8-2.4-3.7-3-6.2-2.2c-2.5,0.7-7.1,8.8-10.1,6
		c-3-2.7,8.7-4.6,5.2-7.6c-3.5-2.9,0.2-4.5-2.2-4.4c-2.2,0-14.2,3.5-16.4-2.1c-2.2-5.7,14.4,2.5,15.2-0.8
		C303.6,216,301.8,212.6,299.4,212.2z"/>
	<path class="st7" d="M310,202.5c0.2-0.1-16.5-22.4-20.1-27.9c-3.4-5.6-7.5-5.4-7-3.4c0.2,2.1,5.4,1.6,22.9,28.2
		C307.2,200.4,308.6,201.5,310,202.5z"/>
	<path class="st9" d="M256.2,231.9c-0.6,1.2-1.5,9.6-2.9,7.3c-2.1-3.3,0-8.7-1.7-8.1c-2.2,0.7-2.2,13.4-4.9,11.5
		c-6.6-4.5,5-13.1,2.4-14.3c-1.5-0.7-6.1,0.5-6.9-1.2c-2.3-4.9,3-6-1-9c2-0.4,1.1-2.3,0.2-4.2c-0.5-1.3,2.2-2.5,1.4-4.5
		c-1.2-2.9-3.3,1.2-5.5-1c-2.2-2.3,3.9-5.1,5.4-6.3c1.9-1.6,2.8-2.4,0.5-5.3c-2.6-3.3-14.3-1.7-13.6-9c0.8-7.4,11.5,4.9,14.2,5.1
		c3.6,0.2,8.5-0.1,8.7-4.9c0.2-4.2-4.5-12.9-1.5-14.5c6.6-3.3,2.3,11.1,3.1,13.3c0.3,0.9,1,0.2,1.7-1.2c1.2-2.2,1.1-9.5,3.3-10
		c2.3-0.5,0.5,6.2,1.5,7.6c0.7,1.1,1.7,1.3,2.6,0.5c0.9-0.7-2.1-6.7,2.5-5.2c4.6,1.5-0.3,6.2,0.1,7.7c0.4,1.6,3.3,2.7,4.6,1
		c1.1-1.3,0.7-26.9,6.6-25.7c5.7,1.3-6.6,24.6-4.5,27.4c3.3,4.7,13.1-3.9,15.9-2.9c3.5,1.1-5.6,2.9-3.6,7.8c0.5,1.1,4.6,0.7,3.4,4
		c-1.1,3.2-11.9,0.4-12.8,1.1c-1.2,0.8-0.7,2.2,1,4.1c1,1.1,4.4,1.7,4.2,4.1c-0.2,2.4-3.7-1.6-4.4-0.6c-3.6,5.7,2.2,4,2.7,6.6
		c0.6,2.8-5.8,0.7-2.9,5.2c1.4,1.9,18.6,3.8,17.7,11.7c-0.8,7.5-16.5-7.9-18.9-7.2c-2.3,0.5-3.5,2.1-4,5.2c-0.5,3.1,3.1,12.5,0,14.2
		c-3,1.7,0.3-11.8-3-9.8c-3.3,2.1-2.9-2.8-3.8-0.2c-0.8,2.4-3.3,17.2-7.8,16.4c-4.6-0.8,7.2-14,5.4-16.7
		C260.3,229.5,257.3,229.5,256.2,231.9z"/>
	<path class="st9" d="M254,214.7c-0.1-0.3-20.8,4.9-25.3,5.8c-4.7,0.5-6,5.2-4.7,5.8c1.5,1,2.6-5.2,26.3-8.8
		C251.5,216.5,252.7,215.6,254,214.7z"/>
	<path class="st4" d="M303.9,234.3c0.8,1,6.7,4.9,4.7,5.4c-2.9,0.8-6.3-3.1-6.4-1.2c0,2.3,9.3,6.9,7.1,8.8c-4.9,4.7-8.2-9.4-9.8-7.3
		c-0.9,1.2-1.1,6-2.5,6.3c-4,0.7-3.6-4.8-6.7-1.9c0.1-2.1-1.4-1.8-2.9-1.5c-1,0.1-1.3-2.9-2.9-2.8c-2.3,0.3,0.2,3.6-1.9,5.1
		c-2.1,1.5-2.8-5.3-3.4-7.1c-0.7-2.3-1.2-3.4-3.7-2c-2.8,1.6-3.9,13.6-8.8,10.9c-5-2.7,5.4-10.1,6.1-12.6c0.8-3.5,1.5-8.4-2-9.9
		c-3-1.3-10.1,1.2-10.7-2.2c-1.4-7.4,8.4,0.4,10.2,0.2c0.7-0.1,0.3-0.9-0.6-2c-1.4-1.8-6.8-3.5-6.8-5.8c0-2.4,4.6,1,5.8,0.4
		c0.9-0.5,1.3-1.3,0.8-2.5c-0.4-1.1-5.3,0.4-3.5-3.8c1.8-4.2,4.6,1.8,5.8,1.8c1.3,0,2.6-2.6,1.5-4.3c-0.8-1.6-20.1-7.2-18.5-12.6
		c1.8-5.5,17.8,12.1,20.1,10.9c4.1-2-0.9-14.1,0.1-16.7c1.3-3.3,1.5,6.3,5.5,5.7c0.9-0.1,1.2-4.4,3.6-2.4c2.3,2-1.6,12.1-1.2,13.2
		c0.4,1.4,1.5,1.3,3.3,0.2c1-0.7,2-3.9,3.8-3c1.8,0.9-1.8,3.3-1.2,4.2c3.7,5.3,3.5-1,5.5-0.7c2.2,0.3-0.5,6,3.4,4.5
		c1.7-0.7,6.3-17.7,12.2-14c5.7,3.6-9.1,14.1-9,16.8c-0.1,2.5,0.9,4.2,3.2,5.8c2.2,1.5,10.1,1.5,10.7,5.2c0.6,3.6-8.9-4.7-8.1-0.7
		c0.8,4-2.7,1.9-1,3.7c1.6,1.6,12.1,9.6,10.3,13.6c-1.7,4.1-8.7-12.3-11.1-11.4C303.2,229.4,302.5,232.3,303.9,234.3z"/>
	<path class="st4" d="M290.9,230.8c-0.1,0-1,21.8-1.6,26.5c-0.8,4.7,2,7.4,2.8,6.3c0.9-1.2-2.7-4.1,0-28.3
		C291.7,233.8,291.3,232.3,290.9,230.8z"/>
	<path class="st9" d="M279.7,177.7c0.3-0.9,0.1-6.3,1.3-5.2c1.8,1.6,0.9,5.4,2.1,4.7c1.4-0.8,0.3-8.8,2.5-8.1c5.2,1.7-2.5,9-0.4,9.4
		c1.1,0.2,4.3-1.3,5-0.4c2,2.7-1.6,4.2,1.4,5.5c-1.3,0.5-0.6,1.6,0.2,2.6c0.5,0.7-1.3,1.9-0.6,3c1,1.7,2.1-1.2,3.8-0.1
		c1.6,1.2-2.2,3.7-3.1,4.7c-1.1,1.2-1.6,1.9,0.1,3.4c1.9,1.6,9.3-0.5,9.3,4.2c0,4.6-7.5-2-9.3-1.6c-2.3,0.4-5.4,1.4-5,4.4
		c0.3,2.6,4.1,7.3,2.4,8.7c-3.6,3.1-2.5-6.5-3.3-7.7c-0.3-0.5-0.6,0-0.9,1c-0.5,1.6,0.4,6.1-0.9,6.8c-1.3,0.7-1-3.7-1.8-4.4
		c-0.6-0.5-1.2-0.5-1.7,0.2c-0.4,0.6,2.1,3.7-0.8,3.8c-2.9,0.1-0.6-3.9-1.1-4.7c-0.4-0.9-2.4-0.9-2.9,0.4
		c-0.4,1.1,3.2,16.5-0.2,17.2c-3.4,0.7,0.2-16.5-1.3-17.7c-2.8-2.1-7.3,5.9-9,6.2c-2.3,0.5,2.8-3.4,0.8-5.7c-0.5-0.5-2.9,1-2.8-1.3
		c0.1-2.3,7.2-3.8,7.7-4.4c0.6-0.8,0.1-1.5-1.3-2.2c-0.8-0.4-3,0.3-3.3-1.2c-0.2-1.5,2.6-0.2,2.9-0.9c1.4-4.4-2-1.8-2.8-3.2
		c-0.8-1.5,3.7-2.1,1.1-3.9c-1.3-0.9-12.9,3.7-13.7-1c-0.9-4.9,12.5-1.2,13.9-2.1c1.5-1,2-2.3,1.9-4.3c-0.1-2-4-6.7-2.1-8.6
		c1.9-1.9,1.5,7.2,3.5,5.1c2.1-2.1,2.4,0.9,2.7-0.9c0.3-1.6,0.2-11.4,3.7-12c3.4-0.6-3.7,10.4-2,11.6
		C277.1,180.1,279.2,179.4,279.7,177.7z"/>
	<path class="st9" d="M283.1,187.9c0-0.1,13.7-6.6,16.9-7.2c3.2-0.7,4-3.7,3-4c-1-0.2-1.8,2.7-17.7,8.8
		C284.6,186.3,283.9,187.1,283.1,187.9z"/>
	<path class="st8" d="M340.9,156.3c-0.2,0.8,0.2,5.9-1.2,4.7c-2-1.8-1.2-5.2-2.4-4.7c-1.5,0.6,0.1,8.2-2.3,7.2
		c-5.5-2.2,2.2-8.1,0-8.7c-1.2-0.3-4.5,0.8-5.3-0.2c-2.4-2.6,1.4-3.8-2-5.2c1.4-0.4,0.5-1.4-0.5-2.4c-0.6-0.7,1.2-1.7,0.4-2.7
		c-1.3-1.6-2.2,1-4.1-0.1c-1.9-1.1,2-3.3,2.9-4.1c1.1-1.1,1.6-1.7-0.5-3.1c-2.3-1.5-10.3,0.4-11-3.7c-0.7-4.1,8.8,1.5,10.8,1.4
		c2.5-0.3,5.9-1.1,5.2-3.9c-0.7-2.4-5.6-6.7-3.9-8c3.8-2.8,3.8,5.9,4.8,7.1c0.4,0.5,0.7,0,1-0.9c0.4-1.5-1.2-5.6,0.2-6.2
		c1.4-0.6,1.6,3.4,2.6,4.1c0.7,0.5,1.4,0.5,1.9-0.1c0.4-0.6-2.8-3.5,0.5-3.4c3.4,0.1,1.2,3.7,1.7,4.5c0.6,0.9,2.8,1,3.3-0.1
		c0.5-1-5.6-15.7-1.7-16.1c4.1-0.4,1.7,15.5,3.5,16.8c3.3,2.3,7.9-4.7,9.9-4.8c2.6-0.1-3,2.9-0.5,5.4c0.6,0.6,3.2-0.5,3.2,1.7
		c0,2.2-8,2.5-8.4,3c-0.6,0.7,0,1.4,1.6,2.3c0.9,0.5,3.4,0.3,3.8,1.8c0.3,1.5-2.9-0.3-3.2,0.4c-1.4,4,2.4,2.1,3.2,3.6
		c1,1.6-4,1.3-1,3.6c1.4,1,14.1-0.8,15.1,4.3c0.9,4.9-13.5-2.1-15.1-1.3c-1.6,0.7-2.1,1.8-2,3.8c0.2,2,4.4,7.3,2.4,8.7
		c-2,1.4-1.6-7.3-3.8-5.7c-2.2,1.7-2.6-1.3-2.9,0.3c-0.2,1.5,0,10.9-3.6,10.7c-3.5,0,3.7-9.2,1.8-10.7
		C343.7,154.5,341.4,154.8,340.9,156.3z"/>
	<path class="st8" d="M336.6,146.4c0,0-14.4,4.9-17.7,5.5c-3.4,0.6-3.9,3.2-2.8,3.5c1.2,0.3,1.5-2.7,18.3-7
		C335.1,147.7,335.9,147,336.6,146.4z"/>
	<path class="st8" d="M292.3,102c1-0.9,5.7-8.6,5.9-5.7c0.4,4.3-3.8,8.4-2,8.8c2.1,0.5,7.9-11.8,9.5-8.4c3.6,8-10.2,9.7-8.4,12.4
		c1,1.5,5.5,2.8,5.5,5c0,5.9-4.9,4-2.7,9c-1.8-0.7-1.8,1.5-1.7,3.8c0,1.5-2.8,1.1-2.8,3.4c0,3.3,3.3,0.7,4.4,4
		c1.1,3.3-5,2.5-6.7,2.8c-2.2,0.4-3.2,0.8-2.1,4.6c1.3,4.1,11.5,9.4,8.8,15.4c-2.7,6-8.2-10.7-10.5-12.1c-3.1-2-7.6-3.9-9.1,0.4
		c-1.4,3.8,0.6,13.8-2.5,13.9c-6.8,0.3,0.7-11.1,0.7-13.5c0-0.9-0.8-0.6-1.9,0.4c-1.7,1.6-3.5,8.4-5.6,8c-2.2-0.4,1.1-5.9,0.6-7.6
		c-0.4-1.3-1.2-1.9-2.3-1.4c-1,0.4,0.3,7-3.7,4.1c-4-2.9,1.8-5.8,1.9-7.3c0.1-1.7-2.4-3.7-4.1-2.5c-1.7,1-7,25.1-12.1,22.5
		c-5.5-2.6,11.4-21.6,10.5-24.8c-1.9-5.7-14,0.2-16.6-1.1c-3.3-1.7,6.3-1.7,5.6-6.8c-0.2-1.2-4.5-1.7-2.5-4.6
		c2.1-3,12.3,2.4,13.3,2.1c1.4-0.4,1.4-1.9,0.2-4.3c-0.7-1.4-4-2.9-3-5.1c1-2.3,3.3,2.5,4.3,1.8c5.5-4.4-0.9-4.6-0.6-7.2
		c0.4-2.9,6.2,1.1,4.8-4.2c-0.5-2.6-18.6-8.6-14.8-16c4-7.6,15.3,11.6,17.8,11.9c2.6,0.2,4.4-0.9,6.1-3.8c1.7-2.9,2.2-13.5,6.1-14
		c3.8-0.6-5.6,11.6-1.3,10.9c4.2-0.7,1.7,3.9,3.7,1.7c1.7-1.9,11.1-15.6,15-12.6c3.8,2.9-13.5,10.4-12.8,13.9
		C287.4,102.4,290.2,103.8,292.3,102z"/>
	<path class="st8" d="M287.6,119.6c0.2-0.2,20.2,6,23.8,8.9c3.9,2.7,6.6-0.4,5.8-2c-1.1-1.4-3.1,1.5-25.2-7.8
		C290.5,119,289,119.3,287.6,119.6z"/>
	<path class="st3" d="M255.6,168.2c1,0.2,8-1.2,6.3,1c-2.6,3.1-7.1,2.5-6.5,4.2c0.7,2,11.2-1.4,9.9,2.1c-3.2,8.2-11.1-1.8-11.9,1.4
		c-0.5,1.8,0.9,6.3-0.5,7.7c-3.7,3.9-5-1.4-7.1,3.7c-0.5-1.9-1.9-0.4-3.3,1.1c-1,0.9-2.2-1.5-3.6-0.1c-2.2,2.1,1.2,3-0.3,6
		c-1.6,3-4.3-2.3-5.3-3.4c-1.4-1.4-2.1-2-4.1,1.3c-2.2,3.7-0.1,14.9-5.6,16.7c-5.6,1.8,2.6-13.1,2.6-15.9c-0.2-3.6-0.8-8.5-4.4-6.8
		c-3.1,1.4-9.2,9.5-10.6,7.2c-3-5,7.9-6.8,9.5-8.4c0.6-0.7,0.1-1.1-1-1.2c-1.8-0.3-7.1,2.8-7.7,0.9c-0.5-2,4.5-3,5.4-4.6
		c0.7-1.2,0.8-2.2,0.2-2.8c-0.6-0.5-4.8,4.9-4.1-0.2c0.7-5.1,4.6-2.4,5.7-3.4c1.2-1,1.7-4.4,0.4-4.9c-1.2-0.7-19.7,11.1-19.1,5.3
		c0.3-6.2,18.2-5.2,20.2-8.1c3.2-5.3-4-11.1-3.6-14.1c0.5-3.9,2.6,4,6.1,0c0.8-0.9,0.1-4.8,2.7-5.1c2.5-0.3,1.4,11.5,2,12.1
		c0.7,0.8,1.7-0.2,3-2.7c0.8-1.4,0.9-5.1,2.7-5.8c1.9-0.7-0.8,4.3,0,4.6c4.7,1.4,2.9-3.8,4.8-5.3c2.1-1.6,1.1,5.6,4.3,1
		c1.4-2.1,1-20.5,7.4-22.4c6.1-1.9-4.4,19.9-3.6,22.1c0.7,2.2,2.1,2.9,4.6,2.3c2.5-0.5,9.9-7.3,11.6-4.5c1.7,2.7-9.8,3.3-7.8,6.2
		c2,2.9-2,3.9,0.2,4.1c1.9,0,14.6-1.6,14.3,3.6c-0.3,5.1-12.4-3.9-14.4-1C253.3,164.5,253.5,167.7,255.6,168.2z"/>
	<path class="st3" d="M242,176c-0.2,0.1,5.6,20,6.6,24.7c0.8,4.8,4.5,5.1,4.9,3.4c0.6-1.8-4.2-1.7-9-25.2
		C243.7,177.9,242.8,176.9,242,176z"/>
	<path class="st4" d="M271.7,99.9c0.7-0.6,2.9-5,3.6-3.5c1,2.3-1.6,4.8-0.2,4.9c1.7,0.1,4.3-7,6.1-5.3c4.2,3.9-6.5,6-4.6,7.3
		c1,0.7,4.7,1.1,5.1,2.2c0.9,3.2-3.3,2.7-0.8,5.2c-1.6-0.2-1.2,1-0.8,2.3c0.2,0.8-2,1-1.8,2.2c0.4,1.9,2.6,0,3.9,1.7
		c1.3,1.7-3.6,2-4.8,2.4c-1.6,0.5-2.3,0.8-1,2.9c1.5,2.3,10,3.9,8.6,7.8c-1.3,3.9-7.6-5.1-9.5-5.7c-2.6-0.8-6.1-1.5-6.7,1.2
		c-0.5,2.4,2.2,8.2,0,8.6c-4.8,0.9-0.9-6.8-1.3-8.2c-0.2-0.6-0.7-0.3-1.3,0.4c-1,1.1-1.4,5.4-3,5.3c-1.6,0,0-3.7-0.6-4.6
		c-0.5-0.7-1.1-1-1.8-0.7c-0.7,0.3,1.1,4.2-2.1,2.8c-3.2-1.5,0.5-3.6,0.4-4.6c-0.2-1-2.2-2-3.2-1.2c-1.1,0.6-1.5,15.8-5.3,14.6
		c-4.1-1.3,4.9-14.1,3.9-15.9c-2.1-3.3-9.6,0.9-11.6,0.2c-2.5-0.9,4.1-1.3,2.9-4.4c-0.3-0.7-3.3-0.8-2.3-2.7c1-1.9,8.8,0.9,9.4,0.7
		c0.9-0.3,0.7-1.2-0.4-2.6c-0.6-0.8-3.1-1.5-2.8-2.9c0.4-1.4,2.6,1.4,3.2,0.9c3.2-2.9-1.3-2.7-1.4-4.2c-0.1-1.7,4.5,0.4,2.7-2.7
		c-0.8-1.4-14-4.5-12.4-9.1c1.5-4.5,12.1,6.6,14,6.6c1.9,0,3-0.7,3.8-2.5c0.8-1.7-0.5-7.8,2.2-8.2c2.7-0.5-2.2,6.8,0.8,6.2
		c2.9-0.6,1.8,2.1,3,0.8c0.9-1.2,5.7-9.1,9.2-7.7c3.4,1.3-8.5,6.3-7.4,8.3C268.1,100.4,270.4,101,271.7,99.9z"/>
	<path class="st4" d="M270.7,110.1c0,0,16.3,1.4,19.9,2.3c3.6,0.9,5.5-1.2,4.6-1.9c-0.9-0.7-3,1.7-21.3-1.2
		C272.8,109.5,271.8,109.8,270.7,110.1z"/>
	<path class="st8" d="M319.7,123.5c0.7,0.6,6.6,2.8,4.5,3.3c-3.1,0.8-6.3-1.4-6.4-0.1c-0.2,1.6,9.1,3.7,6.8,5.3
		c-5.5,3.8-7.8-5.5-9.5-3.9c-1,1-1.6,4.4-3,4.8c-4.1,1.2-3.1-2.8-6.4-0.1c0.3-1.5-1.2-1-2.7-0.4c-1,0.3-1-1.8-2.5-1.4
		c-2.2,0.7-0.2,2.6-2.3,4.2c-2.1,1.6-2.1-3.1-2.4-4.4c-0.5-1.5-0.8-2.3-3.2-0.5c-2.6,2-5.2,11.2-9.2,10.9c-4.1-0.5,6.1-9.5,6.9-11.4
		c1-2.8,2-6.7-1-7c-2.6-0.3-8.9,3.8-9.1,1.4c-0.7-5.4,7.2-2.1,8.8-2.7c0.6-0.2,0.4-0.8-0.4-1.4c-1.2-1-5.7-0.8-5.6-2.7
		c0.1-1.8,3.9-0.4,5-1.2c0.8-0.6,1.1-1.3,0.8-2.1c-0.3-0.7-4.6,1.7-2.9-2c1.7-3.7,3.9,0.3,4.9,0c1.1-0.3,2.3-2.6,1.4-3.7
		c-0.9-1.2-16.8-0.6-15.3-5.3c1.3-4.9,14.6,5,16.8,3.6c3.7-2.4-0.9-10.7-0.1-13c1-2.8,1.4,4.7,4.9,3.4c0.8-0.3,0.9-3.7,3-2.5
		c2.1,1.2-1,9.6-0.8,10.3c0.4,1,1.4,0.7,2.9-0.5c0.9-0.7,1.8-3.3,3.4-2.9c1.6,0.4-1.6,2.8-1,3.4c3.4,3.4,3.2-1.3,5-1.4
		c2.1-0.1-0.4,4.6,3.3,2.9c1.8-0.7,5.1-14.1,10.8-11.8c5.7,2.2-7.7,11.4-7.7,13.5c0,1.9,0.9,3,3.1,3.9c2.1,0.8,10,0.2,10.7,2.9
		c0.6,2.5-8.9-2.8-8.1,0.1c0.8,2.8-2.7,1.6-1,2.8c1.5,0.9,12.2,5.9,10.3,8.8c-1.9,2.9-8.6-8-11.1-7.1
		C319.1,120.1,318.3,122.3,319.7,123.5z"/>
	<path class="st8" d="M307,122.9c0.1,0.1-2.6,15.9-4.1,19.2c-1.4,3.5,0.9,4.7,1.9,3.7c0.9-1.1-1.4-2.1,3.2-20
		C307.7,124.9,307.3,123.9,307,122.9z"/>
	<path class="st7" d="M237.8,208.2c0,0.9,1.5,5.8,0.2,5.1c-1.9-1.1-2.1-4.8-2.9-3.9c-1,1.1,2,8.2,0,8.1c-4.8-0.2-0.3-9-2.1-8.7
		c-1,0.1-3.2,2.4-4.1,1.8c-2.4-1.8,0.2-4.3-2.7-4.5c1-0.9,0.1-1.6-0.9-2.3c-0.6-0.5,0.6-2.2-0.3-2.9c-1.3-1.1-1.5,1.9-3.3,1.5
		c-1.7-0.4,1-4.1,1.5-5.3c0.7-1.5,0.9-2.3-0.9-2.9c-2.1-0.8-8.1,4.4-9.3,0.5c-1.2-4,7.3-1.9,8.7-2.7c1.9-1.2,4.4-3.2,3.4-5.7
		c-0.9-2.2-5.3-4.9-4.1-6.8c2.5-4.2,3.8,4.8,4.7,5.6c0.4,0.3,0.6-0.2,0.6-1.2c0.1-1.6-1.7-5.3-0.7-6.4c1-1.1,1.7,3,2.5,3.3
		c0.6,0.3,1.2,0.1,1.4-0.7c0.2-0.7-2.7-2.7-0.1-3.6c2.6-0.9,1.4,3.3,2,4c0.6,0.7,2.3,0.2,2.5-1.2c0.2-1.1-6.3-14.1-3.3-15.6
		c3-1.5,3.1,15,4.8,15.7c2.8,1.3,5.2-6.8,6.7-7.4c1.9-0.7-1.8,3.6,0.4,5.4c0.5,0.4,2.3-1.3,2.7,0.9c0.4,2.1-5.5,4.5-5.8,5.2
		c-0.4,0.9,0.2,1.4,1.5,1.8c0.8,0.2,2.6-0.7,3.1,0.7c0.5,1.4-2.2,0.5-2.3,1.3c-0.3,4.3,2.1,1.4,3,2.6c1,1.3-2.7,2.4-0.1,3.8
		c1.3,0.5,10.1-4.6,11.7,0.2c1.7,4.5-10.1,1.5-11.2,2.8c-1,1.1-1.2,2.4-0.7,4.3c0.5,1.9,4.8,5.9,3.6,7.9c-1.2,2-2.8-6.7-4.1-4.4
		c-1.2,2.3-2.2-0.5-2.1,1.2c0.2,1.6,2.5,10.8-0.1,11.9c-2.7,1.1,0.5-10.4-1.2-11.3C239.4,205.5,237.8,206.5,237.8,208.2z"/>
	<path class="st7" d="M232.4,199.7c0-0.1-10.1,10.1-12.6,12.2c-2.6,2-2.4,4.9-1.4,4.7c1,0,0.7-3.7,12.7-14.1
		C231.5,201.6,232,200.6,232.4,199.7z"/>
	<path class="st5" d="M270.6,156.8c0.5,0.5,4.8,1.1,3.3,2.5c-2.1,2.1-4.5,0.3-4.5,1.9c0,2,6.6,1.7,5,4.4c-3.6,6.4-5.7-4.5-6.9-1.9
		c-0.6,1.4-0.8,5.8-1.9,6.6c-2.8,2.4-2.4-2.7-4.6,1.3c0.1-1.9-0.9-0.9-2,0c-0.7,0.5-0.8-2-1.9-1.2c-1.5,1.2,0.1,3.1-1.4,5.3
		c-1.4,2.2-1.7-3.5-2.1-4.8c-0.4-1.7-0.7-2.5-2.4-0.2c-1.8,2.5-2.9,13.4-5.9,13.1c-3.1-0.4,3.7-11,4.2-13.4c0.5-3.3,1-7.9-1.2-7.8
		c-1.9,0.1-6.3,4.9-6.7,2.3c-0.9-5.8,5.2-2.8,6.3-3.7c0.4-0.3,0.2-0.9-0.4-1.5c-0.9-0.9-4.3-0.3-4.3-2.3c0-2,2.9-0.9,3.6-1.9
		c0.6-0.8,0.8-1.6,0.5-2.4c-0.3-0.7-3.3,2.4-2.2-1.8c1.1-4.2,2.9-0.2,3.7-0.7c0.8-0.5,1.6-3.2,0.9-4.2c-0.7-0.9-12.6,1.6-11.7-3.6
		c0.8-5.2,11.2,3.5,12.7,1.6c2.6-3.4-1-11.4-0.5-13.9c0.7-3.2,1.2,4.6,3.8,2.5c0.6-0.5,0.6-4.1,2.2-3.4c1.6,0.7-0.6,10.6-0.3,11.4
		c0.3,1,1,0.5,2.2-1.2c0.7-1,1.2-4.1,2.5-4.1c1.2,0-1.1,3.5-0.7,4c2.6,2.9,2.3-2.3,3.7-3c1.5-0.7-0.2,5.3,2.4,2.3
		c1.2-1.4,3.7-17.5,8-17.2c4.2,0.2-5.9,15.9-5.8,18.1c0,2.1,0.7,3.1,2.3,3.4c1.6,0.3,7.2-3.5,7.7-0.7c0.5,2.8-6.4,0.2-5.8,3.3
		c0.6,3.1-1.9,2.9-0.7,3.6c1.1,0.6,8.8,2.5,7.5,6.9c-1.2,4.4-6.3-6.6-8-4.6C270,153,269.5,155.8,270.6,156.8z"/>
	<path class="st5" d="M261.5,159.6c0,0-0.9,19.4-1.6,23.9c-0.7,4.5,1.1,5.7,1.7,4.4c0.6-1.4-1.5-2.6,0.7-24.9
		C262.1,161.9,261.8,160.7,261.5,159.6z"/>
	<path class="st6" d="M306.3,119.3c-0.2-0.9-3.4-5.1-1.4-5.1c2.9,0,4,3.7,4.9,2.3c1.1-1.7-4.7-7.3-1.9-8.3c6.7-2.4,2.5,9.1,4.9,7.9
		c1.3-0.7,4-4.2,5.3-3.9c3.8,0.7,0.6,4.5,4.7,3.4c-1.2,1.4,0.3,1.7,1.7,2c0.9,0.3-0.4,2.5,1,2.9c2.1,0.6,1.8-2.6,4.3-2.8
		c2.5-0.2-0.5,4.6-1,6c-0.6,1.8-0.8,2.7,1.9,2.6c3-0.1,10.6-7.2,13.1-3.4c2.5,3.8-10,3.9-11.9,5.5c-2.5,2-5.5,5-3.6,7.1
		c1.7,1.8,8.4,3,7.2,5.3c-2.7,5.1-6.2-3.4-7.7-3.9c-0.6-0.2-0.7,0.5-0.6,1.5c0.3,1.6,3.5,4.6,2.3,6.1c-1.1,1.5-3-2.3-4.2-2.2
		c-0.9,0-1.6,0.4-1.8,1.3c-0.2,0.8,4.2,1.5,0.9,3.6c-3.3,2.1-2.6-2.6-3.5-3c-1-0.4-3.2,1-3.2,2.4c0,1.1,11.6,10.8,7.9,13.7
		c-3.7,2.8-7.5-13.1-9.9-13c-4.1,0.3-5.5,9.7-7.4,11.1c-2.4,1.9,1.6-4.6-1.7-5c-0.8-0.1-2.8,2.7-3.7,0.9c-0.9-1.8,6.3-8,6.5-8.8
		c0.3-1.1-0.6-1.3-2.5-0.8c-1.1,0.2-3.3,2.3-4.3,1.3c-1-1,2.8-1.9,2.7-2.7c-0.6-4.5-3.1,0-4.6-0.6c-1.6-0.6,3-4.2-0.8-3.9
		c-1.8,0.2-12.2,12-15.3,8.9c-3.2-3.2,12.7-9.8,13.9-11.5c1.1-1.8,1.1-3.3-0.1-4.8c-1.2-1.6-7.7-2.5-6.7-5.4c1-2.9,5.3,4.8,6.4,1.6
		c1.1-3.2,3.1-1,2.5-2.6c-0.6-1.5-6-9.3-2.6-12.3c3.4-2.9,1.8,11,4.3,10.8C304.7,123.1,306.7,121.1,306.3,119.3z"/>
	<path class="st6" d="M315.6,125c-0.1,0,11.8-15.1,15.2-18.1c3.3-3,2.4-5.9,1.1-5.4c-1.3,0.5-0.5,3.6-15.1,20
		C316.4,122.7,316,123.9,315.6,125z"/>
	<path class="st4" d="M307.1,194.8c0.7,0.1,4.5-1.1,3.9,0.4c-0.8,2.2-3.6,1.9-2.9,3.1c0.9,1.3,6.3-1.4,6.2,1
		c-0.1,5.7-6.8-0.8-6.6,1.4c0.1,1.2,1.9,4.2,1.5,5.2c-1.3,2.7-3.3-0.8-3.3,2.7c-0.7-1.3-1.2-0.3-1.7,0.8c-0.4,0.7-1.6-1-2.2,0
		c-0.8,1.5,1.5,2,1.2,4.1c-0.2,2.1-3.1-1.6-4-2.3c-1.2-1-1.8-1.3-2.2,0.9c-0.4,2.5,3.7,10.1,0.8,11.2c-2.9,1.1-1.7-8.9-2.5-10.7
		c-1.1-2.4-2.7-5.6-4.6-4.6c-1.6,0.9-3.3,6.2-4.9,4.6c-3.4-3.3,3.3-4.3,3.9-5.4c0.2-0.4-0.2-0.7-1-0.8c-1.2-0.2-3.9,1.8-4.9,0.5
		c-1-1.3,2.1-2,2.3-2.9c0.1-0.8-0.1-1.4-0.7-1.8c-0.6-0.3-1.8,3.2-2.8-0.1c-1-3.3,2.4-1.6,2.9-2.2c0.5-0.7-0.1-2.8-1.2-3.2
		c-1-0.4-10.3,7.2-12,3.5c-1.7-3.8,11.5-3.4,11.9-5.3c0.7-3.5-6.3-7-7.1-8.9c-0.9-2.5,3.3,2.5,4.4-0.2c0.3-0.6-1.5-3,0.2-3.3
		c1.7-0.3,4.6,7.3,5.2,7.7c0.8,0.5,1.1-0.1,1.3-1.8c0.1-1-0.9-3.3,0.1-3.8c1-0.5,0.7,2.8,1.4,3c3.6,0.8,0.9-2.5,1.7-3.6
		c1-1.1,2.4,3.6,3.2,0.5c0.4-1.5-5.4-13.2-1.7-14.8c3.7-1.5,2.9,13,4,14.4c1,1.4,2.1,1.8,3.6,1.3c1.5-0.4,4.4-5.2,6.1-3.5
		c1.7,1.7-5.3,2.6-3.3,4.5c2,1.8-0.2,2.7,1.2,2.7c1.2,0,8.5-1.7,9.5,1.7c1,3.4-8.3-2-8.9,0C304.8,192.5,305.7,194.6,307.1,194.8z"/>
	<path class="st4" d="M300.7,200.4c0,0,8.2,13.3,9.6,16.7c1.5,3.3,3.5,3.5,3.4,2.3c-0.1-1.2-2.3-1.3-10.8-17.1
		C302.2,201.7,301.5,201.1,300.7,200.4z"/>
	<path class="st7" d="M313,169.6c-0.1-1-3-6.6-1.1-5.8c2.8,1.2,3.6,5.4,4.5,4.4c1.2-1.3-4.1-9.4-1.4-9.3c6.4,0.2,1.9,10.3,4.2,10
		c1.3-0.1,3.9-2.7,5.1-1.9c3.5,2.2,0.4,5,4.2,5.4c-1.2,1,0.2,1.9,1.5,2.8c0.8,0.7-0.5,2.5,0.8,3.4c1.9,1.5,1.7-2,4.1-1.3
		c2.4,0.7-0.7,4.7-1.2,6c-0.7,1.7-0.9,2.6,1.6,3.6c2.8,1.2,10.1-3.8,12.2,1.3c2.1,5.1-9.4,0.5-11.2,1.4c-2.4,1.2-5.4,3.1-3.7,6.2
		c1.4,2.7,7.6,6.7,6.2,8.7c-2.9,4.4-5.4-6.3-6.8-7.4c-0.5-0.4-0.7,0.2-0.6,1.4c0.1,1.8,2.9,6.4,1.7,7.6c-1.2,1.1-2.6-3.7-3.7-4.2
		c-0.8-0.4-1.5-0.2-1.8,0.7c-0.2,0.8,3.8,3.4,0.5,4.2c-3.3,0.8-2.2-4-3-4.8c-0.8-0.8-3-0.4-3.1,1.1c0,1.2,9.7,17,5.9,18.4
		c-3.6,1.4-5.5-17.7-7.8-18.6c-3.8-1.6-6,7.6-7.8,8.2c-2.4,0.8,1.9-4.1-1.1-6.2c-0.7-0.5-2.8,1.5-3.5-0.9c-0.7-2.4,6.5-5.2,6.8-6
		c0.4-1-0.4-1.6-2.2-2.1c-1-0.3-3.2,0.8-4.1-0.7c-0.9-1.5,2.8-0.6,2.8-1.5c-0.2-4.9-2.9-1.5-4.3-2.8c-1.5-1.4,3.1-2.9-0.5-4.3
		c-1.7-0.6-12.3,6-15.1,1.1c-2.9-4.8,12.8-3,14-4.4c1.2-1.3,1.2-2.8,0.2-4.9c-1-2.1-7.2-6.2-6.1-8.6c1.2-2.4,4.9,7.3,6.1,4.6
		c1.2-2.7,3,0.5,2.5-1.5c-0.4-1.8-5.2-12-1.9-13.5c3.4-1.5,1.3,11.8,3.6,12.7C311.3,172.8,313.2,171.6,313,169.6z"/>
	<path class="st7" d="M321.4,179.5c0,0.1,11.7-11.1,14.8-13.2c3.1-2,2.4-5.5,1.1-5.5c-1.3,0-0.4,4.1-14.7,15.4
		C322.2,177.3,321.8,178.4,321.4,179.5z"/>
	<path class="st6" d="M346.4,216.8c-0.3,0.7-0.7,5.5-1.6,4.3c-1.3-1.8-0.2-4.8-1.2-4.4c-1.2,0.5-1.1,7.6-2.8,6.6
		c-4-2.3,2.8-7.4,1.2-8c-0.9-0.3-3.5,0.5-4-0.4c-1.4-2.5,1.6-3.4-0.7-4.8c1.1-0.3,0.6-1.3,0-2.2c-0.3-0.7,1.2-1.5,0.7-2.5
		c-0.7-1.5-1.8,0.8-3.1-0.2c-1.2-1.1,2.1-2.9,2.9-3.6c1-0.9,1.5-1.5,0.2-2.8c-1.5-1.5-7.7,0-7.4-3.8c0.3-3.8,6.1,1.8,7.6,1.7
		c1.9-0.2,4.5-0.8,4.4-3.3c-0.1-2.2-2.9-6.3-1.4-7.4c3.2-2.5,1.7,5.6,2.3,6.6c0.2,0.4,0.5,0,0.8-0.8c0.5-1.3,0-5.1,1.2-5.7
		c1.1-0.5,0.6,3.2,1.2,3.8c0.4,0.5,1,0.5,1.4-0.1c0.4-0.5-1.5-3.3,0.9-3.1c2.5,0.2,0.3,3.4,0.6,4.1c0.3,0.8,1.9,1,2.5-0.1
		c0.5-0.9-1.7-14.4,1.2-14.7c3-0.3-1.1,14.1,0.1,15.3c2.1,2.1,6.6-4.2,8.1-4.2c1.9-0.1-2.6,2.6-1.2,4.9c0.3,0.6,2.5-0.4,2.2,1.6
		c-0.3,2-6.4,2.2-6.8,2.7c-0.6,0.6-0.2,1.3,0.9,2.1c0.6,0.5,2.5,0.2,2.6,1.6c0.1,1.4-2.2-0.3-2.4,0.4c-1.6,3.7,1.5,1.9,2,3.3
		c0.5,1.5-3.2,1.2-1.3,3.3c0.9,1,10.9-0.8,11,3.8c0.1,4.6-10.2-1.7-11.5-1.1c-1.3,0.6-1.9,1.7-2,3.5c-0.1,1.8,2.4,6.9,0.7,8.2
		c-1.7,1.3-0.3-6.9-2.2-5.4c-1.9,1.5-1.8-1.3-2.3,0.3c-0.4,1.4-1.4,10.1-4.2,9.9c-2.8-0.2,4-8.5,2.8-9.9
		C348.7,215.2,347,215.4,346.4,216.8z"/>
	<path class="st6" d="M344.6,207.5c0,0-11.7,3.9-14.3,4.3c-2.7,0.4-3.5,2.7-2.8,3c0.8,0.3,1.7-2.2,15.1-5.5
		C343.2,208.7,343.9,208.1,344.6,207.5z"/>
	<path class="st3" d="M169.9,113.6c1.2,0.1,1.5-2.5,0.1-2.3c-1.4,0.2-1.2,1.2-1.1,1.9C169,113.8,169.9,113.6,169.9,113.6z"/>
	<path class="st3" d="M175.6,114c-1-0.4-3.5,0.9-3.1-1c0.5-1.9,2.3-0.2,2.8,0.5C175.4,113.7,175.5,113.8,175.6,114z"/>
	<path class="st7" d="M201.2,241.2c-0.7,0.7-1.1,1.6-0.6,2.6c1-0.4,4.2-2.2,4.9-3.3C205.5,240.4,202.2,240.3,201.2,241.2z"/>
	<path class="st3" d="M192.1,67.1c-0.7-0.2-1.4-0.2-2-0.4c-1-0.3-2.4-0.5-2.8-1.5c0.7-0.7,2.3-0.4,3-0.3c0.8,0.2,2.3,1.1,2,2.1
		L192.1,67.1z"/>
	<path class="st3" d="M179.7,90.1c0.5-1.9,2.1,0,3.4,0.4C183.1,90.5,179.2,92.1,179.7,90.1z"/>
	<path class="st3" d="M179.1,101.2c-0.9,0.7-3.3,2-2.9,0.4C176.7,100,179.1,101.2,179.1,101.2z"/>
	<path class="st5" d="M196.4,78.7c-1.5,0.7-1.8,2.4-0.2,2.4C197.5,81,196.4,78.7,196.4,78.7z"/>
	<path class="st5" d="M191.5,83.7c0.8,0.2,2.2,2.8,0.5,2.7C190.3,86.2,191.5,83.7,191.5,83.7z"/>
	<path class="st5" d="M198.9,68.4c0.6-0.4,0.8,0.5,0.8,1c-0.2,0.2-0.2,1.2-0.7,0.4C199,69.8,197.8,69.2,198.9,68.4z"/>
	<path class="st5" d="M223.5,84.4c0.6-1.2,0.4-1.6,1.4-2.6c0.9-0.9,1.2-1.2,1.3-2.7c0-1.5-0.3-2.4-1.5-1.3c-1.3,1.2-2.3,4.2-2.2,6
		C222.4,83.7,222.8,85.7,223.5,84.4z"/>
	<path class="st5" d="M227.2,84.8c1.3,0.2,1.3-2.1-0.1-1.6c-0.1,0.5-0.1,1,0,1.4C227.1,84.7,227.2,84.7,227.2,84.8z"/>
	<path class="st5" d="M221.8,90.2c0-0.6-1.1-1.7,0-1.8C223,88.3,221.9,90.3,221.8,90.2z"/>
	<path class="st5" d="M248.7,91.9c1.2,0.3,1.3-2-0.1-1.6c-0.1,0.5-0.1,1,0,1.4C248.7,91.8,248.7,91.9,248.7,91.9z"/>
	<path class="st5" d="M246.2,103.8c0-0.5-1.1-1.6,0.1-1.6C247.4,102.2,246.3,103.9,246.2,103.8z"/>
	<path class="st5" d="M245.9,107.4c0.3-0.4,0.2-2.1,1-1.2C247.7,107.1,246,107.6,245.9,107.4z"/>
	<path class="st5" d="M238.1,92.4c1.3-0.7,2.6-1.6,3.8-2.5c0.9-0.6,3.1-2,3.3-3.1c-2.8,0.2-6.2,2.3-7.1,5.5L238.1,92.4z"/>
	<path class="st8" d="M383,126.6c-0.1,1.3,1.7,1.2,1.7-0.3c0-1.5-0.8-1.1-1.3-0.9C382.9,125.6,383,126.6,383,126.6z"/>
	<path class="st8" d="M382.4,132.6c0.4-1.2-0.4-3.6,0.9-3.4c1.4,0.2,0,2.4-0.6,3.1C382.6,132.4,382.5,132.5,382.4,132.6z"/>
	<defs>
		
			<filter id="Adobe_OpacityMaskFilter_00000123419037377406781950000000337869753617095602_" filterUnits="userSpaceOnUse" x="386.8" y="133.4" width="5.2" height="2.2">
			<feColorMatrix  type="matrix" values="1 0 0 0 0  0 1 0 0 0  0 0 1 0 0  0 0 0 1 0"/>
		</filter>
	</defs>
	
		<mask maskUnits="userSpaceOnUse" x="386.8" y="133.4" width="5.2" height="2.2" id="mask2_61_3851_00000103266854416037209220000002259285906958585229_">
		<path style="fill:#FFFFFF;filter:url(#Adobe_OpacityMaskFilter_00000123419037377406781950000000337869753617095602_);" d="
			M386.1,132.4h6.1v4h-6.1V132.4z"/>
	</mask>
	<g class="st11">
		<path class="st8" d="M391,133.6c0.7,0.4,1.2,1.1,0.9,2.1c-1-0.2-4.3-0.9-5.1-1.7C386.8,133.9,390,133,391,133.6z"/>
	</g>
	<path class="st4" d="M368.2,108.7c1.7,1.9-1.8,2.5-3.3,3.7C364.9,112.4,366.5,106.8,368.2,108.7z"/>
	<path class="st4" d="M356.4,122.4c0-1.5,0.7-5.3,2.1-3.7C359.9,120.3,356.4,122.4,356.4,122.4z"/>
	<path class="st4" d="M366.6,127.4c-0.8-0.7-1.8,0-1.3,1.2C365.8,129.5,366.6,127.4,366.6,127.4z"/>
	<path class="st4" d="M376.2,119.4c0.1,0.7-0.6,3-1.1,1.7C374.7,119.8,376.2,119.4,376.2,119.4z"/>
	<path class="st4" d="M369.7,117.9c0.8,0.3-0.1,1.7-0.5,2.1c-0.2-0.1-1.4,1-0.9-0.5C368.3,119.6,368.2,117.3,369.7,117.9z"/>
	<path class="st4" d="M368.4,136.1c1-0.7,1-1.3,2.2-1.6c1.2-0.3,1.6-0.4,2.2-1.9c0.5-1.4,0.5-2.6-1-2.3c-1.7,0.3-3.7,2.6-4.2,4.5
		C367.5,134.7,367.2,136.9,368.4,136.1z"/>
	<path class="st4" d="M371.6,139.9c1.2,1.1,2.1-1.4,0.5-1.9c-0.2,0.5-0.4,1-0.5,1.6C371.6,139.7,371.6,139.8,371.6,139.9z"/>
	<path class="st8" d="M380.5,124.1c0-0.6-1.3-2.1,0-2C381.8,122.2,380.6,124.1,380.5,124.1z"/>
	<path class="st8" d="M374.3,115.7c1.4-0.7,2.8-1.6,4.1-2.5c0.9-0.6,3.4-2,3.6-3.3c-3.1-0.2-6.7,1.8-7.7,5.6
		C374.3,115.6,374.3,115.6,374.3,115.7z"/>
	<path class="st7" d="M207.2,232.7c0-0.8-1-0.3-0.9,0.6c0.1,0.9,0.5,0.5,0.8,0.2C207.3,233.3,207.2,232.7,207.2,232.7z"/>
	<path class="st7" d="M207,228.7c-0.1,0.8,0.6,2.1-0.2,2.4c-0.8,0.2-0.2-1.5,0-2.1C206.9,228.9,206.9,228.8,207,228.7z"/>
	<path class="st6" d="M220.3,257.9c-0.7-0.1-1.2-0.7-1-2c0.9-0.3,3.8-0.8,4.6-0.2C223.9,255.7,221.3,258.1,220.3,257.9z"/>
	<path class="st6" d="M233.5,235.7c-0.2-1.7,0-6,1.3-4.6C236.1,232.5,233.4,235.7,233.5,235.7z"/>
	<path class="st6" d="M194.8,106.9c0.9-1,0.6-2.8-0.7-2.3C193.1,104.9,194.8,106.9,194.8,106.9z"/>
	<path class="st6" d="M197.1,101.6c-0.7,0-2.6-2-1.3-2.2C197.2,99.2,197.1,101.6,197.1,101.6z"/>
	<path class="st9" d="M186.1,116.1c0.5,1-1.3,1.2-2.1,1c-0.2-0.3-2.1-0.7-0.5-1.2C183.5,115.9,185.1,114.1,186.1,116.1z"/>
	<path class="st9" d="M178.2,134.5c0.6-0.3,1.2-2.5,2-0.7C181.1,135.7,178.3,134.8,178.2,134.5z"/>
	<path class="st6" d="M363.6,241.3c1.1-0.5,0.8-1.9-0.7-1.9C361.6,239.4,363.6,241.3,363.6,241.3z"/>
	<path class="st7" d="M352.6,248.7c-0.8-0.2-3.1-2.1-1.4-1.9C352.8,247,352.6,248.7,352.6,248.7z"/>
	<path class="st6" d="M370.6,246.4c-0.7,0.6-1.8-0.9-2.1-1.5c0.2-0.2-0.5-1.8,0.9-0.6C369.4,244.2,372,245.3,370.6,246.4z"/>
	<path class="st9" d="M249.3,260.3c-0.1,0.8,0.9,2.7-0.4,2.3C247.6,262.1,249.2,260.2,249.3,260.3z"/>
	<path class="st7" d="M384.6,227.4c-1.1-0.6-1.3,2.2,0,2.6c1.3,0.4,1.1-0.9,1-1.7C385.4,227.5,384.6,227.4,384.6,227.4z"/>
	<path class="st7" d="M379.5,224.8c1,0.8,3.2,0.3,2.8,2.3c-0.4,2-2-0.7-2.6-1.7C379.6,225.2,379.5,225,379.5,224.8z"/>
	<path class="st7" d="M381.3,205.2c1,0.3,1.6,0.9,1,1.7c-1.4-0.1-6.4-0.8-7.5-1.5C374.8,205.5,379.8,204.8,381.3,205.2z"/>
	<path class="st4" d="M331.8,254.2c-2.2,1.2-1.1-3.8-1.3-6.5C330.5,247.8,334,253.1,331.8,254.2z"/>
	<path class="st4" d="M334,236.9c1.2,0.8,3.7,4,1.9,4.9C334,242.7,334,236.9,334,236.9z"/>
	<path class="st4" d="M321.2,267c0.8-0.7,0.7-2.5-0.4-2.3C319.9,264.8,321.2,267,321.2,267z"/>
	<path class="st4" d="M325.5,234.3c-0.6-0.2-2-2.4-0.9-2.3C325.7,232,325.5,234.3,325.5,234.3z"/>
	<path class="st8" d="M206.1,101.4c0.7-0.3,0.7,1.5,0.5,2.2c-0.2,0.1-0.6,1.8-0.9,0.2C205.7,103.8,204.7,101.9,206.1,101.4z"/>
	<path class="st4" d="M300.1,257.7c0.3,1.7,0.7,1.9,0.6,3.8c-0.1,1.8-0.2,2.5,0.8,3.8c0.9,1.3,1.8,1.7,2.1-0.6
		c0.3-2.5-0.9-6.2-2.2-7.7C301.4,257,299.8,255.7,300.1,257.7z"/>
	<path class="st4" d="M278.9,243.8c-1.2,1.3,0.5,3.5,1.3,1.4c-0.3-0.5-0.7-1-1.1-1.3C279,243.9,279,243.8,278.9,243.8z"/>
	<path class="st4" d="M349.9,233.1c0.4,0.6,2.2,0.6,1.1,1.8C350,236.2,349.8,233.2,349.9,233.1z"/>
	<path class="st7" d="M362.2,218.8c0.3,2.6,1.1,5.2,1.9,7.6c0.6,1.7,1.5,6.2,3.6,6c1.6-6.4,0.4-13.3-5.2-13.7
		C362.4,218.8,362.3,218.8,362.2,218.8z"/>
	<path class="st6" d="M337.6,93.6c0.1,1.2,2,0.7,1.7-0.6c-0.3-1.4-1-0.8-1.5-0.5C337.4,92.7,337.6,93.6,337.6,93.6z"/>
	<path class="st6" d="M338.1,99.3c0.1-1.2-1.1-3.2,0.3-3.4c1.4-0.1,0.4,2.2,0,3C338.3,99,338.2,99.1,338.1,99.3z"/>
	<path class="st6" d="M345.8,103.6c0.7,0.4,1.2,1.1,0.8,2c-1-0.2-4.5-1-5.3-1.8C341.3,103.8,344.7,103.1,345.8,103.6z"/>
	<path class="st8" d="M303.4,83c2.4,0.4-0.3,3.2-0.9,5.2C302.5,88.2,301.1,82.7,303.4,83z"/>
	<path class="st8" d="M297.9,94.2c-0.8-1.2-2-4.6-0.1-4.3C299.7,90.2,297.9,94.2,297.9,94.2z"/>
	<path class="st8" d="M315.7,99.4c-1,0-1.5,1.2-0.5,1.8C316,101.6,315.7,99.4,315.7,99.4z"/>
	<path class="st8" d="M312.1,101.1c0.4,0.4,0.9,2.8,0,2.1C311.1,102.5,312.1,101.1,312.1,101.1z"/>
	<path class="st8" d="M313.5,89.7c0.8-0.2,0.8,1.4,0.6,2c-0.2,0.1-0.6,1.7-0.9,0.2C313.2,92,312,90.2,313.5,89.7z"/>
	<path class="st6" d="M334.4,99.1c1.5,0.2,1.1-2.4-0.5-1.9c0,0.5,0.1,1.1,0.3,1.6C334.3,98.9,334.3,99,334.4,99.1z"/>
	<path class="st4" d="M359.2,101.9c-0.1-2.6,0.9-8.9,3.4-6.2C365.1,98.4,359.2,101.9,359.2,101.9z"/>
	<path class="st6" d="M345.4,78.9c-0.4,2,3,2.1,3.2-0.2c0.2-2.3-1.3-1.8-2.3-1.6C345.4,77.3,345.4,78.9,345.4,78.9z"/>
	<path class="st6" d="M346.8,92c0.8-1.8-0.3-5.7,2.2-5.2c2.5,0.6-0.4,3.7-1.5,4.8C347.3,91.7,347,91.8,346.8,92z"/>
	<path class="st6" d="M320.9,64.9c0.1-1.5,0.8-2.7,2.4-2.3c0.4,1.9,1.2,8.6,0.5,10.5C323.8,73,320.8,67,320.9,64.9z"/>
	<path class="st6" d="M329.6,89.6c2.6,0.2,1.7-4.2-0.9-3.1c0.1,0.9,0.2,1.8,0.6,2.7C329.4,89.3,329.5,89.4,329.6,89.6z"/>
	<path class="st6" d="M321,88.4c-0.2-0.6-1.7-1.6-0.3-1.9C322,86.3,321.1,88.4,321,88.4z"/>
	<path class="st6" d="M173.2,135.2c-0.4,0.9,1.5,1.6,1.8,0.5c0.3-1.1-0.6-1.2-1.1-1.2C173.3,134.5,173.2,135.2,173.2,135.2z"/>
	<defs>
		
			<filter id="Adobe_OpacityMaskFilter_00000143579460954128685030000008876602045503976101_" filterUnits="userSpaceOnUse" x="168.6" y="143" width="2.6" height="2.4">
			<feColorMatrix  type="matrix" values="1 0 0 0 0  0 1 0 0 0  0 0 1 0 0  0 0 0 1 0"/>
		</filter>
	</defs>
	
		<mask maskUnits="userSpaceOnUse" x="168.6" y="143" width="2.6" height="2.4" id="mask3_61_3851_00000131340171915247712280000012123674506806986125_">
		<path style="fill:#FFFFFF;filter:url(#Adobe_OpacityMaskFilter_00000143579460954128685030000008876602045503976101_);" d="
			M168.2,141.7h3.2v4h-3.2V141.7z"/>
	</mask>
	<g class="st13">
		<path class="st6" d="M171.1,145.4c-0.9-0.7-2.9-0.6-2.5-2c0.4-1.4,1.8,0.7,2.3,1.5C171,145.1,171.1,145.3,171.1,145.4z"/>
	</g>
	<path class="st5" d="M262.6,77.5c2.1,0.6,2.4-3.1-0.1-2.7c-0.1,0.8-0.2,1.6-0.1,2.3C262.5,77.2,262.5,77.4,262.6,77.5z"/>
	<path class="st5" d="M209,76.2c0.4-0.7-0.4-3.1,1.5-2.2C212.4,74.9,209.2,76.4,209,76.2z"/>
	<path class="st5" d="M227.2,65.8c0.5-0.7,0.3-3.4,1.7-2C230.3,65.2,227.3,66,227.2,65.8z"/>
	<path class="st6" d="M275.9,69.6c1.7-1.4,1.1-4.3-1.2-3.6C272.8,66.5,275.9,69.6,275.9,69.6z"/>
	<path class="st6" d="M280.2,61.4c-1.3-0.1-4.8-3.3-2.3-3.5C280.5,57.7,280.2,61.4,280.2,61.4z"/>
	<path class="st9" d="M290.1,82.7c-1,1.5-2.8-1.3-3.2-2.6c0.2-0.5-0.8-3.8,1.4-1.7C288.2,78.4,292.2,79.7,290.1,82.7z"/>
	<path class="st9" d="M203.1,92.8c0.8,0.8,4.2,0.1,2.4,2.7C203.7,98,202.8,93,203.1,92.8z"/>
	<path class="st8" d="M297,61.8c1.4-0.3,1.2,2.3,0.8,3.4c-0.4,0.2-1.3,2.7-1.6,0.2C296.3,65.5,294.4,62.5,297,61.8z"/>
	<path class="st6" d="M264.7,86.3c-1.6,0-1,3.3,0.8,2.9c1.8-0.3,1.1-1.6,0.7-2.5C265.8,85.9,264.7,86.3,264.7,86.3z"/>
	<path class="st6" d="M259,87.5c0.3-1.8-1.5-4.9,0.8-5.3c2.3-0.4,0.4,3.4-0.3,4.7C259.3,87.1,259.1,87.3,259,87.5z"/>
	<path class="st5" d="M197,222.8c0.3-1.1-1.5-1.2-1.3,0.1c0.4,0.1,0.7,0.1,1.1,0C196.9,222.8,196.9,222.8,197,222.8z"/>
	<path class="st5" d="M206.2,225c-0.4,0-1.3,0.9-1.3-0.1C205,223.9,206.3,224.9,206.2,225z"/>
	<path class="st5" d="M209,225.2c-0.3-0.3-1.6-0.2-0.9-0.9C208.8,223.6,209.1,225.2,209,225.2z"/>
	<path class="st5" d="M202.6,209.7c0.3-1.2,0.4-2.6,0.6-3.9c0.1-0.9,0.5-3.1,0-3.9C201.9,203.8,201.2,207.1,202.6,209.7L202.6,209.7
		z"/>
	<path class="st8" d="M190,175.4c0.3-2.1,2.5,0.2,4,0.8C194,176.2,189.7,177.5,190,175.4z"/>
	<path class="st8" d="M195.3,166.7c-0.2-0.7,1.1-0.7,1.6-0.5c0.1,0.2,1.3,0.5,0.2,0.8C197,166.9,195.6,168,195.3,166.7z"/>
	<path class="st6" d="M175.9,160.3c-1.2-0.1-2.1-0.7-1.8-2c1.5-0.3,6.7-1,8.1-0.4C182.3,157.8,177.6,160.4,175.9,160.3z"/>
	<path class="st6" d="M194.2,160.2c-0.5,0.1-1.2,1.5-1.4,0.3C192.6,159.3,194.2,160.1,194.2,160.2z"/>
	<path class="st5" d="M185.7,210.8c0.5-1.8-2.4-2.1-2.1,0.1c0.6,0.1,1.2,0.2,1.8,0.1C185.5,210.9,185.6,210.9,185.7,210.8z"/>
	<path class="st6" d="M179.6,199.3c-1.1-1.4-3.3-1-2.8,1.1C177.2,202,179.6,199.2,179.6,199.3z"/>
	<path class="st6" d="M173.2,195.5c-0.1,1.1-2.6,4.2-2.7,2C170.3,195.3,173.2,195.5,173.2,195.5z"/>
	<path class="st9" d="M189.8,187c1.2,0.9-1,2.4-2,2.8c-0.4-0.2-2.9,0.6-1.3-1.2C186.4,188.6,187.5,185.2,189.8,187z"/>
	<path class="st8" d="M173.5,181c-0.2-1.2,1.8-1,2.7-0.7c0.1,0.3,2.1,1.1,0.2,1.4C176.4,181.6,174,183.3,173.5,181z"/>
	<path class="st6" d="M192.6,209c0,1.3,2.5,0.8,2.3-0.7c-0.3-1.5-1.3-0.9-1.9-0.6C192.3,208,192.6,209,192.6,209z"/>
	<path class="st6" d="M193.5,213.9c-1.4-0.3-3.8,1.3-4.1-0.7c-0.3-2,2.6-0.4,3.6,0.2C193.2,213.6,193.4,213.8,193.5,213.9z"/>
	<path class="st4" d="M318.8,273.9c0.4,0.6,0.9,3.5,0,2.6C317.9,275.6,318.8,273.9,318.8,273.9z"/>
	<path class="st9" d="M258.8,275.7c-0.5,1.4-1.2,2.1-2.1,1.3c0.2-1.9,1.4-8.4,2.3-9.8C259.1,267.2,259.5,273.8,258.8,275.7z"/>
	<path class="st4" d="M312.2,251.1c-0.9-2.1-2.7,0.5-1.2,2.1c0.4-0.5,0.8-1,1.1-1.7C312.1,251.3,312.1,251.2,312.2,251.1z"/>
	<path class="st4" d="M277.7,262.4c-1.5,0.3-2.1,3-0.5,3.8C278.5,266.9,277.7,262.4,277.7,262.4z"/>
	<path class="st4" d="M272.5,267c0.7,0.8,1.8,5.5,0.2,4.3C271.2,270.2,272.5,267,272.5,267z"/>
	<path class="st9" d="M300.4,273.9c1.2-0.7,1.3,2.7,1.1,4.1c-0.3,0.3-0.8,3.6-1.4,0.6C300.2,278.6,298.2,275.3,300.4,273.9z"/>
	<path class="st9" d="M311.7,269.5c-0.2-1.2-2.7-3-0.6-3.8C313.2,264.9,312,269.5,311.7,269.5z"/>
	<path class="st9" d="M268,260.2c-1-0.3-0.1-2.6,0.5-3.4c0.3,0,1.6-1.8,1.1,0.6C269.6,257.3,269.8,260.9,268,260.2z"/>
	<path class="st7" d="M341.9,251.1c0.6,1.4,3.9,3.2,1.9,3.9c-2,0.8-2.1-2.3-2.1-3.4C341.7,251.5,341.8,251.3,341.9,251.1z"/>
	<path class="st7" d="M197.3,233.1c-0.3,1.3-0.3,2.4,0.6,2.8c0.7-1.4,2.9-6.2,3.1-7.9C200.9,227.9,197.7,231.3,197.3,233.1z"/>
	<path class="st6" d="M240.9,247.6c-1,2.1-0.1,5,1.6,3.7C243.7,250.2,240.9,247.6,240.9,247.6z"/>
	<path class="st6" d="M239.1,257.9c1-0.3,4.1,2.2,2.3,3.2C239.6,262.1,239.1,257.9,239.1,257.9z"/>
	<path class="st6" d="M225,233.7c0.7-0.1,0.5-1.6-0.3-1.1c0,0.3,0.1,0.7,0.2,1L225,233.7z"/>
	<path class="st6" d="M233.3,247.9c0.8-0.1,0.5-1.6-0.3-1.1c0,0.3,0.1,0.7,0.2,1L233.3,247.9z"/>
	<path class="st6" d="M251.8,249.1c0.7-0.1,0.5-1.6-0.3-1.1c0,0.3,0.1,0.7,0.2,1L251.8,249.1z"/>
	<path class="st8" d="M385,152.9c-0.2,1.1,1.2,1.8,2.2,0.8C387.9,152.8,385,152.9,385,152.9z"/>
	<path class="st4" d="M386.7,185.3c0.6-0.4,3.7-0.8,2.7,0.2C388.3,186.5,386.7,185.3,386.7,185.3z"/>
	<path class="st4" d="M375.6,182.2c-0.3-0.8,1.8-0.7,2.7-0.5c0.1,0.2,2.1,0.8,0.2,1C378.5,182.7,376.1,183.9,375.6,182.2z"/>
	<path class="st4" d="M371.2,191.6c0.6,0.5,2.8,0.3,1.9,1.5C372.2,194.3,371,191.7,371.2,191.6z"/>
	<path class="st8" d="M386.4,191.3c-0.4,0.6-1.6-0.2-2-0.6c0.1-0.2-0.8-1.2,0.5-0.7C384.9,190,387.1,190.1,386.4,191.3z"/>
	<path class="st8" d="M383.8,169.5c0.9-0.6-0.9-1.5-1.7-0.7c-0.8,0.8,0.1,1,0.7,1.1C383.3,170,383.8,169.5,383.8,169.5z"/>
	<path class="st8" d="M379.5,158c0.6,0.7,2.9,1.1,1.8,2c-1.1,0.9-1.6-1-1.8-1.7C379.5,158.3,379.5,158.2,379.5,158z"/>
</g>
<g>
	<path class="st14" d="M178.7,211c0.1-0.2-0.1-0.3-0.3-0.4v-0.2c0-0.2,0-0.3,0.2-0.3c0,0,0.1,0.1,0.2,0.1c0.3,0.1,0.6,0.2,0.6,0.7
		v1.6c0,0.5,0.3,1,0.3,1.5c0.1,2.5,1.6,4.2,3.4,5.7c0.1,0.1,0.3,0.1,0.4,0.2c0.2,0.1,0.3,0.2,0.5,0.2c1.1,0,4.5-2.8,5.3-3.6
		c0.3-0.3,0.2-0.7,0.4-0.9c0.3-0.2,0.6-0.4,0.9-0.7c0.1-0.1,0.1-0.3,0-0.3h-0.3c-1.5,1-3,2-4.6,2.8c-0.5,0.3-1,0.3-1.5,0.3
		c-0.3,0-0.5,0-0.8-0.1c-0.8-1-1.1-2.3-1.1-3.6c0-4.4,2.2-13.9,4-17.5c0.6-1,0.7-2.1,0.5-3.2c-0.4-0.3-0.9-0.5-1.3-0.5
		c-0.3,0-0.5,0.1-0.8,0.3c-0.1,0.1-0.3,0.1-0.3,0.1c-0.2,0-0.3,0-0.4-0.1c-1.2-0.6-2.4-0.6-3.7-0.6c-2,0.1-3.8,0.6-5.5,2
		c-0.7,0.6-1.4,1.4-2.2,1.7c-0.1,0.1-0.2,0.2-0.2,0.3c-0.3,0.5-0.7,1-1.1,1.2c-0.7,0.3-0.5,1.1-1.1,1.5c-1.8,1.6-3.1,4.3-4.1,6.5
		c-0.2,0.2-0.3,0.3-0.3,0.5c-1.5,4.7-2.3,7.6-2.3,12.7c0,1.6,0.6,3.1,1.9,4.2l0.6,0.6c0.3,0.3,0.6,0.4,1,0.4
		c0.4-0.1,0.9-0.1,1.4-0.3c1.3-0.6,4.3-2.6,5-3.7c0.2-0.3,0.7-0.3,0.9-0.7c0.3-0.5,0.7-0.9,1-1.4c-0.3-0.7,0.6-1,0.7-1.5
		c0.1-0.5,0.4-1,0.7-1.5c0.2-0.5,0.4-0.9,0.8-1.5c0.2-0.3,0.4-0.6,0.3-1C178.4,212.3,178.5,211.6,178.7,211z M167.2,221.9
		c-0.1,0.1-0.3,0.1-0.4,0.2c-0.2-0.2-0.3-0.3-0.3-0.3c-0.2-0.2-0.2-0.4-0.2-0.6c0-0.6,0-1.2-0.3-1.8c-0.1-0.2-0.1-0.4,0-0.7
		c0.3-1.2,0.3-2.4,0.5-3.7c0.2-0.4,0.3-0.9,0.3-1.4c0.5-1.5,0.8-3.2,1.5-4.6c0.4-0.9,0.7-1.9,1.1-2.7c0.2-0.3,0.4-0.6,0.6-0.9
		c0.3-0.8,0.9-1.4,1.1-2.1c0.1-0.1,0.1-0.3,0.2-0.3c0.9-0.6,1.3-1.5,2.1-2.2c0.7-0.6,1.3-1.5,2.1-2.1c1.3-0.9,2.5-1.9,4-2.5
		c0.9-0.3,1.6-0.9,2.3-1.5c0.3-0.2,0.3-0.3,0.5-0.3c0.2,0,0.3,0.1,0.4,0.3c0.5,0.4,0.6,0.7,0.3,1.3c-0.4,1-0.9,2-1.2,3.2
		c-0.2,1.2-1.1,4.1-1.7,5.2c-0.8,1.7-1.6,3.4-2.5,5.2c-0.4,1.1-1.2,2.1-1.9,3.2c-0.5,1-1.2,2-1.7,3
		C172.5,218.3,169.9,220.2,167.2,221.9z M177.8,211.6c0.1-0.1,0.1-0.2,0.1-0.3l0.2,0.2c0,0.1-0.1,0.2-0.2,0.3
		C177.8,211.7,177.8,211.7,177.8,211.6z M168,203.5L168,203.5L168,203.5L168,203.5z M179.3,208.8L179.3,208.8L179.3,208.8
		L179.3,208.8z M167.8,204.1L167.8,204.1L167.8,204.1L167.8,204.1z"/>
	<path class="st14" d="M194.1,221c-0.1,0-0.2-0.1-0.3-0.1C194.1,220.8,194,221,194.1,221c0.7-0.2,1-0.9,1.6-1.2
		c0.5-0.3,0.9-0.9,0.9-1.5c-0.1,0-0.3,0-0.4,0c0-0.2,0.1-0.3,0.2-0.3c0.2,0,0.3,0.2,0.3,0.3c0.9-0.5,1.4-1.5,2.2-2.1
		c0-0.6,0.6-0.8,0.9-1.2c0.3-0.4,0.6-0.8,0.9-1.2c0.6-0.6,1.1-1.3,1.6-2c0.6-0.6,1.1-1.4,1.5-2.1c0.2-0.2,0.4-0.3,0.4-0.6
		c0-0.2-0.1-0.2-0.2-0.2c-0.4-0.1-0.5-0.2-0.3-0.4c0.3-0.3,0.4-0.6,0.9-0.7h-0.1c0.1-0.6,0.3-1,0.7-1.5c0.1-0.2,0.3-0.1,0.3,0.2
		c0,0.1,0,0.2,0,0.3c0.4-0.2,0.7-0.5,0.6-0.9h0.1c-0.1,0-0.3,0-0.3-0.1c-0.3,0-0.3-0.2-0.1-0.3c0.2-0.2,0.3-0.2,0.4-0.3h-0.1
		c0.1-0.3,0-0.6,0.4-0.7h-0.1c0.1-0.2,0.2-0.3,0.3-0.3v0.1c0.1-0.3,0-0.7,0.2-0.9c0.1-0.1,0.2-0.2,0.3-0.3c0.2-0.1,0.2,0.1,0.3,0.3
		c0.2,0.2,0.3,0.1,0.4,0c0.2-0.3,0.3-0.5,0.3-0.8c-0.3-0.1-0.4-0.3-0.3-0.4c0.2-0.3,0.2-0.7,0.6-0.9h-0.1c0.1-0.2,0.2-0.3,0.3-0.3
		c0.1-0.9,0.6-1.5,1.3-1.9c0-0.9,0-1.6,0.7-2.2c0.1-0.1,0-0.3,0.1-0.5c0-0.1,0.2-0.2,0.2-0.2c0.1,0.1,0.3,0.3,0.3,0.3
		c0,1.2,0,1.2,0.4,1.8c0-1.4,0.2-2.4,0.6-3.9c0.1-0.3,0.4-0.7,0.2-1.1c0,0,0.2-0.1,0.3-0.1c0.1,0,0.3,0.1,0.3,0.2
		c0,0.5,0.1,1-0.1,1.5c-0.3,0.6-0.1,1.3-0.4,1.9c-0.3,0.6,0,1.2-0.3,1.8c-0.2,0.1-0.3-0.1-0.5-0.2c-0.4,0.4-0.8,0.9-0.7,1.5
		c0.1,0.6,0,1.3,0,1.9c0,0.2,0,0.3,0.3,0.3c0.2-0.3,0.1-0.7,0.1-1c0-0.5,0-0.9,0-1.4c0.1-0.3,0.3-0.4,0.5-0.6c0.3,0.5,0.2,1,0.1,1.5
		c-0.2,0.9-0.3,1.9-0.3,2.9c0,0-0.2,0.1-0.3,0.2c0.6,0.9,0.2,1.6-0.1,2.5c-0.3-0.2-0.3-0.5-0.3-0.7c0-0.3,0-0.7,0-1
		c0-0.3-0.1-0.5,0.2-0.7c0.1-0.1,0.2-0.1,0.2-0.1c0-0.1,0-0.3,0-0.3c-0.1-0.2-0.2-0.3-0.3-0.3c-0.3,0-0.3,0.2-0.3,0.3
		c0,0.6,0,1.3-0.1,2c0,0.3,0,0.8-0.1,1.1c-0.2,0.4-0.2,0.9-0.2,1.3c0,3.4-0.1,6.8,0,10.2c0,0.3,0,0.6,0.1,0.9c0,0.1,0.1,0.2,0.3,0.1
		c0.1,0,0.2-0.1,0.2-0.1c0.1-0.3,0.2-0.4,0.3-0.9c0.3,1,0.2,1.6-0.3,2.3c-0.3,0.5-0.3,1.1,0,1.6c0.1,0.3,0.3,0.3,0.2,0.7
		c-0.2,0.7-0.3,1.5,0.4,2.1c0.1,0.1,0.2,0.3,0.1,0.4c-0.3,0.4-0.1,0.8,0.1,1.2c0.3,0.3,0.3,0.8,0.3,1.2c-0.1,0.4,0.1,0.9,0.3,1.1
		c0.8,0.6,1,1.5,1.4,2.3c0.5,0.9,1.3,1.7,2.1,2.4c0.3,0.3,0.9,0.5,1.4,0.5c0.2,0,0.4,0.1,0.6,0.2c0.2,0.1,0.3,0.1,0.3,0.1
		c0.3,0,0.5-0.2,0.6-0.6c0.1-0.3,0.1-0.5,0.3-0.8c0.4-0.4,1.7-1.9,1.9-2.4c0.3-0.5,0.8-0.8,1-1.3c-0.3-0.8,0.5-0.8,0.7-1.3
		c0-0.2,0-0.3,0-0.5h0.1c-0.3,0.2-0.4,0.3-0.6,0.3c-0.5,0.5-1,1.1-1.6,1.6c-0.9,0.9-2,1.7-3.2,2.1c-0.3,0.1-0.4,0.2-0.6,0.2
		c-0.9,0-1.6-1.7-1.9-2.4c-0.3-1-0.6-2.1-0.9-3.2c-0.2-0.9-0.3-1.6-0.3-2.6c0-0.8,0-1.5-0.2-2.2c-0.2-0.9-0.2-1.9-0.2-2.7
		c0-0.9,0-1.9,0-2.8c0.1-2-0.3-3.9,0.3-5.8c0-0.1,0-0.3,0-0.3c0-1.2,0-2.3,0-3.4c0-0.8-0.1-1.5,0.3-2.3c0.3-0.4,0-0.7-0.7-0.9
		c-0.1-0.3-0.2-0.3-0.2-0.4c0.1-0.1,0.2-0.2,0.3-0.2c0.2,0.1,0.3,0.1,0.5,0.2c0.3-1.2,0.5-2.1,0.5-3.3c0-0.4,0-0.9,0.2-1.3
		c0.3-0.5,0.3-1.2,0-1.7c-0.1-0.3-0.1-0.4,0.1-0.6s0.3-0.3,0.3-0.5c0.3-1.7,0.8-3.3,1-5c0.3-1.5,0.5-3,1-4.4c0.3-1,0.4-2,0.8-3
		c0.1,0,0-0.1,0-0.2c-0.3-0.3-0.1-0.6,0.2-0.9c0.3-0.3,0.4-0.6,0.2-1c-0.1-0.2-0.1-0.3,0.1-0.5c0.2-0.2,0.3-0.3,0.3-0.4
		c0.3-0.9,0.5-1.8,0.9-2.6c0.1-0.1,0.1-0.3,0.1-0.3c-0.1-0.8,0.2-1.5,0.7-2.1v-0.1c0.3-0.5,0-1.1,0.3-1.5c0.3-0.5,0.5-1,0.6-1.5
		c0.2-0.9,0.5-1.8,0.8-2.7c0.2-0.5,0.4-1,0.6-1.5c0.4-1.3,0.6-2.7,1.3-4c0.1-0.1,0.1-0.3,0.1-0.4c0.6-3,1.5-5.9,2.6-8.7
		c0.3-0.8,0.7-1.5,0.9-2.3c0.3-0.9-0.3-2.4-1.1-2.7c-0.2-0.1-0.3-0.1-0.6-0.1c-0.6,0-1.4,0.3-1.5,0.9c-0.3,0.6-0.5,1.1-0.6,1.7
		c-0.1,0.6-0.4,2.9-0.8,3.2c-0.4,0.5-0.3,1-0.4,1.4c-0.3,0.4-0.4,0.8-0.5,1.2c0,0.3-0.1,0.4-0.2,0.6c-0.3,0.6-0.4,1.1-0.4,1.7
		c0.1,0.6,0,1.2-0.3,1.8c-0.1,0.2-0.1,0.4-0.1,0.6c0.2,0,0.3-0.1,0.4-0.2c0.2,0,0.3,0,0.3,0.2c0,0.3-0.1,0.6-0.3,0.9
		c-0.1,0.1-0.3,0.1-0.3-0.1c0-0.3,0-0.5,0-0.8c-0.1,0.1-0.3,0.1-0.3,0.2c-0.1,0.1-0.9,1.7-0.9,1.8c-0.1,0.2-0.3,0.3-0.2,0.4
		c0.3,0.4,0,0.7-0.2,1c-0.3,0.5-0.3,1.1-0.2,1.7c0.2,0.3,0,0.4-0.3,0.5c-0.1,0.1-0.1,0.2-0.1,0.3h-0.1c0.2,0.2,0.4,0.3,0.5,0.4
		c0.2,0.2-0.2,0.8-0.5,0.9c-0.2,0-0.3-0.2-0.3-0.3h0.1c-0.2,0.1-0.3,0.2-0.3,0.3c0,0.4-0.2,0.8-0.3,1.2c-0.3,0.7-0.4,1.4-0.7,2.1
		c0,0.2,0.1,0.3,0.3,0.5c0.3,0.3,0.3,0.4,0.1,0.6c-0.3,0.2-0.7,0.3-0.7,0.8c0.2-0.1,0.3-0.2,0.4-0.2c0.3,0.1,0.2,0.3,0.1,0.5
		c-0.2,0.3-0.3,0.8-0.4,1.2c-0.1,0.3-0.3,0.4-0.6,0.4c-0.6,0.1-0.3,0.6-0.5,0.9c-0.3,0.3,0.2,0.3,0.3,0.5c0.1,0.2,0.2,0.3-0.1,0.3
		c-0.2,0.1-0.3-0.1-0.4,0.1c-0.1,0.3-0.3,0.6-0.3,0.9c-0.3,0.9-0.5,2-0.8,2.9c-0.3,1.3-0.9,2.5-1.3,3.7c-0.2,0.3-0.2,0.8-0.3,1.1
		c0.1,0.1,0.2,0.1,0.3,0.2c-0.3,0.2-0.2-0.2-0.3-0.2c-0.1,0-0.2,0.1-0.3,0.2c-0.3,0.6-1.5,3.8-2,4c-1.5-0.6-3-0.9-4.6-0.9
		s-2.7,0.3-4,1.1c-1.5,0.8-2.5,2.1-3.8,3.1c-0.2,0.1-0.3,0.3-0.3,0.3c-0.2,0.3-0.3,0.5-0.6,0.8c-0.8,0.9-1.5,1.8-2.1,2.9
		c-0.1,0.2-0.3,0.4-0.4,0.5c-0.7,0.6-1,1.4-1.5,2.1c-0.2,0.3-0.4,0.7-0.3,1.1c0.1,0,0.2,0.1,0.3,0.1c-0.3,0.2-0.2-0.1-0.3-0.2
		c-0.6,0.2-0.7,0.9-0.9,1.2c-0.5,0.6-0.9,1.4-1,2.1c0.1,0,0.3,0,0.3,0c0-0.1,0.1-0.2,0.1-0.3c0.3,0.3-0.1,0.2-0.1,0.3
		c-0.1,0.1-0.2,0.2-0.2,0.3c-0.1-0.1-0.1-0.2-0.2-0.3c-0.4,0.4-0.9,0.9-0.4,1.5c0.1,0.1-0.1,0.3-0.2,0.3c-0.4,0.3-0.7,0.5-0.8,1
		c0,0.2-0.2,0.3-0.3,0.6c-0.8,1.6-1.1,3.3-1.5,5c-0.5,1.8-0.6,3.6-0.4,5.4c0,1.2,1.4,2.9,2.3,3.6c0.2,0.2,0.4,0.3,0.7,0.4
		c0.2,0.1,0.3,0.1,0.4,0.1c0.1,0,0.3,0,0.3-0.1C192.4,222.8,193.4,222.1,194.1,221z M201.6,211.9c-0.1,0.1-0.1,0.2-0.2,0.3
		C201.2,211.9,201.5,211.9,201.6,211.9c0-0.1,0.1-0.2,0.1-0.3C201.9,211.9,201.7,211.8,201.6,211.9z M196.4,197.8
		c0-0.1,0-0.2,0.1-0.3C196.6,197.8,196.4,197.7,196.4,197.8c-0.1,0-0.2,0.1-0.2,0.2C196,197.8,196.3,197.9,196.4,197.8z
		 M212.3,213.2c0.2,0,0.3,0.1,0.5,0.1c0,0.2-0.1,0.2-0.2,0.2C212.5,213.4,212.4,213.3,212.3,213.2c0-0.1-0.1-0.1-0.2-0.2
		C212.4,212.8,212.3,213.1,212.3,213.2z M208.4,198c0,0.1-0.1,0.2-0.1,0.3C208.2,198,208.4,198.1,208.4,198c0.1-0.3,0-0.5,0.4-0.6
		c-0.1-0.5,0.2-0.9,0.6-1c0-0.4,0-0.9,0.4-1.2c0.3-0.3,0.2-0.7,0.6-0.8c0-0.1,0-0.2,0-0.3c0-0.2,0.1-0.3,0.3-0.3
		c0.2,0,0.3,0.1,0.3,0.3c0,0.2-0.1,0.3-0.3,0.3c-0.1,0-0.2,0-0.3,0c0.2,0.5-0.3,1-0.1,1.5c0,0.1-0.5,0.2-0.5,0.4
		c0.1,0.1,0.2,0.1,0.3,0.2c-0.3,0.2-0.2-0.1-0.3-0.2c-0.1,0-0.3,0-0.3,0c0,0.5-0.2,0.9-0.7,1C208.8,197.7,208.8,198,208.4,198z
		 M203.5,207.3c0-0.2,0-0.3,0.1-0.4c0.1,0,0.2,0.1,0.2,0.2C203.7,207.1,203.6,207.2,203.5,207.3c0,0.2,0,0.4-0.2,0.5
		c-0.1,0.1-0.2,0.1-0.3,0.1c-0.2,0-0.2-0.2-0.1-0.3C203.2,207.5,203.4,207.4,203.5,207.3z M212.1,190.2c-0.1,0.1-0.1,0.2-0.2,0.3
		C211.7,190.2,212,190.3,212.1,190.2c0-0.3,0.1-0.5,0.2-0.7c0.1-0.3,0.2-0.5,0.3-0.8C212.8,189.7,212.8,189.7,212.1,190.2z
		 M190.3,220.3c0-0.1-0.2-0.3-0.1-0.3c0.1-0.4,0.3-0.9,0-1.4c-0.1-0.1,0-0.3,0-0.5c0.3-2,0.9-3.8,1.2-5.8c0.3-1.6,3.2-7.4,4-8.7
		c0.9-0.9,1.5-2.1,2.1-3.1c0.1-0.1,0.1-0.2,0.2-0.3c1.1-1.2,2-2.6,3.2-3.7c0.6-0.5,1.2-0.9,1.8-1.5c0.4-0.5,0.9-1,1.5-1.4
		c0.4-0.3,0.9-0.6,1.5-0.8c0.8-0.3,1.6-0.5,2.2-1.3c0-0.1,0.3-0.1,0.4-0.1c0.5,0.2,1,0.3,1.5,0.4c0.3,0.1,0.5,0.5,0.3,0.8
		c-1,1.9-1.9,3.8-2.9,5.6c-0.9,1.7-2,3.2-3,4.9c-1.5,2.7-3.5,5.6-5.5,7.9c-0.8,0.9-1.4,1.7-2,2.7c-0.6,0.9-1.5,1.6-2.1,2.4
		c-0.7,0.7-1.5,1.3-2,2.2c-0.1,0.1-0.3,0.3-0.3,0.3c-0.6,0.5-1.3,1-1.9,1.5C190.6,220.3,190.4,220.2,190.3,220.3z M210.9,211.4
		c0.3,0.3,0.2,0.6,0.2,0.9s-0.1,0.8,0.1,1.1c0.3,0.3,0.3,0.6,0,0.9c0,0.1-0.1,0.3,0,0.3c0.5,0.6-0.1,1.3,0.2,1.9
		c0,0-0.1,0.2-0.2,0.3c-0.1,0.1-0.3-0.2-0.3-0.3c0-0.3-0.1-0.4-0.1-0.7c0-1.2,0-2.5,0-3.8C210.8,211.8,210.7,211.5,210.9,211.4z
		 M213.4,204.9c0,0.1,0,0.3-0.2,0.6c-0.2,0-0.4-0.3-0.4-0.4c0-0.3,0-0.8,0-1.1c0-0.1,0.2-0.2,0.3-0.2c0.1-0.1,0.3,0.1,0.3,0.3
		C213.4,204.3,213.4,204.5,213.4,204.9z M212.2,216.9c-0.2-0.4-0.2-0.8,0.1-1.2c0.1-0.1,0.3-0.2,0.4-0.2c0,0,0.1,0,0.2,0
		c0.2,0.1,0.3,0.5,0.1,0.7C212.7,216.5,212.4,216.7,212.2,216.9z M212.5,217.9c0.6,0.3,0.5,0.8,0.5,1.2c0,0.2-0.3,0.2-0.3,0.2
		C212.3,218.8,212.3,218.4,212.5,217.9z M207.7,201.3c0.1,0.3-0.1,0.4-0.3,0.5c-0.1,0.1-0.2,0.1-0.3,0c-0.1-0.3-0.1-0.5,0.2-0.7
		C207.5,201,207.7,201.2,207.7,201.3z M213.3,225.4c-0.3-0.4-0.4-0.7-0.5-0.9c0-0.1,0.1-0.2,0.1-0.3c0.1,0,0.2,0,0.3,0.1
		C213.4,224.4,213.4,224.8,213.3,225.4z M214.2,194c-0.2-0.2-0.2-0.4-0.2-0.6c0.1-0.2,0.3-0.3,0.4-0.2c0.1,0.1,0.1,0.1,0,0.3
		C214.4,193.7,214.3,193.9,214.2,194z M212.9,222.9c-0.3-0.3-0.1-0.6-0.1-0.9c0-0.1,0.1-0.1,0.2-0.2c0,0,0.1,0.1,0.1,0.2
		C213,222.3,213.1,222.6,212.9,222.9z M211.1,210.5c-0.1,0.1-0.1,0.2-0.2,0.2c-0.1-0.3-0.1-0.3-0.1-0.5
		C211.1,210.3,211.1,210.4,211.1,210.5z M212.9,210.8c-0.1,0.1-0.2,0.2-0.3,0.3c0,0-0.1-0.1-0.2-0.1c0-0.3,0.1-0.3,0.3-0.3
		C212.8,210.6,212.9,210.7,212.9,210.8z M213.6,226.3c-0.1,0.1-0.1,0.1-0.2,0.2c-0.1-0.1-0.2-0.3-0.3-0.3c0.1,0,0.1-0.1,0.2-0.1
		C213.5,226.1,213.6,226.1,213.6,226.3z M213.4,192c0,0.1-0.1,0.3-0.2,0.4c0-0.3,0-0.5,0-0.8C213.3,191.7,213.3,191.9,213.4,192z
		 M215.5,187.1c0-0.1-0.1-0.1-0.1-0.2c0-0.1,0.1-0.1,0.2-0.2C215.6,186.9,215.6,187,215.5,187.1z M213.2,200.2
		c0.1,0.1,0.1,0.2,0.1,0.2c0,0.1,0,0.2-0.1,0.2c0,0-0.1,0-0.1-0.1C213.1,200.3,213.2,200.3,213.2,200.2z M212.7,221.1
		c-0.1,0-0.1,0.1-0.2,0.1c0-0.1-0.1-0.2-0.1-0.3c0,0,0.1-0.1,0.2-0.1C212.6,220.9,212.7,221,212.7,221.1z M194.2,200.9L194.2,200.9
		L194.2,200.9L194.2,200.9z M207.3,199.8L207.3,199.8L207.3,199.8L207.3,199.8z M208,198.9L208,198.9L208,198.9L208,198.9z
		 M213.9,198.5L213.9,198.5L213.9,198.5L213.9,198.5z M211.2,207.4L211.2,207.4L211.2,207.4L211.2,207.4z M192.6,203.4L192.6,203.4
		l-0.2,0.1L192.6,203.4z M205.4,203.2L205.4,203.2L205.4,203.2L205.4,203.2z M192.9,202.8L192.9,202.8L192.9,202.8L192.9,202.8z
		 M205.9,202.2L205.9,202.2L205.9,202.2L205.9,202.2z M204.4,205.7L204.4,205.7L204.4,205.7L204.4,205.7z M197.5,196.2L197.5,196.2
		L197.5,196.2L197.5,196.2z M211,193.3L211,193.3L211,193.3L211,193.3z M216.4,184.5L216.4,184.5L216.4,184.5L216.4,184.5z
		 M212.9,188.1L212.9,188.1L212.9,188.1L212.9,188.1z M220,166.2l0.1-0.2l0.1,0.1L220,166.2z M218.5,171.3L218.5,171.3L218.5,171.3
		L218.5,171.3z M206.8,204.3c0,0.2-0.1,0.3-0.3,0.3h0.1c0,0.3,0,0.4,0,0.7h-0.1c0.3-0.1,0.5-0.3,0.6-0.4
		C207.2,204.6,207.1,204.4,206.8,204.3L206.8,204.3z M209.1,201c-0.1,0-0.2,0-0.3,0c0,0.2-0.1,0.3-0.3,0.3h0.1c0,0.1-0.1,0.2,0,0.3
		c0,0.1,0.1,0.2,0.1,0.3c0.1,0,0.3-0.1,0.3-0.2C209.1,201.5,209.1,201.3,209.1,201z M217,174.5c-0.3,0.2-0.3,0.4-0.3,0.8l0.1,0.1
		c0.1,0,0.2-0.1,0.2-0.1C217,175,217,174.7,217,174.5z M218.6,168.9c0.3-0.1,0.3-0.2,0.3-0.4c0-0.2,0-0.4,0-0.6h0.1
		C218.5,168.1,218.7,168.6,218.6,168.9L218.6,168.9z M206.5,205.3c-0.2,0-0.3,0-0.4,0h0.1c0,0.2,0,0.4,0,0.7h-0.1
		C206.5,205.9,206.5,205.6,206.5,205.3L206.5,205.3z M204.8,208c-0.1,0-0.2,0-0.3,0h0.1c0,0.1-0.1,0.2,0,0.3c0,0.1,0.1,0.2,0.1,0.3
		c0.1-0.1,0.2-0.2,0.2-0.3C204.8,208.1,204.8,208,204.8,208z M209.1,201c0.1-0.1,0.3,0,0.2-0.3C209.2,200.9,209.2,200.9,209.1,201z
		 M205.5,206.9c-0.1,0.1-0.3,0-0.2,0.3C205.4,207.1,205.4,207,205.5,206.9z M204.8,208c0.1-0.1,0.3,0,0.2-0.3
		C204.9,207.8,204.9,207.9,204.8,208z M208.2,202.7c0,0,0.3,0,0.1-0.2C208.2,202.6,208.2,202.6,208.2,202.7z M223.2,227
		c-0.2,0-0.3,0.1-0.3,0.3h-0.1C223.1,227.3,223.2,227.2,223.2,227L223.2,227z M223.2,226.9c0.1,0,0.3,0,0.2-0.2
		C223.3,226.8,223.3,226.9,223.2,226.9L223.2,226.9z"/>
	<path class="st14" d="M231.4,211c0.1-0.2-0.1-0.3-0.3-0.4v-0.2c0-0.2,0-0.3,0.2-0.3c0,0,0.1,0.1,0.2,0.1c0.3,0.1,0.6,0.2,0.6,0.7
		v1.6c0,0.5,0.3,1,0.3,1.5c0.1,2.5,1.6,4.2,3.4,5.7c0.1,0.1,0.3,0.1,0.4,0.2c0.2,0.1,0.3,0.2,0.5,0.2c1.1,0,4.5-2.8,5.3-3.6
		c0.3-0.3,0.2-0.7,0.4-0.9c0.3-0.2,0.6-0.4,0.9-0.7c0.1-0.1,0.1-0.3,0-0.3h-0.3c-1.5,1-3,2-4.6,2.8c-0.5,0.3-1,0.3-1.5,0.3
		c-0.3,0-0.5,0-0.8-0.1c-0.8-1-1.1-2.3-1.1-3.6c0-4.4,2.2-13.9,4-17.5c0.6-1,0.7-2.1,0.5-3.2c-0.4-0.3-0.9-0.5-1.3-0.5
		c-0.3,0-0.5,0.1-0.8,0.3c-0.1,0.1-0.3,0.1-0.3,0.1c-0.2,0-0.3,0-0.4-0.1c-1.2-0.6-2.4-0.6-3.7-0.6c-2,0.1-3.8,0.6-5.5,2
		c-0.7,0.6-1.4,1.4-2.2,1.7c-0.1,0.1-0.2,0.2-0.2,0.3c-0.3,0.5-0.7,1-1.1,1.2c-0.7,0.3-0.5,1.1-1.1,1.5c-1.8,1.6-3.1,4.3-4.1,6.5
		c-0.2,0.2-0.3,0.3-0.3,0.5c-1.5,4.7-2.3,7.6-2.3,12.7c0,1.6,0.6,3.1,1.9,4.2l0.6,0.6c0.3,0.3,0.6,0.4,1,0.4
		c0.4-0.1,0.9-0.1,1.4-0.3c1.3-0.6,4.3-2.6,5-3.7c0.2-0.3,0.7-0.3,0.9-0.7c0.3-0.5,0.7-0.9,1-1.4c-0.3-0.7,0.6-1,0.7-1.5
		c0.1-0.5,0.4-1,0.7-1.5c0.2-0.5,0.4-0.9,0.8-1.5c0.2-0.3,0.4-0.6,0.3-1C231.1,212.3,231.2,211.6,231.4,211z M219.9,221.9
		c-0.1,0.1-0.3,0.1-0.4,0.2c-0.2-0.2-0.3-0.3-0.3-0.3c-0.2-0.2-0.2-0.4-0.2-0.6c0-0.6,0-1.2-0.3-1.8c-0.1-0.2-0.1-0.4,0-0.7
		c0.3-1.2,0.3-2.4,0.5-3.7c0.2-0.4,0.3-0.9,0.3-1.4c0.5-1.5,0.8-3.2,1.5-4.6c0.4-0.9,0.7-1.9,1.1-2.7c0.2-0.3,0.4-0.6,0.6-0.9
		c0.3-0.8,0.9-1.4,1.1-2.1c0.1-0.1,0.1-0.3,0.2-0.3c0.9-0.6,1.3-1.5,2.1-2.2c0.7-0.6,1.3-1.5,2.1-2.1c1.3-0.9,2.5-1.9,4-2.5
		c0.9-0.3,1.6-0.9,2.3-1.5c0.3-0.2,0.3-0.3,0.5-0.3c0.2,0,0.3,0.1,0.4,0.3c0.5,0.4,0.6,0.7,0.3,1.3c-0.4,1-0.9,2-1.2,3.2
		c-0.2,1.2-1.1,4.1-1.7,5.2c-0.8,1.7-1.6,3.4-2.5,5.2c-0.4,1.1-1.2,2.1-1.9,3.2c-0.5,1-1.2,2-1.7,3
		C225.2,218.3,222.6,220.2,219.9,221.9z M230.5,211.6c0.1-0.1,0.1-0.2,0.1-0.3l0.2,0.2c0,0.1-0.1,0.2-0.2,0.3
		C230.5,211.7,230.5,211.7,230.5,211.6z M220.7,203.5L220.7,203.5L220.7,203.5L220.7,203.5z M232,208.8L232,208.8L232,208.8
		L232,208.8z M220.5,204.1L220.5,204.1L220.5,204.1L220.5,204.1z"/>
	<path class="st14" d="M239,240c-0.2,0-0.3,0-0.4,0c-0.1,0-0.1-0.1-0.2-0.2c0.1,0,0.3-0.1,0.3-0.1C238.7,239.8,238.9,239.9,239,240
		c0.4-0.5,0.8-1.2,0.8-1.9c-0.1-0.4,0.1-0.8,0.2-1.1c0.2-0.4,0.3-0.9,0.4-1.4c0.5-1.5,0.9-3.2,1.1-4.9c0-0.3,0-0.5,0.2-0.8
		c0.3-0.4,0.4-1,0.6-1.5c0.2-0.9,0.5-1.7,0.8-2.6c0.1-0.3,0.3-0.6,0.3-0.9c-0.1-0.9,0.4-1.4,0.9-2.1c0.4,0.3,0.9,0.3,1.3,0.3
		c0,0,0.1,0,0.2,0c0.3,0,0.7,0,1,0.2c1.4-0.4,2.7-0.5,4-1c0.3-0.4,0.8-0.5,1.2-0.6c0.9-0.3,1.7-0.9,2.3-1.5c0.3-0.3,0.6-0.5,0.9-0.8
		c0.5-0.5,1.4-0.7,1.7-1.5c1-0.6,1.6-1.5,2.4-2.4c0.2-0.2,0.3-0.4,0.3-0.7c0-0.5,0.3-0.9,0.6-1.2c0.9-1,1.5-2.2,2.1-3.4
		c0.4-1.2,1.1-2.4,1-3.8c0.7-1.1,0.3-2.4,0.4-3.6c0.1-0.7,0-1.4,0.1-2.1c0.1-0.8-0.5-1.5-0.6-2.3c0-0.1,0-0.2,0-0.3
		c-0.1-0.9-0.4-1.7-0.9-2.6c-1.2-2.4-3.2-4.9-6.1-4.9c-1.5,0-3.8,1-5,1.8c-0.2,0.1-0.3,0.3-0.5,0.4c-0.1,0.2-0.2,0.3-0.3,0.5
		c0,0.1-0.1,0.2-0.2,0.2c-0.2,0-0.4-0.1-0.5,0c-0.3,0.5-0.9,0.9-1.1,1.5c0.1,0.1,0.2,0.1,0.3,0.2c-0.3,0.2-0.2-0.1-0.3-0.2
		c-0.3,0.1-0.5,0.3-0.9,0.3c-0.1,0-0.3-0.1-0.4-0.2c-0.3-0.2-0.5-0.2-0.7-0.2c-0.2,0-0.3,0-0.5,0c-0.9,0-1.4,0.5-1.3,1.4
		c0,0.9-0.3,1.8,0,2.7c-0.3,1.5-0.3,3-1,4.3c-0.3,0.7-0.4,1.5-0.8,2.1c-0.1,0.2,0,0.4,0.1,0.7c0.1-0.2,0.3-0.3,0.4-0.3
		c0.1-0.1,0.2-0.3,0.3-0.2c0.1,0.1,0.1,0.3,0.1,0.3c-0.3,0.3-0.5,0.8-0.7,1.3c-0.1-0.4-0.2-0.8-0.2-1.1c-0.4,0.1-0.5,0.4-0.6,0.8
		c-0.2,0.8-0.3,1.5-0.6,2.1c-0.3,0.7-0.3,1.5-0.4,2.1c-0.6,1.9-0.9,3.9-1.4,5.8c-0.8,2.1-0.9,5-1.3,7.4c-0.1,0.4-0.1,0.9-0.2,1.4
		c0.5,0.6-0.2,0.9-0.2,1.3c0,0.5-0.3,0.9-0.4,1.4c0,0.2,0,0.3,0,0.5c-0.8,5.3-1.7,10.6-2.9,15.8c-0.1,0.9-0.1,1.7-0.6,2.4
		c-0.2,0.3-0.1,0.5,0.1,0.8c0.2,0.3,0.3,0.5,0.6,0.5c0.3,0,0.5,0.2,0.6,0.5c0.1,0.3,0.2,0.5,0.3,0.8c0.1,0.3,0.3,0.3,0.7,0.3
		c0.1,0,0.3,0,0.3-0.1c0.3-0.3,0.6-0.5,0.6-1c0.1-0.8,0.2-1.5,0.3-2.3c0.3-2.1,0.9-4.1,1.2-6.2C239.3,240.5,239.1,240.3,239,240z
		 M243.9,218.4c-0.1,0.1-0.1,0.2-0.1,0.3C243.5,218.4,243.8,218.5,243.9,218.4c0.1-0.1,0.1-0.2,0.1-0.3
		C244.2,218.4,243.9,218.3,243.9,218.4z M240.1,222.3c0-0.1,0-0.2,0-0.3c0,0,0.1-0.1,0.1-0.2c0.1,0.2,0.1,0.3,0.1,0.3
		C240.3,222.2,240.1,222.2,240.1,222.3c0,0.2,0,0.3,0,0.4c-0.2,0-0.3-0.1-0.3-0.2C239.9,222.5,240,222.4,240.1,222.3z M240.6,229.5
		c0,0.1-0.1,0.2-0.1,0.3C240.4,229.6,240.6,229.6,240.6,229.5c0-0.1,0-0.3,0-0.4c0.2,0,0.3,0.1,0.3,0.2
		C240.9,229.4,240.8,229.5,240.6,229.5z M260.7,211.1c0,0.2-0.1,0.3-0.3,0.3c0.1,0.3,0.2,0.6-0.2,0.7c-0.1,0.2,0,0.4-0.1,0.6
		c-0.2,0.3-0.5,0.5-0.6,0.9c-0.3-0.7-0.1-1.1,0.3-1.5c0.1,0,0.3,0,0.3,0c-0.1-0.3-0.2-0.6,0.3-0.7
		C260.4,211.3,260.5,211.2,260.7,211.1c0-0.3-0.1-0.5,0.3-0.6c0-0.1,0-0.1,0-0.2c-0.3-0.9,0.1-1.6,0.7-2.1c0.1-0.1,0.1-0.2,0.1-0.3
		c0.3,0.3,0,0.2-0.1,0.3c0,0.4,0.2,0.9-0.2,1.1c-0.4,0.3,0,0.9-0.5,1.2C260.9,210.8,261,211,260.7,211.1z M244.6,216.7
		c0.1-0.1,0.1-0.2,0.1-0.3C245,216.7,244.7,216.7,244.6,216.7c0,0.2,0.1,0.4-0.1,0.5c-0.1,0.1-0.2,0.1-0.3,0.1
		c-0.2-0.1-0.2-0.2-0.1-0.3C244.4,216.9,244.5,216.8,244.6,216.7z M242.2,223.9c0,0.1-0.1,0.2-0.1,0.3
		C241.9,223.9,242.2,224,242.2,223.9c-0.1-0.3,0.2-0.7,0.3-1c0-0.1,0.1-0.2,0.2-0.1c0.1,0.1,0.1,0.3,0.1,0.3
		C242.8,223.6,242.7,223.8,242.2,223.9z M240.2,231.2c0.1-0.1,0.1-0.2,0.1-0.3C240.5,231.2,240.3,231.1,240.2,231.2
		c0,0.5,0.3,1-0.2,1.5c-0.1,0-0.1,0-0.2,0C239.9,232.1,239.8,231.5,240.2,231.2z M241,224.6c-0.1,0.1-0.1,0.2-0.1,0.3
		C240.7,224.6,241,224.7,241,224.6c-0.2-0.8-0.1-1.5,0.3-2.1c0-0.1,0.1-0.1,0.2-0.1l0.2,0.2C241.5,223.2,241.6,224.1,241,224.6z
		 M243.7,214.4c-0.1-0.3-0.4-0.5-0.1-0.9c0.1-0.1,0.2-0.3,0.2-0.3c0-0.2-0.2-0.4,0-0.4c0,0,0.1,0.1,0.2,0.1c0.3,0,0.3,0.3,0.3,0.5
		C244.1,213.8,244.1,214.2,243.7,214.4c0,0.2,0.1,0.3,0.2,0.4c0.1,0.3,0.3,0.4,0.1,0.6c-0.3,0.3-0.3,0.8-0.8,1
		c-0.2,0.1-0.2,0.3,0,0.5c0.1,0.2,0.1,0.3-0.1,0.4c-0.1,0.1-0.3,0.2-0.3,0.3c0.1,0.8-0.3,1.4-0.5,2c-0.1,0.1-0.2,0.1-0.3,0.1
		c-0.2,0-0.3-0.3-0.3-0.3c0.6-0.9,0.6-2,0.9-3C242.8,215.8,243.2,215,243.7,214.4z M255.6,215.7c-0.1,0.7-0.9,0.7-1.2,1.1
		c-0.1-0.6-0.1-0.6,0.9-1.5c0.1-0.1,0.1-0.3,0.2-0.3c1.9-2.1,3-4.4,4.1-7c0.1-0.3,0-0.6,0-0.9c-0.6,0.6-0.8,1.5-1.1,2.2
		c-0.5,0.9-0.9,1.6-1.5,2.5c-2.2,3.6-5.4,6.3-9.2,8.1c-0.9,0.3-1.5,0.3-2.4,0.3c-0.2,0-0.3-0.1-0.4-0.2c-0.2-0.2-0.1-0.3,0-0.6
		c0.1-0.1,0.3-0.2,0.3-0.3c0.1-1.4,0.9-2.6,1-4.1c0.2-1.1,0.6-2.2,0.8-3.3c0.5-2.4,0.8-4.9,1.1-7.3c0.1-1,0.3-2.1,0.3-3
		c0-1.1,0.5-2.1,0.7-3.1c0-0.2,0.2-0.3,0.3-0.3c0.5-0.6,1.1-1.1,1.6-1.7c1.3-1.6,3.1-3.2,5.1-3.5c0.4,0,0.7,0,1,0.3
		c0.9,0.7,1.6,1.6,2.1,2.7c0.3,0.6,0.3,1.4,0.9,1.8c0.1,0.2,0.1,0.3,0.1,0.4c-0.2,0.8,0.1,1.5,0.2,2.3c0.1,0.7,0.1,1.3-0.1,1.9
		c-0.1,0.7,0,1.4-0.1,2.1c-0.1,0.6-0.3,1.3-0.4,2c-0.1,0.3-0.3,0.5-0.3,0.9c0.3-0.1,0.5-0.3,0.6-0.7c0.2-0.6,0.3-1.2,0.4-1.8
		c0.1-0.3,0.2-0.4,0.3-0.6c0-0.1,0.2-0.1,0.3-0.1c0,0,0,0.1,0,0.2c-0.2,1-0.2,2.2-0.6,3.2c-0.1,0.2-0.1,0.5-0.1,0.8
		c0,0.1,0,0.3-0.1,0.4c0,0.2-0.1,0.3-0.2,0.4c-0.8,0.8-0.7,2.1-1.4,2.9c-0.3,0.4-0.7,0.9-0.9,1.4c-0.1,0.2-0.2,0.4-0.4,0.4
		c-0.5,0.3-0.8,0.8-1,1.3C256.2,215.4,256,215.6,255.6,215.7z M244.7,210.3c0.1,0.2,0.1,0.2,0.1,0.3c-0.3,0.4-0.5,0.9-0.5,1.4
		c0,0.1-0.2,0.1-0.3,0.1c-0.1,0-0.2-0.1-0.2-0.1c0.2-0.6,0.1-1.2,0.5-1.7C244.5,210.3,244.5,210.3,244.7,210.3z M239.7,233.3
		L239.7,233.3c0.3,0.6,0,0.9-0.2,1.3c-0.2-0.1-0.2-0.1-0.2-0.2c-0.1-0.3-0.2-0.8,0.1-1C239.5,233.3,239.6,233.3,239.7,233.3z
		 M241.4,226.7c-0.3-0.6,0.1-0.9,0.2-1.4c0.3,0.1,0.6,0.3,0.4,0.6C241.8,226.2,241.6,226.5,241.4,226.7z M245,216
		c-0.2,0-0.3-0.1-0.3-0.2c0-0.2,0-0.3,0.1-0.4c0.1-0.1,0.2-0.1,0.2-0.1c0.1,0.1,0.2,0.2,0.2,0.3C245.1,215.7,245.1,215.8,245,216z
		 M239.2,237.5c0.1,0.2-0.2,0.4-0.3,0.4c-0.1,0-0.1-0.1-0.1-0.1C238.7,237.6,238.8,237.4,239.2,237.5L239.2,237.5z M245.3,214.4
		c0,0.2-0.1,0.3-0.3,0.3c-0.1,0-0.2-0.1-0.3-0.2c0.1-0.1,0.2-0.2,0.3-0.3C245.1,214.3,245.2,214.4,245.3,214.4z M242,213
		c0.1,0,0.2,0.1,0.2,0.3C242,213.3,241.9,213.2,242,213z M241,219.1c-0.1,0.1-0.1,0.1-0.2,0.1c0-0.1-0.1-0.2-0.1-0.3
		C240.9,218.9,240.9,219,241,219.1z M244.3,204.1c0,0.1,0,0.2,0,0.3c-0.1,0-0.2-0.2-0.2-0.3C244.2,204.1,244.2,204.1,244.3,204.1z
		 M241.8,224.7L241.8,224.7l0.1,0.2L241.8,224.7z M241,228.1L241,228.1L241,228.1L241,228.1z M241.2,216.8L241.2,216.8L241.2,216.8
		L241.2,216.8z M241,218.2L241,218.2L241,218.2L241,218.2z M239.1,236.2L239.1,236.2L239.1,236.2L239.1,236.2z M237.8,236.6
		L237.8,236.6L237.8,236.6L237.8,236.6z M237.5,239.1L237.5,239.1L237.5,239.1L237.5,239.1z M237.2,239.9L237.2,239.9L237.2,239.9
		L237.2,239.9z M238.9,230.1L238.9,230.1L238.9,230.1L238.9,230.1z M242.8,210.3L242.8,210.3L242.8,210.3L242.8,210.3z M242.4,211
		L242.4,211L242.4,211L242.4,211z M244,205.5L244,205.5L244,205.5L244,205.5z M241.9,214L241.9,214l-0.1-0.2L241.9,214z
		 M255.6,215.7c0-0.2-0.2-0.3-0.3-0.3C255.4,215.5,255.5,215.7,255.6,215.7z"/>
	<path class="st14" d="M286.2,162.4c-0.1-0.1-0.2-0.1-0.3-0.1c0,0.1,0.1,0.2,0.1,0.2C286.1,162.5,286.2,162.4,286.2,162.4z
		 M282.9,172.8c-0.1,0.3-0.1,0.5-0.3,0.5c-0.1,0-0.2,0-0.3-0.1c-0.1,0-0.2-0.1-0.3-0.1c1.3-3.5,2.5-6.2,3.8-8.8
		c0.3-0.5,0.5-0.8,0.6-1.3c0.2-0.6,0.4-1.1,0.5-1.7c0.1-0.3,0.1-0.7,0-0.9c-0.2-0.6-0.5-1.1-0.8-1.6c-0.2-0.3-1.4-0.7-1.6-0.6
		c-0.1,0-0.1,0-0.2,0.1c-1.3,0.9-1.7,2.2-2.2,3.7c-0.9,2.5-1.5,3.5-2.3,6.1c-0.1,0.3-0.3,0.7-0.4,1l-0.9,3.2v0.2
		c0.2,0,0.3-0.2,0.3-0.3c0-0.3,0.2-0.7,0.4-1c0.1-0.2,0.3-0.3,0.3-0.3c0.2,0,0.3,0.1,0.5,0.3l-0.5,1.4c-0.3,0.1-0.8,0.1-1.1,0.1
		v-0.1c-0.1,0.1-0.1,0.1-0.2,0.1c-0.7,0.1-1.4,0.2-2,0.2c-0.3,0-0.7,0-0.9,0.1c-0.6,0.2-0.9,0.2-1.5,0.2c-1.4,0-2.8,0.3-4.1,0.4
		c-0.6,0-1.1,0.1-1.6,0.1c-0.2,0-0.3,0-0.4,0l-0.8,0.2c-0.4,0-0.6,0.4-0.8,1c-0.2,0.5-0.1,1.3,0.1,2c0,0.5,0.3,0.9,0.7,0.9
		c0.1,0,0.3-0.1,0.4,0c1.2-0.3,2.2-0.6,3.2-0.6c0.2,0,0.3,0,0.3,0c0.6-0.1,1.2-0.2,1.8-0.2c0.3,0,0.9-0.1,1.3-0.2
		c0.2,0,0.3,0,0.3-0.1c-0.1-0.2-0.2-0.4-0.3-0.5c0.2-0.2,0.3-0.2,0.5-0.2c0.6-0.1,1.2,0,1.8-0.3c0.3,0,0.6,0,0.9-0.1v0.3
		c0,0.1,0,0.2-0.1,0.3c-0.1,0.2-0.2,0.3-0.1,0.3c-0.8,2.1-3.6,9.1-3.4,9.8c0.4-0.2,3.7-9.1,3.8-9.3v-0.3c0.4,0,0.5-0.3,0.2-0.6
		c0-0.2,0.1-0.3,0.2-0.5c0.1,0,0.3,0,0.4-0.1c0.2-0.1,0.3-0.1,0.6-0.1c-0.1,0.2-0.2,0.3-0.2,0.3c-0.1,0.1-0.1,0.2-0.1,0.3v0.1
		c-0.1,0-0.1,0-0.2,0c-0.3,0-0.5,0.3,0.1,0.4c-0.6,2.1-3.6,9.7-3.8,10.6c-0.4,1.4-0.7,2.7-1.2,4c-0.4,1.4-2.3,8.3-3.1,9.6
		c-0.1,0.2-0.1,0.5-0.2,0.8c-0.2,1.1-0.7,2.1-0.8,3.2c0,0.2-0.1,0.3-0.2,0.3l-0.3,1.2c-0.3,1.1-0.8,2.1-0.7,3.2c0,0.1,0,0.1-0.1,0.2
		c-0.5,0.9-0.6,2-0.8,3c-0.2,0.9-0.5,1.9-0.4,2.8c0,0.2-0.1,0.3-0.2,0.5c0-0.1-0.1-0.2-0.1-0.2c-0.3-1.7,0.3-3.3,0.3-5v-0.1
		c0.5-0.8,0.6-1.6,0.7-2.6c0-0.8,1.5-6.3,1.8-7.2c0.1-0.3,1.8-6,1.5-6.6c-0.3,1.2-2.2,7.7-2.6,8.7c-0.8,2.6-2.6,8.4-2.6,11.1v0.6
		c-0.5,1.4-0.3,2.8-0.3,4.3c0,0.9,0.5,2.7,1.4,3.2c0.8,0.4,1.4,1.1,2.1,1.7c0.3,0.3,0.5,0.3,0.8,0.3s0.4-0.1,0.7-0.2l2.4-1
		c1-0.5,2-0.9,2.8-1.7c-0.1-0.1-0.2-0.1-0.2-0.3l0.3-0.2v0.1c0-0.2,0.1-0.3,0.3-0.3c0.3-0.6,0.9-1,1.4-1.5c0.2-0.2,0.3-0.2,0.4-0.2
		c0.2,0,0.3,0,0.4,0.1c0.1,0,0.2,0.1,0.3,0.1c0.1,0,0.2-0.1,0.3-0.2c0.1-0.2,0-0.3-0.2-0.3c-0.1-0.1-0.2-0.2-0.2-0.3
		c0-0.3,0.4-0.3,0.6-0.3c0,0,0.1,0,0.2,0c0.1,0.1,0.2,0.1,0.3,0.1c0.1,0,0.2-0.2,0.1-0.3c-0.2-0.4-0.1-0.6,0.3-0.9
		c0.7-0.5,1.4-1.1,1.8-1.9c0.2-0.2,0.2-0.3,0.2-0.6c-0.1-0.3,0.1-0.3,0.3-0.4c0.2-0.1,0.4-0.1,0.6-0.1c0.6-0.1,0.9-0.4,0.9-1
		c0.3-0.1,0.3-0.3,0.3-0.5v-1.1h-0.3c0-0.2,0.2-0.3,0.3-0.3v0.3c0.4-0.1,0.5-0.1,0.6-0.6h-0.3c-0.1,0.2-0.1,0.3-0.3,0.3
		c0-0.2,0.1-0.3,0.3-0.3c0.1-0.2,0.2-0.2,0.3-0.3l0.2-0.6c0.3-0.4,0.7-0.9,1.2-1.1c0-0.2,0.2-0.3,0.3-0.3c-0.1,0.3-0.2,0.3-0.3,0.4
		c0,0.4-0.3,0.7-0.3,0.9c0.6,0,0.9-0.4,1.2-0.9c0.1-0.1,0-0.3-0.3-0.4h-0.3c0.2-0.4,0.5-0.9,0.9-1c0.1,0.1,0,0.3,0.3,0.2l-0.3-0.2
		c0-0.3,0.2-0.6,0.4-0.9l1.6-1.7c0.9-1.3,1.9-2.5,3-3.6c0.3-0.4,0.3-0.6,0.1-0.6c-0.1,0-0.3,0.1-0.5,0.3l-3.2,3.5
		c-1.4,1.7-2.7,3.3-4.2,4.8l-1.4,1.5c-0.4,0.7-0.9,1.2-1.5,1.7l-2.5,2.5c-0.3,0.3-0.5,0.6-0.8,0.8c-0.8,0.4-1.3,1-1.9,1.6
		c-1.5,1.4-3.1,2.6-4.8,3.7c-0.4,0.3-1,0.6-1.5,0.9c-0.1,0-0.2,0.1-0.3,0.1c-0.3,0-0.5-0.3-0.7-0.6c-0.3-0.6-0.3-1.2-0.3-1.8v-2
		c0-0.4,0-1,0.1-1.5c0.3-0.6,0.3-1.3,0.3-1.9s0.1-1.1,0.3-1.6c0.2-0.4,0.3-0.9,0.3-1.3l0.3-1.9c0.1-0.8,0.4-1.4,0.7-2
		c0.2-0.5,0.2-0.9,0.3-1.5c0.1-0.4,0.2-0.9,0.3-1.2c0.1-0.3,0.7-2.4,0.7-2.7c0-0.3,0.1-0.6,0.3-0.9c0.2-0.3,2-6.2,2.1-6.6
		c0.3-1.1,0.6-2.2,0.9-3.2c0.6-2.1,4.4-12.4,5.1-14.4l0.8-2.2c0.3,0.1,0.4,0.1,0.6,0.1c0.2,0,0.3,0,0.4-0.1c0.2,0,0.4-0.2,0.6-0.1
		c0.1,0.2,0.2,0.2,0.3,0.2c0.2,0,0.3-0.1,0.3-0.1c0.1-0.2,0.2-0.3,0.3-0.3c0.1,0,0.1,0.1,0.2,0.2c0.2,0.3,0.2,0.3,0.3,0.2l-0.3-0.2
		c0.1-0.3,0.3-0.2,0.3-0.2v0.2c0.1-0.3,0.1-0.3,0.1,0.1l0.4-0.3c0.1-0.1,0.3-0.2,0.5-0.2c0.1,0,0.2,0,0.3,0c0.6-0.1,1.1-0.2,1.6-0.4
		c0.3,0,0.4-0.3,0.6-0.2c0.8,0.1,1.5-0.5,2.3-0.5c0.7-0.2,1.2-0.5,1.6-0.6c0.5,0,2.2-0.6,2.6-0.9c0.3-0.2,0.4-0.2,0.7-0.2
		c0.3,0,0.6,0.1,0.9,0.2c-0.7,0.5-1.5,1-2.2,1.4c0.2,0.1,0.3,0.1,0.4,0.1c0.1,0,0.3,0,0.4-0.1c0.3-0.3,0.7-0.3,0.9-0.6
		c0.1,0,0.2,0,0.2,0c0.2,0,1.3-0.6,1.3-0.9c0.2-0.7-0.1-1.2,0-2c0.1-0.3-0.1-0.5-0.3-0.6c-0.1-0.1-0.3-0.2-0.3-0.2
		c-0.1,0-0.2,0.1-0.3,0.3c-0.3,0.4-0.6,0.6-0.9,0.6c-0.4,0-0.7,0.3-1,0.5c-0.2,0.3-0.4,0.4-0.7,0.4c-0.1-0.1-0.2-0.1-0.3-0.1
		c-0.3,0-0.4,0.2-0.7,0.2c-0.1,0.2-0.3,0.3-0.6,0.3c-0.1,0-0.2,0-0.3,0c-0.3,0-0.4,0-0.5,0.2c-0.2,0.1-0.4,0.3-0.6,0.3
		c-0.1,0-0.2-0.1-0.3-0.1c-0.1-0.2-0.3-0.1-0.4,0.1c-0.3,0.3-0.8,0.4-1,0.3c-0.1-0.1-0.2-0.1-0.3-0.1c-0.1,0-0.3,0.1-0.3,0.2
		c0,0.3-0.6,0.3-0.9,0.3c-0.2,0-0.3-0.1-0.5-0.2c-0.1,0.1-0.3,0.1-0.5,0.3c-0.3,0.3-0.6,0.3-1,0.3c-0.1,0.2-0.3,0.3-0.4,0.1
		c-0.2-0.2-0.3,0.1-0.4,0.1c0,0.1-0.1,0.1-0.2,0.1c-0.1,0-0.3,0-0.3,0c-0.1,0-0.1,0-0.2,0c-0.1,0.2-0.3,0.2-0.4,0.2
		C283.5,172.9,283.2,172.8,282.9,172.8c0.1-0.2,0.1-0.4,0.3-0.4c0.1-0.1,0.3-0.2,0.3-0.3c-0.1-0.1-0.2-0.1-0.3-0.1
		c-0.2,0-0.4,0.1-0.5,0.2c-0.1,0-0.1,0-0.1,0.2c0,0.1,0.1,0.3,0.1,0.3L282.9,172.8z M273.6,186.3l-1.4,4.4c-0.1,0.3,0,0.6,0,0.9
		c0.2,0,0.3-0.2,0.3-0.3c0.4-1.2,0.7-2.5,1.1-3.7c0.2-0.5,0.3-1,0.3-1.5L273.6,186.3z M282,213.1c0.3-0.5,0.8-0.9,1.3-1.3v0.7
		l-0.6,0.4C282.5,213.1,282.2,213.1,282,213.1z M292.1,171.6c0.1-0.1,0.2-0.2,0.3-0.2c0.2,0,0.3,0.2,0.6,0.3
		c-0.2,0.2-0.4,0.2-0.6,0.3c-0.3,0-0.9,0.2-1.3,0.2c-0.1,0-0.1,0-0.2,0C291.3,171.6,291.7,171.6,292.1,171.6z M283.7,175.1
		c-1.2,0,0.9,0.3,0.9,0.3h0.2v-0.3l-0.1-0.2C284.4,175,284.2,175,283.7,175.1z M276.6,176.3c-0.3-0.2-0.7-0.3-1-0.3
		c-0.3,0-0.4,0-0.6,0.1c0,0.1-0.1,0.3-0.1,0.3l0.1,0.1C275.5,176.4,276,176.3,276.6,176.3z M284.8,171.9c0.3,0.1,0.4,0.1,0.5,0.1
		c0.2,0,0.3-0.1,0.3-0.3c-0.2-0.1-0.3-0.1-0.4-0.1c-0.3,0-0.7,0.1-1,0.2c0,0-0.1,0.1-0.1,0.2l0.1,0.1c0.1,0.1,0.2,0.2,0.3,0.2
		C284.6,172.2,284.7,172,284.8,171.9z M272.2,191.6c-0.4,0.4-0.5,1-0.6,1.6c-0.1,0,0.1,0.1,0.1,0.2
		C272.2,192.9,272.2,192.3,272.2,191.6z M288.4,172.7c-0.2,0.3-0.3,0.3-0.5,0.3c-0.1,0-0.3-0.1-0.3-0.3c0.1-0.2,0.3-0.2,0.3-0.2
		C288.1,172.6,288.2,172.6,288.4,172.7c0-0.3,0.2-0.3,0.3-0.3s0.3,0,0.5,0.2c-0.3,0.1-0.5,0.3-0.7,0.3
		C288.5,172.8,288.5,172.8,288.4,172.7z M289.8,170.5c0.3,0.2,0.3,0.2,0.5,0.2c0.3,0,0.5-0.1,0.9-0.3v-0.1
		C290.5,170.3,290.5,170.3,289.8,170.5z M290,172.5c-0.2-0.1-0.3,0-0.5,0c0,0-0.1,0-0.2,0c0-0.2,0.1-0.3,0.2-0.3
		c0.2-0.1,0.3-0.2,0.4-0.2c0.2-0.1,0.3,0,0.3,0.1C290.2,172.2,290.1,172.4,290,172.5z M279.5,173.6c-0.2,0-0.3,0.1-0.4,0.1
		s-0.2-0.1-0.2-0.3c-0.1-0.1-0.1-0.3,0-0.3c0.1,0,0.3,0,0.3-0.1h0.4L279.5,173.6z M281.7,166.7c0,0.3-0.1,0.3-0.3,0.5h-0.1
		c0-0.2-0.1-0.3-0.1-0.4c0-0.3,0.1-0.3,0.3-0.3C281.6,166.3,281.8,166.5,281.7,166.7z M286.6,171.5c-0.2-0.1-0.3-0.1-0.4-0.1
		c-0.1,0-0.3,0.1-0.4,0.3c0.2,0.2,0.3,0.3,0.4,0.3C286.3,171.8,286.5,171.6,286.6,171.5c0,0,0.1,0.1,0.1-0.2
		C286.6,171.4,286.6,171.5,286.6,171.5z M291.7,173.7c0.3,0,0.4-0.1,0.6-0.1c0.1,0,0.2-0.3,0.2-0.3c-0.2-0.1-0.1-0.1-0.2-0.1
		c-0.1-0.1-0.3-0.1-0.5,0C291.7,173.3,291.8,173.4,291.7,173.7z M288,171c0,0.2,0,0.2,0.1,0.3c0.2-0.1,0.4,0,0.5-0.3
		c-0.1-0.1-0.1-0.3-0.1-0.3C288.4,170.8,288.2,170.8,288,171L288,171z M292.7,172.9v0.3l0.1,0.1c0.1-0.1,0.2,0,0.3,0
		c0,0,0.1,0,0.2-0.1v-0.3H292.7z M289,174.2c0.1,0.1,0.2,0.1,0.2,0.1c0.2,0,0.5-0.2,0.9-0.3c0,0,0-0.2-0.1-0.1
		c-0.2-0.1-0.5,0.1-0.8,0.2L289,174.2z M285.6,173.4c0.1-0.3,0.2-0.4,0.3-0.4c0,0,0.1,0.1,0.2,0.3c0.1,0.1,0.1,0.1,0.1,0.2
		C285.9,173.6,285.8,173.5,285.6,173.4z M283.9,212.7c-0.1,0-0.2,0-0.3,0c-0.2,0-0.3,0-0.4-0.3C283.5,212.4,283.8,212.4,283.9,212.7
		z M275.8,173.8c-0.1,0-0.2,0.1-0.3,0.1c-0.2,0.1-0.3,0-0.3-0.1c0.1-0.1,0.2-0.3,0.3-0.3C275.6,173.5,275.7,173.6,275.8,173.8z
		 M288.1,174.5c-0.2,0.1-0.4-0.1-0.5-0.2c-0.1,0-0.3,0-0.1,0.2c0,0.1,0.1,0.3,0.2,0.2C287.8,174.6,287.9,174.8,288.1,174.5z
		 M293,171.6c0.1-0.2,0.2-0.3,0.3-0.3c0.1,0,0.1,0,0.2,0.1c-0.1,0.3-0.2,0.3-0.3,0.3C293.1,171.7,293.1,171.6,293,171.6z
		 M277.5,173.6c0.3-0.2,0.4-0.3,0.6-0.3l-0.2,0.3c-0.1,0.1-0.3,0.1-0.4,0.2V173.6z M285.7,174.8c-0.2,0-0.3,0-0.4,0.2v0.1
		c0.1,0.2,0.2,0.3,0.2,0C285.6,175.1,285.6,175.1,285.7,174.8L285.7,174.8z M286.7,172.8c0.1,0,0.1,0.3,0.1,0.3v0.1h-0.3v-0.3
		C286.5,172.8,286.5,172.8,286.7,172.8L286.7,172.8z M273.4,176c0-0.2,0.1-0.2,0.2-0.2c0.1,0,0.2,0.1,0.3,0.2
		c-0.1,0.1-0.2,0.2-0.3,0.2C273.6,176.2,273.5,176.1,273.4,176z M287.3,172.8c0.1-0.2,0.3-0.1,0.3-0.1c-0.1,0.3-0.1,0.3-0.2,0.3
		C287.4,173.1,287.3,173,287.3,172.8z M284.3,173.7c0,0.1-0.2,0.1-0.3,0.2l-0.1-0.1v-0.2C284.2,173.4,284.3,173.5,284.3,173.7z
		 M266.8,217.1l-0.2,0.2c0-0.1-0.1-0.2-0.1-0.3l0.3-0.3V217.1z M283.6,211.5c0-0.2,0.2-0.3,0.3-0.3
		C283.9,211.3,283.7,211.5,283.6,211.5z M273,175.9c0.1-0.1,0.2,0,0.4,0.1h-0.1c-0.1,0.1-0.2,0.1-0.3,0.1V175.9z M281.6,213.4
		c0-0.2,0.2-0.3,0.3-0.3C282,213.2,281.8,213.4,281.6,213.4z M276.1,220.9c0.2,0,0.3,0,0.3-0.3h-0.3V220.9z M288.4,174.5
		c0.1-0.2,0.1-0.3,0.1-0.3c0-0.1,0,0-0.1,0C288.4,174.2,288.4,174.5,288.4,174.5z M285.5,209.8c-0.2,0-0.3,0.2-0.3,0.3
		C285.4,210.1,285.5,210,285.5,209.8z M283.2,211.8c0.1-0.2,0.2-0.3,0.3-0.3C283.6,211.6,283.4,211.7,283.2,211.8z M284.9,210.4
		c0.2,0,0.3-0.1,0.3-0.3L284.9,210.4z M293.5,171.4c0.2-0.3,0.3-0.3,0.3,0v-0.1C293.7,171.5,293.7,171.4,293.5,171.4z M291.5,170.3
		c-0.1-0.1-0.3-0.2-0.3,0C291.3,170.4,291.4,170.5,291.5,170.3z M288.4,174.5c-0.2-0.1-0.3-0.3-0.3,0
		C288.2,174.5,288.3,174.6,288.4,174.5z M282.4,174.1c0.1-0.1,0.2-0.3,0.3-0.2c0-0.1,0,0,0.1,0.1l-0.1,0.1
		C282.6,174,282.5,174.2,282.4,174.1z M285.9,209.5c-0.2,0-0.3,0.2-0.3,0.3C285.7,209.7,285.8,209.7,285.9,209.5z M273.9,176
		c0-0.3,0.2-0.2,0.3-0.1C274.1,176.1,274,176,273.9,176z M272.5,176c-0.1,0,0,0.2,0,0.2h-0.2C272.3,176.1,272.3,175.9,272.5,176
		L272.5,176z M294.1,171.1c-0.1,0.2-0.2,0.3-0.2,0.3C293.9,171.1,293.9,171.1,294.1,171.1z M291.5,170.3c0.1,0,0.2,0.1,0.3,0.1v-0.1
		c0,0,0-0.1-0.1-0.1C291.7,170.2,291.6,170.2,291.5,170.3z M287.2,173.3c-0.1-0.3,0-0.3,0.1-0.3
		C287.3,173.2,287.2,173.3,287.2,173.3z M292.8,169.8c0,0.1,0.2,0.3,0.3,0.1C293,169.8,293,169.8,292.8,169.8z M279.8,215.3
		c-0.2-0.2,0-0.2,0.1-0.2C279.9,215.2,279.9,215.2,279.8,215.3z M281.4,213.7c-0.2-0.2,0-0.2,0.1-0.2
		C281.5,213.6,281.5,213.6,281.4,213.7z M276.6,220.5c-0.1,0-0.2-0.1-0.2-0.1v0.2C276.4,220.5,276.5,220.5,276.6,220.5z
		 M296.4,171.3C296.3,171.2,296.3,171.1,296.4,171.3L296.4,171.3z M272.6,175.9c0,0.2-0.1,0.2-0.2,0.2
		C272.5,176,272.5,175.9,272.6,175.9z M267,216.5c0.2,0.2-0.1,0.2-0.2,0.2C266.9,216.7,266.9,216.6,267,216.5z M283.7,171.9
		c0,0-0.1,0-0.2,0.1L283.7,171.9C283.7,172,283.7,171.8,283.7,171.9z M285.1,173.6c0,0-0.1,0-0.2-0.1
		C285,173.5,285.1,173.5,285.1,173.6z M291.7,173.7c0-0.1-0.1-0.1-0.2,0h-0.1c0.1,0,0.1,0.1,0.1,0.1L291.7,173.7z M288.9,206.2
		C288.7,206.2,288.8,206.2,288.9,206.2L288.9,206.2L288.9,206.2z M284.8,174.5C284.8,174.5,284.7,174.5,284.8,174.5L284.8,174.5
		C284.8,174.6,284.8,174.5,284.8,174.5z M286.5,174.9C286.5,174.8,286.5,174.8,286.5,174.9L286.5,174.9L286.5,174.9z M280.1,214.9
		c0.2,0.2,0,0.2-0.1,0.2C280.1,215,280.1,215,280.1,214.9z M274.6,176.3c-0.1,0-0.1,0-0.1,0.2C274.5,176.4,274.6,176.4,274.6,176.3z
		 M292.5,170C292.5,170,292.2,169.9,292.5,170L292.5,170z M276.4,220.7L276.4,220.7L276.4,220.7L276.4,220.7z M289,206
		c0,0.1,0,0.2-0.1,0.2C289,206.2,289,206.2,289,206z M288.7,206.2c-0.1,0-0.2,0,0,0.2V206.2z M290.8,172.2
		C290.8,172.1,290.8,172.2,290.8,172.2L290.8,172.2z M284.9,210.5L284.9,210.5L284.9,210.5L284.9,210.5z M276.4,220.4
		C276.3,220.4,276.3,220.3,276.4,220.4L276.4,220.4z M293.9,172.8C293.9,172.8,294,172.8,293.9,172.8
		C294,172.8,293.9,172.6,293.9,172.8z M292.5,170c0-0.1,0.1,0.1,0-0.2V170z M284.5,210.4C284.6,210.5,284.5,210.5,284.5,210.4
		L284.5,210.4z M285.6,171.6C285.6,171.6,285.7,171.6,285.6,171.6L285.6,171.6z M282.3,174.1C282.3,174.2,282.4,174.2,282.3,174.1
		L282.3,174.1z"/>
	<path class="st14" d="M299.7,211c0.1-0.2-0.1-0.3-0.3-0.4v-0.2c0-0.2,0-0.3,0.2-0.3c0,0,0.1,0.1,0.2,0.1c0.3,0.1,0.6,0.2,0.6,0.7
		v1.6c0,0.5,0.3,1,0.3,1.5c0.1,2.5,1.6,4.2,3.4,5.7c0.1,0.1,0.3,0.1,0.4,0.2c0.2,0.1,0.3,0.2,0.5,0.2c1.1,0,4.5-2.8,5.3-3.6
		c0.3-0.3,0.2-0.7,0.4-0.9c0.3-0.2,0.6-0.4,0.9-0.7c0.1-0.1,0.1-0.3,0-0.3h-0.3c-1.5,1-3,2-4.6,2.8c-0.5,0.3-1,0.3-1.5,0.3
		c-0.3,0-0.5,0-0.8-0.1c-0.8-1-1.1-2.3-1.1-3.6c0-4.4,2.2-13.9,4-17.5c0.6-1,0.7-2.1,0.5-3.2c-0.4-0.3-0.9-0.5-1.3-0.5
		c-0.3,0-0.5,0.1-0.8,0.3c-0.1,0.1-0.3,0.1-0.3,0.1c-0.2,0-0.3,0-0.4-0.1c-1.2-0.6-2.4-0.6-3.7-0.6c-2,0.1-3.8,0.6-5.5,2
		c-0.7,0.6-1.4,1.4-2.2,1.7c-0.1,0.1-0.2,0.2-0.2,0.3c-0.3,0.5-0.7,1-1.1,1.2c-0.7,0.3-0.5,1.1-1.1,1.5c-1.8,1.6-3.1,4.3-4.1,6.5
		c-0.2,0.2-0.3,0.3-0.3,0.5c-1.5,4.7-2.3,7.6-2.3,12.7c0,1.6,0.6,3.1,1.9,4.2l0.6,0.6c0.3,0.3,0.6,0.4,1,0.4
		c0.4-0.1,0.9-0.1,1.4-0.3c1.3-0.6,4.3-2.6,5-3.7c0.2-0.3,0.7-0.3,0.9-0.7c0.3-0.5,0.7-0.9,1-1.4c-0.3-0.7,0.6-1,0.7-1.5
		c0.1-0.5,0.4-1,0.7-1.5c0.2-0.5,0.4-0.9,0.8-1.5c0.2-0.3,0.4-0.6,0.3-1C299.4,212.3,299.6,211.6,299.7,211z M288.3,221.9
		c-0.1,0.1-0.3,0.1-0.4,0.2c-0.2-0.2-0.3-0.3-0.3-0.3c-0.2-0.2-0.2-0.4-0.2-0.6c0-0.6,0-1.2-0.3-1.8c-0.1-0.2-0.1-0.4,0-0.7
		c0.3-1.2,0.3-2.4,0.5-3.7c0.2-0.4,0.3-0.9,0.3-1.4c0.5-1.5,0.8-3.2,1.5-4.6c0.4-0.9,0.7-1.9,1.1-2.7c0.2-0.3,0.4-0.6,0.6-0.9
		c0.3-0.8,0.9-1.4,1.1-2.1c0.1-0.1,0.1-0.3,0.2-0.3c0.9-0.6,1.3-1.5,2.1-2.2c0.7-0.6,1.3-1.5,2.1-2.1c1.3-0.9,2.5-1.9,4-2.5
		c0.9-0.3,1.6-0.9,2.3-1.5c0.3-0.2,0.3-0.3,0.5-0.3c0.2,0,0.3,0.1,0.4,0.3c0.5,0.4,0.6,0.7,0.3,1.3c-0.4,1-0.9,2-1.2,3.2
		c-0.2,1.2-1.1,4.1-1.7,5.2c-0.8,1.7-1.6,3.4-2.5,5.2c-0.4,1.1-1.2,2.1-1.9,3.2c-0.5,1-1.2,2-1.7,3
		C293.5,218.3,290.9,220.2,288.3,221.9z M298.8,211.6c0.1-0.1,0.1-0.2,0.1-0.3l0.2,0.2c0,0.1-0.1,0.2-0.2,0.3
		C298.9,211.7,298.8,211.7,298.8,211.6z M289,203.5L289,203.5L289,203.5L289,203.5z M300.3,208.8L300.3,208.8L300.3,208.8
		L300.3,208.8z M288.8,204.1L288.8,204.1L288.8,204.1L288.8,204.1z"/>
	<path class="st14" d="M330.6,162.4c-0.1-0.1-0.2-0.1-0.3-0.1c0,0.1,0.1,0.2,0.1,0.2C330.5,162.5,330.6,162.4,330.6,162.4z
		 M327.2,172.8c-0.1,0.3-0.1,0.5-0.3,0.5c-0.1,0-0.2,0-0.3-0.1c-0.1,0-0.2-0.1-0.3-0.1c1.3-3.5,2.5-6.2,3.8-8.8
		c0.3-0.5,0.5-0.8,0.6-1.3c0.2-0.6,0.4-1.1,0.5-1.7c0.1-0.3,0.1-0.7,0-0.9c-0.2-0.6-0.5-1.1-0.8-1.6c-0.2-0.3-1.4-0.7-1.6-0.6
		c-0.1,0-0.1,0-0.2,0.1c-1.3,0.9-1.7,2.2-2.2,3.7c-0.9,2.5-1.5,3.5-2.3,6.1c-0.1,0.3-0.3,0.7-0.4,1l-0.9,3.2v0.2
		c0.2,0,0.3-0.2,0.3-0.3c0-0.3,0.2-0.7,0.4-1c0.1-0.2,0.3-0.3,0.3-0.3c0.2,0,0.3,0.1,0.5,0.3l-0.5,1.4c-0.3,0.1-0.8,0.1-1.1,0.1
		v-0.1c-0.1,0.1-0.1,0.1-0.2,0.1c-0.7,0.1-1.4,0.2-2,0.2c-0.3,0-0.7,0-0.9,0.1c-0.6,0.2-0.9,0.2-1.5,0.2c-1.4,0-2.8,0.3-4.1,0.4
		c-0.6,0-1.1,0.1-1.6,0.1c-0.2,0-0.3,0-0.4,0l-0.8,0.2c-0.4,0-0.6,0.4-0.8,1c-0.2,0.5-0.1,1.3,0.1,2c0,0.5,0.3,0.9,0.7,0.9
		c0.1,0,0.3-0.1,0.4,0c1.2-0.3,2.2-0.6,3.2-0.6c0.2,0,0.3,0,0.3,0c0.6-0.1,1.2-0.2,1.8-0.2c0.3,0,0.9-0.1,1.3-0.2
		c0.2,0,0.3,0,0.3-0.1c-0.1-0.2-0.2-0.4-0.3-0.5c0.2-0.2,0.3-0.2,0.5-0.2c0.6-0.1,1.2,0,1.8-0.3c0.3,0,0.6,0,0.9-0.1v0.3
		c0,0.1,0,0.2-0.1,0.3c-0.1,0.2-0.2,0.3-0.1,0.3c-0.8,2.1-3.6,9.1-3.4,9.8c0.4-0.2,3.7-9.1,3.8-9.3v-0.3c0.4,0,0.5-0.3,0.2-0.6
		c0-0.2,0.1-0.3,0.2-0.5c0.1,0,0.3,0,0.4-0.1c0.2-0.1,0.3-0.1,0.6-0.1c-0.1,0.2-0.2,0.3-0.2,0.3c-0.1,0.1-0.1,0.2-0.1,0.3v0.1
		c-0.1,0-0.1,0-0.2,0c-0.3,0-0.5,0.3,0.1,0.4c-0.6,2.1-3.6,9.7-3.8,10.6c-0.4,1.4-0.7,2.7-1.2,4c-0.4,1.4-2.3,8.3-3.1,9.6
		c-0.1,0.2-0.1,0.5-0.2,0.8c-0.2,1.1-0.7,2.1-0.8,3.2c0,0.2-0.1,0.3-0.2,0.3l-0.3,1.2c-0.3,1.1-0.8,2.1-0.7,3.2c0,0.1,0,0.1-0.1,0.2
		c-0.5,0.9-0.6,2-0.8,3c-0.2,0.9-0.5,1.9-0.4,2.8c0,0.2-0.1,0.3-0.2,0.5c0-0.1-0.1-0.2-0.1-0.2c-0.3-1.7,0.3-3.3,0.3-5v-0.1
		c0.5-0.8,0.6-1.6,0.7-2.6c0-0.8,1.5-6.3,1.8-7.2c0.1-0.3,1.8-6,1.5-6.6c-0.3,1.2-2.2,7.7-2.6,8.7c-0.8,2.6-2.6,8.4-2.6,11.1v0.6
		c-0.5,1.4-0.3,2.8-0.3,4.3c0,0.9,0.5,2.7,1.4,3.2c0.8,0.4,1.4,1.1,2.1,1.7c0.3,0.3,0.5,0.3,0.8,0.3c0.3,0,0.4-0.1,0.7-0.2l2.4-1
		c1-0.5,2-0.9,2.8-1.7c-0.1-0.1-0.2-0.1-0.2-0.3l0.3-0.2v0.1c0-0.2,0.1-0.3,0.3-0.3c0.3-0.6,0.9-1,1.4-1.5c0.2-0.2,0.3-0.2,0.4-0.2
		s0.3,0,0.4,0.1c0.1,0,0.2,0.1,0.3,0.1c0.1,0,0.2-0.1,0.3-0.2c0.1-0.2,0-0.3-0.2-0.3c-0.1-0.1-0.2-0.2-0.2-0.3
		c0-0.3,0.4-0.3,0.6-0.3c0,0,0.1,0,0.2,0c0.1,0.1,0.2,0.1,0.3,0.1c0.1,0,0.2-0.2,0.1-0.3c-0.2-0.4-0.1-0.6,0.3-0.9
		c0.7-0.5,1.4-1.1,1.8-1.9c0.2-0.2,0.2-0.3,0.2-0.6c-0.1-0.3,0.1-0.3,0.3-0.4c0.2-0.1,0.4-0.1,0.6-0.1c0.6-0.1,0.9-0.4,0.9-1
		c0.3-0.1,0.3-0.3,0.3-0.5v-1.1h-0.3c0-0.2,0.2-0.3,0.3-0.3v0.3c0.4-0.1,0.5-0.1,0.6-0.6h-0.3c-0.1,0.2-0.1,0.3-0.3,0.3
		c0-0.2,0.1-0.3,0.3-0.3c0.1-0.2,0.2-0.2,0.3-0.3l0.2-0.6c0.3-0.4,0.7-0.9,1.2-1.1c0-0.2,0.2-0.3,0.3-0.3c-0.1,0.3-0.2,0.3-0.3,0.4
		c0,0.4-0.3,0.7-0.3,0.9c0.6,0,0.9-0.4,1.2-0.9c0.1-0.1,0-0.3-0.3-0.4h-0.3c0.2-0.4,0.5-0.9,0.9-1c0.1,0.1,0,0.3,0.3,0.2l-0.3-0.2
		c0-0.3,0.2-0.6,0.4-0.9l1.6-1.7c0.9-1.3,1.9-2.5,3-3.6c0.3-0.4,0.3-0.6,0.1-0.6c-0.1,0-0.3,0.1-0.5,0.3l-3.2,3.5
		c-1.4,1.7-2.7,3.3-4.2,4.8l-1.4,1.5c-0.4,0.7-0.9,1.2-1.5,1.7l-2.5,2.5c-0.3,0.3-0.5,0.6-0.8,0.8c-0.8,0.4-1.3,1-1.9,1.6
		c-1.5,1.4-3.1,2.6-4.8,3.7c-0.4,0.3-1,0.6-1.5,0.9c-0.1,0-0.2,0.1-0.3,0.1c-0.3,0-0.5-0.3-0.7-0.6c-0.3-0.6-0.3-1.2-0.3-1.8v-2
		c0-0.4,0-1,0.1-1.5c0.3-0.6,0.3-1.3,0.3-1.9s0.1-1.1,0.3-1.6c0.2-0.4,0.3-0.9,0.3-1.3l0.3-1.9c0.1-0.8,0.4-1.4,0.7-2
		c0.2-0.5,0.2-0.9,0.3-1.5c0.1-0.4,0.2-0.9,0.3-1.2c0.1-0.3,0.7-2.4,0.7-2.7c0-0.3,0.1-0.6,0.3-0.9c0.2-0.3,2-6.2,2.1-6.6
		c0.3-1.1,0.6-2.2,0.9-3.2c0.6-2.1,4.4-12.4,5.1-14.4l0.8-2.2c0.3,0.1,0.4,0.1,0.6,0.1c0.2,0,0.3,0,0.4-0.1c0.2,0,0.4-0.2,0.6-0.1
		c0.1,0.2,0.2,0.2,0.3,0.2c0.2,0,0.3-0.1,0.3-0.1c0.1-0.2,0.2-0.3,0.3-0.3c0.1,0,0.1,0.1,0.2,0.2c0.2,0.3,0.2,0.3,0.3,0.2l-0.3-0.2
		c0.1-0.3,0.3-0.2,0.3-0.2v0.2c0.1-0.3,0.1-0.3,0.1,0.1l0.4-0.3c0.1-0.1,0.3-0.2,0.5-0.2c0.1,0,0.2,0,0.3,0c0.6-0.1,1.1-0.2,1.6-0.4
		c0.3,0,0.4-0.3,0.6-0.2c0.8,0.1,1.5-0.5,2.3-0.5c0.7-0.2,1.2-0.5,1.6-0.6c0.5,0,2.2-0.6,2.6-0.9c0.3-0.2,0.4-0.2,0.7-0.2
		s0.6,0.1,0.9,0.2c-0.7,0.5-1.5,1-2.2,1.4c0.2,0.1,0.3,0.1,0.4,0.1c0.1,0,0.3,0,0.4-0.1c0.3-0.3,0.7-0.3,0.9-0.6c0.1,0,0.2,0,0.2,0
		c0.2,0,1.3-0.6,1.3-0.9c0.2-0.7-0.1-1.2,0-2c0.1-0.3-0.1-0.5-0.3-0.6c-0.1-0.1-0.3-0.2-0.3-0.2c-0.1,0-0.2,0.1-0.3,0.3
		c-0.3,0.4-0.6,0.6-0.9,0.6c-0.4,0-0.7,0.3-1,0.5c-0.2,0.3-0.4,0.4-0.7,0.4c-0.1-0.1-0.2-0.1-0.3-0.1c-0.3,0-0.4,0.2-0.7,0.2
		c-0.1,0.2-0.3,0.3-0.6,0.3c-0.1,0-0.2,0-0.3,0c-0.3,0-0.4,0-0.5,0.2c-0.2,0.1-0.4,0.3-0.6,0.3c-0.1,0-0.2-0.1-0.3-0.1
		c-0.1-0.2-0.3-0.1-0.4,0.1c-0.3,0.3-0.8,0.4-1,0.3c-0.1-0.1-0.2-0.1-0.3-0.1c-0.1,0-0.3,0.1-0.3,0.2c0,0.3-0.6,0.3-0.9,0.3
		c-0.2,0-0.3-0.1-0.5-0.2c-0.1,0.1-0.3,0.1-0.5,0.3c-0.3,0.3-0.6,0.3-1,0.3c-0.1,0.2-0.3,0.3-0.4,0.1c-0.2-0.2-0.3,0.1-0.4,0.1
		c0,0.1-0.1,0.1-0.2,0.1c-0.1,0-0.3,0-0.3,0c-0.1,0-0.1,0-0.2,0c-0.1,0.2-0.3,0.2-0.4,0.2S327.5,172.8,327.2,172.8
		c0.1-0.2,0.1-0.4,0.3-0.4c0.1-0.1,0.3-0.2,0.3-0.3c-0.1-0.1-0.2-0.1-0.3-0.1c-0.2,0-0.4,0.1-0.5,0.2c-0.1,0-0.1,0-0.1,0.2
		c0,0.1,0.1,0.3,0.1,0.3L327.2,172.8z M317.9,186.3l-1.4,4.4c-0.1,0.3,0,0.6,0,0.9c0.2,0,0.3-0.2,0.3-0.3c0.4-1.2,0.7-2.5,1.1-3.7
		c0.2-0.5,0.3-1,0.3-1.5L317.9,186.3z M326.3,213.1c0.3-0.5,0.8-0.9,1.3-1.3v0.7l-0.6,0.4C326.8,213.1,326.5,213.1,326.3,213.1z
		 M336.4,171.6c0.1-0.1,0.2-0.2,0.3-0.2c0.2,0,0.3,0.2,0.6,0.3c-0.2,0.2-0.4,0.2-0.6,0.3c-0.3,0-0.9,0.2-1.3,0.2c-0.1,0-0.1,0-0.2,0
		C335.6,171.6,336,171.6,336.4,171.6z M328.1,175.1c-1.2,0,0.9,0.3,0.9,0.3h0.2v-0.3l-0.1-0.2C328.8,175,328.5,175,328.1,175.1z
		 M320.9,176.3c-0.3-0.2-0.7-0.3-1-0.3c-0.3,0-0.4,0-0.6,0.1c0,0.1-0.1,0.3-0.1,0.3l0.1,0.1C319.9,176.4,320.3,176.3,320.9,176.3z
		 M329.1,171.9c0.3,0.1,0.4,0.1,0.5,0.1c0.2,0,0.3-0.1,0.3-0.3c-0.2-0.1-0.3-0.1-0.4-0.1c-0.3,0-0.7,0.1-1,0.2c0,0-0.1,0.1-0.1,0.2
		l0.1,0.1c0.1,0.1,0.2,0.2,0.3,0.2C328.9,172.2,329,172,329.1,171.9z M316.5,191.6c-0.4,0.4-0.5,1-0.6,1.6c-0.1,0,0.1,0.1,0.1,0.2
		C316.5,192.9,316.5,192.3,316.5,191.6z M332.8,172.7c-0.2,0.3-0.3,0.3-0.5,0.3c-0.1,0-0.3-0.1-0.3-0.3c0.1-0.2,0.3-0.2,0.3-0.2
		C332.4,172.6,332.5,172.6,332.8,172.7c0-0.3,0.2-0.3,0.3-0.3s0.3,0,0.5,0.2c-0.3,0.1-0.5,0.3-0.7,0.3
		C332.9,172.8,332.9,172.8,332.8,172.7z M334.1,170.5c0.3,0.2,0.3,0.2,0.5,0.2c0.3,0,0.5-0.1,0.9-0.3v-0.1
		C334.8,170.3,334.8,170.3,334.1,170.5z M334.3,172.5c-0.2-0.1-0.3,0-0.5,0c0,0-0.1,0-0.2,0c0-0.2,0.1-0.3,0.2-0.3
		c0.2-0.1,0.3-0.2,0.4-0.2c0.2-0.1,0.3,0,0.3,0.1C334.6,172.2,334.4,172.4,334.3,172.5z M323.8,173.6c-0.2,0-0.3,0.1-0.4,0.1
		s-0.2-0.1-0.2-0.3c-0.1-0.1-0.1-0.3,0-0.3c0.1,0,0.3,0,0.3-0.1h0.4L323.8,173.6z M326,166.7c0,0.3-0.1,0.3-0.3,0.5h-0.1
		c0-0.2-0.1-0.3-0.1-0.4c0-0.3,0.1-0.3,0.3-0.3C325.9,166.3,326.1,166.5,326,166.7z M330.9,171.5c-0.2-0.1-0.3-0.1-0.4-0.1
		c-0.1,0-0.3,0.1-0.4,0.3c0.2,0.2,0.3,0.3,0.4,0.3C330.6,171.8,330.8,171.6,330.9,171.5c0,0,0.1,0.1,0.1-0.2
		C330.9,171.4,330.9,171.5,330.9,171.5z M336,173.7c0.3,0,0.4-0.1,0.6-0.1c0.1,0,0.2-0.3,0.2-0.3c-0.2-0.1-0.1-0.1-0.2-0.1
		c-0.1-0.1-0.3-0.1-0.5,0C336,173.3,336.1,173.4,336,173.7z M332.3,171c0,0.2,0,0.2,0.1,0.3c0.2-0.1,0.4,0,0.5-0.3
		c-0.1-0.1-0.1-0.3-0.1-0.3C332.7,170.8,332.5,170.8,332.3,171L332.3,171z M337,172.9v0.3l0.1,0.1c0.1-0.1,0.2,0,0.3,0
		c0,0,0.1,0,0.2-0.1v-0.3H337z M333.4,174.2c0.1,0.1,0.2,0.1,0.2,0.1c0.2,0,0.5-0.2,0.9-0.3c0,0,0-0.2-0.1-0.1
		c-0.2-0.1-0.5,0.1-0.8,0.2L333.4,174.2z M330,173.4c0.1-0.3,0.2-0.4,0.3-0.4c0,0,0.1,0.1,0.2,0.3c0.1,0.1,0.1,0.1,0.1,0.2
		C330.2,173.6,330.1,173.5,330,173.4z M328.2,212.7c-0.1,0-0.2,0-0.3,0c-0.2,0-0.3,0-0.4-0.3C327.8,212.4,328.2,212.4,328.2,212.7z
		 M320.1,173.8c-0.1,0-0.2,0.1-0.3,0.1c-0.2,0.1-0.3,0-0.3-0.1c0.1-0.1,0.2-0.3,0.3-0.3C320,173.5,320,173.6,320.1,173.8z
		 M332.4,174.5c-0.2,0.1-0.4-0.1-0.5-0.2c-0.1,0-0.3,0-0.1,0.2c0,0.1,0.1,0.3,0.2,0.2C332.1,174.6,332.3,174.8,332.4,174.5z
		 M337.3,171.6c0.1-0.2,0.2-0.3,0.3-0.3c0.1,0,0.1,0,0.2,0.1c-0.1,0.3-0.2,0.3-0.3,0.3C337.5,171.7,337.4,171.6,337.3,171.6z
		 M321.8,173.6c0.3-0.2,0.4-0.3,0.6-0.3l-0.2,0.3c-0.1,0.1-0.3,0.1-0.4,0.2V173.6z M330,174.8c-0.2,0-0.3,0-0.4,0.2v0.1
		c0.1,0.2,0.2,0.3,0.2,0C330,175.1,330,175.1,330,174.8L330,174.8z M331,172.8c0.1,0,0.1,0.3,0.1,0.3v0.1h-0.3v-0.3
		C330.8,172.8,330.8,172.8,331,172.8L331,172.8z M317.7,176c0-0.2,0.1-0.2,0.2-0.2c0.1,0,0.2,0.1,0.3,0.2c-0.1,0.1-0.2,0.2-0.3,0.2
		S317.8,176.1,317.7,176z M331.6,172.8c0.1-0.2,0.3-0.1,0.3-0.1c-0.1,0.3-0.1,0.3-0.2,0.3C331.8,173.1,331.7,173,331.6,172.8z
		 M328.7,173.7c0,0.1-0.2,0.1-0.3,0.2l-0.1-0.1v-0.2C328.5,173.4,328.6,173.5,328.7,173.7z M311.2,217.1l-0.2,0.2
		c0-0.1-0.1-0.2-0.1-0.3l0.3-0.3V217.1z M327.9,211.5c0-0.2,0.2-0.3,0.3-0.3C328.2,211.3,328.1,211.5,327.9,211.5z M317.3,175.9
		c0.1-0.1,0.2,0,0.4,0.1h-0.1c-0.1,0.1-0.2,0.1-0.3,0.1V175.9z M325.9,213.4c0-0.2,0.2-0.3,0.3-0.3
		C326.3,213.2,326.1,213.4,325.9,213.4z M320.4,220.9c0.2,0,0.3,0,0.3-0.3h-0.3V220.9z M332.8,174.5c0.1-0.2,0.1-0.3,0.1-0.3
		c0-0.1,0,0-0.1,0C332.7,174.2,332.8,174.5,332.8,174.5z M329.9,209.8c-0.2,0-0.3,0.2-0.3,0.3C329.7,210.1,329.9,210,329.9,209.8z
		 M327.6,211.8c0.1-0.2,0.2-0.3,0.3-0.3C327.9,211.6,327.7,211.7,327.6,211.8z M329.3,210.4c0.2,0,0.3-0.1,0.3-0.3L329.3,210.4z
		 M337.8,171.4c0.2-0.3,0.3-0.3,0.3,0v-0.1C338.1,171.5,338,171.4,337.8,171.4z M335.9,170.3c-0.1-0.1-0.3-0.2-0.3,0
		C335.6,170.4,335.8,170.5,335.9,170.3z M332.8,174.5c-0.2-0.1-0.3-0.3-0.3,0C332.5,174.5,332.6,174.6,332.8,174.5z M326.7,174.1
		c0.1-0.1,0.2-0.3,0.3-0.2c0-0.1,0,0,0.1,0.1l-0.1,0.1C326.9,174,326.8,174.2,326.7,174.1z M330.2,209.5c-0.2,0-0.3,0.2-0.3,0.3
		C330,209.7,330.1,209.7,330.2,209.5z M318.3,176c0-0.3,0.2-0.2,0.3-0.1C318.4,176.1,318.3,176,318.3,176z M316.8,176
		c-0.1,0,0,0.2,0,0.2h-0.2C316.6,176.1,316.6,175.9,316.8,176L316.8,176z M338.4,171.1c-0.1,0.2-0.2,0.3-0.2,0.3
		C338.2,171.1,338.2,171.1,338.4,171.1z M335.9,170.3c0.1,0,0.2,0.1,0.3,0.1v-0.1c0,0,0-0.1-0.1-0.1
		C336,170.2,335.9,170.2,335.9,170.3z M331.5,173.3c-0.1-0.3,0-0.3,0.1-0.3C331.6,173.2,331.5,173.3,331.5,173.3z M337.1,169.8
		c0,0.1,0.2,0.3,0.3,0.1C337.3,169.8,337.3,169.8,337.1,169.8z M324.1,215.3c-0.2-0.2,0-0.2,0.1-0.2
		C324.2,215.2,324.2,215.2,324.1,215.3z M325.8,213.7c-0.2-0.2,0-0.2,0.1-0.2C325.9,213.6,325.9,213.6,325.8,213.7z M320.9,220.5
		c-0.1,0-0.2-0.1-0.2-0.1v0.2C320.7,220.5,320.8,220.5,320.9,220.5z M340.7,171.3C340.6,171.2,340.6,171.1,340.7,171.3L340.7,171.3z
		 M317,175.9c0,0.2-0.1,0.2-0.2,0.2C316.8,176,316.8,175.9,317,175.9z M311.3,216.5c0.2,0.2-0.1,0.2-0.2,0.2
		C311.2,216.7,311.2,216.6,311.3,216.5z M328,171.9c0,0-0.1,0-0.2,0.1L328,171.9C328,172,328,171.8,328,171.9z M329.4,173.6
		c0,0-0.1,0-0.2-0.1C329.4,173.5,329.4,173.5,329.4,173.6z M336,173.7c0-0.1-0.1-0.1-0.2,0h-0.1c0.1,0,0.1,0.1,0.1,0.1L336,173.7z
		 M333.2,206.2C333,206.2,333.1,206.2,333.2,206.2L333.2,206.2L333.2,206.2z M329.1,174.5C329.1,174.5,329,174.5,329.1,174.5
		L329.1,174.5C329.1,174.6,329.1,174.5,329.1,174.5z M330.8,174.9C330.8,174.8,330.8,174.8,330.8,174.9L330.8,174.9L330.8,174.9z
		 M324.4,214.9c0.2,0.2,0,0.2-0.1,0.2C324.4,215,324.4,215,324.4,214.9z M318.9,176.3c-0.1,0-0.1,0-0.1,0.2
		C318.9,176.4,318.9,176.4,318.9,176.3z M336.8,170C336.8,170,336.5,169.9,336.8,170L336.8,170z M320.7,220.7L320.7,220.7
		L320.7,220.7L320.7,220.7z M333.3,206c0,0.1,0,0.2-0.1,0.2C333.3,206.2,333.4,206.2,333.3,206z M333,206.2c-0.1,0-0.2,0,0,0.2
		V206.2z M335.1,172.2C335.1,172.1,335.2,172.2,335.1,172.2L335.1,172.2z M329.3,210.5L329.3,210.5L329.3,210.5L329.3,210.5z
		 M320.7,220.4C320.6,220.4,320.6,220.3,320.7,220.4L320.7,220.4z M338.2,172.8C338.2,172.8,338.3,172.8,338.2,172.8
		C338.3,172.8,338.2,172.6,338.2,172.8z M336.8,170c0-0.1,0.1,0.1,0-0.2V170z M328.8,210.4C328.9,210.5,328.8,210.5,328.8,210.4
		L328.8,210.4z M330,171.6C330,171.6,330,171.6,330,171.6L330,171.6z M326.6,174.1C326.6,174.2,326.7,174.2,326.6,174.1L326.6,174.1
		z"/>
	<path class="st14" d="M344,213.2c0.1-0.1,0.2-0.2,0.3-0.3c0.2-0.3,0.2-0.8,0-0.6c-0.1,0.1-0.3,0.3-0.3,0.4
		C344,212.9,344,213.1,344,213.2c-0.9,0.1-0.9,1-1.4,1.3c-0.2,0-0.3,0.1-0.3,0.2c0.1,0,0.2-0.1,0.3-0.1c-0.1,0.1-0.2,0.3-0.3,0.3
		c0,0,0-0.1,0-0.2l-0.3,0.3c0,0,0,0.1,0.1,0.2c-1,1.5-4.4,5.4-6,5.7c-0.3,0.3-1-0.9-1.5-0.9c-0.1-0.2-0.1-0.3-0.3-0.4
		c-0.4-0.8-0.5-1.5-0.3-2.3c0-0.4,0-0.9,0.1-1.3c0.1-1.1,0-2.2,0.4-3.3c0.1-0.2,0.1-0.3-0.1-0.5c-0.1-0.2-0.1-0.3,0-0.5
		c0.4-0.5,0.4-1.4,0.5-2c0.2-0.8,0.1-1.5,0.6-2.1c-0.2-0.9,0.4-1.4,0.6-2.2c0.2-0.9,0.8-3.3,1.1-4.1c1.4-2.9,2.7-6,3.2-9.1
		c0.1-0.9-0.5-2-1.3-2.4c-0.2,0-0.3-0.1-0.5-0.1h-0.9c-0.2,0-0.3,0.1-0.5,0.2c-0.9,1.4-1.4,2.8-1.9,4.4c-0.3,1.2-0.7,2.5-1.1,3.7
		c-0.2,0.6-0.4,1-0.6,1.6c-0.7,2.3-1.3,4.6-2,6.8c-0.2,1-0.5,1.9-0.6,2.7c-0.1,1.6-0.3,3.2-0.5,4.9c-0.1,1.2-0.2,2.4,0.2,3.7
		c0.1,0.2,0.1,0.4,0.2,0.7c0.1,0.7,0.4,1.3,0.9,1.8c0.5,0.6,1,1.3,1.5,1.9c0.4,0.6,1,1,1.8,1.3c0.3,0.2,0.6,0.2,0.9,0.2
		c1.4,0,3.4-1,4.4-2.3c0.6-0.5,0.4-0.7,0.9-1.4c0.5-0.5,1.2-2.3,0.9-3.2c0-0.2-0.1-0.3,0.1-0.3c0.2,0.1,0.3,0.3,0.4,0.3
		c0.2-0.3-0.1-0.6,0-0.9c0.1-0.3,0.3-0.6,0.4-0.9C343.5,214.3,344,213.8,344,213.2L344,213.2z M339.6,182.9c0.5,0.4,1.2,0.6,1.9,0.9
		c0.3-0.2,0.8-0.3,1.2-0.5c0.3-0.1,0.3-0.3,0.3-0.5c0.3-0.9,0.1-1.6,0.4-2.4c0.1-0.1,0-0.2-0.1-0.3c-0.2-0.2-0.5-0.3-0.8-0.3
		c-0.1,0-0.2,0-0.3,0.1c-0.8,0.5-1.6,1.1-2.3,1.7c-0.3,0.2-0.4,0.4-0.6,0.7C339.3,182.5,339.4,182.8,339.6,182.9z M342.4,215
		c0,0.1,0,0.2,0,0.2c0,0.1-0.1,0.1-0.1,0.2C342.3,215.1,342.3,215,342.4,215z"/>
	<path class="st14" d="M350.4,191c-0.4-0.1-0.9,0.2-1.4,0.5c-0.6,0.5-1.3,1.2-1.9,2c-0.6,0.7-0.9,1.6-0.9,2.6
		c-0.1,0.6,0,1.2-0.3,1.8c0,1.4-0.3,2.7,0.3,3.9c0.3,0.4,0.3,0.9,0.2,1.4c-0.9,2.5-2.7,7.4-2.7,9.7c0,1.7-0.3,3.5,0.3,5.2
		c-0.2,1.1,0.3,2,0.7,3c0.4,1,1,1.6,1.7,2.1c0.3,0.3,0.7,0.4,0.9,0.7c0.8,0.4,1.7,0.7,2.6,0.7c0.4,0,0.9-0.2,1.4-0.2
		c0.2,0,0.3,0,0.5,0.1c0.1,0.1,1.6-0.4,1.7-0.5c0.3-0.4,0.6-0.4,1-0.5c1.1-0.1,2.1-0.4,3-1.3c0.1-0.3,0.3-0.3,0.4-0.3
		c0.6-0.1,1.1-0.5,1.5-0.9c1.5-1,2.8-2.1,3.9-3.7c0.2-0.3,0.4-0.8,0.4-1.1c0-0.6,0.2-0.9,0.4-1.2c0.9-1,1.6-2.4,1.9-3.9
		c0.3-0.8,0.4-1.7,0.4-2.6c0-0.9,0.3-1.5,0.9-2c0.3-0.3,0.5-0.5,0.8-0.7c0.2-0.1,0.3-0.3,0.4-0.4c0.2-0.2,0.4-0.1,0.4-0.4
		c-0.2-0.1-0.3-0.2-0.5-0.2c-0.6,0-1.2,0.5-1.7,0.6c-0.2-0.6-0.3-1.2-0.3-1.6c0-2-0.7-5-1.5-6.8c-0.9-1.4-1.9-2.6-2.8-3.7
		c-0.1-0.1-0.2-0.2-0.3-0.2c-0.5-0.5-1-0.8-1.4-1.3c-0.4-0.5-1.1-0.3-1.5-0.7c-0.2-0.1-0.3-0.3-0.4-0.3c-0.6-0.3-1.1-0.4-1.7-0.4
		c-0.9,0-1.7-0.1-2.6-0.3c-0.4-0.1-0.8,0.3-1.2,0.2c-0.4,0-0.9,0-1.3,0.1C351.3,190.3,350.8,190.4,350.4,191z M363.7,212.3
		c-0.3,0.3-0.1,0.6-0.1,0.9c-0.3,0-0.4,0-0.5,0.3c-0.3,0.2-0.6,0.5-0.9,0.9c0.1,0.1,0.2,0.2,0.3,0.2c-0.1,0.1-0.2,0.3-0.3,0.3
		c-0.1,0.3-0.3,0.7-0.5,1.1h0.5c-0.1,0.4-0.4,0.8-0.8,0.7v-0.4c-0.4,0-0.8,0.3-1,0.6c-0.7,0.6-1.5,1-2.2,1.4c-1.7,1-3.3,1.7-5.2,2.3
		c-0.3,0.1-0.7,0.2-1.1,0.2c-0.4,0-0.9,0-1.3,0c-1.4,0-2.5-0.1-3.5-1c-0.8-0.5-1.3-1.1-1.6-2.1c-0.7-2.4-0.6-4.6,0.2-6.8
		c0.1-0.3,0.3-0.9,0.3-1.4c0.1-0.3,0.2-0.4,0.2-0.6c0.5-1,1-1.9,1.5-3c0.1-0.1,0.2-0.2,0.3-0.2c0.1,0,0.2,0,0.2,0.1
		c0.6,1,1.5,1.5,2.3,1.9c1,0.7,4.2,2.1,5.5,2.1c0,0,0.1,0,0.2,0c0.4-0.2,0.9,0.4,1.5,0.4c0.5,0,0.9-0.4,1.4-0.4c0.1,0,0.2,0,0.3,0
		c0.1,0,0.2,0,0.3,0c0.8,0,1.5-0.3,2.2-0.4c0.4-0.2,0.7-0.4,0.8-0.9c0.1-0.2,0-0.6,0.3-0.4c0.3,0,0.6,0,0.9-0.2c0.1,0,0.3,0,0.4-0.1
		c0.3-0.1,0.4-0.2,0.7-0.2c0.1,0,0.3,0,0.3,0.2c0.1,0.3-0.2,0.7-0.3,0.9c-0.3,0.4-0.3,0.8-0.3,1.4c-0.4,0.3-0.7,0.6-0.5,1.1
		c0.1,0.5,0,0.7-0.2,0.9C363.8,212.2,363.8,212.3,363.7,212.3z M360,206.9c-0.3,0.1-0.4,0.1-0.7,0.1c-1.6,0-3.4-0.1-5-0.5
		c-0.3-0.3-0.8-0.3-1.1-0.4c-0.9-0.3-1.7-0.6-2.4-1.3c-0.5-0.6-1.2-0.9-1.6-1.5c-0.3-0.4-0.3-0.6-0.1-1.1c0.6-1.7,3.2-5,4.5-6.2
		c0.7-0.5,1.5-0.9,2.1-1.4c0.4-0.3,0.9-0.3,1.5-0.6c0.1,0,0.3,0.1,0.5,0.3c1.3,0.3,2.5,0.9,3.8,1.5c0.2,0.2,0.4,0.3,0.6,0.3
		c0.8,0.3,1.3,0.8,1.7,1.5c0.1,0.1,0.1,0.2,0.2,0.3c0.7,1.2,1.3,2.8,1.3,4.2c0.1,0.6,0,1.3,0.2,1.9c0.3,0.4,0,0.9-0.1,1.3
		c-0.2,0.3-0.3,0.3-0.6,0.3c-0.6,0.3-1.2,0.3-1.7,0.9c-0.2,0.2-0.5,0.2-0.8,0.2C361.6,206.7,360.7,206.7,360,206.9z M348.4,199
		c-0.2,0.3-0.3,0.7-0.7,0.9c-0.4-0.8-0.4-1.5-0.3-2.2c0.2-1,0.7-1.7,1.2-2.2c0.7-0.5,1.4-0.9,2.1-1.4c0.2,0,0.3,0,0.3,0
		c0.1,0,0.3,0,0.3,0.1c-0.1,0.3-0.2,0.4-0.3,0.5C350,195.8,349.1,197.3,348.4,199z M361.6,208c0.2,0.1,0.3,0.3,0.3,0.5
		c-0.3,0.2-0.8,0-1.2,0.3v-0.1v-0.2C360.9,208.3,361.1,208,361.6,208z M363,214.5c0.1-0.3,0.3-0.4,0.4-0.6c0.2,0,0.3,0.3,0.2,0.4
		c-0.1,0.2-0.3,0.3-0.4,0.4c0,0.2-0.1,0-0.2,0V214.5z M358.7,208.6l-0.2-0.2c0.2-0.2,0.3-0.2,0.3-0.2c0.1,0,0.3,0,0.3,0.1
		c0,0,0,0.1,0,0.3H358.7z M350.6,191.2c-0.2,0-0.2-0.2-0.3-0.3c0.1,0.1,0.2,0.1,0.4,0.2C350.7,191.1,350.6,191.3,350.6,191.2z
		 M363.8,213.5c0-0.1-0.1-0.2-0.1-0.3h0.3C363.9,213.3,363.9,213.4,363.8,213.5z M362.2,214.5c-0.2,0.2-0.2,0.2,0,0.4V214.5z
		 M369.1,204L369.1,204L369.1,204L369.1,204z M363.3,216.1L363.3,216.1L363.3,216.1L363.3,216.1z"/>
	<path class="st14" d="M384,202.9c0.3-0.9,1.4-2.4,2.3-3.2c-0.1-0.5-0.1-0.6,0.5-0.7c-0.1-0.3,0.2-0.7,0.3-0.9
		c0.4-0.5,0.9-1,1.2-1.6c0-0.2,0.1-0.2,0.2-0.3c0.1-0.1,0.2-0.3,0.3-0.1c0.1,0,0.2,0.2,0.2,0.3c-0.1,0.9-0.2,1.8-0.3,2.7
		c-0.2,1.2-0.2,2.4-0.4,3.6c0.1,2-0.5,4-0.2,6.2c0.1,0.1,0,0.2,0,0.2c-0.2,1.4,0,2.7,0.3,4.2c0.3,1.3,1,2.5,1.8,3.7
		c0.1,0.2,0.2,0.3,0.3,0.4c0.9,0.7,1.8,1.5,2.7,2.1c0.3,0.3,0.8,0.3,1.2,0.3c1.8,0,4.4-1.9,6-5.2c0.3-0.5,0.4-1.2,0.2-1.2
		c-0.3,0-0.7,0.3-1.4,1.2c-1.3,2.2-1,2.1-3.2,3.2c-0.6,0.3-1.1,0.5-1.5,0.5c-0.7,0-1.3-0.5-1.9-1.6c-0.3-0.9-0.9-1.9-0.7-2.9
		c0.1-0.5-0.3-1.2-0.3-1.7c0.1-2,0-3.9,0.3-5.9c0.1-0.6-0.2-1.2,0-1.7c0.4-0.9,0.4-2,0.5-2.9c0.3-1.6,0.5-3.2,0.8-4.8
		c0.2-0.9,0.2-2.1-0.3-3.1c-0.4-1.1-0.8-1.5-2-1.5h-0.3c-2,0-3.8,2.9-4.8,4.4c-0.9,1.5-2.1,2.7-2.9,4.2c-0.6,0.9-1.2,1.7-1.7,2.6
		c-0.9,1.5-1.4,3.1-2.4,4.4c-0.1,0.1-0.1,0.1-0.1,0.2c-0.7,1.5-1.5,3-2.3,4.4c-0.6,0.9-0.9,2.1-1.5,3.2c-1,1.7-2.1,3.4-3.2,5.1
		c-0.3,0.5-0.6,0.9-1.1,0.9c-0.1-0.3-0.2-0.5-0.2-0.8c0-0.3,0.1-0.4,0.1-0.7c0.3-1.5,0.5-3,0.9-4.4c0.3-1.9,0.7-3.8,1.4-5.6
		c0.3-0.9,0.8-1.8,0.9-2.8c0.2-1,0.4-2.1,0.9-3.1c0.7-1.3,1.1-2.7,1.5-4.1c0.1-0.4,1.2-3.8,1.4-4.1c-0.3-0.5-0.1-1-0.4-1.4
		c-0.5-0.6-1-1.1-1.7-1.3c-0.2-0.1-0.3-0.1-0.5-0.1c-1.5,0-2.4,3.6-2.7,4.7c-0.1,0.5-0.2,1.1-0.3,1.7c-0.8,2.2-1.5,4.4-2.1,6.7
		c-0.2,0.8-0.3,1.6-0.8,2.3c-0.3,1.9-0.9,3.7-1.2,5.6c-0.3,1.9-0.8,3.8-0.8,5.8c0,0.5,0,1,0.1,1.5c0.2,0.7,0.6,1.3,1.3,1.7
		c0.4,0.3,0.9,0.6,1.3,0.9c0.4,0.4,0.9,0.6,1.4,0.6c0.3,0,0.6-0.1,0.9-0.2c0.3-0.2,0.5-0.4,0.9-0.6c0.3-0.3-0.1-0.6,0.1-0.8
		c0.3-0.6,0.5-1.2,0.7-1.8c0.2-0.3,0.3-0.6,0.7-0.8c0.5-0.3,1-0.8,1-1.5c0-0.2,0.1-0.4,0.3-0.5c0.5-0.2,0.6-0.6,0.8-1
		c0.3-0.8,0.9-1.4,1.3-2.1c0.7-1.3,1.4-2.6,1.9-3.9c0.6-1.5,1.4-2.7,2.3-3.8v-0.7c0.7-0.2,0.6-1.1,1.5-1c0.2,0,0.2-0.3,0.1-0.3
		c-0.4-0.4-0.3-0.7,0-1c0.2-0.3,0.6-0.3,0.9-0.5c0.2-0.1,0.1-0.2-0.3-0.5V202.9z M388.7,207.7c0.1-1.3,0-2.6,0.3-3.8
		c0.3,0.1,0.5,0.2,0.4,0.5c-0.1,0.4-0.3,0.8-0.3,1.3c0.2,0.4-0.3,0.9,0.2,1.4c0,0.3,0,0.5-0.1,0.9c0,0.2-0.2,0.3-0.3,0.2
		C388.8,208,388.7,207.9,388.7,207.7z M389.5,201.4c0.1,0,0.2,0.1,0.3,0.2v0.2c-0.3,0.4,0.1,0.9-0.2,1.5c-0.2,0.1-0.3,0.2-0.3,0.2
		c0,0-0.1-0.1-0.1-0.2c0-0.6,0-1.1,0.1-1.7C389.2,201.4,389.4,201.4,389.5,201.4z M389.7,200.2c0.1,0,0.2,0.1,0.3,0.2v0.2
		c-0.2,0.1-0.4,0.2-0.6,0.3c-0.1,0-0.2-0.1-0.2-0.2c-0.1-0.2,0-0.3,0.2-0.5H389.7z M369.1,214.1c-0.1,0.1-0.3,0.2-0.3,0.3
		c0,0.1-0.1,0.2-0.1,0.2c-0.3-0.2,0.1-0.1,0.1-0.2c0-0.2-0.1-0.3,0-0.4c0.1-0.2,0.2-0.3,0.3-0.4
		C369.2,213.4,369.2,213.9,369.1,214.1z M369.4,211.6c0.1,0.1,0.1,0.2,0.2,0.3c-0.1,0.1-0.2,0.2-0.2,0.1
		C369.3,211.9,369.3,211.8,369.4,211.6L369.4,211.6z M371,206.4l-0.1-0.2L371,206.4L371,206.4z M368.6,216.4L368.6,216.4
		L368.6,216.4L368.6,216.4z M371.5,205L371.5,205L371.5,205L371.5,205z M389.6,199.5L389.6,199.5L389.6,199.5L389.6,199.5z
		 M381.6,209.1L381.6,209.1L381.6,209.1L381.6,209.1z"/>
	<path class="st14" d="M60.2,158.7h7.3v-57.8h-7.3V158.7z"/>
	<path class="st14" d="M167.3,158.7l-9.6-57.8h-7.2l-19.2,42.5l-19.1-42.5h-7l-9.8,57.8h7.4l7.6-45.1l19.9,43.7h2l19.9-43.7
		l7.5,45.1H167.3z"/>
	<path class="st14" d="M235.8,158.7h7.8l-24.3-57.8h-6.8L189,158.7h7.7l5.6-13.8h27.8L235.8,158.7z M216.1,110.9l11.3,27.3H205
		L216.1,110.9z"/>
	<path class="st14" d="M292.9,130v6.9H316c-2.1,9.4-10.4,15.7-21,15.7c-13.1,0-22-9.3-22-22.7c0-13.3,9.2-22.7,22-22.7
		c9.8,0,18,5.5,20.5,14h7.5c-2.6-12.4-14.3-21.1-28.2-21.1c-16.9,0-29.2,12.6-29.2,29.8c0,17.2,12.3,29.8,29.3,29.8
		c16.7,0,28.6-12.2,28.9-29.7H292.9z"/>
	<path class="st14" d="M352,158.7h7.3v-57.8H352V158.7z"/>
	<path class="st14" d="M430.6,100.9v44.6l-32.4-44.6h-6.6v57.8h7.1v-45.1l32.9,45.1h6.1v-57.8H430.6z"/>
	<path class="st14" d="M477.3,151.8v-19.4h23.3v-6.7h-23.3v-17.8h25.5v-6.9H470v57.8h33.6v-6.9H477.3z"/>
</g>
</svg>
