<?xml version="1.0" encoding="UTF-8"?>
<svg id="Layer_1" data-name="Layer 1" xmlns="http://www.w3.org/2000/svg" viewBox="0 0 100 100">
  <defs>
    <style>
      .cls-1 {
        fill: #fff;
      }
    </style>
  </defs>
  <rect width="100" height="100"/>
  <rect class="cls-1" x="5.13" y="5.13" width="89.74" height="89.74"/>
  <g>
    <path d="M15.64,18h2.2v14.99h-2.2v-14.99Z"/>
    <path d="M21.07,18h2.07l6.58,10.66h.04v-10.66h2.2v14.99h-2.08l-6.57-10.66h-.04v10.66h-2.2v-14.99Z"/>
    <path d="M35.47,18h9.28v2.14h-7.08v4.43h6.04v2.01h-6.04v6.41h-2.2v-14.99Z"/>
    <path d="M46.29,25.5c0-1.75.05-2.91.15-3.5.11-.59.27-1.07.49-1.43.35-.69.92-1.3,1.69-1.84.76-.55,1.72-.83,2.86-.84,1.15.01,2.12.29,2.89.84.76.54,1.31,1.16,1.65,1.85.25.36.41.84.51,1.43.09.59.13,1.76.13,3.5s-.04,2.87-.13,3.48c-.09.6-.26,1.09-.51,1.45-.34.69-.89,1.3-1.65,1.83-.77.55-1.73.84-2.89.86-1.14-.03-2.09-.32-2.86-.86-.78-.53-1.34-1.14-1.69-1.83-.11-.23-.2-.44-.29-.65-.08-.21-.15-.48-.2-.8-.1-.6-.15-1.76-.15-3.48ZM48.49,25.5c0,1.48.05,2.48.16,3,.09.52.28.94.57,1.27.23.31.54.56.92.75.37.23.82.34,1.34.34s.98-.11,1.37-.34c.37-.19.66-.44.88-.75.29-.32.48-.75.59-1.27.1-.52.15-1.52.15-3s-.05-2.48-.15-3.02c-.11-.51-.3-.92-.59-1.25-.22-.31-.51-.57-.88-.77-.39-.2-.84-.31-1.37-.32-.52.01-.96.12-1.34.32-.38.21-.69.46-.92.77-.29.32-.48.74-.57,1.25-.11.54-.16,1.54-.16,3.02Z"/>
    <path d="M15.64,43.27h5.08c1.97.01,3.44.86,4.42,2.53.35.56.57,1.15.67,1.77.07.62.11,1.68.11,3.2,0,1.61-.06,2.74-.17,3.37-.05.32-.13.61-.24.86-.11.25-.25.5-.41.77-.43.71-1.02,1.29-1.77,1.75-.75.49-1.67.74-2.76.74h-4.93v-14.99ZM17.83,56.13h2.63c1.24,0,2.13-.44,2.69-1.31.25-.32.4-.73.47-1.23.06-.49.09-1.4.09-2.74s-.03-2.24-.09-2.8c-.08-.56-.27-1.02-.57-1.37-.61-.87-1.48-1.29-2.59-1.27h-2.63v10.72Z"/>
    <path d="M28.9,43.27h9.28v2.14h-7.08v4.29h6.04v2.01h-6.04v4.41h7.08v2.14h-9.28v-14.99Z"/>
    <path d="M40.79,54.63c1.16.98,2.53,1.48,4.13,1.49,1.89-.03,2.84-.72,2.87-2.09.01-1.12-.62-1.79-1.89-2.02-.58-.08-1.23-.18-1.92-.28-1.25-.21-2.2-.69-2.85-1.43-.67-.76-1.01-1.69-1.01-2.78,0-1.31.42-2.37,1.26-3.17.82-.8,1.97-1.2,3.47-1.21,1.8.04,3.37.56,4.71,1.55l-1.23,1.87c-1.09-.74-2.29-1.13-3.6-1.15-.68,0-1.24.18-1.69.53-.47.36-.71.91-.73,1.63,0,.43.16.82.49,1.17.33.36.85.6,1.56.74.4.07.94.15,1.63.24,1.36.19,2.37.7,3.02,1.51.64.8.97,1.74.97,2.8-.07,2.87-1.77,4.32-5.1,4.36-2.15,0-4-.68-5.54-2.05l1.44-1.71Z"/>
    <path d="M52.7,43.27h2.2v14.99h-2.2v-14.99Z"/>
    <path d="M62.84,50.02h5.16v3.05c-.03,1.5-.52,2.76-1.49,3.77-.98,1.01-2.2,1.52-3.68,1.55-1.14-.03-2.09-.32-2.86-.86-.78-.53-1.34-1.14-1.69-1.83-.11-.23-.2-.44-.29-.65-.08-.21-.15-.48-.2-.8-.1-.6-.15-1.76-.15-3.48s.05-2.91.15-3.5c.11-.59.27-1.07.49-1.43.35-.69.92-1.31,1.69-1.85.76-.55,1.72-.83,2.86-.84,1.4.01,2.54.44,3.42,1.29.88.85,1.44,1.9,1.67,3.16h-2.33c-.18-.61-.51-1.12-.98-1.55-.49-.41-1.09-.62-1.79-.63-.52.01-.96.12-1.34.32-.38.21-.68.46-.92.77-.29.32-.48.74-.57,1.25-.11.54-.16,1.54-.16,3.02s.05,2.48.16,3c.09.52.28.94.57,1.27.23.31.54.56.92.75.37.23.82.34,1.34.34.86,0,1.57-.3,2.13-.91.56-.58.84-1.34.86-2.28v-.78h-2.96v-2.14Z"/>
    <path d="M70.97,43.27h2.07l6.58,10.66h.04v-10.66h2.2v14.99h-2.08l-6.57-10.66h-.04v10.66h-2.2v-14.99Z"/>
    <path d="M15.64,68.55h2.2v12.86h7.08v2.14h-9.28v-14.99Z"/>
    <path d="M34.79,80.19h-5.51l-1.12,3.35h-2.33l5.28-14.99h1.84l5.28,14.99h-2.32l-1.13-3.35ZM34.16,78.17l-2.1-6.56h-.04l-2.1,6.56h4.24Z"/>
    <path d="M40.19,68.55h5.63c1.43.01,2.5.38,3.22,1.11.72.73,1.09,1.7,1.09,2.91.01.62-.13,1.21-.43,1.77-.15.27-.37.52-.66.76-.29.25-.64.48-1.06.69v.04c.79.21,1.39.64,1.8,1.29.38.67.57,1.39.57,2.17-.01,1.3-.41,2.32-1.18,3.07-.76.79-1.72,1.18-2.86,1.18h-6.12v-14.99ZM42.39,70.56v4.31h3.18c.8,0,1.4-.22,1.77-.65.39-.4.58-.9.58-1.51s-.19-1.12-.58-1.54c-.38-.39-.97-.6-1.77-.61h-3.18ZM42.39,76.88v4.52h3.39c.82-.01,1.42-.24,1.8-.69.38-.44.57-.96.57-1.57s-.19-1.15-.57-1.59c-.38-.43-.98-.66-1.8-.67h-3.39Z"/>
  </g>
</svg>