<?xml version="1.0" encoding="UTF-8"?>
<svg id="Capa_1" data-name="Capa 1" xmlns="http://www.w3.org/2000/svg" xmlns:xlink="http://www.w3.org/1999/xlink" viewBox="0 0 918.42505 357.1651">
  <defs>
    <style>
      .cls-1 {
        fill: #bdbcbc;
      }

      .cls-1, .cls-2, .cls-3, .cls-4, .cls-5 {
        stroke-width: 0px;
      }

      .cls-2 {
        fill: none;
      }

      .cls-3 {
        fill: #fff;
      }

      .cls-6 {
        clip-path: url(#clippath);
      }

      .cls-4 {
        fill: #ae0e16;
      }

      .cls-5 {
        fill: #1d1d1b;
      }
    </style>
    <clipPath id="clippath">
      <rect class="cls-2" x=".12" y=".00006" width="918.30505" height="357.16504"/>
    </clipPath>
  </defs>
  <g class="cls-6">
    <polygon class="cls-3" points="0 0 0 357.1651 918.42505 357.1651 918.42505 0 0 0 0 0"/>
  </g>
  <path class="cls-5" d="M86.30109,268.10507l-.47327.31198c.07278.117.18198.35001.18198.54501,0,1.05203-3.13147,3.58301-6.5907,3.58301-4.47867,0-8.8118-3.23199-8.8118-7.94501,0-5.37396,4.22382-7.71097,8.1564-7.71097,3.8598,0,6.99118,1.987,6.99118,2.84296,0,.23401-.10919.39001-.18198.50705l.4733.23297,2.2576-4.16702-.43689-.31097c-.14569.194-.18213.35001-.54623.35001-.4006,0-1.23795-.54501-2.65808-1.05099-1.4201-.50702-3.35001-1.05203-5.7168-1.05203-6.95483,0-11.3244,4.71204-11.3244,9.97003,0,6.26996,4.66092,10.98199,11.47,10.98199,6.0809,0,8.37491-3.271,8.8847-3.271.21851,0,.4006.07797.5462.27197l.47339-.35001-2.69461-3.73898h0ZM101.048,257.59006c-5.60788,0-9.1763,3.97299-9.1763,8.80203s3.56842,8.80099,9.1763,8.80099c5.60699,0,9.17599-3.97198,9.17599-8.80099s-3.569-8.80203-9.17599-8.80203h0ZM101.048,259.77109c4.151,0,6.772,2.92099,6.772,6.58197,0,3.69904-2.621,6.659-6.772,6.659-4.15131,0-6.7731-2.95996-6.7731-6.659,0-3.66098,2.6218-6.58197,6.7731-6.58197h0ZM117.68802,274.95908v-.46698c-.76501,0-.98303-.19504-.98303-1.09v-12.54004l10.30499,12.57904c.255.31097.43701.46695.43701.70096,0,.233-.073.35004-1.01999.35004v.46698h4.87903v-.46698c-.76401,0-.98303-.19504-.98303-1.09v-14.02002c0-.89603.21902-1.09103.98303-1.09103v-.46698h-4.005v.46698c.76495,0,.98297.19501.98297,1.09103v12.03302l-9.86798-12.11105c-.255-.31198-.40002-.50598-.40002-.66199,0-.19501.21799-.35101.983-.35101v-.46698h-5.31598v.46698c.76401,0,.983.19501.983,1.09103v14.02002c0,.89496-.21899,1.09-.983,1.09v.46698h4.005ZM134.76498,273.98605l.43698.15601c.07303-.27301.29105-.58499.65604-.58499.76401,0,3.31299,1.63602,7.064,1.63602,5.534,0,7.93799-1.86902,7.93799-5.53,0-7.00998-13.07297-2.33701-13.07297-6.97101,0-1.44101.76501-2.92099,4.51599-2.92099,2.87601,0,5.78897,1.20798,5.78897,2.02496,0,.23401-.03598.35104-.07297.46802l.43698.194,1.34802-3.81601-.47403-.19501c-.21796.46704-.36398.54501-.58197.54501-.58301,0-2.513-1.40201-6.33603-1.40201-3.64099,0-6.88199,1.48004-6.88199,5.41403,0,7.20401,13.07202,2.29697,13.07202,7.24298,0,1.75299-2.039,2.76498-5.31604,2.76498-3.496,0-6.737-1.47998-6.737-2.33597,0-.15601.03702-.35101.07303-.50702l-.43701-.11697-1.42001,3.93396h0ZM155.48401,273.4021c0,.89496-.146,1.09-.83698,1.09v.46698h15.07397c.72897,0,.91101.27298.91101.935h.43698v-4.05002h-.43698c0,.66202-.18204.935-.91101.935h-11.83401v-5.52997h8.047c.72903,0,.91101.27197.91101.93399h.43701v-4.05002h-.43701c0,.66202-.18198.93503-.91101.93503h-8.047v-5.06302h11.43402c.728,0,.91.27301.91.93503h.43701v-4.05099h-.43701c0,.66199-.18201.93497-.91.93497h-14.67398v.46698c.69098,0,.83698.19501.83698,1.09103v14.02002h0ZM180.31702,257.82407v.46698c.76498,0,.91.19501.91,1.09103v10.125c0,2.72598-.91,3.50497-3.67703,3.50497-2.11197,0-4.07797-.70099-4.07797-1.71298,0-.19501.03598-.35101.07199-.54599l-.43701-.15503-1.45599,3.85501.36401.15601c.255-.31201.43698-.50598.728-.50598.401,0,.98297.27197,1.78497.54501.76401.27197,1.74701.54498,3.05801.54498,3.38702,0,5.89899-1.05103,5.89899-4.90701v-10.90399c0-.89603.14603-1.09103.91003-1.09103v-.46698h-4.078ZM197.13901,257.59006c-5.60699,0-9.17599,3.97299-9.17599,8.80203s3.569,8.80099,9.17599,8.80099c5.60797,0,9.17598-3.97198,9.17598-8.80099s-3.56801-8.80203-9.17598-8.80203h0ZM197.13901,259.77109c4.15097,0,6.77299,2.92099,6.77299,6.58197,0,3.69904-2.62202,6.659-6.77299,6.659s-6.77301-2.95996-6.77301-6.659c0-3.66098,2.62201-6.58197,6.77301-6.58197h0ZM217.202,273.01205l.36401.23404c.25499-.31201.47398-.46704.765-.46704,1.09201,0,3.34999,2.41403,8.59299,2.41403,6.19101,0,9.468-3.19302,9.468-6.46503,0-10.047-15.51199-2.95898-15.51199-8.25598,0-2.10303,2.476-3.65997,6.409-3.65997,3.53201,0,6.008,1.55695,6.008,2.297,0,.15601,0,.31198-.037.50598l.401.27298,2.00301-4.478-.437-.19501c-.21901.27203-.437.50601-.94701.50601-.94701,0-2.84-1.48001-6.991-1.48001-5.317,0-9.395,2.57104-9.395,6.26999,0,9.61902,15.51201,2.14206,15.51201,8.21701,0,2.259-1.966,3.89499-6.55399,3.89499-3.56902,0-7.31902-1.86996-7.31902-3.30997,0-.15598.036-.31198.10901-.50702l-.47301-.272-1.96701,4.478h0ZM256.20001,259.38208c0-.89603.146-1.09103.76501-1.09103v-.46698h-3.78702v.46698c.61899,0,.76401.19501.76401,1.09103v9.61902c0,2.95996-2.29401,4.01096-5.75304,4.01096s-5.75298-1.05099-5.75298-4.01096v-9.61902c0-.89603.146-1.09103.765-1.09103v-.46698h-3.787v.46698c.619,0,.76399.19501.76399,1.09103v10.125c-.036,4.36197,4.334,5.686,8.01099,5.686,3.67802,0,8.04701-1.32404,8.01103-5.686v-10.125h0ZM261.73401,273.4021c0,.89496-.14502,1.09-.91003,1.09v.46698h4.07803v-.46698c-.76401,0-.91-.19504-.91-1.09v-5.92001h6.88199c2.69504,0,5.17102-1.94702,5.17102-4.86801,0-3.23199-1.85703-4.79001-5.46201-4.79001h-9.75903v.46698c.76501,0,.91003.19501.91003,1.09103v14.02002h0ZM263.992,259.84906h6.19c2.33099,0,3.45898.81799,3.45898,2.68704,0,1.71396-.98297,2.76495-2.94904,2.76495h-6.69995v-5.452h0ZM278.99396,273.4021c0,.89496-.14597,1.09-.83795,1.09v.46698h15.07501c.72897,0,.91095.27298.91095.935h.43704v-4.05002h-.43704c0,.66202-.18198.935-.91095.935h-11.83401v-5.52997h8.047c.72897,0,.91101.27197.91101.93399h.43698v-4.05002h-.43698c0,.66202-.18204.93503-.91101.93503h-8.047v-5.06302h11.43399c.72797,0,.91.27301.91.93503h.43704v-4.05099h-.43704c0,.66199-.18204.93497-.91.93497h-14.67499v.46698c.69199,0,.83795.19501.83795,1.09103v14.02002h0ZM300.659,259.84906h7.392c2.14804,0,2.767.81799,2.767,2.68704,0,1.71396-.65503,2.53198-2.40298,2.53198h-7.75601v-5.21902h0ZM300.659,267.24908h5.75299l3.569,5.99701c.255.46698.40002.70099.40002.93497,0,.233-.07199.31104-.582.31104v.46698h3.93198v-.46698c-.39999,0-.582-.15601-.90994-.70102l-4.00507-6.54199c2.80298-.07803,4.40601-1.63602,4.40601-4.63501,0-2.92102-1.45697-4.79001-4.58798-4.79001h-11.14301v.46698c.76498,0,.91104.19501.91104,1.09103v14.02002c0,.89496-.14606,1.09-.91104,1.09v.46698h4.07901v-.46698c-.76501,0-.91101-.19504-.91101-1.09v-6.15302h0ZM321.487,274.95908v-.46698c-.76501,0-.91-.19504-.91-1.09v-14.02002c0-.89603.14499-1.09103.91-1.09103v-.46698h-4.078v.46698c.76404,0,.91.19501.91,1.09103v14.02002c0,.89496-.14597,1.09-.91,1.09v.46698h4.078ZM333.758,257.59006c-5.60797,0-9.17599,3.97299-9.17599,8.80203s3.56802,8.80099,9.17599,8.80099c5.60699,0,9.17599-3.97198,9.17599-8.80099s-3.569-8.80203-9.17599-8.80203h0ZM333.758,259.77109c4.151,0,6.77301,2.92099,6.77301,6.58197,0,3.69904-2.62201,6.659-6.77301,6.659s-6.77301-2.95996-6.77301-6.659c0-3.66098,2.62201-6.58197,6.77301-6.58197h0ZM348.54099,259.84906h7.39203c2.14798,0,2.767.81799,2.767,2.68704,0,1.71396-.655,2.53198-2.40302,2.53198h-7.75601v-5.21902h0ZM348.54099,267.24908h5.75302l3.569,5.99701c.255.46698.39999.70099.39999.93497,0,.233-.073.31104-.582.31104v.46698h3.93201v-.46698c-.39999,0-.582-.15601-.91-.70102l-4.00601-6.54199c2.80402-.07803,4.40601-1.63602,4.40601-4.63501,0-2.92102-1.45596-4.79001-4.58798-4.79001h-11.14203v.46698c.76501,0,.91.19501.91,1.09103v14.02002c0,.89496-.14499,1.09-.91,1.09v.46698h4.078v-.46698c-.76398,0-.91-.19504-.91-1.09v-6.15302h0ZM375.88702,260.00507h5.20697c4.51501,0,6.263,2.88199,6.263,6.38702s-1.74799,6.38696-6.263,6.38696h-5.20697v-12.77399h0ZM373.62903,273.4021c0,.89496-.14603,1.09-.91003,1.09v.46698h8.81201c5.75299,0,8.229-3.73798,8.229-8.56699s-2.47601-8.56802-8.229-8.56802h-8.81201v.46698c.76401,0,.91003.19501.91003,1.09103v14.02002h0ZM393.10999,273.4021c0,.89496-.146,1.09-.83795,1.09v.46698h15.07495c.72803,0,.91.27298.91.935h.43701v-4.05002h-.43701c0,.66202-.18198.935-.91.935h-11.83398v-5.52997h8.047c.728,0,.91.27197.91.93399h.43704v-4.05002h-.43704c0,.66202-.18201.93503-.91.93503h-8.047v-5.06302h11.43301c.72897,0,.91098.27301.91098.93503h.43701v-4.05099h-.43701c0,.66199-.18201.93497-.91098.93497h-14.67398v.46698c.69196,0,.83795.19501.83795,1.09103v14.02002h0ZM424.86099,274.95908v-.46698c-.69199,0-.87399-.38901-.87399-.93503v-17.67999c0-.54501.18201-.935.87399-.935v-.46701h-4.806v.46701c.69101,0,.87399.38998.87399.935v17.67999c0,.54602-.18298.93503-.87399.93503v.46698h4.806ZM432.98099,274.95908v-.46698c-.76498,0-.983-.19504-.983-1.09v-12.54004l10.30402,12.57904c.255.31097.43701.46695.43701.70096,0,.233-.07202.35004-1.01901.35004v.46698h4.879v-.46698c-.76498,0-.983-.19504-.983-1.09v-14.02002c0-.89603.21802-1.09103.983-1.09103v-.46698h-4.005v.46698c.76401,0,.983.19501.983,1.09103v12.03302l-9.86798-12.11105c-.255-.31198-.40002-.50598-.40002-.66199,0-.19501.21802-.35101.983-.35101v-.46698h-5.31699v.46698c.76498,0,.98401.19501.98401,1.09103v14.02002c0,.89496-.21902,1.09-.98401,1.09v.46698h4.00598ZM447.655,258.29105c.582,0,.87399.27304,1.09201.77905l5.89899,13.51401c.32803.77896.54599,1.24594.54599,1.55795,0,.272-.21796.35004-.655.35004v.46698h4.224v-.46698c-.58298.03897-.80099-.19504-.80099-.50604,0-.23398.18201-.70096.29102-.935l5.57098-14.13696c.146-.35001.40103-.62305.728-.62305v-.46698h-3.71399v.46698c.58301,0,.80099.23401.80099.58505,0,.194-.10898.54498-.21799.81696l-4.73401,12.112-5.16998-11.79999c-.146-.38998-.401-.81799-.401-1.05197,0-.50604.401-.70099.83801-.66205v-.46698h-4.29703v.46698h0ZM466.55301,273.4021c0,.89496-.146,1.09-.83801,1.09v.46698h15.07501c.729,0,.91098.27298.91098.935h.43701v-4.05002h-.43701c0,.66202-.18198.935-.91098.935h-11.83401v-5.52997h8.047c.729,0,.91101.27197.91101.93399h.43701v-4.05002h-.43701c0,.66202-.18201.93503-.91101.93503h-8.047v-5.06302h11.43402c.728,0,.90997.27301.90997.93503h.43701v-4.05099h-.43701c0,.66199-.18198.93497-.90997.93497h-14.67502v.46698c.69202,0,.83801.19501.83801,1.09103v14.02002h0ZM483.59399,273.98605l.43701.15601c.073-.27301.29099-.58499.655-.58499.76498,0,3.314,1.63602,7.064,1.63602,5.535,0,7.93799-1.86902,7.93799-5.53,0-7.00998-13.07199-2.33701-13.07199-6.97101,0-1.44101.76501-2.92099,4.51501-2.92099,2.87695,0,5.79001,1.20798,5.79001,2.02496,0,.23401-.03705.35104-.073.46802l.43698.194,1.34702-3.81601-.47302-.19501c-.21896.46704-.36398.54501-.58301.54501-.58203,0-2.51199-1.40201-6.33499-1.40201-3.64197,0-6.88199,1.48004-6.88199,5.41403,0,7.20401,13.07202,2.29697,13.07202,7.24298,0,1.75299-2.039,2.76498-5.31699,2.76498-3.49506,0-6.73605-1.47998-6.73605-2.33597,0-.15601.03601-.35101.073-.50702l-.43698-.11697-1.42001,3.93396h0ZM516.25598,256.8891h-.43701c0,.66199-.18195.93497-.90997.93497h-13.69101c-.72897,0-.91095-.27298-.91095-.93497h-.43704v4.05099h.43704c0-.66202.18198-.93503.91095-.93503h5.64301v13.39703c0,.89496-.14499,1.09-.90997,1.09v.46698h4.22397v-.46698c-.76501,0-.90997-.19504-.90997-1.09v-13.39703h5.64398c.72803,0,.90997.27301.90997.93503h.43701v-4.05099h0ZM522.33698,274.95908v-.46698c-.76495,0-.90997-.19504-.90997-1.09v-14.02002c0-.89603.14502-1.09103.90997-1.09103v-.46698h-4.078v.46698c.76404,0,.91003.19501.91003,1.09103v14.02002c0,.89496-.146,1.09-.91003,1.09v.46698h4.078ZM542.76404,259.69305l-.43701-.194c-.073.07803-.146.27203-.43701.27203-.36401,0-3.20404-2.18103-7.21002-2.18103-5.935,0-9.24799,4.55704-9.24799,8.724,0,5.686,3.96899,8.87903,9.32098,8.87903,2.69501,0,6.19-1.01202,8.448-3.34903v-.38998c-.36401-.07697-.51001-.23297-.51001-.66202v-2.60898c0-.46701.146-.62302.51001-.70099v-.46701h-6.22699c-.72803,0-.90997-.27301-.90997-.62299h-.43701v3.73798h.43701c0-.66202.18195-.93399.90997-.93399h3.31403v2.336c-1.20203,1.013-3.71405,1.47998-5.20703,1.47998-4.84302,0-7.24597-2.88199-7.24597-6.30899,0-4.04996,2.73096-6.93198,6.73596-6.93198,4.151,0,6.44501,2.22,6.44501,2.72601,0,.15601-.03601.31198-.073.42896l.43701.194,1.38403-3.427h0ZM547.57001,274.95908v-.46698c-.72803,0-.98303-.15601-.98303-.46704,0-.23398.29102-.70099.47302-1.16901l1.23901-2.95898h8.84796l1.49304,3.271c.10901.27304.21796.50601.21796.85699,0,.31104-.21796.46704-1.09198.46704v.46698h4.58801v-.46698c-.76501,0-.98303-.42804-1.12903-.77902l-6.22699-14.17499c-.10901-.27298-.25397-.50702-.25397-.77902,0-.35098.47296-.46802.83698-.46802v-.46698h-5.89899v.39001c.65601.03802.90997.31097.90997.54498,0,.19403-.03595.31104-.18201.66202l-5.75299,14.09698c-.21796.58502-.39996.97403-1.16492.97403v.46698h4.07794ZM556.23602,267.71606h-7.10004l3.42303-8.17798,3.677,8.17798h0ZM578.41199,258.8761l-.43701-.15601c-.146.233-.328.42798-.58295.42798-.32703,0-.98303-.38901-1.93005-.73999-1.45599-.54498-2.62097-.81802-4.69696-.81802-4.95203,0-9.03003,3.272-9.03003,8.84103,0,5.608,3.93201,8.76199,8.88403,8.76199,4.625,0,6.664-2.53104,7.53796-2.53104.146,0,.328.039.69202.35001l.40002-.311-2.54901-3.58298-.36401.23303c.073.19498.146.50699.146.77896,0,.66199-2.14801,2.64899-5.97198,2.64899-3.78699,0-6.37201-2.72696-6.37201-6.34796,0-3.62201,2.51202-6.66,6.70001-6.66,2.62201,0,5.42499,1.59698,5.42499,2.22,0,.19498,0,.46698-.07202.66202l.43701.23395,1.784-4.01096h0ZM585.54901,274.95908v-.46698c-.76501,0-.91101-.19504-.91101-1.09v-14.02002c0-.89603.146-1.09103.91101-1.09103v-.46698h-4.07904v.46698c.76501,0,.91101.19501.91101,1.09103v14.02002c0,.89496-.146,1.09-.91101,1.09v.46698h4.07904ZM597.81897,257.59006c-5.60699,0-9.1759,3.97299-9.1759,8.80203s3.56891,8.80099,9.1759,8.80099c5.60803,0,9.17603-3.97198,9.17603-8.80099s-3.56799-8.80203-9.17603-8.80203h0ZM597.81897,259.77109c4.151,0,6.77301,2.92099,6.77301,6.58197,0,3.69904-2.62201,6.659-6.77301,6.659s-6.77197-2.95996-6.77197-6.659c0-3.66098,2.62103-6.58197,6.77197-6.58197h0ZM613.367,274.95908v-.46698c-.76398,0-.98303-.19504-.98303-1.09v-12.54004l10.30511,12.57904c.25488.31097.43689.46695.43689.70096,0,.233-.073.35004-1.0199.35004v.46698h4.87994v-.46698c-.76501,0-.98303-.19504-.98303-1.09v-14.02002c0-.89603.21802-1.09103.98303-1.09103v-.46698h-4.00604v.46698c.76501,0,.98303.19501.98303,1.09103v12.03302l-9.86707-12.11105c-.25494-.31198-.40094-.50598-.40094-.66199,0-.19501.21899-.35101.98297-.35101v-.46698h-5.31598v.46698c.76501,0,.98297.19501.98297,1.09103v14.02002c0,.89496-.21796,1.09-.98297,1.09v.46698h4.005ZM631.646,273.4021c0,.89496-.14502,1.09-.83698,1.09v.46698h15.07495c.72803,0,.91003.27298.91003.935h.43707v-4.05002h-.43707c0,.66202-.18201.935-.91003.935h-11.83496v-5.52997h8.04797c.72803,0,.91003.27197.91003.93399h.43695v-4.05002h-.43695c0,.66202-.18201.93503-.91003.93503h-8.04797v-5.06302h11.43396c.72803,0,.9101.27301.9101.93503h.43695v-4.05099h-.43695c0,.66199-.18207.93497-.9101.93497h-14.67395v.46698c.69196,0,.83698.19501.83698,1.09103v14.02002h0ZM648.68701,273.98605l.43701.15601c.073-.27301.29102-.58499.65497-.58499.76501,0,3.31403,1.63602,7.06403,1.63602,5.53497,0,7.93799-1.86902,7.93799-5.53,0-7.00998-13.07202-2.33701-13.07202-6.97101,0-1.44101.76501-2.92099,4.51501-2.92099,2.87701,0,5.78998,1.20798,5.78998,2.02496,0,.23401-.03595.35104-.07294.46802l.43695.194,1.34698-3.81601-.4729-.19501c-.21808.46704-.36407.54501-.58301.54501-.58209,0-2.51208-1.40201-6.33508-1.40201-3.64197,0-6.88196,1.48004-6.88196,5.41403,0,7.20401,13.07202,2.29697,13.07202,7.24298,0,1.75299-2.03906,2.76498-5.31604,2.76498-3.49603,0-6.73706-1.47998-6.73706-2.33597,0-.15601.03705-.35101.07306-.50702l-.43701-.11697-1.41998,3.93396h0ZM693.14697,268.10507l-.474.31198c.073.117.18304.35001.18304.54501,0,1.05203-3.13202,3.58301-6.591,3.58301-4.479,0-8.81201-3.23199-8.81201-7.94501,0-5.37396,4.224-7.71097,8.15601-7.71097,3.85999,0,6.992,1.987,6.992,2.84296,0,.23401-.10999.39001-.18201.50705l.47302.23297,2.258-4.16702-.43701-.31097c-.146.194-.18201.35001-.547.35001-.40002,0-1.23804-.54501-2.65802-1.05099-1.41998-.50702-3.34998-1.05203-5.716-1.05203-6.95502,0-11.32501,4.71204-11.32501,9.97003,0,6.26996,4.66107,10.98199,11.47003,10.98199,6.08099,0,8.375-3.271,8.88501-3.271.21796,0,.39996.07797.54596.27197l.47302-.35001-2.69403-3.73898h0ZM703.742,274.95908v-.46698c-.76398,0-.90997-.19504-.90997-1.09v-14.02002c0-.89603.146-1.09103.90997-1.09103v-.46698h-4.078v.46698c.76501,0,.90997.19501.90997,1.09103v14.02002c0,.89496-.14496,1.09-.90997,1.09v.46698h4.078ZM709.13098,273.4021c0,.89496-.146,1.09-.83698,1.09v.46698h15.07404c.72888,0,.91101.27298.91101.935h.43695v-4.05002h-.43695c0,.66202-.18213.935-.91101.935h-11.83405v-5.52997h8.04797c.72803,0,.90997.27197.90997.93399h.43713v-4.05002h-.43713c0,.66202-.18195.93503-.90997.93503h-8.04797v-5.06302h11.43402c.72803,0,.90997.27301.90997.93503h.43701v-4.05099h-.43701c0,.66199-.18195.93497-.90997.93497h-14.67401v.46698c.69098,0,.83698.19501.83698,1.09103v14.02002h0ZM731.56097,274.95908v-.46698c-.76495,0-.98297-.19504-.98297-1.09v-12.54004l10.30505,12.57904c.255.31097.43695.46695.43695.70096,0,.233-.073.35004-1.01996.35004v.46698h4.87891v-.46698c-.76398,0-.98297-.19504-.98297-1.09v-14.02002c0-.89603.21899-1.09103.98297-1.09103v-.46698h-4.00494v.46698c.76508,0,.98297.19501.98297,1.09103v12.03302l-9.86798-12.11105c-.25494-.31198-.39996-.50598-.39996-.66199,0-.19501.21802-.35101.98297-.35101v-.46698h-5.31598v.46698c.76398,0,.98297.19501.98297,1.09103v14.02002c0,.89496-.21899,1.09-.98297,1.09v.46698h4.00494ZM762.87598,256.8891h-.43695c0,.66199-.18201.93497-.91101.93497h-13.69104c-.72797,0-.90997-.27298-.90997-.93497h-.43701v4.05099h.43701c0-.66202.18201-.93503.90997-.93503h5.64404v13.39703c0,.89496-.14502,1.09-.90997,1.09v.46698h4.22394v-.46698c-.76495,0-.91101-.19504-.91101-1.09v-13.39703h5.64404c.729,0,.91101.27301.91101.93503h.43695v-4.05099h0ZM768.95703,274.95908v-.46698c-.76501,0-.91101-.19504-.91101-1.09v-14.02002c0-.89603.146-1.09103.91101-1.09103v-.46698h-4.07904v.46698c.76495,0,.91101.19501.91101,1.09103v14.02002c0,.89496-.14606,1.09-.91101,1.09v.46698h4.07904ZM771.505,250.34708h-2.80298l-4.04211,5.37399h1.85712l4.98798-5.37399h0ZM788.80103,256.8891h-.43701c0,.66199-.18201.93497-.91003.93497h-13.87305v.46698c.76404,0,.91016.19501.91016,1.09103v14.02002c0,.89496-.14612,1.09-.98303,1.09v.46698h4.22394v-.46698c-.83801,0-.98297-.19504-.98297-1.09v-5.99805h7.17297c.72803,0,.90997.27301.90997.77902h.43695v-3.81598h-.43695c0,.58395-.18195.85596-.90997.85596h-7.17297v-5.21799h10.70496c.72803,0,.91003.27301.91003.93503h.43701v-4.05099h0ZM795.50098,274.95908v-.46698c-.76495,0-.90997-.19504-.90997-1.09v-14.02002c0-.89603.14502-1.09103.90997-1.09103v-.46698h-4.078v.46698c.76501,0,.91003.19501.91003,1.09103v14.02002c0,.89496-.14502,1.09-.91003,1.09v.46698h4.078ZM814.90906,258.8761l-.43713-.15601c-.14587.233-.328.42798-.58301.42798-.328,0-.98291-.38901-1.92993-.73999-1.45599-.54498-2.62097-.81802-4.69702-.81802-4.9519,0-9.02997,3.272-9.02997,8.84103,0,5.608,3.93201,8.76199,8.88409,8.76199,4.62494,0,6.66394-2.53104,7.53796-2.53104.14502,0,.328.039.69196.35001l.39996-.311-2.54895-3.58298-.36401.23303c.073.19498.146.50699.146.77896,0,.66199-2.14795,2.64899-5.97198,2.64899-3.78705,0-6.37201-2.72696-6.37201-6.34796,0-3.62201,2.51196-6.66,6.70001-6.66,2.62195,0,5.42499,1.59698,5.42499,2.22,0,.19498,0,.46698-.07202.66202l.43701.23395,1.78406-4.01096h0ZM818.73206,274.95908v-.46698c-.72803,0-.98303-.15601-.98303-.46704,0-.23398.29095-.70099.4729-1.16901l1.23816-2.95898h8.84888l1.49207,3.271c.10999.27304.21899.50601.21899.85699,0,.31104-.21899.46704-1.09204.46704v.46698h4.58801v-.46698c-.76501,0-.98401-.42804-1.12903-.77902l-6.22705-14.17499c-.10889-.27298-.25488-.50702-.25488-.77902,0-.35098.474-.46802.83789-.46802v-.46698h-5.89893v.39001c.65503.03802.91003.31097.91003.54498,0,.19403-.03601.31104-.18201.66202l-5.75305,14.09698c-.21796.58502-.40094.97403-1.16492.97403v.46698h4.078ZM827.39807,267.71606h-7.1001l3.42297-8.17798,3.67712,8.17798h0ZM833.26099,273.98605l.43701.15601c.07202-.27301.29102-.58499.65503-.58499.76501,0,3.31396,1.63602,7.06396,1.63602,5.53503,0,7.93799-1.86902,7.93799-5.53,0-7.00998-13.07196-2.33701-13.07196-6.97101,0-1.44101.76495-2.92099,4.51495-2.92099,2.87701,0,5.79004,1.20798,5.79004,2.02496,0,.23401-.03699.35104-.073.46802l.43701.194,1.34698-3.81601-.47302-.19501c-.21906.46704-.36407.54501-.58301.54501-.58197,0-2.51196-1.40201-6.336-1.40201-3.64099,0-6.88196,1.48004-6.88196,5.41403,0,7.20401,13.07196,2.29697,13.07196,7.24298,0,1.75299-2.039,2.76498-5.31598,2.76498-3.495,0-6.73602-1.47998-6.73602-2.33597,0-.15601.03595-.35101.07306-.50702l-.43701-.11697-1.42004,3.93396h0Z"/>
  <path class="cls-4" d="M384.05399,177.45908l-3.91299,2.23601c.55804.83899,1.11801,2.23598,1.11801,3.35397,0,10.34203-32.14301,22.36102-55.621,22.36102-31.58401,0-58.69604-18.168-58.69604-50.31102s27.11203-50.30998,58.69604-50.30998c18.44699,0,47.23499,9.50301,48.91199,17.888.28,1.39699.55902,2.51601.55902,3.63399l2.79498,1.95601,21.802-33.81981-4.19299-3.354c-.83801,1.11801-2.23596,3.63351-3.91299,3.63351-1.397,0-8.38498-3.63351-19.845-6.98752-11.45898-3.354-27.39099-6.98758-46.117-6.98758-47.23599,0-89.44099,25.7144-89.44099,75.18639s42.205,75.18599,89.44099,75.18599c36.05499,0,67.35999-22.08099,71.552-22.08099,1.11801,0,1.957.28003,3.07501.28003l2.23602-2.23599-18.44705-29.62802h0ZM435.198,219.38507c.83899-1.11801,2.23599-2.23599,3.634-2.23599,8.38501,0,20.12399,13.97498,63.16699,13.97498,30.18698,0,76.30399-9.50296,76.30399-48.075,0-67.07999-113.47797-25.71397-113.47797-61.21098,0-12.298,20.40399-17.049,36.89502-17.049,21.521,0,44.99994,9.22299,50.86896,17.888,1.11798,1.67699,1.95703,3.91299,2.23602,6.429l2.79498,1.118,19.28601-34.93831-3.354-2.23602c-1.11798,1.11804-2.79498,1.67703-5.59003,1.67703-9.50299,0-28.22998-13.9751-67.08096-13.9751-46.39697,0-67.91901,23.19839-67.91901,46.39738,0,68.47801,113.478,25.71402,113.478,59.81401,0,17.04898-32.70203,20.12402-45,20.12402-17.608,0-45.27899-8.66502-50.86899-17.88802-.83902-1.39803-1.11801-2.795-1.11801-4.47202l-2.79501-1.39799-15.37299,33.82001,3.91299,2.23599h0ZM656.56201,229.44708v-5.03101c-4.75195,0-7.26697-1.677-7.26697-5.03101v-126.89429c0-3.354,2.51501-5.03101,7.26697-5.03101v-5.0311h-46.39703v5.0311c4.75104,0,7.26703,1.677,7.26703,5.03101v126.89429c0,3.354-2.51599,5.03101-7.26703,5.03101v5.03101h46.39703ZM831.80798,177.45908l-3.91296,2.23601c.55896.83899,1.11798,2.23598,1.11798,3.35397,0,10.34203-32.14301,22.36102-55.62103,22.36102-31.58398,0-58.69592-18.168-58.69592-50.31102s27.11194-50.30998,58.69592-50.30998c18.44702,0,47.23602,9.50301,48.91309,17.888.27893,1.39699.55896,2.51601.55896,3.63399l2.79492,1.95601,21.80109-33.81981-4.19293-3.354c-.83801,1.11801-2.23608,3.63351-3.91309,3.63351-1.39697,0-8.38501-3.63351-19.84399-6.98752-11.46002-3.354-27.39203-6.98758-46.11804-6.98758-47.23596,0-89.44098,25.7144-89.44098,75.18639s42.20502,75.18599,89.44098,75.18599c36.05603,0,67.36005-22.08099,71.552-22.08099,1.11804,0,1.95703.28003,3.07507.28003l2.23596-2.23599-18.44702-29.62802h0Z"/>
  <path class="cls-1" d="M184.28,216.97107c.75101,0,2.19803-.59001,2.19803-.59001,1.66599-3.15399-5.94403-7.48898-5.94403-7.48898,0,0-1.61099.78299-2.22302,1.03798-2.08096.74403,5.87903,7.04102,5.96902,7.04102M153.68604,216.59709s-.81705,4.62099,1.92795,7.23897c9.862,5.28104,21.31403,5.63101,29.70905.63803.52597-1.70703,1.38898-4.16,1.51099-5.97-9.21304,4.22498-24.95599,1.41199-33.14798-1.907M78.42892,218.33005c.14987,2.49402.65137,4.98904,2.729,6.76202,8.62778,3.85098,19.91806,2.423,28.0701-.87799,3.01498-1.15701,2.43799-3.194,2.37299-7.84401-9.73898,4.46599-23.00583,5.843-33.17209,1.95998M154.39203,214.60907c.19199.40001,1.73895.93401,2.95398,1.078,1.20798-.144.20599-4.53601.37601-5.451-.15103.035-3.32999.60899-3.32999,4.373M107.453,209.74806s-.00101,6.16501-.06699,6.16501c1.38098-.49101,3.68997-1.01801,3.88498-1.77701.25302-1.02699-2.228-3.68399-3.81799-4.388M83.9144,207.82507c-2.00031,2.36499-5.28598,4.09201-5.60129,8.11-.06702,1.05099,3.884,1.08202,3.94919,1.05099,2.38171-1.86299,4.61899-2.67401,5.59891-6.79601-.1973-1.22797-2.68362-2.31599-3.94681-2.36499M108.28601,207.02908c.03397,1.08698,2.96899,2.90097,4.24899,5.25697,1.28,2.35301,1.09,4.5,1.09,4.55302,10.39301,4.85901,27.55798,6.22299,38.12198.89297.134-4.562,1.33502-7.77698,4.90002-9.30598.51596-.552-.32703-1.66301-1.194-1.66301-7.30103,2.90602-14.22699,6.53001-22.892,6.34601-9.42798.81099-16.18002-5.80301-24.27499-6.07999M179.39703,200.87106c-3.27805.50099-2.76202,5.606-2.37805,7.54201,3.871-2.42201,9.09503-3.57899,13.25504-2.70399.21497.02.254-3.23502.254-4.77501,0,0-6.11603-1.84299-11.13098-.063M74.28601,200.50508c-.04739,1.71399-.22702,3.86899.07919,5.05699,4.66769-.51501,11.2377.196,13.72308,2.30502l-.40988-5.13402c-2.60242-4.341-8.9122-2.87401-13.3924-2.228M122.47202,185.47807v2.233c2.28897,6.24599,9.75101,4.302,14.93198,5.888,1.41702.53,2.87204,2.41098,3.97598,3.43999.30905-12.32199-13.14896-6.58798-18.90796-11.56099M124.155,182.81207l-.75397.799.75397.59201v-1.39101h0ZM110.01999,168.32007c-.69098,1.388,1.19803,3.12502,1.75,4.70001,2.24203,8.61098-9.37198,10.039-13.86591,14.528-1.73807,1.86497-2.76956,4.13698-2.43896,6.707.7009,1.75497,2.62427,3.314,4.5011,3.49199,2.43179-.38901,5.04678-.91299,6.76678-2.967.52298-1.043,0-2.60001-1.02402-2.923-2.07001,1.57298-3.99698,3.306-6.79077,2.923-.82883-.12502-1.87939-.82301-1.7204-1.87401,2.96719-5.55199,9.8942-6.23599,14.20319-10.90298,2.08902-2.63101,2.94897-5.74701,2.26703-9.18703-.85904-1.53398-1.022-4.81998-3.64804-4.49599M99.28729,166.44608c-1.7182,1.87399-2.77728,4.48199-2.08948,7.23801.70627,1.01199.89157,2.97198,2.2439,3.10599,6.07327-1.062.20718-5.68999,1.0513-9,.185-1.17099,1.21899-2.616,2.60498-2.89301-1.564.16699-2.93298.51501-3.8107,1.54901M163.60699,164.38307c-6.95999,1.548-14.05698,5.679-21.34201,3.09201-.51596,1.217.18402,2.43098,1.06003,3.10597,7.62299,3.10303,15.03497-1.20299,22.34201-2.79099.86298.20601,1.37299,1.05501,1.37299,1.918-1.89899,3.481-6.04901,4.33699-9.492,5.51799-.202.74101.479.88902.81198,1.43001,2.79605,2.05199,5.38303-1.203,7.82901-2.61101,2.23401-2.05199,4.505-4.33699,3.80002-7.30899-1.22003-2.353-3.987-2.20799-6.38202-2.353M141.74902,163.62608c-.69604,1.43797,1.047,1.54799,1.89496,1.933,3.65503,1.06,8.69403.88699,11.45502-1.42302-3.64301-2.373-9.69296-2.681-13.34998-.50998M103.77298,156.03708c.69601.548,1.24002,1.40199,2.08902,1.058.36002-.50999,1.048-.68602.871-1.2-.34097-1.77303-2.595-1.545-2.96002.142M123.01501,152.79808c-.543,1.843-.15298,4.12599.362,5.85199,3.314,7.05,10.74396,8.31001,16.63699,11.058.35999-.33.35999-.86299.52002-1.388-2.07904-8.63799-12.49301-10.189-17.51901-15.52199M159.22601,152.28708c-.86603.27299-2.401.13498-2.06305,1.54898,2.96204,1.02901,6.22702,1.68501,9.02603,3.08801,1.20099.515,3.61401,1.55501,3.61401-.88699-3.09702-2.20102-6.73303-3.47701-10.577-3.75M99.28729,152.79808c-.68979.65997-.36908,2.06699,0,2.72299-1.57367,3.129,1.04672,5.545,3.11072,7.071,3.11697.74599,6.24899.74599,8.49701-1.35899-.54199-1.351-1.18799-2.899-2.60703-3.79401-2.77301,3.47501-5.88998-.85399-8.32178-1.918.3678-.14099.52679-.87999,1.06177-.50801.83405-.37198,2.61099-.89101,2.41003-2.21498-1.39001-1.395-2.76001-1.395-4.15073,0M142.935,151.40308c-1.03998.884-2.92099,1.395-2.40097,3.093,2.05997-.513,4.32098-1.41501,5.53897-3.093-.88699-.394-2.22-.145-3.138,0M145.88602,149.15106c3.664.52101,5.87198,3.80701,6.58499,7.07802.87399-.528,2.11301-.334,2.79999-1.36401.34299-2.06699-.54199-3.60699-1.759-5.01498-1.89398-1.55101-5.71799-2.60802-7.62598-.69902M124.94601,147.59607c-.88702.508-1.22998,1.34999-1.05103,2.384.37802.75198.866,2.30701,1.54901,1.797.33902-1.57501.33902-3.16299-.49799-4.181M167.931,147.59607c-5.22299,2.384-9.02902-3.80099-13.53897-1.045,4.16196,1.88101,8.13696,5.73601,13.34198,3.814,1.22302-.69299,3.13696-1.56799,2.95999-3.478h-.89099l-1.87201.709h0ZM102.39801,145.69508c-2.233,1.036-6.05243,2.40898-6.05243,5.16899,1.22351,2.09399,2.94171-.13202,4.14743-.884,2.76999-2.57802,5.89902-.308,8.836.38499.37802-1.214-.68201-2.44598-1.366-3.478-1.401-1.54399-3.49402-1.19199-5.565-1.19199M147.92801,135.83908c.396.75497.396,2.55598,1.849,2.2,2.18301-1.80202,2.18301-5.052,1.83899-7.62199-1.83899,1.08698-3.48099,3.44299-3.68799,5.422M160.38199,126.81508l-.37698,1.94c-.17999,3.34099,3.21899,2.88699,4.43802,3.59399v-3.59399c-1.07602-1.68301-2.48602-1.43901-4.06104-1.94M149.36801,118.56007l-.302-2.29599-.742,2.29599h1.04401ZM164.673,111.22408l-1.06601,1.584c.673.207.84702.26199,1.50198-.03099l-.43597-1.55301h0ZM168.95703,106.18507c-1.22006,1.021-2.95703,3.064-3.04202,3.929.08499,1.383,1.14899,5.60201.45596,8.20799,1.23505.51501,2.82803-.25699,3.88501-.547,1.26904-3.74901,1.73703-8.94398-1.29895-11.59M101.51199,105.71208c.86203,1.88599,3.685,2.101,5.78302,2.61998l-.77103-1.33098c-1.444-2.061-2.81696-2.58002-5.01199-1.289M156.905,105.92308c-1.03699,1.67499-1.056,3.918-.05197,5.67099,1.59299-1.23601,3.97098-3.58101,4.99298-4.99699-.85501-1.54001-3.39301-2.776-4.94101-.674M157.37198,101.60406c-18.04199,7.96901,1.87103,24.13699-5.62198,37.53902,1.673.30998,3.68002-.541,4.59103-2.035,3.65198-8.492.435-17.84001-1.54901-25.99101-.72403-2.842-.444-4.584,1.74396-6.69801,2.21802-1.89398,5.26904-.25098,6.32401,1.17502.53-.39601,2.41302-2.022,2.41302-2.759-2.00699-1.495-5.14801-1.75902-7.90103-1.231M96.16602,102.30708c1.54761,5.48399,7.00497.18497,9.16699,1.90999,10.23099,8.688-3.15399,18.85001.664,29.79001.87299,2.22998,2.29099,4.06499,4.53799,5.12698,2.45599.80499,5.828.06201,7.888-1.29099.354-1.23601-.953-2.283-1.83902-3.53201-.84598.73001-1.71899,1.871-2.38699,2.54001-.879,1.769-3.121,1.412-3.48898-.33902-1.379-10.79898,7.54498-24.36198-2.353-33.51398-3.552-2.69003-8.56171-2.633-12.189-.69099M143.556,208.89207c.08798.08398,2.207,0,9.526-3.72601,7.64401-3.94098,6.612,11.15201,6.612,11.15201,8.082,3.45497,21.06799,2.369,22.11401,1.55901,1.01199-.85999-4.255-3.77901-5.94901-6.94102-1.479-2.79999-1.24301-8.68198,0-10.00198,4.58902-4.87399,16.28802-1.48201,16.28802-1.48201.37897,1.12602-.33203,8.11102-.33203,8.11102-.74002-.397-8.72998-.84201-9.466.71797,0,0,3.83698,1.40503,5.431,4.94601,2.32803,5.20201-1.65302,12.96001-1.65302,12.96001-15.61096,8.77002-31.681-.80899-32.31497-1.33499-.784-.76102-1.93103-4.879-1.93103-4.879-18.87399,7.72098-38.314-.89899-38.314-.89899.20102,3.67697-1.56699,5.81497-1.56699,5.81497-19.82932,9.366-32.85568,1.13699-32.85568,1.13699-7.4794-11.92799,3.00769-18.662,3.00769-18.662-1.50989-.687-9.58978-.34102-9.58978-.34102v-7.72496c17.79099-4.03401,16.89597,2.92099,17.07248,8.98297.19608,6.03101-6.06311,9.51503-6.06311,9.51503,13.74069,2.69199,21.8974-1.30904,21.8974-1.30904,0,0-.091-1.64996.11304-8.60896.17798-6.94402,14.685.53499,14.685.53499,3.129-2.15799,3.30197-15.718,3.30197-15.718-7.31302-8.03299.35901-12.265.35901-12.265.37201-10.99699-9.164-11.543-9.164-11.543,2.03198,10.257-.55399,11.543-2.03702,14.12099-1.45599,2.543-14.49771,8.59602-13.72388,10.22401.69867,1.69301,7.33191-3.625,7.33191-3.625,2.18198,2.15701,1.99997,6.04401,1.99997,6.04401-2.57498,4.76399-14.8714,5.481-14.13638-3.125.80588-9.452,7.8974-8.06601,13.95438-12.97301,6.05704-4.94899-1.64297-10.666-1.64297-10.666-1.457.202-3.86203,1.672-3.86203,1.672.19501,1.80602,2.57404,4.905,2.57404,4.905-1.08401,1.27602-6.79993,3.68001-6.79993,3.68001-.91797-.34601-2.38388-3.133-2.38388-3.133l-1.64319,1.841c3.69437,13.752-8.98941,13.912-8.98941,13.912l.36581-3.244c-2.19983,1.08699-7.70392.56099-7.70392.56099-.367-5.367,4.5903-9.528,4.5903-9.528-.54639-.22499-1.45248-1.70099-1.45248-1.70099,5.47668-4.92001,10.832-1.841,10.832-1.841l1.06918-2.138c-3.13019-5.877,2.20761-3.145,2.20761-3.145.37469-4.95502,3.85089-6.36099,3.85089-6.36099-.1619-.97401-2.20422-1.836-2.20422-1.836-8.62897,7.11299-13.19968-4.063-13.19968-4.063-1.82941.18199-4.61679-1.276-4.61679-1.276.56866-1.10602,2.5878-2.91002,2.5878-2.91002-.74173-.42198-2.01913-4.935-2.01913-4.935.92914-.55899,5.49411-.73299,5.49411-.73299,0-1.11502,1.47491-3.15802,1.47491-3.15802,1.11978.776,3.87952,4.44901,3.87952,4.44901,1.08347-.20398,3.07498.70201,3.07498.70201,0-.90599,1.28192-2.534,1.28192-2.534.21609-.57402-2.8811-2.21901-2.8811-2.21901l.71979-.94199c.70648,0,4.20367,1.12199,4.20367,1.12199,9.37424-5.84201,13.01221.541,13.01221.541,1.11603,8.27701,3.315,6.03598,3.315,6.03598.38004-.74599-.358-4.53798-.358-4.53798h2.57703c.35397,2.16,4.57297,6.77901,4.57297,6.77901-.189-8.81801,5.12802-11.40002,5.12802-11.40002-.539-13.73-11.92001-17.73898-11.92001-17.73898-.74399,2.73801-1.86899,10.26001-.92297,10.619.92297.36099,3.89096-4.19402,3.89096-4.19402,3.45703,2.15501,4.17502,6.54701,4.17502,6.54701-11.914,7.349-15.754-4.03601-15.754-4.03601-.763.211-7.51889,1.32402-7.51889,1.32402-1.1199-1.32402,1.26398-7.67801,1.26398-7.67801-4.4296-.20001-6.95898,3.84299-6.95898,3.84299,1.85382,9.862-11.93091,11.881-11.93091,11.881.54449-.73399-1.67526-2.77798-1.67526-2.77798-1.43604.57201-8.04684,1.11301-8.04684,1.11301-.1918-4.73502,4.22668-7.85201,4.22668-7.85201-.56656-.539-1.66956-4.19402-1.66956-4.19402,9.56448-4.77998,15.59988-1.15999,15.59988-1.15999,5.89108-5.64601,17.25491-7.66499,17.25491-7.66499.15598-1.31502.905-2.71802.905-2.71802.54599-2.541-9.53891-2.541-9.53891-2.541.37268-.76997-1.27399-4.80399-1.27399-4.80399-.73413,0-2.20761.92799-2.20761.92799-3.64832,5.28201-4.2413.724-4.2413.724-.8981-.16699-3.45959,1.854-3.45959,1.854-2.0137,4.94-11.17581,4.94-11.17581,4.94.91031-1.10101,0-2.573,0-2.573-2.0401-.211-6.8049-4.036-6.8049-4.036,1.4704-1.27202,6.61188-3.88701,6.61188-3.88701-1.47455-1.27499-1.08456-6.746-1.08456-6.746.8851.961,6.4191,2.05499,6.4191,2.05499,5.09979.16,6.6008,5.66602,6.6008,5.66602,1.82968.349,7.88608-3.093,7.88608-3.093-1.30289-5.50099-7.36267-6.45599-7.36267-6.45599-12.80814,5.91299-14.8306-5.46979-14.8306-5.46979-.93781-.41589-3.89603-1.68472-3.89603-1.68472.7681-1.07352,4.22131-2.69449,4.22131-2.69449-.90491-.56543-1.26309-4.98001-1.26309-4.98001,1.26309-.33191,6.2294.3938,6.2294.3938-.33182-1.1171,1.28958-3.67761,1.28958-3.67761l2.57571,5.49881s7.7294-2.215,6.5798,8.42871c0,0,.93021,1.0997,3.15991,1.9971,0,0,1.27966-3.99661.3494-5.67252-.9346-1.63849-3.10913-5.6615-3.6557-5.84848,0,0,3.3063.88409,4.01059,1.46478,0,0,2.19778-2.1908,2.19778-3.12088,0,0,5.15372,5.5163,4.76569,8.6131-.34167,3.11249-4.23679,5.65939-5.12277,6.02219l1.28851,1.133s13.22098-5.51648,18.53497,5.28502c0,0,.73804-4.59901.358-5.688,0,0-7.18597-.8222-3.08701-9.71509,1.79901-3.99411-.40097-5.65021-.40097-5.65021,0,0,5.86099.93008,6.99597,5.32709,0,0,3.095-2.57581,2.34802-5.32709,0,0,5.54498,2.37747,4.04901,10.45197-.89801,4.91333-5.121,5.65933-5.121,5.65933,0,0-2.95099,9.31898,2.00797,17.03299,0,0,4.58902-4.02299,5.12802-5.67,0,0-3.64099-5.49501-.90799-9.524,2.74298-4.0275,5.14502-2.92801,6.242-3.8493,0,0,3.48199-4.20547,3.66696-5.34698,0,0,1.29001,3.69089.72101,4.62106,0,0,4.77704-1.28018,5.68701-1.28018,0,0-.36401,4.57941-.90997,5.0984,0,0,2.56198,2.37999,4.56097,1.68501,0,0-2.52103,3.10098-4.01501,3.46199,0,0-2.20099,10.26299-12.85898,7.87701,0,0-3.99799,4.21799-4.39499,5.50499,0,0,4.39499,5.864,4.39499,7.298,0,0,5.69702-1.839,7.186-.72801,0,0,9.68799-3.858,10.07196-21.01399l2.58002-.56999s-1.116-5.343,0-8.61342c0,0-9.71399-10.43878-3.31299-13.71817,0,0,1.638,3.10577,3.655,4.00076,0,0,3.328-.89499,4.04401-3.108,0,0,4.04297,5.49881,2.58301,10.21014,0,0-4.39304,6.28867-3.48602,9.51768,0,0,4.22-5.07451,11.92703-3.783,0,0-.92603-6.2558,2.96396-11.17169,0,0,.52902,3.30597,2.51801,4.91589,2.061,1.65399,1.67603,4.2186,1.11099,4.96429l2.40201-.91049s-2.96298-8.6199,4.22202-10.63483c0,0,1.64697-4.5925,2.73697-5.8331l2.75403,3.1145s3.11801-2.9386,4.59299-2.9386c0,0,1.64203,4.76221,1.26602,5.6572,0,0,3.319.37381,4.25198-.1694,0,0-3.491,5.84631-4.25198,6.23572,0,0,2.03,9.8445-12.49802,7.32449l-4.526,3.99899s1.452,2.21201,1.452,2.89702c0,0,8.42001-2.89702,9.896-4.37601,0,0,0,5.123-.75397,6.62601,0,0,5.16397,1.44499,6.806.879,0,0-2.02399,6.069-6.806,6.80998,0,0,1.68597,2.569-2.00101,2.02802,0,0-3.30402,1.091-4.06702,2.151,0,0-2.15298-3.11002-3.30301-3.295,0,0-4.91101,1.832-6.76599.948,0,0,.96399-2.94.194-3.64201l-.71298-.76997.71298.76997s-6.793.29701-6.42099,3.26201c0,0,.922,5.30099.922,6.04201,0,0,5.117.91299,6.02798,1.63699l.241,6.95599-5.72501-1.84999s-1.83798,9.54201-8.06995,8.43999c-6.25403-1.05498-7.54303-4.01799-2.38504-12.616,0,0-10.44998,1.05301-10.30798,15.35699,0,0,.58902,1.27802,2.62897.567,0,0-.39197,3.64102-.93698,4.927,0,0,5.66-3.842,10.09201-2.18399,0,0,3.09903-4.40799,8.79199-2.377,0,0,2.94803,0,2.36899-7.35399l2.77301-.18001.19302,4.078s4.58295-2.244,5.15598-3.31001c0,0-2.409-6.61398,4.19501-9.00299,0,0,2.22601-3.43799,3.311-3.82901,0,0,1.44299,4.935,1.26297,6.048,0,0,5.51404-.93201,6.811-.52701,0,0-.75397,4.341-1.65598,5.492,0,0,2.74402,1.23102,3.67099,2.55101,0,0-9.92499,5.48401-14.69101,3.46201,0,0-6.23801,1.83699-7.353,3.29099,0,0,2.77502,1.658,7.159-1.08501v2.74301h2.06204s10.604-7.33699,14.82895,2.18399c0,0,2.74002,1.28702,4.40503.53302,0,0-.73999,3.327-2.20798,3.65999,0,0,2.20798,3.50601,2.20798,5.32901,0,0-3.11603.91699-4.952.18199,0,0,0,3.88101-.37903,4.95799,0,0-3.66098-2.75598-4.21896-4.22299,0,0-9.93002,1.46701-10.26102-8.39301l-2.38699-.75899s-2.95602,2.19699-4.21701,2.573c0,0,3.28302,1.819,4.01703,2.715,0,0-1.60803,4.23399-2.89801,4.399,0,0-11.40604-5.82701-14.51102-1.843,0,0,5.681,3.33398,6.965,4.76601,0,0,11.918-2.71402,9.71002,7.32899l.73401,1.11s5.89798.561,7.91998,11.00198c0,0-7.155,1.84802-9.01001-8.41098,0,0-.73801.32201-1.285.88699,0,0,.767,1.834.38202,2.534,0,0,8.25397,8.10899-2.76001,16.87001,0,0-4.07404-4.55701-4.07404-6.616,0,0-4.92297-1.57703-7.30499,1.10397,0,0-.54697-9.09898,10.65802-10.06898l.17798-1.989s-3.85495,2.38-5.50598,2.73401c0,0-3.69901,0-6.78998-4.39,0,0,11.00299-3.65601,9.922-4.916-1.15704-1.291-13.02304,6.20299-21.66101,1.821,0,0-.939,1.63499-2.20901,1.808,0,0-3.854,6.94901-1.27698,13.739,0,0,8.52399,5.94699,2.099,12.25301,0,0,1.00897,8.49298,2.48099,9.24899"/>
</svg>