<?xml version="1.0" encoding="utf-8"?>
<!-- Generator: $$$/GeneralStr/196=Adobe Illustrator 27.6.0, SVG Export Plug-In . SVG Version: 6.00 Build 0)  -->
<svg version="1.1" id="Livello_1" xmlns="http://www.w3.org/2000/svg" xmlns:xlink="http://www.w3.org/1999/xlink" x="0px" y="0px"
	 viewBox="0 0 511 165.7" style="enable-background:new 0 0 511 165.7;" xml:space="preserve">
<style type="text/css">
	.st0{fill:#11302D;}
	.st1{fill:#57B579;}
</style>
<g>
	<g>
		<path class="st0" d="M167.3,104.2l-4.5-5.8c-1.1-1.4-1.6-1.7-2.3-1.7c-0.6,0-1.2,0.3-3.3,1.7c-3.5,2.3-8.2,3.5-13,3.5
			c-11,0-21.3-8.3-21.3-20.9c0-12,8.8-21,20.4-21c5,0,9.4,1.4,13.6,4c1.8,1.1,2.5,1.4,3.2,1.4c0.8,0,1.5-0.5,2.5-1.7l4.8-5.9
			c1-1.3,1.3-1.9,1.3-2.7c0-0.6-0.3-1.2-1-1.8c-6.4-5.2-14.8-7.9-23.8-7.9c-21.6,0-37,14-37,35.6c0,20.8,14.4,35.5,37.2,35.5
			c9.1,0,16.8-2.5,22.6-7c1.4-1.1,1.9-1.8,1.9-2.8C168.6,106.1,168.3,105.4,167.3,104.2z M49.1,115.5h28.8c14.1,0,23.5-7.3,23.5-20
			c0-6.5-2.7-11.8-10-16.2c4.8-3.2,7.7-8.9,7.7-14.9c0-9.9-8-18-21.1-18H49c-2.1,0-3.5,1.4-3.5,3.5l0,62
			C45.5,114.1,47,115.5,49.1,115.5z M60.6,58.9l14.3,0c5.8,0,8.6,3.3,8.6,7.7c0,4.8-3.2,7.7-8.6,7.7H60.6L60.6,58.9z M85.7,94.8
			c0,5.2-3.7,8.5-9.6,8.5H60.6V86.4h15.5C82.4,86.4,85.7,89.9,85.7,94.8z M226.8,91.8c0,14.6-10.3,24.8-27.7,24.8
			c-10.6,0-19.5-3.5-24.6-8c-0.9-0.8-1.2-1.4-1.2-2s0.2-1,1.3-2.3l5.6-6.9c0.5-0.6,1.2-0.9,1.8-0.9s1.2,0.3,1.9,0.9
			c4,3.2,9.2,5.1,14.4,5.1c7.1,0,12.7-4,12.7-9.6c0-2.3-0.7-2.9-0.7-4c0-0.7,0.2-1.1,0.9-1.9l7.2-7.8c0.9-1,1.7-1.5,2.5-1.5
			C223.4,77.5,226.8,83.9,226.8,91.8z"/>
		<path class="st1" d="M184.5,60.6h16.5l-13.7,16.1c-1,1.2-1.2,1.9-1.2,3.2v4.4c0,1.6,0.9,2.5,2.8,2.5h8.3c1.1,0,1.8-0.5,2.9-1.9
			l21.3-25.6c1.3-1.6,1.6-2.5,1.6-4.9l0-5c0-2-1-3.1-3.1-3.1l-35.5,0c-1.4,0-2.5,0.5-3.5,1.6l-3.1,3.6c-0.8,1-1,1.4-1,1.8
			c0,0.5,0.2,1,0.9,1.8l3.3,3.6C181.9,60.1,183,60.6,184.5,60.6z"/>
	</g>
	<g>
		<g>
			<polygon class="st0" points="250.5,100.1 247.7,100.1 240.4,107.1 240.4,100.1 238.3,100.1 238.3,115.5 240.4,115.5 240.4,107.8 
				247.9,115.5 250.7,115.5 242.8,107.4 			"/>
			<rect x="253.2" y="99.6" class="st0" width="2" height="15.9"/>
			<path class="st0" d="M259.5,100.3c-0.4,0-0.7,0.1-0.9,0.4c-0.2,0.2-0.4,0.5-0.4,0.9c0,0.4,0.1,0.7,0.4,0.9
				c0.2,0.2,0.5,0.4,0.9,0.4s0.7-0.1,0.9-0.4c0.2-0.2,0.4-0.6,0.4-0.9c0-0.4-0.1-0.7-0.4-0.9C260.2,100.4,259.9,100.3,259.5,100.3z"
				/>
			<rect x="258.5" y="104.9" class="st0" width="2" height="10.6"/>
			<path class="st0" d="M278.1,105.2c-0.6-0.3-1.3-0.5-2.1-0.5c-0.7,0-1.4,0.2-2,0.5c-0.6,0.3-1.1,0.8-1.5,1.4c0,0,0,0,0,0
				c0,0,0,0,0,0c-0.3-0.6-0.8-1.1-1.4-1.4c-0.6-0.3-1.3-0.5-2-0.5c-0.8,0-1.4,0.2-2,0.5c-0.5,0.3-0.8,0.6-1.1,1v-1.3h-2v10.6h2v-6.4
				c0-0.5,0.1-1,0.4-1.4c0.2-0.4,0.5-0.7,0.9-0.9c0.4-0.2,0.8-0.3,1.3-0.3c0.7,0,1.3,0.2,1.8,0.7c0.5,0.5,0.7,1.1,0.7,1.9v6.4h2
				v-6.4c0-0.5,0.1-1,0.4-1.4c0.2-0.4,0.6-0.7,0.9-0.9c0.4-0.2,0.8-0.3,1.3-0.3c0.7,0,1.3,0.2,1.8,0.7c0.5,0.5,0.7,1.1,0.7,1.9v6.4
				h2v-6.8c0-0.8-0.2-1.5-0.5-2.1C279.2,106,278.7,105.5,278.1,105.2z"/>
			<path class="st0" d="M291.2,106.4c-0.4-0.5-0.8-0.9-1.4-1.2c-0.6-0.3-1.3-0.5-2.1-0.5c-1,0-1.9,0.2-2.6,0.7
				c-0.8,0.5-1.4,1.2-1.8,2c-0.5,0.8-0.7,1.8-0.7,2.8s0.2,2,0.7,2.8c0.5,0.8,1.1,1.5,1.8,2c0.8,0.5,1.7,0.7,2.6,0.7
				c0.8,0,1.5-0.2,2.2-0.5c0.6-0.3,1-0.7,1.4-1.2v1.5h2v-10.6h-2V106.4z M290.4,112.8c-0.6,0.7-1.4,1-2.4,1c-0.7,0-1.3-0.2-1.8-0.5
				c-0.5-0.3-0.9-0.7-1.2-1.3c-0.3-0.5-0.4-1.2-0.4-1.9c0-0.7,0.1-1.3,0.4-1.9c0.3-0.5,0.7-1,1.2-1.3c0.5-0.3,1.1-0.5,1.8-0.5
				s1.2,0.2,1.7,0.5c0.5,0.3,0.9,0.7,1.2,1.3c0.3,0.5,0.4,1.2,0.4,1.9C291.3,111.3,291,112.2,290.4,112.8z"/>
			<path class="st0" d="M306.4,100.1l-6.3,15.4h2.2l1.4-3.5h6.8l1.4,3.5h2.3l-6.3-15.4H306.4z M304.4,110.2l2.7-6.7l2.7,6.7H304.4z"
				/>
			<rect x="316.7" y="99.6" class="st0" width="2" height="15.9"/>
			<path class="st0" d="M330,106.4c-0.4-0.5-0.8-0.9-1.4-1.2c-0.6-0.3-1.4-0.5-2.2-0.5c-1,0-1.8,0.2-2.6,0.7c-0.8,0.5-1.4,1.2-1.8,2
				c-0.5,0.8-0.7,1.8-0.7,2.8s0.2,2,0.7,2.8c0.5,0.8,1.1,1.5,1.8,2c0.8,0.5,1.6,0.7,2.6,0.7c0.8,0,1.5-0.2,2.2-0.5
				c0.6-0.3,1-0.7,1.4-1.2v1.5h2V99.6h-2V106.4z M328.5,113.4c-0.5,0.3-1.1,0.5-1.8,0.5c-0.7,0-1.2-0.2-1.7-0.5
				c-0.5-0.3-0.9-0.7-1.2-1.3c-0.3-0.5-0.4-1.2-0.4-1.9s0.1-1.3,0.4-1.9c0.3-0.5,0.7-1,1.2-1.3c0.5-0.3,1.1-0.5,1.8-0.5
				c0.7,0,1.3,0.2,1.8,0.5c0.5,0.3,0.9,0.7,1.2,1.3c0.3,0.5,0.4,1.2,0.4,1.9c0,0.7-0.1,1.3-0.4,1.9
				C329.4,112.6,329,113.1,328.5,113.4z"/>
			<path class="st0" d="M343.3,106.4c-0.4-0.5-0.8-0.9-1.4-1.2c-0.6-0.3-1.3-0.5-2.1-0.5c-1,0-1.9,0.2-2.6,0.7
				c-0.8,0.5-1.4,1.2-1.8,2c-0.5,0.8-0.7,1.8-0.7,2.8s0.2,2,0.7,2.8c0.5,0.8,1.1,1.5,1.8,2c0.8,0.5,1.7,0.7,2.6,0.7
				c0.8,0,1.5-0.2,2.2-0.5c0.6-0.3,1-0.7,1.4-1.2v1.5h2v-10.6h-2V106.4z M342.5,112.8c-0.6,0.7-1.4,1-2.4,1c-0.7,0-1.3-0.2-1.8-0.5
				c-0.5-0.3-0.9-0.7-1.2-1.3c-0.3-0.5-0.4-1.2-0.4-1.9c0-0.7,0.1-1.3,0.4-1.9c0.3-0.5,0.7-1,1.2-1.3c0.5-0.3,1.1-0.5,1.8-0.5
				s1.2,0.2,1.7,0.5c0.5,0.3,0.9,0.7,1.2,1.3c0.3,0.5,0.4,1.2,0.4,1.9C343.4,111.3,343.1,112.2,342.5,112.8z"/>
			<polygon class="st0" points="357.8,104.9 355.3,104.9 350.6,109.9 350.6,99.6 348.6,99.6 348.6,115.5 350.6,115.5 350.6,110.3 
				355.4,115.5 358,115.5 352.9,110 			"/>
			<path class="st0" d="M366.8,105.4c-0.8-0.4-1.6-0.7-2.6-0.7c-1,0-1.9,0.2-2.8,0.7c-0.8,0.5-1.5,1.1-2,2c-0.5,0.8-0.7,1.8-0.7,2.8
				c0,1.1,0.2,2,0.7,2.8c0.5,0.8,1.2,1.5,2,2c0.8,0.5,1.8,0.7,2.9,0.7c0.8,0,1.6-0.2,2.3-0.5c0.7-0.3,1.4-0.8,1.9-1.4l-1.3-1.3
				c-0.4,0.4-0.8,0.7-1.3,0.9c-0.5,0.2-1,0.3-1.6,0.3c-0.7,0-1.3-0.2-1.9-0.5c-0.5-0.3-1-0.7-1.3-1.3c-0.2-0.3-0.3-0.7-0.4-1.1h8.3
				c0-0.2,0.1-0.4,0.1-0.6c0-0.2,0-0.3,0-0.5c0-1-0.2-1.9-0.6-2.7C368.1,106.5,367.5,105.8,366.8,105.4z M362.4,107
				c0.5-0.3,1.1-0.4,1.8-0.4c0.7,0,1.2,0.1,1.7,0.4c0.5,0.3,0.8,0.7,1.1,1.2c0.2,0.3,0.3,0.7,0.3,1.2h-6.4c0.1-0.4,0.2-0.7,0.3-1
				C361.4,107.7,361.8,107.3,362.4,107z"/>
			<polygon class="st0" points="375.4,100.5 373.4,100.5 373.4,104.9 370.8,104.9 370.8,106.8 373.4,106.8 373.4,115.5 375.4,115.5 
				375.4,106.8 378,106.8 378,104.9 375.4,104.9 			"/>
			<path class="st0" d="M388.3,106.4c-0.4-0.5-0.8-0.9-1.4-1.2c-0.6-0.3-1.3-0.5-2.1-0.5c-1,0-1.9,0.2-2.6,0.7
				c-0.8,0.5-1.4,1.2-1.8,2c-0.5,0.8-0.7,1.8-0.7,2.8s0.2,2,0.7,2.8c0.5,0.8,1.1,1.5,1.8,2c0.8,0.5,1.7,0.7,2.6,0.7
				c0.8,0,1.5-0.2,2.2-0.5c0.6-0.3,1-0.7,1.4-1.2v1.5h2v-10.6h-2V106.4z M387.5,112.8c-0.6,0.7-1.4,1-2.4,1c-0.7,0-1.3-0.2-1.8-0.5
				c-0.5-0.3-0.9-0.7-1.2-1.3c-0.3-0.5-0.4-1.2-0.4-1.9c0-0.7,0.1-1.3,0.4-1.9c0.3-0.5,0.7-1,1.2-1.3c0.5-0.3,1.1-0.5,1.8-0.5
				c0.7,0,1.2,0.2,1.7,0.5c0.5,0.3,0.9,0.7,1.2,1.3c0.3,0.5,0.4,1.2,0.4,1.9C388.4,111.3,388.1,112.2,387.5,112.8z"/>
			<rect x="398.9" y="100.1" class="st0" width="2.1" height="15.4"/>
			<polygon class="st0" points="413.8,104.9 411.3,104.9 406.7,109.9 406.7,99.6 404.6,99.6 404.6,115.5 406.7,115.5 406.7,110.3 
				411.4,115.5 414,115.5 408.9,110 			"/>
			<path class="st0" d="M422.8,105.4c-0.8-0.4-1.6-0.7-2.6-0.7c-1,0-1.9,0.2-2.8,0.7c-0.8,0.5-1.5,1.1-2,2c-0.5,0.8-0.7,1.8-0.7,2.8
				c0,1.1,0.2,2,0.7,2.8c0.5,0.8,1.2,1.5,2,2c0.8,0.5,1.8,0.7,2.9,0.7c0.8,0,1.6-0.2,2.3-0.5c0.7-0.3,1.4-0.8,1.9-1.4l-1.3-1.3
				c-0.4,0.4-0.8,0.7-1.3,0.9c-0.5,0.2-1,0.3-1.6,0.3c-0.7,0-1.3-0.2-1.9-0.5c-0.5-0.3-1-0.7-1.3-1.3c-0.2-0.3-0.3-0.7-0.4-1.1h8.3
				c0-0.2,0.1-0.4,0.1-0.6c0-0.2,0-0.3,0-0.5c0-1-0.2-1.9-0.6-2.7C424.2,106.5,423.6,105.8,422.8,105.4z M418.4,107
				c0.5-0.3,1.1-0.4,1.8-0.4c0.7,0,1.2,0.1,1.7,0.4c0.5,0.3,0.8,0.7,1.1,1.2c0.2,0.3,0.3,0.7,0.3,1.2h-6.4c0.1-0.4,0.2-0.7,0.3-1
				C417.5,107.7,417.9,107.3,418.4,107z"/>
			<path class="st0" d="M432.6,104.7c-1.2,0-2.1,0.4-2.7,1.2c-0.1,0.1-0.1,0.2-0.2,0.3v-1.3h-2v10.6h2v-6c0-1,0.2-1.7,0.7-2.2
				c0.5-0.5,1.1-0.7,1.8-0.7c0.4,0,0.7,0.1,0.9,0.2c0.3,0.1,0.5,0.3,0.7,0.5l1.3-1.4c-0.4-0.4-0.8-0.7-1.2-0.9
				C433.7,104.8,433.2,104.7,432.6,104.7z"/>
			<path class="st0" d="M444.7,106.4c-0.4-0.5-0.8-0.9-1.4-1.2c-0.6-0.3-1.4-0.5-2.2-0.5c-0.9,0-1.8,0.2-2.6,0.7
				c-0.8,0.5-1.4,1.1-1.8,1.9c-0.4,0.8-0.7,1.7-0.7,2.7c0,1,0.2,1.9,0.7,2.7c0.4,0.8,1.1,1.4,1.8,1.9c0.8,0.5,1.6,0.7,2.6,0.7
				c0.8,0,1.5-0.2,2.2-0.5c0.6-0.3,1-0.7,1.4-1.2v1.4c0,1-0.3,1.7-1,2.3c-0.6,0.6-1.5,0.9-2.6,0.9c-0.8,0-1.5-0.1-2.1-0.4
				c-0.6-0.3-1.1-0.7-1.5-1.3l-1.3,1.3c0.5,0.7,1.2,1.3,2,1.7c0.8,0.4,1.8,0.6,2.9,0.6c1.1,0,2.1-0.2,2.9-0.6c0.8-0.4,1.5-1,2-1.8
				c0.5-0.8,0.7-1.7,0.7-2.7v-10.1h-2V106.4z M443.2,113c-0.5,0.3-1.1,0.4-1.7,0.4c-0.7,0-1.2-0.1-1.7-0.4c-0.5-0.3-0.9-0.7-1.2-1.2
				c-0.3-0.5-0.4-1.1-0.4-1.8c0-0.7,0.1-1.3,0.4-1.8c0.3-0.5,0.7-0.9,1.2-1.2c0.5-0.3,1.1-0.4,1.8-0.4c0.7,0,1.2,0.1,1.7,0.4
				c0.5,0.3,0.9,0.7,1.2,1.2c0.3,0.5,0.4,1.1,0.4,1.8c0,0.7-0.1,1.3-0.4,1.8C444.1,112.3,443.7,112.7,443.2,113z"/>
			<path class="st0" d="M458,106.4c-0.4-0.5-0.8-0.9-1.4-1.2c-0.6-0.3-1.3-0.5-2.1-0.5c-1,0-1.9,0.2-2.6,0.7c-0.8,0.5-1.4,1.2-1.8,2
				c-0.5,0.8-0.7,1.8-0.7,2.8s0.2,2,0.7,2.8c0.5,0.8,1.1,1.5,1.8,2c0.8,0.5,1.7,0.7,2.6,0.7c0.8,0,1.5-0.2,2.2-0.5
				c0.6-0.3,1-0.7,1.4-1.2v1.5h2v-10.6h-2V106.4z M457.2,112.8c-0.6,0.7-1.4,1-2.4,1c-0.7,0-1.3-0.2-1.8-0.5
				c-0.5-0.3-0.9-0.7-1.2-1.3c-0.3-0.5-0.4-1.2-0.4-1.9c0-0.7,0.1-1.3,0.4-1.9c0.3-0.5,0.7-1,1.2-1.3c0.5-0.3,1.1-0.5,1.8-0.5
				c0.7,0,1.2,0.2,1.7,0.5s0.9,0.7,1.2,1.3c0.3,0.5,0.4,1.2,0.4,1.9C458.1,111.3,457.8,112.2,457.2,112.8z"/>
			<rect x="463.3" y="104.9" class="st0" width="2" height="10.6"/>
			<path class="st0" d="M464.3,102.8c0.4,0,0.7-0.1,0.9-0.4c0.2-0.2,0.4-0.6,0.4-0.9c0-0.4-0.1-0.7-0.4-0.9
				c-0.2-0.2-0.5-0.4-0.9-0.4s-0.7,0.1-0.9,0.4c-0.2,0.2-0.4,0.5-0.4,0.9c0,0.4,0.1,0.7,0.4,0.9
				C463.6,102.7,463.9,102.8,464.3,102.8z"/>
		</g>
		<g>
			<g>
				<path class="st0" d="M247.7,53.6c0.4-0.2,0.7-0.4,1-0.7c0.6-0.6,0.9-1.5,0.9-2.4c0-0.7-0.2-1.4-0.5-2c-0.4-0.6-0.9-1.1-1.6-1.5
					c-0.7-0.4-1.5-0.5-2.5-0.5h-3.2H241h-2.6v15.4h2.6h0.8h3.2c1.1,0,2-0.2,2.8-0.6s1.4-0.9,1.8-1.6s0.6-1.4,0.6-2.3
					c0-1.1-0.3-2-1-2.8C248.7,54.2,248.2,53.9,247.7,53.6z M244.3,49.2c0.6,0,1,0.1,1.3,0.4c0.3,0.3,0.5,0.7,0.5,1.2
					c0,0.6-0.2,1-0.5,1.3s-0.8,0.4-1.3,0.4h-2.6v-3.4H244.3z M246.1,58.6c-0.4,0.4-0.9,0.6-1.5,0.6h-2.8v-4h2.8
					c0.4,0,0.8,0.1,1.1,0.3c0.3,0.2,0.6,0.4,0.7,0.7c0.2,0.3,0.3,0.6,0.3,1C246.7,57.7,246.5,58.2,246.1,58.6z"/>
				<path class="st0" d="M257.2,46.5l-6.1,15.4h3.5l1-2.8h6l1,2.8h3.6l-6-15.4H257.2z M256.7,56.3l2-5.4l2,5.4H256.7z"/>
				<path class="st0" d="M276.8,54c-0.4-0.4-0.9-0.7-1.4-0.9s-1-0.4-1.5-0.6c-0.5-0.2-1-0.3-1.4-0.5s-0.8-0.4-1-0.6
					c-0.3-0.2-0.4-0.5-0.4-0.9c0-0.4,0.2-0.7,0.5-1c0.3-0.2,0.8-0.3,1.4-0.3c0.6,0,1.1,0.1,1.6,0.3c0.5,0.2,0.9,0.6,1.4,1.1l2.2-2.2
					c-0.6-0.6-1.3-1.1-2.2-1.5c-0.9-0.4-1.9-0.6-3-0.6c-1,0-2,0.2-2.8,0.5c-0.8,0.4-1.5,0.9-1.9,1.6c-0.5,0.7-0.7,1.5-0.7,2.5
					c0,0.8,0.1,1.4,0.4,1.9c0.3,0.5,0.6,0.9,1,1.3c0.4,0.3,0.9,0.6,1.4,0.8c0.5,0.2,1,0.4,1.5,0.6c0.5,0.2,1,0.3,1.4,0.5
					s0.8,0.4,1,0.7c0.3,0.3,0.4,0.6,0.4,1c0,0.5-0.2,0.8-0.6,1.1c-0.4,0.3-1,0.4-1.7,0.4c-0.8,0-1.5-0.2-2.1-0.5
					c-0.6-0.3-1.1-0.8-1.6-1.3l-2.2,2.2c0.7,0.8,1.6,1.5,2.5,1.9c0.9,0.4,2,0.6,3.3,0.6c1.9,0,3.3-0.4,4.3-1.2c1-0.8,1.6-2,1.6-3.4
					c0-0.8-0.1-1.5-0.4-2C277.5,54.8,277.2,54.4,276.8,54z"/>
				<path class="st0" d="M295.3,57.3c0.4-1,0.6-2,0.6-3.1c0-1.1-0.2-2.2-0.6-3.1c-0.4-1-1-1.8-1.7-2.5c-0.7-0.7-1.6-1.3-2.6-1.7
					c-1-0.4-2-0.6-3.2-0.6c-1.2,0-2.3,0.2-3.2,0.6c-1,0.4-1.8,1-2.6,1.7c-0.7,0.7-1.3,1.6-1.7,2.5c-0.4,1-0.6,2-0.6,3.1
					c0,1.1,0.2,2.2,0.6,3.1s1,1.8,1.7,2.5s1.6,1.3,2.6,1.7c1,0.4,2.1,0.6,3.2,0.6c1.1,0,2.2-0.2,3.2-0.6c0.5-0.2,0.9-0.4,1.4-0.7
					l2.3,2.3l2-2l-2.3-2.3C294.7,58.4,295,57.8,295.3,57.3z M287.8,59c-0.7,0-1.3-0.1-1.9-0.3c-0.6-0.2-1-0.6-1.4-1
					c-0.4-0.4-0.7-0.9-0.9-1.5c-0.2-0.6-0.3-1.3-0.3-2c0-1,0.2-1.8,0.6-2.5s0.9-1.3,1.6-1.7s1.5-0.6,2.4-0.6c0.7,0,1.3,0.1,1.8,0.3
					c0.6,0.2,1,0.6,1.4,1c0.4,0.4,0.7,0.9,0.9,1.5s0.3,1.2,0.3,1.9c0,0.8-0.1,1.6-0.4,2.2l-2.4-2.4l-2,2l2.5,2.5
					C289.4,58.8,288.6,59,287.8,59z"/>
				<path class="st0" d="M307.4,56c0,0.6-0.1,1.1-0.4,1.6c-0.2,0.4-0.6,0.8-1,1c-0.4,0.2-0.9,0.3-1.5,0.3c-0.6,0-1.1-0.1-1.5-0.3
					c-0.5-0.2-0.8-0.6-1.1-1c-0.3-0.4-0.4-1-0.4-1.6v-9.5h-3.4v9.3c0,1.2,0.3,2.3,0.8,3.2c0.5,1,1.3,1.7,2.3,2.2s2.1,0.8,3.4,0.8
					c1.2,0,2.3-0.3,3.3-0.8s1.7-1.3,2.2-2.2c0.5-0.9,0.8-2,0.8-3.2v-9.3h-3.5V56z"/>
				<polygon class="st0" points="317,55.5 323.8,55.5 323.8,52.6 317,52.6 317,49.5 324.5,49.5 324.5,46.5 317,46.5 316.2,46.5 
					313.6,46.5 313.6,61.8 316.2,61.8 317,61.8 324.6,61.8 324.6,58.9 317,58.9 				"/>
				<path class="st0" d="M340.4,58.6c-0.6,0.2-1.3,0.4-2,0.4c-0.7,0-1.3-0.1-1.8-0.3c-0.6-0.2-1-0.6-1.4-1c-0.4-0.4-0.7-0.9-0.9-1.5
					c-0.2-0.6-0.3-1.2-0.3-2c0-0.7,0.1-1.3,0.3-1.9c0.2-0.6,0.5-1.1,0.9-1.5c0.4-0.4,0.9-0.7,1.4-1s1.2-0.3,1.8-0.3
					c0.8,0,1.4,0.1,2,0.4c0.6,0.2,1.1,0.6,1.4,1l2.3-2.3c-0.7-0.7-1.5-1.2-2.5-1.6c-1-0.4-2-0.6-3.3-0.6c-1.2,0-2.2,0.2-3.2,0.6
					c-1,0.4-1.8,1-2.6,1.7c-0.7,0.7-1.3,1.5-1.7,2.5c-0.4,1-0.6,2-0.6,3.1c0,1.1,0.2,2.2,0.6,3.1c0.4,1,1,1.8,1.7,2.5
					c0.7,0.7,1.6,1.3,2.6,1.7c1,0.4,2,0.6,3.2,0.6c1.3,0,2.4-0.2,3.3-0.6c1-0.4,1.8-0.9,2.5-1.6l-2.3-2.3
					C341.5,58,341,58.4,340.4,58.6z"/>
				<polygon class="st0" points="349.5,55.5 356.3,55.5 356.3,52.6 349.5,52.6 349.5,49.5 357,49.5 357,46.5 349.5,46.5 348.7,46.5 
					346,46.5 346,61.8 348.7,61.8 349.5,61.8 357.1,61.8 357.1,58.9 349.5,58.9 				"/>
				<polygon class="st0" points="369.1,55.8 361.8,46.5 359.4,46.5 359.4,61.8 362.9,61.8 362.9,52.7 370,61.8 372.6,61.8 
					372.6,46.5 369.1,46.5 				"/>
				<polygon class="st0" points="374.4,49.5 379.2,49.5 379.2,61.8 382.7,61.8 382.7,49.5 387.5,49.5 387.5,46.5 374.4,46.5 				"/>
				<path class="st0" d="M398.3,55c0.8-0.4,1.4-0.9,1.8-1.6c0.4-0.7,0.7-1.5,0.7-2.4c0-0.9-0.2-1.6-0.6-2.3c-0.4-0.7-1-1.2-1.8-1.6
					c-0.8-0.4-1.7-0.6-2.7-0.6h-2.8H392h-2.6v15.4h3.4v-6.3h0.4l4.6,6.3h4.1l-4.9-6.4C397.4,55.3,397.9,55.2,398.3,55z M392.8,49.2
					h2.5c0.7,0,1.2,0.2,1.6,0.5c0.4,0.4,0.6,0.8,0.6,1.4c0,0.6-0.2,1-0.6,1.4c-0.4,0.3-0.9,0.5-1.6,0.5h-2.4V49.2z"/>
				<polygon class="st0" points="406.7,55.5 413.5,55.5 413.5,52.6 406.7,52.6 406.7,49.5 414.2,49.5 414.2,46.5 406.7,46.5 
					405.8,46.5 403.2,46.5 403.2,61.8 405.8,61.8 406.7,61.8 414.3,61.8 414.3,58.9 406.7,58.9 				"/>
				<polygon class="st0" points="423.4,46.5 420.7,46.5 420.7,61.8 424.2,61.8 424.2,55.8 431.1,55.8 431.1,52.9 424.2,52.9 
					424.2,49.5 431.4,49.5 431.4,46.5 424.2,46.5 				"/>
				<path class="st0" d="M446.4,48.5c-0.7-0.7-1.6-1.3-2.6-1.7c-1-0.4-2-0.6-3.2-0.6c-1.2,0-2.2,0.2-3.2,0.6c-1,0.4-1.8,1-2.6,1.7
					c-0.7,0.7-1.3,1.6-1.7,2.5c-0.4,1-0.6,2-0.6,3.1c0,1.1,0.2,2.2,0.6,3.1c0.4,1,1,1.8,1.7,2.5s1.6,1.3,2.6,1.7
					c1,0.4,2.1,0.6,3.2,0.6c1.1,0,2.2-0.2,3.2-0.6c1-0.4,1.8-1,2.5-1.7c0.7-0.7,1.3-1.6,1.7-2.5c0.4-1,0.6-2,0.6-3.1
					c0-1.1-0.2-2.2-0.6-3.1C447.8,50.1,447.2,49.2,446.4,48.5z M444.7,56.7c-0.4,0.7-0.9,1.3-1.6,1.7c-0.7,0.4-1.5,0.6-2.4,0.6
					c-0.7,0-1.3-0.1-1.9-0.3c-0.6-0.2-1-0.6-1.4-1c-0.4-0.4-0.7-0.9-0.9-1.5c-0.2-0.6-0.3-1.3-0.3-2c0-1,0.2-1.8,0.6-2.5
					c0.4-0.7,0.9-1.3,1.6-1.7s1.5-0.6,2.4-0.6c0.7,0,1.3,0.1,1.8,0.3c0.6,0.2,1.1,0.6,1.5,1c0.4,0.4,0.7,0.9,0.9,1.5
					s0.3,1.2,0.3,1.9C445.3,55.1,445.1,55.9,444.7,56.7z"/>
				<path class="st0" d="M459.3,61.8h4.1l-4.9-6.4c0.5-0.1,1-0.2,1.4-0.4c0.8-0.4,1.4-0.9,1.8-1.6c0.4-0.7,0.7-1.5,0.7-2.4
					c0-0.9-0.2-1.6-0.6-2.3c-0.4-0.7-1-1.2-1.8-1.6c-0.8-0.4-1.7-0.6-2.7-0.6h-2.8h-0.8h-2.6v15.4h3.4v-6.3h0.4L459.3,61.8z
					 M454.4,49.2h2.5c0.7,0,1.2,0.2,1.6,0.5c0.4,0.4,0.6,0.8,0.6,1.4c0,0.6-0.2,1-0.6,1.4c-0.4,0.3-0.9,0.5-1.6,0.5h-2.4V49.2z"/>
			</g>
			<g>
				<path class="st1" d="M247.7,83.6c-0.6,0.2-1.3,0.4-2,0.4c-0.7,0-1.3-0.1-1.8-0.3c-0.6-0.2-1-0.6-1.4-1c-0.4-0.4-0.7-0.9-0.9-1.5
					c-0.2-0.6-0.3-1.2-0.3-2c0-0.7,0.1-1.3,0.3-1.9c0.2-0.6,0.5-1.1,0.9-1.5c0.4-0.4,0.9-0.7,1.4-1s1.2-0.3,1.8-0.3
					c0.8,0,1.4,0.1,2,0.4c0.6,0.2,1.1,0.6,1.4,1l2.3-2.3c-0.7-0.7-1.5-1.2-2.5-1.6c-1-0.4-2-0.6-3.3-0.6c-1.2,0-2.2,0.2-3.2,0.6
					c-1,0.4-1.8,1-2.6,1.7c-0.7,0.7-1.3,1.5-1.7,2.5c-0.4,1-0.6,2-0.6,3.1c0,1.1,0.2,2.2,0.6,3.1c0.4,1,1,1.8,1.7,2.5
					c0.7,0.7,1.6,1.3,2.6,1.7c1,0.4,2,0.6,3.2,0.6c1.3,0,2.4-0.2,3.3-0.6c1-0.4,1.8-0.9,2.5-1.6l-2.3-2.3
					C248.7,83,248.3,83.3,247.7,83.6z"/>
				<polygon class="st1" points="256.8,71.5 253.3,71.5 253.3,86.8 256,86.8 256.8,86.8 263.6,86.8 263.6,83.8 256.8,83.8 				"/>
				<rect x="265.5" y="71.5" class="st1" width="3.4" height="15.4"/>
				<polygon class="st1" points="279.8,79.9 274.4,71.5 271.9,71.5 271.9,86.8 275.3,86.8 275.3,78.3 278.6,83.5 280.9,83.5 
					284.2,78.3 284.2,86.8 287.6,86.8 287.6,71.5 285.2,71.5 				"/>
				<path class="st1" d="M295.5,71.5l-6.1,15.4h3.5l1-2.8h6l1,2.8h3.6l-6-15.4H295.5z M295,81.3l2-5.4l2,5.4H295z"/>
				<polygon class="st1" points="305.4,74.5 310.2,74.5 310.2,86.8 313.6,86.8 313.6,74.5 318.4,74.5 318.4,71.5 305.4,71.5 				"/>
				<polygon class="st1" points="323.7,80.4 330.6,80.4 330.6,77.5 323.7,77.5 323.7,74.4 331.2,74.4 331.2,71.5 323.7,71.5 
					322.9,71.5 320.3,71.5 320.3,86.8 322.9,86.8 323.7,86.8 331.4,86.8 331.4,83.9 323.7,83.9 				"/>
				<path class="st1" d="M347.1,83.6c-0.6,0.2-1.3,0.4-2,0.4c-0.7,0-1.3-0.1-1.8-0.3c-0.6-0.2-1-0.6-1.4-1c-0.4-0.4-0.7-0.9-0.9-1.5
					c-0.2-0.6-0.3-1.2-0.3-2c0-0.7,0.1-1.3,0.3-1.9c0.2-0.6,0.5-1.1,0.9-1.5c0.4-0.4,0.9-0.7,1.4-1s1.2-0.3,1.8-0.3
					c0.8,0,1.4,0.1,2,0.4c0.6,0.2,1.1,0.6,1.4,1l2.3-2.3c-0.7-0.7-1.5-1.2-2.5-1.6c-1-0.4-2-0.6-3.3-0.6c-1.2,0-2.2,0.2-3.2,0.6
					c-1,0.4-1.8,1-2.6,1.7c-0.7,0.7-1.3,1.5-1.7,2.5c-0.4,1-0.6,2-0.6,3.1c0,1.1,0.2,2.2,0.6,3.1c0.4,1,1,1.8,1.7,2.5
					c0.7,0.7,1.6,1.3,2.6,1.7c1,0.4,2,0.6,3.2,0.6c1.3,0,2.4-0.2,3.3-0.6c1-0.4,1.8-0.9,2.5-1.6l-2.3-2.3
					C348.2,83,347.7,83.3,347.1,83.6z"/>
				<polygon class="st1" points="362.3,77.4 356.2,77.4 356.2,71.5 352.8,71.5 352.8,86.8 356.2,86.8 356.2,80.4 362.3,80.4 
					362.3,86.8 365.7,86.8 365.7,71.5 362.3,71.5 				"/>
				<path class="st1" d="M373.6,71.5l-6.1,15.4h3.5l1-2.8h6l1,2.8h3.6l-6-15.4H373.6z M373.1,81.3l2-5.4l2,5.4H373.1z"/>
				<polygon class="st1" points="394.2,80.8 387,71.5 384.5,71.5 384.5,86.8 388,86.8 388,77.6 395.1,86.8 397.7,86.8 397.7,71.5 
					394.2,71.5 				"/>
				<path class="st1" d="M407.5,81l4.4,0.1c-0.1,0.3-0.2,0.6-0.3,0.9c-0.3,0.7-0.8,1.1-1.5,1.5c-0.6,0.3-1.4,0.5-2.3,0.5
					c-0.9,0-1.7-0.2-2.3-0.6c-0.7-0.4-1.2-1-1.6-1.7s-0.6-1.6-0.6-2.5c0-1,0.2-1.8,0.6-2.5s1-1.3,1.7-1.7c0.7-0.4,1.5-0.6,2.4-0.6
					c0.8,0,1.6,0.2,2.3,0.5s1.2,0.8,1.7,1.4l2.3-2.3c-0.7-0.8-1.6-1.5-2.7-2c-1.1-0.5-2.3-0.7-3.6-0.7c-1.1,0-2.2,0.2-3.2,0.6
					c-1,0.4-1.9,1-2.6,1.7c-0.8,0.7-1.3,1.6-1.8,2.5c-0.4,0.9-0.6,2-0.6,3.1c0,1.1,0.2,2.2,0.6,3.1c0.4,1,1,1.8,1.7,2.5
					c0.7,0.7,1.6,1.3,2.6,1.7c1,0.4,2,0.6,3.2,0.6c1.5,0,2.9-0.3,4-1c1.2-0.6,2.1-1.6,2.7-2.9c0.7-1.3,1-2.8,1-4.6v-0.5h-8.1V81z"/>
				<polygon class="st1" points="421.1,83.9 421.1,80.4 427.9,80.4 427.9,77.5 421.1,77.5 421.1,74.4 428.6,74.4 428.6,71.5 
					421.1,71.5 420.3,71.5 417.7,71.5 417.7,86.8 420.3,86.8 421.1,86.8 428.7,86.8 428.7,83.9 				"/>
			</g>
		</g>
	</g>
</g>
</svg>
