<?xml version="1.0" encoding="UTF-8"?>
<svg id="Layer_2" xmlns="http://www.w3.org/2000/svg" version="1.1" viewBox="0 0 481.89 85.04">
  <!-- Generator: Adobe Illustrator 30.0.0, SVG Export Plug-In . SVG Version: 2.1.1 Build 123)  -->
  <defs>
    <style>
      .st0 {
        fill: #006ba9;
      }
    </style>
  </defs>
  <g>
    <path class="st0" d="M183.28,6.8v12.94h-36.95v14.99h33.91v11.96h-33.91v17.15h37.73v12.94h-53.12V6.8h52.33Z"/>
    <path class="st0" d="M234.33,25.47c-.92-1.47-2.06-2.76-3.43-3.87-1.37-1.11-2.92-1.98-4.66-2.6-1.73-.62-3.54-.93-5.44-.93-3.46,0-6.4.67-8.82,2.01-2.42,1.34-4.38,3.14-5.88,5.39-1.5,2.25-2.6,4.82-3.28,7.69-.69,2.88-1.03,5.85-1.03,8.92s.34,5.8,1.03,8.58c.69,2.78,1.78,5.28,3.28,7.5,1.5,2.22,3.46,4,5.88,5.34,2.42,1.34,5.36,2.01,8.82,2.01,4.7,0,8.38-1.44,11.03-4.31,2.65-2.87,4.26-6.66,4.85-11.37h14.9c-.39,4.38-1.41,8.33-3.04,11.86-1.63,3.53-3.79,6.53-6.47,9.02-2.68,2.48-5.82,4.38-9.41,5.68-3.59,1.31-7.55,1.96-11.86,1.96-5.36,0-10.18-.93-14.46-2.79-4.28-1.86-7.89-4.43-10.83-7.69-2.94-3.27-5.19-7.11-6.76-11.51-1.57-4.41-2.35-9.16-2.35-14.26s.78-10.08,2.35-14.55c1.57-4.47,3.82-8.38,6.76-11.71,2.94-3.33,6.55-5.94,10.83-7.84,4.28-1.89,9.1-2.84,14.46-2.84,3.85,0,7.5.56,10.93,1.67,3.43,1.11,6.5,2.73,9.21,4.85,2.71,2.12,4.95,4.75,6.71,7.89,1.76,3.14,2.87,6.73,3.33,10.78h-14.9c-.26-1.76-.85-3.38-1.76-4.85Z"/>
    <path class="st0" d="M279.37,6.8l16.37,48.12h.2l15.48-48.12h21.66v69.97h-14.41V27.19h-.2l-17.15,49.59h-11.86l-17.15-49.1h-.2v49.1h-14.41V6.8h21.66Z"/>
    <path class="st0" d="M394.05,76.78l-11.86-47.63h-.2l-11.66,47.63h-15.58l-18.52-69.97h15.39l11.07,47.63h.2l12.15-47.63h14.41l11.96,48.22h.2l11.47-48.22h15.09l-18.82,69.97h-15.29Z"/>
    <path class="st0" d="M480.5,6.8v12.94h-33.81v16.17h29.3v11.96h-29.3v28.91h-15.39V6.8h49.2Z"/>
  </g>
  <g>
    <path class="st0" d="M.4,46.01h34.41v-9.32H.4c-.56,3.12-.51,6.3,0,9.32Z"/>
    <g>
      <path class="st0" d="M114.98,49.24c-3.53,19.2-20.53,33.44-40.04,33.44-5.68,0-11.72-1.43-16.84-3.64-5.38,2.51-11.32,3.64-17.36,3.64-19.5,0-36.5-13.98-39.98-33.28l25.09-.05c2.76,6.25,9.1,10.29,15.92,10.29,7.32,0,14.13-4.98,16.59-11.83,2.36,7.02,9.17,11.83,16.58,11.83,6.97,0,13.42-4.04,16.18-10.34l23.86-.06Z"/>
      <path class="st0" d="M114.98,33.44C111.45,14.22,94.45,0,74.94,0c-5.68,0-11.72,1.43-16.84,3.69-5.38-2.56-11.32-3.69-17.36-3.69C21.24,0,4.24,13.97.76,33.28l25.09.05c2.76-6.25,9.1-10.28,15.92-10.28,7.32,0,14.13,4.96,16.59,11.81,2.36-7.01,9.17-11.81,16.58-11.81,6.97,0,13.42,4.03,16.18,10.33l23.86.06Z"/>
    </g>
  </g>
</svg>