<?xml version="1.0" encoding="UTF-8"?>
<svg id="Layer_2" data-name="Layer 2" xmlns="http://www.w3.org/2000/svg" viewBox="0 0 449.4 141.59">
  <defs>
    <style>
      .cls-1 {
        stroke: #fc7235;
      }

      .cls-2 {
        stroke: #fedc7f;
      }

      .cls-3 {
        stroke: #feae4d;
      }

      .cls-4 {
        stroke: #fb6430;
      }

      .cls-5 {
        stroke: #fea849;
      }

      .cls-6 {
        stroke: #fd8a3c;
      }

      .cls-7 {
        stroke: #e42220;
      }

      .cls-8 {
        stroke: #e42320;
      }

      .cls-9 {
        stroke: #f03724;
      }

      .cls-10 {
        stroke: #fc6e33;
      }

      .cls-11 {
        stroke: #fedb7d;
      }

      .cls-12 {
        stroke: #fc6f34;
      }

      .cls-13 {
        stroke: #f84e2a;
      }

      .cls-14 {
        stroke: #e92b22;
      }

      .cls-15 {
        stroke: #ed3223;
      }

      .cls-16 {
        stroke: #fc7536;
      }

      .cls-17 {
        stroke: #f44327;
      }

      .cls-18 {
        stroke: #e22020;
      }

      .cls-19 {
        stroke: #f54427;
      }

      .cls-20 {
        stroke: #feb955;
      }

      .cls-21 {
        stroke: #fd8039;
      }

      .cls-22 {
        stroke: #fd9f45;
      }

      .cls-23 {
        stroke: #fd9b42;
      }

      .cls-24 {
        stroke: #ef3624;
      }

      .cls-25 {
        stroke: #feb653;
      }

      .cls-26 {
        stroke: #fec662;
      }

      .cls-27 {
        stroke: #fd7c37;
      }

      .cls-28 {
        stroke: #feb654;
      }

      .cls-29 {
        stroke: #f9572d;
      }

      .cls-30 {
        stroke: #d41121;
      }

      .cls-31 {
        stroke: #fd853a;
      }

      .cls-32 {
        stroke: #f33e26;
      }

      .cls-33 {
        stroke: #fa5b2e;
      }

      .cls-34 {
        stroke: #d51221;
      }

      .cls-35 {
        stroke: #fea145;
      }

      .cls-36 {
        stroke: #fd8e3e;
      }

      .cls-37 {
        stroke: #fc6d33;
      }

      .cls-38 {
        stroke: #e52421;
      }

      .cls-39 {
        stroke: #fec965;
      }

      .cls-40 {
        stroke: #feb451;
      }

      .cls-41 {
        stroke: #feb14f;
      }

      .cls-42 {
        stroke: #fd8c3d;
      }

      .cls-43 {
        stroke: #febc59;
      }

      .cls-44 {
        stroke: #ee3423;
      }

      .cls-45 {
        stroke: #f54528;
      }

      .cls-46 {
        stroke: #fb6230;
      }

      .cls-47 {
        stroke: #fd7f38;
      }

      .cls-48 {
        stroke: #feb855;
      }

      .cls-49 {
        stroke: #fec05d;
      }

      .cls-50 {
        stroke: #fed97a;
      }

      .cls-51 {
        stroke: #fecc69;
      }

      .cls-52 {
        stroke: #fc6c33;
      }

      .cls-53 {
        stroke: #fed16f;
      }

      .cls-54 {
        stroke: #fec05c;
      }

      .cls-55 {
        stroke: #feb452;
      }

      .cls-56 {
        stroke: #f9552c;
      }

      .cls-57 {
        stroke: #f64828;
      }

      .cls-58 {
        stroke: #febd59;
      }

      .cls-59 {
        stroke: #febb57;
      }

      .cls-60 {
        stroke: #fec25f;
      }

      .cls-61 {
        stroke: #fedf84;
      }

      .cls-62 {
        stroke: #fea045;
      }

      .cls-63 {
        stroke: #fed474;
      }

      .cls-64 {
        stroke: #f64929;
      }

      .cls-65 {
        stroke: #fd9c43;
      }

      .cls-66 {
        stroke: #ee3323;
      }

      .cls-67 {
        stroke: #f74b29;
      }

      .cls-68 {
        stroke: #e01d20;
      }

      .cls-69 {
        stroke: #fea648;
      }

      .cls-70 {
        stroke: #fea548;
      }

      .cls-71 {
        stroke: #fea246;
      }

      .cls-72 {
        stroke: #fa582d;
      }

      .cls-73 {
        stroke: #feb351;
      }

      .cls-74 {
        stroke: #fea749;
      }

      .cls-75 {
        stroke: #e82921;
      }

      .cls-76 {
        stroke: #f44026;
      }

      .cls-77 {
        stroke: #fb6330;
      }

      .cls-78 {
        stroke: #febf5b;
      }

      .cls-79 {
        stroke: #febd5a;
      }

      .cls-80 {
        stroke: #fc6731;
      }

      .cls-81 {
        stroke: #fede82;
      }

      .cls-82 {
        stroke: #fd7937;
      }

      .cls-83 {
        stroke: #fd8139;
      }

      .cls-84 {
        stroke: #ed3123;
      }

      .cls-85 {
        stroke: #de1b20;
      }

      .cls-86 {
        stroke: #fea94a;
      }

      .cls-87 {
        stroke: #fec864;
      }

      .cls-88 {
        stroke: #f13a25;
      }

      .cls-89 {
        stroke: #e72721;
      }

      .cls-90 {
        stroke: #fed879;
      }

      .cls-91 {
        stroke: #fec966;
      }

      .cls-92 {
        stroke: #fee086;
      }

      .cls-93 {
        stroke: #fd9440;
      }

      .cls-94 {
        stroke: #feb956;
      }

      .cls-95 {
        stroke: #f8502b;
      }

      .cls-96 {
        stroke: #fedc80;
      }

      .cls-97 {
        stroke: #febe5b;
      }

      .cls-98 {
        stroke: #f33f26;
      }

      .cls-99 {
        stroke: #e92a21;
      }

      .cls-100 {
        stroke: #fd7b37;
      }

      .cls-101 {
        stroke: #d91520;
      }

      .cls-102 {
        stroke: #feaa4a;
      }

      .cls-103 {
        stroke: #feb150;
      }

      .cls-104 {
        stroke: #e32120;
      }

      .cls-105 {
        stroke: #fd9a42;
      }

      .cls-106 {
        stroke: #f8512b;
      }

      .cls-107 {
        stroke: #fed271;
      }

      .cls-108 {
        stroke: #fec25e;
      }

      .cls-109 {
        stroke: #e52320;
      }

      .cls-110 {
        stroke: #fecb68;
      }

      .cls-111 {
        stroke: #fecd6b;
      }

      .cls-112 {
        stroke: #fd9640;
      }

      .cls-113 {
        stroke: #d91620;
      }

      .cls-114 {
        stroke: #fedb7e;
      }

      .cls-115 {
        stroke: #fd933f;
      }

      .cls-116 {
        stroke: #fed97b;
      }

      .cls-117 {
        stroke: #feda7d;
      }

      .cls-118 {
        stroke: #feca67;
      }

      .cls-119 {
        stroke: #fc7435;
      }

      .cls-120 {
        stroke: #fed170;
      }

      .cls-121 {
        stroke: #dc1920;
      }

      .cls-122 {
        stroke: #fecc6a;
      }

      .cls-123 {
        stroke: #fd8239;
      }

      .cls-124 {
        stroke: #e11f20;
      }

      .cls-125 {
        stroke: #fec460;
      }

      .cls-126 {
        stroke: #fa592d;
      }

      .cls-127 {
        stroke: #fed473;
      }

      .cls-128 {
        stroke: #fed06e;
      }

      .cls-129 {
        stroke: #fed575;
      }

      .cls-130 {
        stroke: #fd843a;
      }

      .cls-131 {
        stroke: #feaf4e;
      }

      .cls-132 {
        stroke: #eb2d22;
      }

      .cls-133 {
        stroke: #fa5a2e;
      }

      .cls-134 {
        stroke: #fec764;
      }

      .cls-135 {
        stroke: #fd9b43;
      }

      .cls-136 {
        stroke: #fc6a32;
      }

      .cls-137 {
        stroke: #fec562;
      }

      .cls-138 {
        stroke: #fece6c;
      }

      .cls-139 {
        stroke: #dd1a20;
      }

      .cls-140 {
        stroke: #feb754;
      }

      .cls-141 {
        stroke: #feb250;
      }

      .cls-142 {
        stroke: #f23c25;
      }

      .cls-143 {
        stroke: #fd893c;
      }

      .cls-144 {
        stroke: #fb6531;
      }

      .cls-145 {
        stroke: #fc7134;
      }

      .cls-146 {
        stroke: #fed778;
      }

      .cls-147 {
        stroke: #e62521;
      }

      .cls-148 {
        stroke: #fd8b3d;
      }

      .cls-149 {
        stroke: #fed676;
      }

      .cls-150 {
        stroke: #f03824;
      }

      .cls-151 {
        stroke: #da1720;
      }

      .cls-152 {
        stroke: #feb04f;
      }

      .cls-153 {
        stroke: #df1c20;
      }

      .cls-154 {
        stroke: #f23d26;
      }

      .cls-155 {
        stroke: #fea447;
      }

      .cls-156 {
        stroke: #ea2d22;
      }

      .cls-157 {
        stroke: #fd913f;
      }

      .cls-158 {
        stroke: #fd9942;
      }

      .cls-159 {
        stroke: #f74c2a;
      }

      .cls-160 {
        stroke: #d31121;
      }

      .cls-161 {
        stroke: #fd833a;
      }

      .cls-162 {
        stroke: #f13b25;
      }

      .cls-163 {
        stroke: #fd923f;
      }

      .cls-164 {
        stroke: #fd8d3d;
      }

      .cls-165 {
        stroke: #ec3023;
      }

      .cls-166 {
        stroke: #fc7034;
      }

      .cls-167 {
        stroke: #feaa4b;
      }

      .cls-168 {
        stroke: #fd873b;
      }

      .cls-169 {
        stroke: #db1820;
      }

      .cls-170 {
        stroke: #fedf85;
      }

      .cls-171 {
        stroke: #fd863b;
      }

      .cls-172 {
        stroke: #d71420;
      }

      .cls-173 {
        stroke: #fd7836;
      }

      .cls-174 {
        stroke: #fd7e38;
      }

      .cls-175 {
        stroke: #ec2f22;
      }

      .cls-176 {
        stroke: #d61320;
      }

      .cls-177 {
        stroke: #feb552;
      }

      .cls-178 {
        stroke: #f74d2a;
      }

      .cls-179 {
        stroke: #df1d20;
      }

      .cls-180 {
        stroke: #fd9540;
      }

      .cls-181 {
        stroke: #f64728;
      }

      .cls-182 {
        stroke: #fd8f3e;
      }

      .cls-183 {
        stroke: #f84f2a;
      }

      .cls-184 {
        stroke: #fa5c2e;
      }

      .cls-185 {
        stroke: #fd883b;
      }

      .cls-186 {
        stroke: #d41221;
      }

      .cls-187 {
        stroke: #fc6b32;
      }

      .cls-188 {
        stroke: #febb58;
      }

      .cls-189 {
        stroke: #fc6832;
      }

      .cls-190 {
        stroke: #fa5d2e;
      }

      .cls-191 {
        stroke: #f03924;
      }

      .cls-192 {
        stroke: #fd9e44;
      }

      .cls-193 {
        stroke: #fee087;
      }

      .cls-194 {
        stroke: #fd9841;
      }

      .cls-195 {
        stroke: #e11e20;
      }

      .cls-196 {
        stroke: #f44227;
      }

      .cls-197 {
        stroke: #f9522b;
      }

      .cls-198 {
        stroke: #feab4b;
      }

      .cls-199 {
        stroke: #feda7c;
      }

      .cls-200 {
        stroke: #ef3524;
      }

      .cls-201 {
        stroke: #e82821;
      }

      .cls-202 {
        stroke: #fd903e;
      }

      .cls-203 {
        stroke: #fd7d38;
      }

      .cls-204 {
        stroke: #fec461;
      }

      .cls-205 {
        stroke: #f9562c;
      }

      .cls-206 {
        stroke: #fedd81;
      }

      .cls-207 {
        stroke: #d81520;
      }

      .cls-208 {
        stroke: #fd8b3c;
      }

      .cls-209 {
        stroke: #fec763;
      }

      .cls-210 {
        stroke: #eb2e22;
      }

      .cls-211 {
        stroke: #fea347;
      }

      .cls-212 {
        stroke: #fd7a37;
      }

      .cls-213 {
        stroke: #fede83;
      }

      .cls-214 {
        stroke: #fb602f;
      }

      .cls-215 {
        stroke: #fec35f;
      }

      .cls-216 {
        stroke: #ea2c22;
      }

      .cls-217 {
        stroke: #fc7335;
      }

      .cls-218 {
        stroke: #f54628;
      }

      .cls-219 {
        stroke: #fead4d;
      }

      .cls-220 {
        stroke: #fb612f;
      }

      .cls-221 {
        stroke: #fd9741;
      }

      .cls-222 {
        stroke: #fec15d;
      }

      .cls-223 {
        stroke: #fd7736;
      }

      .cls-224 {
        stroke: #fed777;
      }

      .cls-225 {
        stroke: #e62621;
      }

      .cls-226 {
        stroke: #fed372;
      }

      .cls-227 {
        stroke: #feac4c;
      }

      .cls-228 {
        stroke: #f9532c;
      }

      .cls-229 {
        stroke: #f64a29;
      }

      .cls-230 {
        stroke: #fd9d44;
      }

      .cls-231 {
        stroke: #fb6631;
      }

      .cls-232 {
        stroke: #fecf6d;
      }

      .cls-233 {
        stroke: #feba57;
      }

      .cls-234 {
        stroke: #fb5e2f;
      }

      .cls-235 {
        stroke: #fece6b;
      }
    </style>
  </defs>
  <g id="logo">
    <g>
      <g id="ova">
        <path d="M204.9,96.42l-13.5,32.74h6.63l3.16-7.97h14.55l3.4,7.97h6.68l-14.46-32.74h-6.47ZM203.12,116.39l5.04-12.96,5.53,12.96h-10.57Z"/>
        <path d="M233.91,123.21c-1.26-1.25-1.89-2.9-1.89-4.95s.62-3.75,1.88-4.98,2.86-1.84,4.83-1.84c1.83,0,3.77.59,5.81,1.78v-4.9c-2.06-.98-4.37-1.48-6.91-1.48-3.44,0-6.24,1.06-8.4,3.19s-3.25,4.93-3.25,8.41,1.11,6.05,3.32,8.09,5.09,3.05,8.64,3.05c2.41,0,4.74-.46,7.01-1.38v-4.66c-2.44,1.03-4.44,1.55-6,1.55-2.09,0-3.77-.62-5.03-1.88Z"/>
        <path d="M266.86,125.6c-.67,0-1.01-.41-1.01-1.24v-10.71c0-2.14-.74-3.81-2.23-5s-3.63-1.79-6.45-1.79c-3.28,0-6.12.95-8.51,2.84v5.18c1.08-1.19,2.27-2.09,3.59-2.7s2.63-.91,3.96-.91c2.59,0,3.89,1.07,3.89,3.21v1.01l-4.66,1.36c-2.81.81-4.78,1.77-5.91,2.86s-1.69,2.59-1.69,4.48c0,1.48.57,2.76,1.7,3.82s2.49,1.59,4.07,1.59c2.22,0,4.43-.78,6.63-2.34.22.88.61,1.48,1.16,1.83s1.35.52,2.38.52c1.67,0,3.52-.62,5.53-1.85v-3.33c-.34.31-.77.59-1.28.83s-.9.36-1.18.36ZM260.11,124.22c-1.27,1.16-2.53,1.73-3.8,1.73-.75,0-1.38-.24-1.89-.73s-.76-1.12-.76-1.92c0-.72.21-1.33.64-1.83s1.1-.99,2.02-1.48,2.18-1,3.79-1.55v5.77Z"/>
        <path d="M286.8,107.77c-1.73-.61-3.37-.91-4.9-.91-1.98,0-3.83.48-5.54,1.44-1.71.96-3.05,2.29-4.03,3.97s-1.46,3.56-1.46,5.62c0,3.48,1.05,6.23,3.15,8.25s4.9,3.02,8.4,3.02h10.12v-32.74h-5.74v11.34ZM286.8,124.76h-3.02c-4.67,0-7.01-2.35-7.01-7.05,0-1.95.57-3.53,1.72-4.73s2.68-1.8,4.61-1.8c1.28,0,2.52.3,3.7.91v12.68Z"/>
        <path d="M307.64,106.85c-3.25,0-5.89,1.05-7.91,3.16s-3.04,4.83-3.04,8.16,1.09,6.22,3.28,8.3,5.01,3.12,8.46,3.12c3.66,0,6.77-.91,9.33-2.72v-4.29c-1.36.97-2.68,1.69-3.95,2.17s-2.6.71-3.97.71c-2.14,0-3.82-.53-5.05-1.58s-1.96-2.56-2.19-4.51h15.49v-.87c0-3.64-.94-6.49-2.81-8.55s-4.42-3.09-7.64-3.09ZM302.7,115.88c.23-1.67.79-2.94,1.68-3.8s2.05-1.29,3.5-1.29,2.54.45,3.35,1.35,1.3,2.14,1.45,3.74h-9.98Z"/>
        <path d="M349.71,106.85c-1.47,0-2.82.35-4.04,1.04s-2.46,1.8-3.69,3.32c-.58-1.33-1.45-2.39-2.61-3.18s-2.59-1.18-4.28-1.18c-1.41,0-2.65.29-3.73.86s-2.14,1.45-3.19,2.64v-3.07h-5.77v21.89h5.77v-14.55c.89-1.19,1.73-2.05,2.51-2.59s1.64-.81,2.58-.81c1.16,0,2.08.43,2.77,1.28s1.03,2.03,1.03,3.53v13.15h5.74v-14.55c1.62-2.27,3.32-3.4,5.09-3.4,1.23,0,2.18.44,2.82,1.31s.97,2.07.97,3.59v13.05h5.77v-14.02c0-2.52-.71-4.53-2.13-6.04s-3.29-2.26-5.6-2.26Z"/>
        <polygon points="370.34 119.04 365.16 107.27 358.92 107.27 367.43 125.13 360.47 140.2 366.66 140.2 381.77 107.27 375.59 107.27 370.34 119.04"/>
        <polygon points="208.17 69.45 198.92 48.42 192.24 48.42 207.17 81.59 209.37 81.59 223.83 48.42 217.2 48.42 208.17 69.45"/>
        <rect x="226.66" y="59.27" width="5.77" height="21.89"/>
        <path d="M227.26,54.69c.65.66,1.41,1,2.29,1s1.68-.33,2.31-1,.95-1.43.95-2.29-.32-1.66-.96-2.3-1.41-.96-2.3-.96-1.62.32-2.27.95-.98,1.4-.98,2.31c0,.86.32,1.62.97,2.29Z"/>
        <path d="M246.54,76.84c-.61.35-1.41.53-2.39.53-1.92,0-4.29-.78-7.1-2.34v4.8c.89.48,2.01.9,3.36,1.24s2.81.52,4.37.52c2.5,0,4.48-.61,5.95-1.82s2.2-2.87,2.2-4.98c0-1.5-.5-2.79-1.51-3.86s-2.76-2.24-5.26-3.5c-1.75-.88-2.82-1.48-3.21-1.8s-.59-.66-.59-.98c0-.58.23-1.02.7-1.34s1.12-.47,1.95-.47c.98,0,2.1.21,3.35.64s2.42,1,3.52,1.7v-4.62c-1.19-.59-2.31-1.03-3.38-1.3s-2.2-.41-3.4-.41c-2.47,0-4.46.58-5.98,1.73s-2.27,2.7-2.27,4.64c0,1.36.42,2.54,1.27,3.53s2.15,1.91,3.91,2.75c2.3,1.12,3.66,1.84,4.1,2.13s.77.59.98.87.33.59.33.94c0,.58-.3,1.04-.91,1.39Z"/>
        <path d="M271.35,81.16h5.77v-21.89h-5.77v14.51c-.55,1.08-1.27,1.91-2.16,2.51s-1.82.89-2.79.89c-1.17,0-2.11-.37-2.82-1.11s-1.07-1.82-1.07-3.25v-13.55h-5.74v14.02c0,2.47.72,4.47,2.16,6s3.33,2.3,5.67,2.3,4.67-1.13,6.75-3.4v2.98Z"/>
        <path d="M302.75,79.73v-3.33c-.34.31-.77.59-1.28.83s-.9.36-1.18.36c-.67,0-1.01-.41-1.01-1.24v-10.71c0-2.14-.74-3.81-2.23-5s-3.63-1.79-6.45-1.79c-3.28,0-6.12.95-8.51,2.84v5.18c1.08-1.19,2.27-2.09,3.59-2.7s2.63-.91,3.96-.91c2.59,0,3.89,1.07,3.89,3.21v1.01l-4.66,1.36c-2.81.81-4.78,1.77-5.91,2.86s-1.69,2.59-1.69,4.48c0,1.48.57,2.76,1.7,3.82s2.49,1.59,4.07,1.59c2.22,0,4.43-.78,6.63-2.34.22.88.61,1.48,1.16,1.83s1.35.52,2.38.52c1.67,0,3.52-.62,5.53-1.85ZM293.54,76.22c-1.27,1.16-2.53,1.73-3.8,1.73-.75,0-1.38-.24-1.89-.73s-.76-1.12-.76-1.92c0-.72.21-1.33.64-1.83s1.1-.99,2.02-1.48,2.18-1,3.79-1.55v5.77Z"/>
        <rect x="305.77" y="48.42" width="5.77" height="32.74"/>
        <rect x="317.05" y="59.27" width="5.77" height="21.89"/>
        <path d="M319.93,55.69c.91,0,1.68-.33,2.31-1s.95-1.43.95-2.29-.32-1.66-.96-2.3-1.41-.96-2.3-.96-1.62.32-2.27.95-.98,1.4-.98,2.31c0,.86.32,1.62.97,2.29s1.41,1,2.29,1Z"/>
        <polygon points="346.96 81.16 346.96 76.85 335.52 76.85 346.91 59.27 326.8 59.27 326.8 63.63 337.35 63.63 325.94 81.16 346.96 81.16"/>
        <path d="M357.05,68.84c-2.81.81-4.78,1.77-5.91,2.86s-1.69,2.59-1.69,4.48c0,1.48.57,2.76,1.7,3.82s2.49,1.59,4.07,1.59c2.22,0,4.43-.78,6.63-2.34.22.88.61,1.48,1.16,1.83s1.35.52,2.38.52c1.67,0,3.52-.62,5.53-1.85v-3.33c-.34.31-.77.59-1.28.83s-.9.36-1.18.36c-.67,0-1.01-.41-1.01-1.24v-10.71c0-2.14-.74-3.81-2.23-5s-3.63-1.79-6.45-1.79c-3.28,0-6.12.95-8.51,2.84v5.18c1.08-1.19,2.27-2.09,3.59-2.7s2.63-.91,3.96-.91c2.59,0,3.89,1.07,3.89,3.21v1.01l-4.66,1.36ZM361.72,76.22c-1.27,1.16-2.53,1.73-3.8,1.73-.75,0-1.38-.24-1.89-.73s-.76-1.12-.76-1.92c0-.72.21-1.33.64-1.83s1.1-.99,2.02-1.48,2.18-1,3.79-1.55v5.77Z"/>
        <path d="M380.67,76.12c-.59-.61-.89-1.41-.89-2.39v-10.1h7.5v-4.36h-7.5v-5.81h-.47l-8.7,9.23v.94h3.42v10.48c0,2.3.69,4.12,2.07,5.46s3.31,2.02,5.78,2.02c1.83,0,3.78-.46,5.86-1.38v-4.62c-1.75.97-3.3,1.45-4.64,1.45-1.03,0-1.84-.3-2.44-.91Z"/>
        <path d="M393.9,49.15c-.86,0-1.62.32-2.27.95s-.98,1.4-.98,2.31c0,.86.32,1.62.97,2.29s1.41,1,2.29,1,1.68-.33,2.31-1,.95-1.43.95-2.29-.32-1.66-.96-2.3-1.41-.96-2.3-.96Z"/>
        <rect x="391.02" y="59.27" width="5.77" height="21.89"/>
        <path d="M419.08,60.28c-1.86-.95-3.93-1.43-6.21-1.43s-4.3.47-6.14,1.42-3.28,2.27-4.31,3.98-1.55,3.67-1.55,5.87.49,4.25,1.46,5.95,2.4,3.05,4.28,4.03,3.96,1.48,6.26,1.48,4.37-.49,6.27-1.48,3.34-2.33,4.31-4.03,1.46-3.69,1.46-5.95-.51-4.12-1.52-5.84-2.45-3.05-4.31-4.01ZM417.25,75.45c-1.08,1.25-2.55,1.88-4.43,1.88s-3.23-.65-4.3-1.96-1.61-3.05-1.61-5.24.55-3.8,1.64-5.09,2.52-1.92,4.27-1.92c1.86,0,3.33.61,4.42,1.82s1.63,2.93,1.63,5.14c0,2.33-.54,4.12-1.62,5.37Z"/>
        <path d="M447.3,61.16c-1.4-1.54-3.27-2.31-5.61-2.31-1.31,0-2.53.27-3.64.81s-2.21,1.43-3.27,2.68v-3.07h-5.77v21.89h5.77v-14.55c.94-1.22,1.8-2.09,2.58-2.61s1.62-.79,2.51-.79c1.17,0,2.1.41,2.78,1.24s1.02,1.95,1.02,3.38v13.34h5.74v-13.92c0-2.52-.7-4.54-2.1-6.08Z"/>
        <path d="M199.03,31.38c2.77,1.47,5.86,2.2,9.25,2.2s6.53-.72,9.27-2.17,4.9-3.48,6.47-6.09,2.36-5.46,2.36-8.52-.8-6.03-2.41-8.66-3.77-4.65-6.48-6.05-5.76-2.1-9.15-2.1-6.66.73-9.38,2.19-4.85,3.51-6.4,6.15-2.32,5.46-2.32,8.46.77,5.95,2.32,8.52,3.71,4.59,6.48,6.06ZM198.2,10.93c.95-1.73,2.32-3.07,4.09-4.03s3.77-1.44,5.99-1.44,4.21.48,5.99,1.43,3.15,2.3,4.12,4.04,1.46,3.7,1.46,5.87c0,3.33-1.08,6.05-3.25,8.16s-4.93,3.16-8.29,3.16c-2.22,0-4.21-.48-5.96-1.43s-3.13-2.3-4.11-4.03-1.48-3.69-1.48-5.86.48-4.14,1.43-5.87Z"/>
        <path d="M236.14,32.3c1.72.86,3.43,1.29,5.13,1.29,2.09,0,3.97-.48,5.62-1.45s2.93-2.32,3.83-4.05,1.35-3.7,1.35-5.91c0-3.36-.96-6.09-2.87-8.18s-4.43-3.14-7.56-3.14c-1.97,0-3.82.61-5.55,1.83v-1.41h-5.72v32.93h5.77v-11.91ZM236.14,16.99c1.02-.73,1.84-1.21,2.46-1.44s1.27-.34,1.95-.34c1.8,0,3.18.63,4.16,1.9s1.46,3.02,1.46,5.25c0,2.05-.55,3.72-1.64,5.02s-2.55,1.95-4.36,1.95c-1.25,0-2.59-.41-4.03-1.24v-11.09Z"/>
        <path d="M266.89,33.59c3.66,0,6.77-.91,9.33-2.72v-4.29c-1.36.97-2.68,1.69-3.95,2.17s-2.6.71-3.97.71c-2.14,0-3.82-.53-5.05-1.58s-1.96-2.56-2.19-4.51h15.49v-.87c0-3.64-.94-6.49-2.81-8.55s-4.42-3.09-7.64-3.09-5.89,1.05-7.91,3.16-3.04,4.83-3.04,8.16,1.09,6.22,3.28,8.3,5.01,3.12,8.46,3.12ZM262.82,16.08c.88-.86,2.05-1.29,3.5-1.29s2.54.45,3.35,1.35,1.3,2.14,1.45,3.74h-9.98c.23-1.67.79-2.94,1.68-3.8Z"/>
        <path d="M286.62,18.61c.94-1.22,1.8-2.09,2.58-2.61s1.62-.79,2.51-.79c1.17,0,2.1.41,2.78,1.24s1.02,1.95,1.02,3.38v13.34h5.74v-13.92c0-2.52-.7-4.54-2.1-6.08s-3.27-2.31-5.61-2.31c-1.31,0-2.53.27-3.64.81s-2.21,1.43-3.27,2.68v-3.07h-5.77v21.89h5.77v-14.55Z"/>
      </g>
      <g id="symbol">
        <path class="cls-160" d="M28.26,113.16L168.26,1.16"/>
        <path class="cls-30" d="M28.15,112.95L168.15,1.71"/>
        <path class="cls-186" d="M28.04,112.73L168.04,2.26"/>
        <path class="cls-34" d="M27.93,112.51L167.93,2.8"/>
        <path class="cls-176" d="M27.82,112.29L167.82,3.35"/>
        <path class="cls-172" d="M27.71,112.07L167.71,3.9"/>
        <path class="cls-172" d="M27.6,111.85L167.6,4.45"/>
        <path class="cls-207" d="M27.49,111.63L167.49,4.99"/>
        <path class="cls-101" d="M27.38,111.41L167.38,5.54"/>
        <path class="cls-113" d="M27.27,111.2L167.27,6.09"/>
        <path class="cls-151" d="M27.16,110.98L167.16,6.63"/>
        <path class="cls-151" d="M27.05,110.76L167.05,7.18"/>
        <path class="cls-169" d="M26.94,110.54L166.94,7.73"/>
        <path class="cls-121" d="M26.84,110.32L166.84,8.27"/>
        <path class="cls-121" d="M26.73,110.1L166.73,8.82"/>
        <path class="cls-139" d="M26.62,109.88L166.62,9.37"/>
        <path class="cls-85" d="M26.51,109.66L166.51,9.91"/>
        <path class="cls-85" d="M26.4,109.45L166.4,10.46"/>
        <path class="cls-153" d="M26.29,109.23L166.29,11.01"/>
        <path class="cls-179" d="M26.18,109.01L166.18,11.55"/>
        <path class="cls-68" d="M26.07,108.79L166.07,12.1"/>
        <path class="cls-195" d="M25.96,108.57L165.96,12.65"/>
        <path class="cls-124" d="M25.85,108.35L165.85,13.2"/>
        <path class="cls-18" d="M25.74,108.13L165.74,13.74"/>
        <path class="cls-18" d="M25.63,107.91L165.63,14.29"/>
        <path class="cls-104" d="M25.52,107.7L165.52,14.84"/>
        <path class="cls-7" d="M25.41,107.48L165.41,15.38"/>
        <path class="cls-8" d="M25.3,107.26L165.3,15.93"/>
        <path class="cls-109" d="M25.19,107.04L165.19,16.48"/>
        <path class="cls-38" d="M25.09,106.82L165.09,17.02"/>
        <path class="cls-147" d="M24.98,106.6L164.98,17.57"/>
        <path class="cls-225" d="M24.87,106.38L164.87,18.12"/>
        <path class="cls-89" d="M24.76,106.16L164.76,18.66"/>
        <path class="cls-89" d="M24.65,105.95L164.65,19.21"/>
        <path class="cls-201" d="M24.54,105.73L164.54,19.76"/>
        <path class="cls-75" d="M24.43,105.51L164.43,20.3"/>
        <path class="cls-99" d="M24.32,105.29L164.32,20.85"/>
        <path class="cls-14" d="M24.21,105.07L164.21,21.4"/>
        <path class="cls-216" d="M24.1,104.85L164.1,21.95"/>
        <path class="cls-156" d="M23.99,104.63L163.99,22.49"/>
        <path class="cls-132" d="M23.88,104.41L163.88,23.04"/>
        <path class="cls-210" d="M23.77,104.2L163.77,23.59"/>
        <path class="cls-175" d="M23.66,103.98L163.66,24.13"/>
        <path class="cls-165" d="M23.55,103.76L163.55,24.68"/>
        <path class="cls-84" d="M23.44,103.54L163.44,25.23"/>
        <path class="cls-15" d="M23.34,103.32L163.34,25.77"/>
        <path class="cls-66" d="M23.23,103.1L163.23,26.32"/>
        <path class="cls-44" d="M23.12,102.88L163.12,26.87"/>
        <path class="cls-200" d="M23.01,102.66L163.01,27.41"/>
        <path class="cls-24" d="M22.9,102.45L162.9,27.96"/>
        <path class="cls-9" d="M22.79,102.23L162.79,28.51"/>
        <path class="cls-150" d="M22.68,102.01L162.68,29.05"/>
        <path class="cls-191" d="M22.57,101.79L162.57,29.6"/>
        <path class="cls-88" d="M22.46,101.57L162.46,30.15"/>
        <path class="cls-162" d="M22.35,101.35L162.35,30.7"/>
        <path class="cls-142" d="M22.24,101.13L162.24,31.24"/>
        <path class="cls-142" d="M22.13,100.91L162.13,31.79"/>
        <path class="cls-154" d="M22.02,100.7L162.02,32.34"/>
        <path class="cls-32" d="M21.91,100.48L161.91,32.88"/>
        <path class="cls-98" d="M21.8,100.26L161.8,33.43"/>
        <path class="cls-76" d="M21.69,100.04L161.69,33.98"/>
        <path class="cls-196" d="M21.59,99.82L161.59,34.52"/>
        <path class="cls-17" d="M21.48,99.6L161.48,35.07"/>
        <path class="cls-19" d="M21.37,99.38l140-63.77"/>
        <path class="cls-45" d="M21.26,99.16l140-63"/>
        <path class="cls-218" d="M21.15,98.95l140-62.23"/>
        <path class="cls-181" d="M21.04,98.73l140-61.47"/>
        <path class="cls-57" d="M20.93,98.51l140-60.7"/>
        <path class="cls-64" d="M20.82,98.29l140-59.94"/>
        <path class="cls-229" d="M20.71,98.07l140-59.17"/>
        <path class="cls-67" d="M20.6,97.85l140-58.41"/>
        <path class="cls-159" d="M20.49,97.63l140-57.64"/>
        <path class="cls-178" d="M20.38,97.41l140-56.88"/>
        <path class="cls-13" d="M20.27,97.2l140-56.11"/>
        <path class="cls-183" d="M20.16,96.98l140-55.34"/>
        <path class="cls-95" d="M20.05,96.76l140-54.58"/>
        <path class="cls-106" d="M19.94,96.54l140-53.81"/>
        <path class="cls-197" d="M19.84,96.32l140-53.05"/>
        <path class="cls-228" d="M19.73,96.1l140-52.28"/>
        <path class="cls-56" d="M19.62,95.88l140-51.52"/>
        <path class="cls-205" d="M19.51,95.66l140-50.75"/>
        <path class="cls-29" d="M19.4,95.45l140-49.98"/>
        <path class="cls-72" d="M19.29,95.23l140-49.22"/>
        <path class="cls-126" d="M19.18,95.01l140-48.45"/>
        <path class="cls-133" d="M19.07,94.79l140-47.69"/>
        <path class="cls-33" d="M18.96,94.57l140-46.92"/>
        <path class="cls-184" d="M18.85,94.35l140-46.16"/>
        <path class="cls-190" d="M18.74,94.13l140-45.39"/>
        <path class="cls-234" d="M18.63,93.91l140-44.62"/>
        <path class="cls-214" d="M18.52,93.7l140-43.86"/>
        <path class="cls-220" d="M18.41,93.48l140-43.09"/>
        <path class="cls-46" d="M18.3,93.26l140-42.33"/>
        <path class="cls-77" d="M18.19,93.04l140-41.56"/>
        <path class="cls-4" d="M18.09,92.82l140-40.8"/>
        <path class="cls-144" d="M17.98,92.6l140-40.03"/>
        <path class="cls-231" d="M17.87,92.38l140-39.27"/>
        <path class="cls-80" d="M17.76,92.16l140-38.5"/>
        <path class="cls-189" d="M17.65,91.95l140-37.73"/>
        <path class="cls-136" d="M17.54,91.73l140-36.97"/>
        <path class="cls-187" d="M17.43,91.51l140-36.2"/>
        <path class="cls-52" d="M17.32,91.29l140-35.44"/>
        <path class="cls-37" d="M17.21,91.07l140-34.67"/>
        <path class="cls-10" d="M17.1,90.85l140-33.91"/>
        <path class="cls-12" d="M16.99,90.63l140-33.14"/>
        <path class="cls-166" d="M16.88,90.41l140-32.38"/>
        <path class="cls-145" d="M16.77,90.2l140-31.61"/>
        <path class="cls-1" d="M16.66,89.98l140-30.84"/>
        <path class="cls-217" d="M16.55,89.76l140-30.08"/>
        <path class="cls-119" d="M16.44,89.54l140-29.31"/>
        <path class="cls-16" d="M16.34,89.32l140-28.55"/>
        <path class="cls-223" d="M16.23,89.1l140-27.78"/>
        <path class="cls-173" d="M16.12,88.88l140-27.02"/>
        <path class="cls-82" d="M16.01,88.66l140-26.25"/>
        <path class="cls-212" d="M15.9,88.45l140-25.48"/>
        <path class="cls-100" d="M15.79,88.23l140-24.72"/>
        <path class="cls-27" d="M15.68,88.01l140-23.95"/>
        <path class="cls-203" d="M15.57,87.79l140-23.19"/>
        <path class="cls-174" d="M15.46,87.57l140-22.42"/>
        <path class="cls-47" d="M15.35,87.35l140-21.66"/>
        <path class="cls-21" d="M15.24,87.13l140-20.89"/>
        <path class="cls-83" d="M15.13,86.91l140-20.12"/>
        <path class="cls-123" d="M15.02,86.7l140-19.36"/>
        <path class="cls-161" d="M14.91,86.48l140-18.59"/>
        <path class="cls-130" d="M14.8,86.26l140-17.83"/>
        <path class="cls-31" d="M14.69,86.04l140-17.06"/>
        <path class="cls-171" d="M14.59,85.82l140-16.3"/>
        <path class="cls-168" d="M14.48,85.6l140-15.53"/>
        <path class="cls-185" d="M14.37,85.38l140-14.77"/>
        <path class="cls-143" d="M14.26,85.16l140-14"/>
        <path class="cls-6" d="M14.15,84.95l140-13.23"/>
        <path class="cls-208" d="M14.04,84.73l140-12.47"/>
        <path class="cls-148" d="M13.93,84.51l140-11.7"/>
        <path class="cls-42" d="M13.82,84.29l140-10.94"/>
        <path class="cls-164" d="M13.71,84.07l140-10.17"/>
        <path class="cls-36" d="M13.6,83.85l140-9.41"/>
        <path class="cls-182" d="M13.49,83.63l140-8.64"/>
        <path class="cls-202" d="M13.38,83.41l140-7.88"/>
        <path class="cls-157" d="M13.27,83.2l140-7.11"/>
        <path class="cls-163" d="M13.16,82.98l140-6.34"/>
        <path class="cls-163" d="M13.05,82.76l140-5.58"/>
        <path class="cls-115" d="M12.94,82.54l140-4.81"/>
        <path class="cls-93" d="M12.84,82.32l140-4.05"/>
        <path class="cls-180" d="M12.73,82.1l140-3.28"/>
        <path class="cls-112" d="M12.62,81.88l140-2.52"/>
        <path class="cls-221" d="M12.51,81.66l140-1.75"/>
        <path class="cls-221" d="M12.4,81.45l140-.98"/>
        <path class="cls-194" d="M12.29,81.23l140-.22"/>
        <path class="cls-158" d="M12.18,81.01l140,.55"/>
        <path class="cls-105" d="M12.07,80.79l140,1.31"/>
        <path class="cls-23" d="M11.96,80.57l140,2.08"/>
        <path class="cls-135" d="M11.85,80.35l140,2.84"/>
        <path class="cls-65" d="M11.74,80.13l140,3.61"/>
        <path class="cls-230" d="M11.63,79.91l140,4.38"/>
        <path class="cls-192" d="M11.52,79.7l140,5.14"/>
        <path class="cls-192" d="M11.41,79.48l140,5.91"/>
        <path class="cls-22" d="M11.3,79.26l140,6.67"/>
        <path class="cls-62" d="M11.19,79.04l140,7.44"/>
        <path class="cls-35" d="M11.09,78.82l140,8.2"/>
        <path class="cls-71" d="M10.98,78.6l140,8.97"/>
        <path class="cls-71" d="M10.87,78.38l140,9.73"/>
        <path class="cls-211" d="M10.76,78.16l140,10.5"/>
        <path class="cls-155" d="M10.65,77.95l140,11.27"/>
        <path class="cls-155" d="M10.54,77.73l140,12.03"/>
        <path class="cls-70" d="M10.43,77.51l140,12.8"/>
        <path class="cls-69" d="M10.32,77.29l140,13.56"/>
        <path class="cls-74" d="M10.21,77.07l140,14.33"/>
        <path class="cls-74" d="M10.1,76.85l140,15.09"/>
        <path class="cls-5" d="M9.99,76.63l140,15.86"/>
        <path class="cls-86" d="M9.88,76.41l140,16.62"/>
        <path class="cls-102" d="M9.77,76.2l140,17.39"/>
        <path class="cls-167" d="M9.66,75.98l140,18.16"/>
        <path class="cls-198" d="M9.55,75.76l140,18.92"/>
        <path class="cls-227" d="M9.44,75.54l140,19.69"/>
        <path class="cls-227" d="M9.34,75.32l140,20.45"/>
        <path class="cls-219" d="M9.23,75.1l140,21.22"/>
        <path class="cls-3" d="M9.12,74.88l140,21.98"/>
        <path class="cls-131" d="M9.01,74.66l140,22.75"/>
        <path class="cls-131" d="M8.9,74.45l140,23.52"/>
        <path class="cls-152" d="M8.79,74.23l140,24.28"/>
        <path class="cls-41" d="M8.68,74.01l140,25.05"/>
        <path class="cls-103" d="M8.57,73.79l140,25.81"/>
        <path class="cls-141" d="M8.46,73.57l140,26.58"/>
        <path class="cls-73" d="M8.35,73.35l140,27.34"/>
        <path class="cls-40" d="M8.24,73.13l140,28.11"/>
        <path class="cls-55" d="M8.13,72.91l140,28.88"/>
        <path class="cls-177" d="M8.02,72.7l140,29.64"/>
        <path class="cls-25" d="M7.91,72.48l140,30.41"/>
        <path class="cls-28" d="M7.8,72.26l140,31.17"/>
        <path class="cls-140" d="M7.69,72.04l140,31.94"/>
        <path class="cls-48" d="M7.59,71.82l140,32.7"/>
        <path class="cls-20" d="M7.48,71.6l140,33.47"/>
        <path class="cls-94" d="M7.37,71.38l140,34.23"/>
        <path class="cls-233" d="M7.26,71.16l140,35"/>
        <path class="cls-59" d="M7.15,70.95l140,35.77"/>
        <path class="cls-188" d="M7.04,70.73l140,36.53"/>
        <path class="cls-43" d="M6.93,70.51l140,37.3"/>
        <path class="cls-58" d="M6.82,70.29l140,38.06"/>
        <path class="cls-79" d="M6.71,70.07l140,38.83"/>
        <path class="cls-97" d="M6.6,69.85l140,39.59"/>
        <path class="cls-78" d="M6.49,69.63l140,40.36"/>
        <path class="cls-54" d="M6.38,69.41l140,41.12"/>
        <path class="cls-49" d="M6.27,69.2l140,41.89"/>
        <path class="cls-222" d="M6.16,68.98l140,42.66"/>
        <path class="cls-108" d="M6.05,68.76l140,43.42"/>
        <path class="cls-60" d="M5.94,68.54l140,44.19"/>
        <path class="cls-215" d="M5.84,68.32l140,44.95"/>
        <path class="cls-125" d="M5.73,68.1l140,45.72"/>
        <path class="cls-204" d="M5.62,67.88l140,46.48"/>
        <path class="cls-137" d="M5.51,67.66l140,47.25"/>
        <path class="cls-26" d="M5.4,67.45l140,48.02"/>
        <path class="cls-209" d="M5.29,67.23l140,48.78"/>
        <path class="cls-134" d="M5.18,67.01l140,49.55"/>
        <path class="cls-87" d="M5.07,66.79l140,50.31"/>
        <path class="cls-39" d="M4.96,66.57l140,51.08"/>
        <path class="cls-91" d="M4.85,66.35l140,51.84"/>
        <path class="cls-118" d="M4.74,66.13l140,52.61"/>
        <path class="cls-118" d="M4.63,65.91l140,53.38"/>
        <path class="cls-110" d="M4.52,65.7l140,54.14"/>
        <path class="cls-51" d="M4.41,65.48l140,54.91"/>
        <path class="cls-122" d="M4.3,65.26l140,55.67"/>
        <path class="cls-111" d="M4.19,65.04l140,56.44"/>
        <path class="cls-235" d="M4.09,64.82l140,57.2"/>
        <path class="cls-138" d="M3.98,64.6l140,57.97"/>
        <path class="cls-232" d="M3.87,64.38l140,58.73"/>
        <path class="cls-128" d="M3.76,64.16l140,59.5"/>
        <path class="cls-128" d="M3.65,63.95l140,60.27"/>
        <path class="cls-53" d="M3.54,63.73l140,61.03"/>
        <path class="cls-120" d="M3.43,63.51l140,61.8"/>
        <path class="cls-107" d="M3.32,63.29l140,62.56"/>
        <path class="cls-226" d="M3.21,63.07l140,63.33"/>
        <path class="cls-226" d="M3.1,62.85l140,64.09"/>
        <path class="cls-127" d="M2.99,62.63l140,64.86"/>
        <path class="cls-63" d="M2.88,62.41l140,65.62"/>
        <path class="cls-129" d="M2.77,62.2l140,66.39"/>
        <path class="cls-129" d="M2.66,61.98l140,67.16"/>
        <path class="cls-149" d="M2.55,61.76l140,67.92"/>
        <path class="cls-224" d="M2.44,61.54l140,68.69"/>
        <path class="cls-146" d="M2.34,61.32l140,69.45"/>
        <path class="cls-90" d="M2.23,61.1l140,70.22"/>
        <path class="cls-90" d="M2.12,60.88l140,70.98"/>
        <path class="cls-50" d="M2.01,60.66l140,71.75"/>
        <path class="cls-116" d="M1.9,60.45l140,72.52"/>
        <path class="cls-199" d="M1.79,60.23l140,73.28"/>
        <path class="cls-117" d="M1.68,60.01l140,74.05"/>
        <path class="cls-11" d="M1.57,59.79l140,74.81"/>
        <path class="cls-114" d="M1.46,59.57l140,75.58"/>
        <path class="cls-2" d="M1.35,59.35l140,76.34"/>
        <path class="cls-96" d="M1.24,59.13l140,77.11"/>
        <path class="cls-206" d="M1.13,58.91l140,77.88"/>
        <path class="cls-206" d="M1.02,58.7l140,78.64"/>
        <path class="cls-81" d="M.91,58.48l140,79.41"/>
        <path class="cls-213" d="M.8,58.26l140,80.17"/>
        <path class="cls-61" d="M.69,58.04l140,80.94"/>
        <path class="cls-61" d="M.59,57.82l140,81.7"/>
        <path class="cls-170" d="M.48,57.6l140,82.47"/>
        <path class="cls-92" d="M.37,57.38l140,83.23"/>
        <path class="cls-193" d="M.26,57.16l140,84"/>
      </g>
    </g>
  </g>
</svg>