<?xml version="1.0" encoding="UTF-8"?>
<svg id="FINAL_do_not_edit" xmlns="http://www.w3.org/2000/svg" version="1.1" viewBox="0 0 688.4 178.2">
  <!-- Generator: Adobe Illustrator 30.0.0, SVG Export Plug-In . SVG Version: 2.1.1 Build 123)  -->
  <defs>
    <style>
      .st0 {
        fill: #00502f;
      }

      .st1 {
        fill: #fff;
      }

      .st2 {
        fill: #f37321;
      }
    </style>
  </defs>
  <g>
    <path class="st0" d="M285.2,31.5v3.1h-3.4c-2.6,0-3.5.7-3.5,3.1v26.4c0,8.3,4.1,12.1,13.1,12.1s9.8-2.1,11.6-6.1c.8-1.8,1-4.8,1-9.1v-20.6c0-4-.8-5.9-4.7-5.9h-2.9v-3.1h18v3.1h-2.4c-3.7,0-4.8,1.7-4.8,5.9v20.8c0,12.8-4.7,18.5-18.1,18.5s-17.8-5.3-17.8-15.8v-26.3c0-2.5-.7-3.1-3.5-3.1h-3.8v-3.1h21.2Z"/>
    <path class="st0" d="M317.4,75.8c6-.5,7-2.5,7-8.4v-30.8c-1-1.8-2.7-2.2-5.9-2.2h-1.1v-3h12.7l26,35.6v-24.4c0-6.3-1.2-8.3-7.8-8.4v-2.8h18.2v2.8c-5.9.3-7.1,2.4-7.1,8.4v37.2h-2.6l-29.1-39.7v27.3c0,6.1,1.4,8.4,7.8,8.4v2.8h-18.2v-2.8Z"/>
    <path class="st0" d="M371,75.6h3.5c2.7,0,3.5-.7,3.5-3.1v-34.8c0-2.5-.9-3.1-3.5-3.1h-3.5v-3.1h21.3v3.1h-3.5c-2.7,0-3.5.7-3.5,3.1v34.8c0,2.5.8,3.1,3.5,3.1h3.5v3.1h-21.3v-3.1Z"/>
    <path class="st0" d="M416.7,79.8l-16.5-42.4c-1-2.5-1.4-2.9-4.7-2.9h-1.4v-3.1h20.1v3.1h-2.4c-2.7,0-3.9.3-3.9,1.8s.1,1.3.5,2.3l11.6,29.5,10.3-26.4c.6-1.6.8-2.9.8-3.7,0-2.4-1.5-3.5-4.7-3.5h-1.8v-3.1h17.1v3.1h-.5c-3.8,0-5.1,1.6-6.6,5.6l-15.2,39.7h-2.5Z"/>
    <path class="st0" d="M442.7,75.6h3.4c2.6,0,3.5-.6,3.5-3.1v-34.8c0-2.5-.8-3.1-3.5-3.1h-3.4v-3.1h38.2l.8,16.7h-2.8c-.8-5.8-2.5-9.5-4.6-11.3-2.3-1.9-6.1-2.4-12.2-2.4s-5.6.2-5.6,3.3v15h.9c6.7,0,9.3-2.2,9.9-9h2.7v20.8h-2.7c-.6-6.8-3.1-9-9.9-9h-.9v17c0,3.2,1.4,3.3,6.1,3.3s9.4-.4,12-1.7c3-1.5,4.8-5.9,6.1-13.3h2.5l-1,17.9h-39.7v-3.1Z"/>
    <path class="st0" d="M488.2,75.6h3.4c2.6,0,3.5-.6,3.5-3.1v-34.8c0-2.5-.8-3.1-3.5-3.1h-3.4v-3.1h26.1c7.9,0,13.2,4.6,13.2,11.6s-4.8,10.7-14.4,11.8c5.3.7,8,3.3,9.2,8.4l1.8,7.4c.7,2.9,1.5,4.3,2.9,4.3s2.5-2.2,2.7-6.9h2.5c0,.5,0,1,0,1.5,0,6.7-2.9,10.3-7.9,10.3s-7.1-2.9-7.8-9.2l-.7-6.5c-.7-6.3-3.9-8.3-10.1-8.3h-3.5v16.7c0,2.5.8,3.1,3.4,3.1h4.1v3.1h-21.4v-3.1ZM502.2,52.6h3.2c.8.2,1.5.2,2.2.2,8.7,0,12.5-2.7,12.5-9.3s-3.1-9.1-10.4-9.1h-4.2c-2.7,0-3.3.7-3.3,2.9v15.4Z"/>
    <path class="st0" d="M537.9,79.4h-2.3l-.3-19h2.7c2,10.8,7.5,16.4,15.8,16.4s11-3.6,11-9.3-1-4.9-2.9-6.2c-2.3-1.6-5.9-2.3-10.7-3.6-10.5-2.8-15.5-5.4-15.5-14.1s5.4-13.3,13.9-13.3,9,1.6,12.2,4.6l2.5-3.9h2.4l.7,17h-2.5c-2.5-9.7-7.6-14.6-15.4-14.6s-9,2.9-9,7.9,4.9,7,13.6,9.1c4.7,1.2,8.6,2.2,11.6,4.9,2.5,2.4,4,5.9,4,10.1,0,9.1-5.8,14.4-16.2,14.4s-9.9-1.8-13-4.9l-2.7,4.5Z"/>
    <path class="st0" d="M574.1,75.6h3.5c2.7,0,3.5-.7,3.5-3.1v-34.8c0-2.5-.8-3.1-3.5-3.1h-3.5v-3.1h21.3v3.1h-3.5c-2.7,0-3.5.7-3.5,3.1v34.8c0,2.5.8,3.1,3.5,3.1h3.5v3.1h-21.3v-3.1Z"/>
    <path class="st0" d="M627.6,75.6h4.2v3.1h-22.4v-3.1h4.2c2.6,0,3.5-.6,3.5-3.1v-35c0-3.5-1-3.5-4.3-3.5-6.3,0-8.7,4.7-10.2,15.6h-2.5l.9-18.1h39.2l1,18.1h-2.5c-1.8-12.1-4-15.6-11.5-15.6s-3,.8-3,3.5v35c0,2.5.8,3.1,3.4,3.1Z"/>
    <path class="st0" d="M673.1,75.6h4.1v3.1h-22.2v-3.1h4.1c2.5,0,3.5-.7,3.5-3.1v-13.3l-13.2-21c-1.6-2.5-2.3-3.6-5.4-3.6h-1.2v-3.1h20.1v3.1h-2.7c-2.2,0-3.4.4-3.4,1.5s.4,1.3,1,2.3l10.4,16.4,8.6-14.9c.5-.9.8-1.7.8-2.5,0-1.8-1.5-2.7-4.5-2.7h-1.8v-3.1h17.3v3.1h-1.2c-3,0-3.9,1-5.4,3.6l-12.1,20.7v13.7c0,2.5.8,3.1,3.4,3.1Z"/>
  </g>
  <g>
    <path class="st2" d="M275.4,105.7c4.2-4.8,9.8-7.3,16.3-7.3s11.9,2.4,16.2,7.2c4.1,4.6,6.2,10.5,6.2,17.6s-1.7,12.4-5.8,17.1c-4.4,5.1-9.9,7.6-16.7,7.6s-12.2-2.4-16.7-7.6c-4.1-4.7-5.8-10.2-5.8-17.1s2.2-13,6.1-17.5ZM291.7,144.9c9.4,0,14-7.3,14-21.8s-4.4-21.8-14-21.8-14,7.1-14,21.8,4.4,21.8,14,21.8Z"/>
    <path class="st2" d="M314.6,143.7h3.4c2.6,0,3.5-.6,3.5-3.1v-34.8c0-2.5-.8-3.1-3.5-3.1h-3.4v-3.1h38.2l.9,16.7h-2.8c-.8-5.8-2.5-9.5-4.6-11.3-2.3-1.9-6.1-2.4-12.2-2.4s-5.6.2-5.6,3.3v15h.9c6.7,0,9.3-2.2,9.9-9h2.7v20.8h-2.7c-.6-6.8-3.1-9-9.9-9h-.9v17c0,2.5.8,3.1,3.4,3.1h4.3v3.1h-21.7v-3.1Z"/>
    <path class="st2" d="M385.6,135.6c0,6.2,1.4,8.3,7.8,8.4v2.8h-19v-2.8c6.6,0,7.8-2.2,7.8-8.4v-29.8c0-2.5-.8-3.1-3.5-3.1h-3.9v-3.1h16.3l12.7,36.1,12.3-36.1h15.9v3.1h-3.5c-2.6,0-3.4.6-3.4,3.1v34.8c0,2.5.8,3.1,3.4,3.1h3.5v3.1h-21.2v-3.1h3.9c2.6,0,3.5-.6,3.5-3.1v-36.8l-14.6,43h-2.5l-15.6-43v31.8Z"/>
    <path class="st2" d="M437.1,143.7h3.5c2.7,0,3.5-.7,3.5-3.1v-34.8c0-2.5-.9-3.1-3.5-3.1h-3.5v-3.1h21.3v3.1h-3.5c-2.7,0-3.5.7-3.5,3.1v34.8c0,2.5.8,3.1,3.5,3.1h3.5v3.1h-21.3v-3.1Z"/>
    <path class="st2" d="M483,98.8l16.7,41.6c1,2.5,1.8,3.4,4.5,3.4s.9,0,1.3,0v3h-19.5v-3.1h2.5c2.7,0,4-.2,4-1.7s-.2-1.3-.6-2.3l-3-8.2h-17.6l-2,5.1c-.6,1.5-.9,3.1-.9,3.9,0,2.1,1.6,3.2,4.8,3.2h1.6v3.1h-16.9v-3.1h.5c3.9,0,5.2-1.6,6.7-5.6l15.4-39.3h2.5ZM479.9,109.1l-7.4,19h15.2l-7.8-19Z"/>
    <path class="st2" d="M515.5,135.6c0,6.2,1.4,8.3,7.8,8.4v2.8h-19v-2.9c6.6,0,7.8-2.1,7.8-8.3v-29.8c0-2.5-.8-3.1-3.5-3.1h-3.9v-3.1h16.3l12.7,36.1,12.3-36.1h15.9v3.1h-3.5c-2.6,0-3.4.6-3.4,3.1v34.8c0,2.5.8,3.1,3.4,3.1h3.5v3.1h-21.2v-3.1h3.9c2.6,0,3.5-.6,3.5-3.1v-36.8l-14.6,43h-2.5l-15.6-43v31.8Z"/>
    <path class="st2" d="M567,143.7h3.5c2.7,0,3.5-.7,3.5-3.1v-34.8c0-2.5-.8-3.1-3.5-3.1h-3.5v-3.1h21.3v3.1h-3.5c-2.7,0-3.5.7-3.5,3.1v34.8c0,2.5.8,3.1,3.5,3.1h3.5v3.1h-21.3v-3.1Z"/>
  </g>
  <g>
    <path class="st1" d="M147,27.3l.2,84.2c0,5.4,0,21.8-41.3,21.9h-3.9s-3.9,0-3.9,0c-41.3,0-41.3-16.5-41.3-21.9l.2-84.2H0v96.8c0,26.8,75.1,28.9,98.1,28.9h7.7c23,0,98.1-2.1,98.1-28.9V27.3c0,0-56.9,0-56.9,0Z"/>
    <path class="st0" d="M151.4,111.4V31.4h48.3s0,89.5,0,92.7c0,17.6-48.2,24.6-93.8,24.6,0-2.2,0-7.7,0-11.2,22.8,0,45.5-4.9,45.5-26.1Z"/>
    <path class="st2" d="M52.6,111.4V31.4H4.2s0,89.5,0,92.7c0,17.6,48.2,24.6,93.8,24.6,0-2.2,0-7.7,0-11.2-22.8,0-45.5-4.9-45.5-26.1Z"/>
  </g>
  <rect class="st0" x="235.3" width="2.5" height="178.2"/>
</svg>