<?xml version="1.0" encoding="UTF-8"?>
<svg id="Layer_1" xmlns="http://www.w3.org/2000/svg" version="1.1" viewBox="0 0 632.18 283.46">
  <!-- Generator: Adobe Illustrator 30.0.0, SVG Export Plug-In . SVG Version: 2.1.1 Build 123)  -->
  <defs>
    <style>
      .st0 {
        fill: #911a39;
      }

      .st1 {
        fill: #939598;
      }
    </style>
  </defs>
  <g>
    <path class="st1" d="M249.59,232.69c-.92.44-1.79.78-2.62,1.03-.83.24-1.7.37-2.63.37-1.18,0-2.27-.17-3.25-.52-.99-.35-1.83-.87-2.54-1.57-.71-.7-1.26-1.59-1.65-2.67-.39-1.07-.59-2.33-.59-3.76,0-2.68.73-4.78,2.2-6.3,1.47-1.52,3.41-2.29,5.82-2.29.94,0,1.86.13,2.76.4.9.26,1.73.59,2.48.97v3.06h-.15c-.84-.65-1.71-1.16-2.6-1.51-.89-.35-1.76-.53-2.61-.53-1.56,0-2.8.53-3.7,1.57-.9,1.05-1.36,2.59-1.36,4.62s.44,3.49,1.33,4.55c.88,1.06,2.13,1.59,3.73,1.59.56,0,1.12-.07,1.7-.22.58-.15,1.09-.34,1.55-.57.4-.21.78-.42,1.13-.65.35-.23.63-.43.84-.59h.15v3.03Z"/>
    <path class="st1" d="M255.9,233.72h-2.75v-22.79h2.75v22.79Z"/>
    <path class="st1" d="M264.31,214.62h-3.11v-2.86h3.11v2.86ZM264.13,233.72h-2.75v-16.36h2.75v16.36Z"/>
    <path class="st1" d="M293.46,233.72h-2.75v-9.32c0-.7-.03-1.38-.09-2.04s-.2-1.18-.4-1.57c-.22-.42-.55-.74-.97-.95-.42-.21-1.03-.32-1.82-.32s-1.54.19-2.31.58c-.77.38-1.54.88-2.31,1.47.03.22.05.49.07.78.02.3.03.59.03.89v10.47h-2.75v-9.32c0-.72-.03-1.41-.1-2.06-.06-.65-.2-1.17-.4-1.56-.22-.42-.55-.74-.97-.94-.42-.21-1.03-.32-1.82-.32s-1.51.19-2.26.56c-.76.37-1.51.84-2.26,1.42v12.22h-2.75v-16.36h2.75v1.82c.86-.71,1.72-1.27,2.57-1.67s1.76-.6,2.73-.6c1.11,0,2.06.23,2.83.7.78.47,1.35,1.12,1.74,1.95,1.11-.94,2.13-1.61,3.05-2.03.92-.42,1.9-.62,2.95-.62,1.8,0,3.12.54,3.98,1.63.85,1.09,1.28,2.61,1.28,4.56v10.62Z"/>
    <path class="st1" d="M311.47,233.72h-2.74v-1.74c-.24.17-.57.4-.99.7-.42.3-.82.53-1.21.71-.46.22-.99.41-1.58.56-.6.15-1.29.23-2.1.23-1.47,0-2.72-.49-3.75-1.46-1.03-.98-1.54-2.22-1.54-3.74,0-1.24.27-2.24.8-3.01.53-.77,1.29-1.37,2.28-1.81,1-.44,2.19-.74,3.59-.89,1.4-.16,2.9-.27,4.5-.35v-.42c0-.62-.11-1.14-.33-1.55-.22-.41-.54-.73-.95-.97-.39-.22-.86-.38-1.41-.45-.55-.08-1.12-.12-1.71-.12-.72,0-1.53.1-2.42.29-.89.19-1.81.47-2.75.83h-.15v-2.8c.54-.15,1.31-.31,2.33-.48,1.02-.18,2.02-.26,3-.26,1.15,0,2.16.1,3.01.29.85.19,1.59.52,2.22.97.62.45,1.08,1.03,1.41,1.74s.48,1.6.48,2.65v11.1ZM308.74,229.69v-4.56c-.84.05-1.83.12-2.97.22-1.14.1-2.04.24-2.7.42-.79.22-1.43.57-1.92,1.05-.49.47-.73,1.13-.73,1.96,0,.94.28,1.64.85,2.12.57.47,1.43.71,2.59.71.97,0,1.85-.19,2.65-.56.8-.38,1.54-.83,2.23-1.35Z"/>
    <path class="st1" d="M325.27,233.57c-.52.14-1.08.25-1.69.34-.61.09-1.15.13-1.63.13-1.67,0-2.94-.45-3.81-1.35-.87-.9-1.3-2.34-1.3-4.32v-8.7h-1.86v-2.31h1.86v-4.7h2.75v4.7h5.68v2.31h-5.68v7.46c0,.86.02,1.53.06,2.01.04.48.18.94.41,1.36.21.39.51.68.89.86.38.18.95.27,1.72.27.45,0,.92-.07,1.41-.2.49-.13.84-.24,1.05-.33h.15v2.48Z"/>
    <path class="st1" d="M342.29,225.82h-12.05c0,1.01.15,1.88.45,2.63.3.75.72,1.36,1.25,1.84.51.47,1.11.82,1.81,1.05.7.23,1.47.35,2.31.35,1.11,0,2.23-.22,3.36-.67,1.13-.45,1.93-.88,2.41-1.31h.15v3c-.93.39-1.88.72-2.84.98-.97.26-1.98.4-3.05.4-2.71,0-4.83-.73-6.36-2.21-1.52-1.47-2.29-3.56-2.29-6.26s.73-4.8,2.19-6.37c1.46-1.57,3.38-2.36,5.76-2.36,2.21,0,3.91.64,5.1,1.93,1.2,1.29,1.79,3.12,1.79,5.49v1.49ZM339.61,223.71c0-1.45-.37-2.56-1.09-3.35-.72-.79-1.81-1.19-3.27-1.19s-2.65.43-3.52,1.3c-.87.87-1.37,1.95-1.49,3.24h9.37Z"/>
    <path class="st1" d="M350.97,233.72h-3.5v-4.17h3.5v4.17Z"/>
    <path class="st1" d="M369.48,232.69c-.92.44-1.79.78-2.61,1.03s-1.7.37-2.63.37c-1.18,0-2.27-.17-3.25-.52-.99-.35-1.83-.87-2.53-1.57-.71-.7-1.27-1.59-1.66-2.67-.39-1.07-.59-2.33-.59-3.76,0-2.68.74-4.78,2.2-6.3,1.47-1.52,3.41-2.29,5.82-2.29.94,0,1.86.13,2.76.4.9.26,1.73.59,2.48.97v3.06h-.15c-.84-.65-1.71-1.16-2.6-1.51-.89-.35-1.77-.53-2.62-.53-1.56,0-2.79.53-3.7,1.57-.9,1.05-1.35,2.59-1.35,4.62s.44,3.49,1.33,4.55c.88,1.06,2.13,1.59,3.73,1.59.56,0,1.12-.07,1.7-.22.58-.15,1.09-.34,1.55-.57.4-.21.78-.42,1.13-.65.35-.23.63-.43.83-.59h.15v3.03Z"/>
    <path class="st1" d="M386.96,225.54c0,2.67-.68,4.77-2.05,6.31-1.37,1.54-3.2,2.31-5.49,2.31s-4.15-.77-5.51-2.31c-1.36-1.54-2.04-3.65-2.04-6.31s.68-4.77,2.04-6.32c1.36-1.55,3.2-2.32,5.51-2.32s4.13.77,5.49,2.32c1.37,1.55,2.05,3.65,2.05,6.32ZM384.12,225.54c0-2.12-.42-3.69-1.25-4.72-.83-1.03-1.98-1.55-3.46-1.55s-2.65.52-3.48,1.55c-.83,1.03-1.24,2.61-1.24,4.72s.42,3.61,1.25,4.67c.83,1.06,1.99,1.59,3.47,1.59s2.62-.52,3.45-1.58c.83-1.05,1.25-2.61,1.25-4.68Z"/>
    <path class="st1" d="M405.62,225.34c0,1.33-.19,2.54-.57,3.64-.38,1.1-.92,2.03-1.61,2.79-.64.72-1.4,1.28-2.28,1.68-.87.4-1.8.59-2.78.59-.85,0-1.62-.09-2.31-.28-.69-.19-1.39-.47-2.1-.86v6.86h-2.75v-22.4h2.75v1.71c.73-.62,1.56-1.13,2.47-1.55.91-.42,1.89-.62,2.92-.62,1.97,0,3.51.74,4.61,2.23,1.1,1.49,1.65,3.56,1.65,6.2ZM402.78,225.41c0-1.97-.34-3.45-1.01-4.42s-1.71-1.46-3.11-1.46c-.79,0-1.59.17-2.39.51s-1.57.79-2.3,1.35v9.27c.78.35,1.45.59,2.01.72.56.13,1.2.19,1.91.19,1.53,0,2.73-.52,3.59-1.55.86-1.04,1.29-2.57,1.29-4.6Z"/>
    <path class="st1" d="M423.61,225.82h-12.06c0,1.01.15,1.88.46,2.63.3.75.72,1.36,1.24,1.84.51.47,1.11.82,1.81,1.05.7.23,1.47.35,2.31.35,1.11,0,2.23-.22,3.36-.67,1.13-.45,1.93-.88,2.41-1.31h.15v3c-.93.39-1.88.72-2.84.98-.97.26-1.98.4-3.05.4-2.71,0-4.83-.73-6.36-2.21-1.52-1.47-2.29-3.56-2.29-6.26s.73-4.8,2.19-6.37c1.46-1.57,3.38-2.36,5.76-2.36,2.21,0,3.91.64,5.11,1.93,1.2,1.29,1.79,3.12,1.79,5.49v1.49ZM420.93,223.71c0-1.45-.37-2.56-1.09-3.35-.72-.79-1.81-1.19-3.27-1.19s-2.65.43-3.52,1.3c-.87.87-1.37,1.95-1.49,3.24h9.38Z"/>
    <path class="st1" d="M437.99,220.36h-.15c-.41-.1-.81-.17-1.19-.21-.39-.04-.84-.07-1.37-.07-.85,0-1.67.19-2.46.56-.79.38-1.55.86-2.29,1.46v11.62h-2.75v-16.36h2.75v2.42c1.09-.88,2.06-1.5,2.89-1.87.83-.37,1.69-.55,2.56-.55.48,0,.83.01,1.04.04.21.03.54.07.97.14v2.83Z"/>
    <path class="st1" d="M454.27,233.72h-2.75v-9.32c0-.75-.04-1.46-.13-2.12-.09-.66-.25-1.17-.48-1.54-.24-.41-.6-.71-1.05-.92-.46-.2-1.05-.3-1.79-.3s-1.54.19-2.36.56-1.61.84-2.36,1.42v12.22h-2.75v-16.36h2.75v1.82c.86-.71,1.75-1.27,2.67-1.67.92-.4,1.86-.6,2.83-.6,1.77,0,3.12.53,4.04,1.6.93,1.06,1.39,2.6,1.39,4.6v10.62Z"/>
    <path class="st1" d="M462.53,214.62h-3.11v-2.86h3.11v2.86ZM462.35,233.72h-2.75v-16.36h2.75v16.36Z"/>
    <path class="st1" d="M479.9,232.69c-.92.44-1.79.78-2.61,1.03s-1.7.37-2.63.37c-1.18,0-2.27-.17-3.25-.52-.99-.35-1.83-.87-2.53-1.57-.71-.7-1.27-1.59-1.66-2.67-.39-1.07-.59-2.33-.59-3.76,0-2.68.74-4.78,2.21-6.3,1.47-1.52,3.41-2.29,5.82-2.29.94,0,1.86.13,2.76.4.9.26,1.73.59,2.48.97v3.06h-.15c-.84-.65-1.71-1.16-2.6-1.51-.89-.35-1.77-.53-2.62-.53-1.56,0-2.79.53-3.7,1.57-.9,1.05-1.35,2.59-1.35,4.62s.44,3.49,1.33,4.55c.88,1.06,2.13,1.59,3.73,1.59.56,0,1.12-.07,1.7-.22.58-.15,1.09-.34,1.55-.57.4-.21.78-.42,1.13-.65.35-.23.63-.43.83-.59h.15v3.03Z"/>
    <path class="st1" d="M497,233.72h-2.75v-1.82c-.93.73-1.82,1.29-2.67,1.68-.85.39-1.79.59-2.81.59-1.72,0-3.06-.52-4.01-1.58-.96-1.05-1.44-2.59-1.44-4.62v-10.62h2.75v9.32c0,.83.04,1.54.12,2.13.08.59.24,1.1.5,1.52.26.43.61.74,1.03.94.42.2,1.03.29,1.83.29.71,0,1.49-.19,2.34-.56.84-.37,1.63-.84,2.37-1.42v-12.22h2.75v16.36Z"/>
    <path class="st1" d="M514.11,229c0,1.49-.62,2.72-1.85,3.68-1.24.96-2.92,1.44-5.06,1.44-1.21,0-2.32-.14-3.33-.43-1.01-.29-1.86-.6-2.54-.94v-3.09h.15c.87.65,1.84,1.17,2.9,1.56,1.06.38,2.09.58,3.06.58,1.21,0,2.16-.2,2.84-.59.68-.39,1.03-1.01,1.03-1.85,0-.64-.19-1.13-.56-1.46-.37-.33-1.08-.62-2.14-.85-.39-.09-.9-.19-1.53-.31s-1.2-.24-1.72-.38c-1.44-.38-2.45-.94-3.05-1.68-.6-.74-.9-1.64-.9-2.72,0-.67.14-1.31.42-1.9s.7-1.13,1.27-1.6c.55-.46,1.24-.82,2.09-1.09.84-.27,1.79-.4,2.83-.4.98,0,1.97.12,2.97.36,1,.24,1.83.53,2.5.87v2.94h-.15c-.7-.52-1.56-.95-2.56-1.31-1.01-.36-1.99-.53-2.96-.53s-1.86.19-2.55.58c-.69.38-1.04.96-1.04,1.72,0,.67.21,1.18.63,1.52.41.34,1.07.62,1.99.83.51.12,1.08.23,1.71.35.63.12,1.15.22,1.57.32,1.28.29,2.27.8,2.96,1.51.69.72,1.04,1.68,1.04,2.87Z"/>
    <path class="st1" d="M522.54,233.72h-3.5v-4.17h3.5v4.17Z"/>
    <path class="st1" d="M542.66,225.82h-12.05c0,1.01.15,1.88.45,2.63.3.75.72,1.36,1.25,1.84.51.47,1.11.82,1.81,1.05.7.23,1.47.35,2.31.35,1.11,0,2.23-.22,3.36-.67,1.13-.45,1.93-.88,2.41-1.31h.15v3c-.93.39-1.88.72-2.84.98-.97.26-1.98.4-3.05.4-2.71,0-4.83-.73-6.36-2.21-1.52-1.47-2.29-3.56-2.29-6.26s.73-4.8,2.19-6.37c1.46-1.57,3.38-2.36,5.76-2.36,2.21,0,3.91.64,5.1,1.93,1.2,1.29,1.79,3.12,1.79,5.49v1.49ZM539.98,223.71c0-1.45-.37-2.56-1.09-3.35s-1.81-1.19-3.27-1.19-2.65.43-3.52,1.3c-.87.87-1.37,1.95-1.49,3.24h9.38Z"/>
    <path class="st1" d="M560.4,233.72h-2.75v-1.82c-.93.73-1.82,1.29-2.67,1.68-.85.39-1.79.59-2.81.59-1.72,0-3.06-.52-4.01-1.58-.96-1.05-1.44-2.59-1.44-4.62v-10.62h2.75v9.32c0,.83.04,1.54.12,2.13.08.59.24,1.1.5,1.52.26.43.61.74,1.03.94.42.2,1.03.29,1.83.29.71,0,1.49-.19,2.34-.56s1.63-.84,2.37-1.42v-12.22h2.75v16.36Z"/>
  </g>
  <g>
    <path class="st0" d="M257.19,121.69c-.61.27-1.16.51-1.65.75-.49.23-1.14.48-1.93.73-.67.21-1.41.39-2.2.54-.79.15-1.66.22-2.62.22-1.79,0-3.42-.25-4.89-.76-1.47-.5-2.74-1.29-3.83-2.37-1.06-1.05-1.89-2.39-2.49-4.01-.6-1.62-.9-3.51-.9-5.65,0-2.04.29-3.86.86-5.46.57-1.6,1.4-2.96,2.49-4.07,1.05-1.07,2.32-1.89,3.81-2.46,1.49-.56,3.14-.85,4.96-.85,1.33,0,2.65.16,3.98.48,1.32.32,2.79.89,4.41,1.69v3.9h-.25c-1.36-1.14-2.71-1.97-4.05-2.49-1.34-.52-2.77-.78-4.3-.78-1.25,0-2.38.2-3.38.61-1,.4-1.9,1.03-2.68,1.88-.76.83-1.36,1.88-1.79,3.15-.43,1.27-.64,2.73-.64,4.39s.23,3.23.71,4.48c.47,1.25,1.08,2.27,1.82,3.05.77.82,1.68,1.43,2.71,1.82,1.03.39,2.13.59,3.28.59,1.58,0,3.07-.27,4.45-.81,1.38-.54,2.68-1.36,3.88-2.44h.23v3.85Z"/>
    <path class="st0" d="M264.74,123.49h-3.12v-25.83h3.12v25.83Z"/>
    <path class="st0" d="M274.27,101.84h-3.52v-3.24h3.52v3.24ZM274.07,123.49h-3.12v-18.54h3.12v18.54Z"/>
    <path class="st0" d="M307.31,123.49h-3.12v-10.56c0-.8-.04-1.57-.11-2.31-.07-.74-.22-1.33-.46-1.78-.26-.48-.62-.84-1.1-1.08-.48-.24-1.16-.37-2.06-.37s-1.75.22-2.62.66c-.88.44-1.75.99-2.62,1.67.03.25.06.55.08.89.02.34.03.67.03,1v11.87h-3.12v-10.56c0-.82-.04-1.6-.11-2.33-.07-.74-.22-1.33-.46-1.77-.25-.48-.62-.83-1.1-1.07-.48-.24-1.16-.36-2.06-.36s-1.71.21-2.56.63c-.86.42-1.71.96-2.56,1.61v13.85h-3.12v-18.54h3.12v2.06c.97-.81,1.94-1.44,2.91-1.89.97-.45,2-.68,3.1-.68,1.26,0,2.33.27,3.21.8.88.53,1.54,1.27,1.97,2.21,1.26-1.06,2.41-1.83,3.45-2.3,1.04-.47,2.15-.71,3.34-.71,2.04,0,3.54.62,4.51,1.85.97,1.23,1.45,2.96,1.45,5.17v12.04Z"/>
    <path class="st0" d="M327.73,123.49h-3.11v-1.98c-.28.19-.65.45-1.12.79-.47.34-.93.61-1.37.81-.52.25-1.12.47-1.79.64-.67.17-1.47.26-2.37.26-1.67,0-3.09-.55-4.25-1.66-1.16-1.11-1.74-2.52-1.74-4.23,0-1.41.3-2.54.91-3.41.6-.87,1.46-1.55,2.58-2.05,1.13-.5,2.48-.84,4.07-1.01,1.58-.18,3.28-.31,5.1-.4v-.48c0-.71-.12-1.29-.37-1.76-.25-.46-.61-.83-1.07-1.1-.44-.25-.97-.43-1.59-.51-.62-.09-1.27-.13-1.94-.13-.82,0-1.73.11-2.74.32-1.01.22-2.05.53-3.12.94h-.17v-3.17c.61-.17,1.49-.35,2.64-.55,1.15-.2,2.29-.3,3.4-.3,1.3,0,2.44.11,3.41.32.97.22,1.81.58,2.51,1.1.7.51,1.23,1.17,1.59,1.98.37.81.55,1.81.55,3v12.58ZM324.62,118.92v-5.16c-.95.06-2.07.14-3.36.25-1.29.11-2.31.27-3.06.48-.9.25-1.62.65-2.18,1.19-.55.54-.83,1.28-.83,2.22,0,1.06.32,1.86.96,2.4.64.54,1.62.81,2.94.81,1.1,0,2.1-.21,3-.64.91-.43,1.75-.94,2.52-1.54Z"/>
    <path class="st0" d="M343.37,123.32c-.59.16-1.23.28-1.92.38s-1.31.15-1.85.15c-1.89,0-3.33-.51-4.32-1.53-.98-1.02-1.48-2.65-1.48-4.9v-9.86h-2.11v-2.62h2.11v-5.33h3.12v5.33h6.44v2.62h-6.44v8.45c0,.97.02,1.73.07,2.28.04.55.2,1.06.46,1.54.24.44.58.77,1,.97.43.2,1.08.31,1.95.31.51,0,1.04-.07,1.59-.22.55-.15.95-.27,1.2-.37h.17v2.81Z"/>
    <path class="st0" d="M362.66,114.54h-13.66c0,1.14.17,2.13.52,2.98.34.85.81,1.54,1.41,2.08.58.53,1.26.93,2.05,1.2.79.27,1.66.4,2.62.4,1.26,0,2.53-.25,3.81-.76,1.28-.5,2.19-1,2.73-1.49h.17v3.4c-1.05.44-2.12.81-3.22,1.11s-2.25.45-3.45.45c-3.08,0-5.48-.83-7.21-2.5-1.73-1.67-2.59-4.03-2.59-7.1s.83-5.44,2.48-7.22c1.65-1.78,3.83-2.67,6.53-2.67,2.5,0,4.43.73,5.79,2.19,1.36,1.46,2.03,3.54,2.03,6.23v1.69ZM359.62,112.15c-.01-1.64-.42-2.91-1.24-3.8s-2.05-1.34-3.71-1.34-3,.49-3.99,1.48c-.99.99-1.55,2.21-1.69,3.67h10.63Z"/>
    <path class="st0" d="M257.19,162.49c-.61.27-1.16.51-1.65.75-.49.23-1.14.48-1.93.73-.67.21-1.41.39-2.2.54-.79.15-1.66.22-2.62.22-1.79,0-3.42-.25-4.89-.75-1.47-.5-2.74-1.29-3.83-2.37-1.06-1.05-1.89-2.39-2.49-4.01-.6-1.62-.9-3.51-.9-5.65,0-2.04.29-3.86.86-5.46.57-1.6,1.4-2.96,2.49-4.07,1.05-1.07,2.32-1.89,3.81-2.46,1.49-.56,3.14-.85,4.96-.85,1.33,0,2.65.16,3.98.48,1.32.32,2.79.89,4.41,1.69v3.9h-.25c-1.36-1.14-2.71-1.97-4.05-2.49-1.34-.52-2.77-.78-4.3-.78-1.25,0-2.38.2-3.38.61-1,.4-1.9,1.03-2.68,1.88-.76.83-1.36,1.88-1.79,3.15-.43,1.27-.64,2.73-.64,4.39s.23,3.23.71,4.48c.47,1.25,1.08,2.27,1.82,3.05.77.82,1.68,1.42,2.71,1.82,1.03.39,2.13.59,3.28.59,1.58,0,3.07-.27,4.45-.81,1.38-.54,2.68-1.36,3.88-2.44h.23v3.85Z"/>
    <path class="st0" d="M277.09,164.29h-3.12v-10.56c0-.85-.05-1.65-.15-2.4-.1-.75-.28-1.33-.55-1.75-.28-.46-.68-.81-1.2-1.04-.52-.23-1.2-.34-2.03-.34s-1.74.21-2.67.63-1.82.96-2.67,1.61v13.85h-3.12v-25.83h3.12v9.35c.97-.81,1.98-1.44,3.02-1.89,1.04-.45,2.11-.68,3.2-.68,2,0,3.53.6,4.58,1.81,1.05,1.21,1.58,2.94,1.58,5.21v12.04Z"/>
    <path class="st0" d="M297.51,164.29h-3.11v-1.98c-.28.19-.65.45-1.12.79-.47.34-.93.61-1.37.81-.52.25-1.12.47-1.79.64-.67.17-1.47.26-2.37.26-1.67,0-3.09-.55-4.25-1.66s-1.74-2.52-1.74-4.23c0-1.41.3-2.54.91-3.41.6-.87,1.46-1.55,2.58-2.05,1.13-.5,2.48-.83,4.07-1.01,1.58-.18,3.28-.31,5.1-.4v-.48c0-.71-.12-1.29-.37-1.76-.25-.46-.61-.83-1.07-1.1-.44-.25-.97-.43-1.59-.51-.62-.09-1.27-.13-1.94-.13-.82,0-1.73.11-2.74.32-1.01.21-2.05.53-3.12.94h-.17v-3.17c.61-.17,1.49-.35,2.64-.55,1.15-.2,2.29-.3,3.4-.3,1.3,0,2.44.11,3.41.32.97.21,1.81.58,2.51,1.1.7.51,1.23,1.17,1.59,1.98.37.81.55,1.81.55,3v12.58ZM294.41,159.72v-5.16c-.95.06-2.07.14-3.36.25-1.29.11-2.31.27-3.06.48-.9.25-1.62.65-2.18,1.19-.55.54-.83,1.28-.83,2.22,0,1.06.32,1.86.96,2.4.64.54,1.62.8,2.94.8,1.1,0,2.1-.21,3-.64.91-.43,1.75-.94,2.52-1.54Z"/>
    <path class="st0" d="M319.03,164.29h-3.12v-10.56c0-.85-.05-1.65-.15-2.4-.1-.75-.28-1.33-.55-1.75-.28-.46-.68-.81-1.2-1.04-.52-.23-1.2-.34-2.03-.34s-1.74.21-2.67.63c-.93.42-1.82.96-2.67,1.61v13.85h-3.12v-18.54h3.12v2.06c.97-.81,1.98-1.44,3.02-1.89,1.04-.45,2.11-.68,3.2-.68,2,0,3.53.6,4.58,1.81,1.05,1.21,1.58,2.94,1.58,5.21v12.04Z"/>
    <path class="st0" d="M340.08,162.18c0,3.14-.71,5.45-2.14,6.92-1.43,1.47-3.62,2.21-6.59,2.21-.99,0-1.95-.07-2.88-.21-.94-.14-1.86-.33-2.76-.59v-3.19h.17c.51.2,1.32.45,2.42.74,1.11.29,2.21.44,3.32.44s1.94-.13,2.64-.38c.7-.25,1.24-.61,1.63-1.06.39-.43.66-.95.83-1.56s.25-1.29.25-2.04v-1.69c-.94.75-1.84,1.31-2.7,1.69-.86.37-1.95.56-3.28.56-2.21,0-3.97-.8-5.27-2.4-1.3-1.6-1.95-3.85-1.95-6.76,0-1.59.22-2.97.67-4.13.45-1.16,1.06-2.15,1.83-3,.72-.79,1.59-1.4,2.62-1.83s2.05-.66,3.07-.66c1.07,0,1.97.11,2.7.32.72.21,1.49.55,2.3.99l.2-.8h2.92v16.44ZM336.96,159.19v-10.11c-.83-.38-1.6-.64-2.32-.8-.71-.16-1.43-.24-2.13-.24-1.72,0-3.07.58-4.05,1.73-.99,1.15-1.48,2.82-1.48,5.01s.37,3.66,1.1,4.73c.73,1.07,1.94,1.61,3.64,1.61.91,0,1.82-.17,2.73-.52.91-.35,1.75-.82,2.52-1.4Z"/>
    <path class="st0" d="M361.74,155.34h-13.66c0,1.14.17,2.13.51,2.98.34.85.81,1.54,1.41,2.08.57.53,1.26.93,2.05,1.2.79.27,1.66.4,2.61.4,1.26,0,2.53-.25,3.81-.76,1.28-.5,2.19-1,2.73-1.49h.17v3.4c-1.05.44-2.12.81-3.22,1.11s-2.25.45-3.45.45c-3.08,0-5.48-.83-7.21-2.5-1.73-1.67-2.59-4.03-2.59-7.1s.83-5.44,2.48-7.22c1.65-1.78,3.83-2.67,6.53-2.67,2.5,0,4.43.73,5.79,2.19,1.36,1.46,2.03,3.54,2.03,6.23v1.69ZM358.71,152.95c-.01-1.64-.42-2.91-1.24-3.8-.81-.9-2.05-1.34-3.71-1.34s-3,.49-3.99,1.48c-.99.99-1.55,2.21-1.68,3.67h10.63Z"/>
    <path class="st0" d="M396.64,157.23c0,.96-.22,1.92-.67,2.86-.45.94-1.08,1.74-1.88,2.39-.88.71-1.92,1.26-3.1,1.66s-2.6.6-4.26.6c-1.78,0-3.38-.17-4.81-.5-1.42-.33-2.87-.82-4.34-1.48v-4.12h.23c1.25,1.04,2.7,1.84,4.33,2.41,1.64.56,3.18.85,4.62.85,2.04,0,3.62-.38,4.76-1.15,1.13-.76,1.7-1.78,1.7-3.05,0-1.1-.27-1.9-.8-2.42s-1.35-.92-2.45-1.21c-.83-.22-1.73-.4-2.7-.55-.97-.14-2-.33-3.08-.55-2.19-.46-3.82-1.26-4.87-2.38-1.06-1.12-1.58-2.59-1.58-4.39,0-2.07.87-3.77,2.62-5.09,1.75-1.32,3.97-1.98,6.66-1.98,1.74,0,3.33.17,4.78.5,1.45.33,2.73.74,3.85,1.23v3.88h-.23c-.94-.8-2.18-1.46-3.71-1.98-1.53-.53-3.1-.79-4.71-.79-1.76,0-3.17.37-4.24,1.1-1.07.73-1.6,1.67-1.6,2.82,0,1.03.27,1.84.8,2.42.53.59,1.47,1.04,2.8,1.34.71.16,1.72.34,3.02.56,1.31.22,2.41.45,3.32.68,1.84.49,3.22,1.22,4.15,2.21.93.99,1.39,2.36,1.39,4.13Z"/>
    <path class="st0" d="M417.19,155.34h-13.66c0,1.14.17,2.13.51,2.98.34.85.81,1.54,1.41,2.08.57.53,1.26.93,2.05,1.2.79.27,1.66.4,2.61.4,1.26,0,2.53-.25,3.81-.76,1.28-.5,2.19-1,2.73-1.49h.17v3.4c-1.05.44-2.12.81-3.22,1.11s-2.25.45-3.45.45c-3.08,0-5.48-.83-7.21-2.5-1.73-1.67-2.59-4.03-2.59-7.1s.83-5.44,2.48-7.22c1.65-1.78,3.83-2.67,6.53-2.67,2.5,0,4.43.73,5.79,2.19,1.36,1.46,2.03,3.54,2.03,6.23v1.69ZM414.16,152.95c-.01-1.64-.42-2.91-1.24-3.8-.81-.9-2.05-1.34-3.71-1.34s-3,.49-3.99,1.48c-.99.99-1.55,2.21-1.68,3.67h10.62Z"/>
    <path class="st0" d="M433.5,149.15h-.17c-.46-.11-.92-.19-1.35-.24-.44-.05-.95-.08-1.55-.08-.96,0-1.89.21-2.79.64s-1.76.98-2.59,1.65v13.16h-3.12v-18.54h3.12v2.74c1.24-1,2.33-1.7,3.28-2.12.95-.41,1.91-.62,2.9-.62.54,0,.93.01,1.18.04.24.03.61.08,1.1.16v3.2Z"/>
    <path class="st0" d="M452.47,145.74l-7.5,18.54h-3.14l-7.45-18.54h3.39l5.74,14.76,5.69-14.76h3.27Z"/>
    <path class="st0" d="M459.91,142.64h-3.52v-3.24h3.52v3.24ZM459.71,164.29h-3.12v-18.54h3.12v18.54Z"/>
    <path class="st0" d="M479.6,163.12c-1.04.5-2.03.89-2.96,1.16-.94.28-1.93.42-2.98.42-1.34,0-2.57-.2-3.69-.59-1.12-.39-2.08-.99-2.87-1.79-.81-.8-1.43-1.8-1.88-3.02-.44-1.22-.66-2.64-.66-4.27,0-3.03.83-5.41,2.5-7.14,1.67-1.73,3.87-2.59,6.6-2.59,1.06,0,2.11.15,3.13.45,1.02.3,1.96.66,2.81,1.1v3.47h-.17c-.95-.74-1.93-1.31-2.95-1.71-1.01-.4-2-.6-2.96-.6-1.77,0-3.17.6-4.19,1.79-1.02,1.19-1.54,2.94-1.54,5.24s.5,3.95,1.5,5.16c1,1.2,2.41,1.8,4.23,1.8.63,0,1.27-.08,1.93-.25.65-.17,1.24-.38,1.76-.65.45-.23.88-.48,1.28-.74.4-.26.71-.48.95-.67h.17v3.44Z"/>
    <path class="st0" d="M499.12,155.34h-13.66c0,1.14.17,2.13.52,2.98.34.85.81,1.54,1.41,2.08.58.53,1.26.93,2.05,1.2.79.27,1.66.4,2.62.4,1.26,0,2.53-.25,3.81-.76,1.28-.5,2.19-1,2.73-1.49h.17v3.4c-1.05.44-2.12.81-3.22,1.11s-2.25.45-3.45.45c-3.08,0-5.48-.83-7.21-2.5-1.73-1.67-2.59-4.03-2.59-7.1s.83-5.44,2.48-7.22c1.65-1.78,3.83-2.67,6.53-2.67,2.5,0,4.43.73,5.79,2.19,1.36,1.46,2.03,3.54,2.03,6.23v1.69ZM496.08,152.95c-.01-1.64-.42-2.91-1.24-3.8-.81-.9-2.05-1.34-3.71-1.34s-3,.49-3.99,1.48c-.99.99-1.55,2.21-1.69,3.67h10.62Z"/>
  </g>
  <g>
    <path class="st0" d="M27.18,133.18c0,54.08,43.42,97.93,96.96,97.93,15.49,0,29.92-3.58,42.91-10.11,0,0,.25-.13.11-.37-.11-.23-.35-.11-.35-.11-9.97,3.96-20.62,6.05-31.99,6.05-48.75,0-88.27-40.04-88.27-89.43s39.52-89.44,88.27-89.44c34.6,0,64.53,20,79,49.36,0,0,.13.27.34.19.24-.09.12-.35.12-.35-14.23-36.21-49.21-61.63-90.14-61.63-53.55,0-96.96,43.84-96.96,97.92"/>
    <path class="st0" d="M151.64,156.86v-40.29h6.57v40.29c3.37,1.31,5.75,4.58,5.75,8.41,0,4.98-4.04,9.03-9.03,9.03s-9.03-4.05-9.03-9.03c0-3.83,2.38-7.1,5.74-8.41"/>
    <path class="st0" d="M166.97,117.34c0-.71-.06-1.62-.22-2.4-.31-1.62-.96-3.16-1.86-4.48-1.8-2.66-4.63-4.44-7.59-4.99-2.96-.56-6,.05-8.37,1.54-2.39,1.47-4.1,3.72-4.92,6.15-.41,1.22-.62,2.47-.6,3.69l.08,3.04c.46,15.63,1.08,25.31,1.78,25.31s1.43-12.45,1.89-28.09c0-4.14,3.36-7.5,7.5-7.5s7.5,3.36,7.5,7.5v36.25c.54.43,1.04.86,1.57,1.3.3.26.46.41.68.63.42.41.8.84,1.16,1.3.71.91,1.3,1.9,1.75,2.95.91,2.09,1.26,4.36,1.07,6.57-.36,4.42-2.99,8.34-6.48,10.46-3.48,2.17-7.72,2.54-11.24,1.48-3.55-1.04-6.37-3.42-8.04-6.12-1.71-2.71-2.31-5.69-2.24-8.27.07-2.6.8-4.8,1.63-6.47.83-1.68,1.74-2.86,2.37-3.67.63-.8.99-1.24.88-1.38-.09-.12-.65.06-1.54.68-.88.62-2.12,1.69-3.32,3.42-1.19,1.72-2.34,4.16-2.7,7.21-.37,3.02.06,6.71,1.96,10.2,1.86,3.47,5.24,6.7,9.76,8.24,4.47,1.57,10.03,1.31,14.77-1.44,4.71-2.67,8.41-7.86,9-13.88.31-2.97-.11-6.1-1.33-8.98-.6-1.44-1.4-2.8-2.37-4.05-.48-.62-1-1.22-1.57-1.79-.27-.27-.62-.59-.84-.78,0,0,0,0,0,0l-.12-33.62Z"/>
    <path class="st0" d="M65.07,132.12s3.2-10.77,15.61-13.4c.67-14.8,13.3-26.69,28.79-26.69,5.72,0,11.06,1.61,15.55,4.39,5.87-10.2,17.19-17.05,30.25-17.05,19.06,0,34.53,14.74,34.53,32.91,0,2.04-.2,4.04-.57,5.98,7,.43,11.62,4.02,11.62,4.02,3.65,2.61,5.82,5.91,6.99,8.73,1.18,2.85,1.4,5.25,1.38,6.82-.04,1.59-.3,2.39-.51,2.39-.24,0-.42-.8-.79-2.24-.39-1.43-.97-3.52-2.34-5.86-1.36-2.32-3.51-4.92-6.71-6.82h-.04c-2.62-1.66-6.93-2.74-11.81-2.74-1.03,0-2.03.05-3,.14.47-2.14.8-4.49.8-6.77,0-16.75-13.31-30.33-29.73-30.33-12.93,0-24.06,8.3-28.15,20.06-5.24-6.1-14.11-9.17-23.12-7.2-11.95,2.63-19.93,13.2-18.61,24.1-12.67-.52-17.96,10.48-17.96,10.48-1.09,2.12-1.58,3.96-1.91,5.21-.32,1.26-.49,1.96-.71,1.96-.2,0-.43-.7-.5-2.08-.05-1.38.09-3.46.96-6.01"/>
  </g>
</svg>