<?xml version="1.0" encoding="UTF-8"?>
<svg id="Layer_2" data-name="Layer 2" xmlns="http://www.w3.org/2000/svg" xmlns:xlink="http://www.w3.org/1999/xlink" viewBox="0 0 663.35 36.93">
  <defs>
    <style>
      .cls-1 {
        clip-path: url(#clippath-6);
      }

      .cls-2 {
        clip-path: url(#clippath-7);
      }

      .cls-3 {
        clip-path: url(#clippath-4);
      }

      .cls-4 {
        fill: url(#Dégradé_sans_nom_10-3);
      }

      .cls-5 {
        clip-path: url(#clippath-9);
      }

      .cls-6 {
        fill: #fff;
      }

      .cls-7 {
        fill: url(#Dégradé_sans_nom_10-6);
      }

      .cls-8 {
        fill: none;
      }

      .cls-9 {
        clip-path: url(#clippath-1);
      }

      .cls-10 {
        fill: url(#Dégradé_sans_nom_10-8);
      }

      .cls-11 {
        fill: url(#Dégradé_sans_nom_10-9);
      }

      .cls-12 {
        fill: url(#Dégradé_sans_nom_10-2);
      }

      .cls-13 {
        clip-path: url(#clippath-5);
      }

      .cls-14 {
        clip-path: url(#clippath-8);
      }

      .cls-15 {
        fill: url(#Dégradé_sans_nom_10-5);
      }

      .cls-16 {
        clip-path: url(#clippath-3);
      }

      .cls-17 {
        fill: #9d9d9c;
      }

      .cls-18 {
        fill: url(#Dégradé_sans_nom_10-4);
      }

      .cls-19 {
        fill: #fecd0b;
      }

      .cls-20 {
        fill: #195e95;
      }

      .cls-21 {
        fill: url(#Dégradé_sans_nom_3);
      }

      .cls-22 {
        fill: #87888a;
      }

      .cls-23 {
        clip-path: url(#clippath-2);
      }

      .cls-24 {
        fill: #0b4691;
      }

      .cls-25 {
        fill: url(#Dégradé_sans_nom_10);
      }

      .cls-26 {
        fill: #921b3b;
      }

      .cls-27 {
        fill: url(#Dégradé_sans_nom_10-7);
      }

      .cls-28 {
        clip-path: url(#clippath);
      }

      .cls-29 {
        fill: #046caa;
      }

      .cls-30 {
        fill: #feeb1a;
      }
    </style>
    <clipPath id="clippath">
      <path class="cls-8" d="M221.82,18.08c0,9.31,7.47,16.86,16.69,16.86,2.67,0,5.15-.62,7.39-1.74,0,0,.04-.02.02-.06-.02-.04-.06-.02-.06-.02-1.72.68-3.55,1.04-5.51,1.04-8.39,0-15.2-6.89-15.2-15.4s6.8-15.4,15.2-15.4c5.96,0,11.11,3.44,13.6,8.5,0,0,.02.05.06.03.04-.02.02-.06.02-.06-2.45-6.23-8.47-10.61-15.52-10.61-9.22,0-16.69,7.55-16.69,16.86"/>
    </clipPath>
    <linearGradient id="Dégradé_sans_nom_3" data-name="Dégradé sans nom 3" x1="-799.49" y1="1070.7" x2="-797.95" y2="1070.7" gradientTransform="translate(-23190.94 -17459.38) rotate(-90) scale(21.88)" gradientUnits="userSpaceOnUse">
      <stop offset="0" stop-color="#0f6393"/>
      <stop offset=".43" stop-color="#3d84b2"/>
      <stop offset="1" stop-color="#79aeda"/>
    </linearGradient>
    <clipPath id="clippath-1">
      <path class="cls-8" d="M240.63,27.4c-.49-.22-.93-.51-1.3-.89-.37-.38-.66-.82-.87-1.33-.21-.51-.32-1.04-.32-1.61s.1-1.1.32-1.61c.21-.51.5-.95.87-1.33.37-.38.8-.68,1.3-.89.49-.22,1.02-.33,1.57-.33s1.08.11,1.57.33c.49.22.93.51,1.3.89.37.38.66.82.87,1.33.21.51.32,1.05.32,1.61s-.1,1.11-.32,1.61c-.21.51-.5.95-.87,1.33-.37.38-.8.68-1.3.89-.49.22-1.02.32-1.57.32s-1.08-.11-1.57-.32M240.09,18.42c-.66.29-1.24.69-1.73,1.2-.5.51-.89,1.1-1.17,1.78-.29.68-.43,1.4-.43,2.17s.14,1.49.43,2.17c.28.68.67,1.27,1.17,1.78.49.51,1.07.91,1.73,1.2.66.29,1.37.44,2.12.44s1.46-.15,2.12-.44c.66-.29,1.24-.69,1.73-1.2.5-.51.88-1.1,1.17-1.78.29-.68.43-1.4.43-2.17s-.14-1.49-.43-2.17c-.28-.68-.67-1.27-1.17-1.78-.49-.51-1.07-.9-1.73-1.2-.66-.29-1.37-.44-2.12-.44s-1.46.15-2.12.44"/>
    </clipPath>
    <linearGradient id="Dégradé_sans_nom_10" data-name="Dégradé sans nom 10" x1="-728.41" y1="1144.04" x2="-726.87" y2="1144.04" gradientTransform="translate(-8042.15 -5245.47) rotate(-90) scale(7.24)" gradientUnits="userSpaceOnUse">
      <stop offset="0" stop-color="#162c48"/>
      <stop offset=".3" stop-color="#123258"/>
      <stop offset=".88" stop-color="#094484"/>
      <stop offset="1" stop-color="#08488e"/>
    </linearGradient>
    <clipPath id="clippath-2">
      <path class="cls-8" d="M252.5,27.42c-.49-.22-.93-.51-1.3-.89-.37-.38-.66-.82-.87-1.33-.21-.51-.32-1.04-.32-1.61s.11-1.1.32-1.61c.21-.51.5-.95.87-1.33.37-.38.8-.68,1.3-.89.5-.22,1.02-.33,1.57-.33s1.08.11,1.57.33c.5.22.93.51,1.3.89.37.38.66.82.87,1.33.21.51.32,1.04.32,1.61s-.1,1.11-.32,1.61c-.21.51-.5.95-.87,1.33-.37.38-.8.68-1.3.89-.49.22-1.02.33-1.57.33s-1.08-.11-1.57-.33M251.96,18.44c-.66.29-1.24.69-1.73,1.2-.49.51-.88,1.1-1.17,1.78-.29.67-.43,1.4-.43,2.17v9.15h1.39v-5.73c.37.61.95,1.12,1.74,1.53.79.41,1.56.62,2.32.62s1.46-.14,2.12-.44c.66-.29,1.24-.69,1.73-1.2.49-.51.88-1.1,1.17-1.78.28-.67.43-1.4.43-2.17s-.14-1.49-.43-2.17c-.29-.68-.67-1.27-1.17-1.78-.49-.51-1.07-.91-1.73-1.2-.66-.29-1.37-.43-2.12-.43s-1.46.14-2.12.43"/>
    </clipPath>
    <linearGradient id="Dégradé_sans_nom_10-2" data-name="Dégradé sans nom 10" x1="-754.29" y1="1117.9" x2="-752.75" y2="1117.9" gradientTransform="translate(-10435.08 -7179.63) rotate(-90) scale(9.56)" xlink:href="#Dégradé_sans_nom_10"/>
    <clipPath id="clippath-3">
      <path class="cls-8" d="M262.94,20.62c.37-.38.8-.68,1.3-.89.5-.22,1.02-.33,1.57-.33s1.08.11,1.57.33c.49.22.93.51,1.3.89.3.33.55.69.75,1.1h-7.27c.2-.41.45-.77.77-1.1M263.69,18.42c-.66.29-1.24.69-1.73,1.2-.5.51-.89,1.1-1.17,1.78-.29.68-.43,1.4-.43,2.17s.14,1.49.43,2.17c.28.68.67,1.27,1.17,1.78.49.51,1.07.91,1.73,1.2.66.29,1.37.44,2.12.44s1.46-.15,2.12-.44c.66-.29,1.24-.69,1.73-1.2.5-.51.88-1.1,1.16-1.78l.06-.16h-1.53c-.18.35-.41.66-.67.93-.37.38-.8.68-1.3.89-.49.22-1.02.32-1.57.32s-1.08-.11-1.57-.32c-.49-.22-.93-.51-1.3-.89-.37-.38-.66-.82-.87-1.33-.21-.51-.32-1.04-.32-1.61,0-.13,0-.28.02-.43h9.46c-.04-.61-.18-1.19-.42-1.74-.28-.68-.66-1.27-1.16-1.78-.49-.51-1.07-.9-1.73-1.2-.66-.29-1.37-.44-2.12-.44s-1.46.15-2.12.44"/>
    </clipPath>
    <linearGradient id="Dégradé_sans_nom_10-3" data-name="Dégradé sans nom 10" y1="1145.19" y2="1145.19" gradientTransform="translate(-8026.84 -5245.47) rotate(-90) scale(7.24)" xlink:href="#Dégradé_sans_nom_10"/>
    <clipPath id="clippath-4">
      <path class="cls-8" d="M275.59,18.91c-.66.29-1.24.69-1.74,1.21-.08.08-.15.19-.22.32v-1.93h-1.37l.02,10.14h1.37v-4.61c0-.57.11-1.1.32-1.61.21-.51.5-.95.87-1.33.37-.38.8-.68,1.3-.89.5-.21,1.02-.32,1.57-.32v-1.42c-.75,0-1.46.15-2.12.44"/>
    </clipPath>
    <linearGradient id="Dégradé_sans_nom_10-4" data-name="Dégradé sans nom 10" x1="-718.24" y1="1156.26" x2="-716.7" y2="1156.26" gradientTransform="translate(-7367.15 -4718.45) rotate(-90) scale(6.61)" xlink:href="#Dégradé_sans_nom_10"/>
    <clipPath id="clippath-5">
      <path class="cls-8" d="M282.12,18.09c-.3.07-.59.16-.86.29-.27.13-.52.28-.74.47-.22.18-.4.38-.53.6v-.93h-1.39v10.14h1.41l-.02-6.09c0-.39.08-.78.25-1.16.16-.38.39-.71.66-1.01.28-.29.6-.52.97-.7.37-.18.76-.26,1.17-.26s.8.08,1.17.24c.37.16.69.39.97.67.28.29.49.62.65.99.16.38.24.79.24,1.22l.02,6.09h1.43l-.02-6.09c0-.62-.12-1.21-.36-1.77-.24-.56-.56-1.05-.96-1.46-.4-.41-.88-.74-1.42-.98-.54-.24-1.12-.37-1.72-.37-.3,0-.61.04-.91.1"/>
    </clipPath>
    <linearGradient id="Dégradé_sans_nom_10-5" data-name="Dégradé sans nom 10" x1="-723.54" y1="1151.11" x2="-722" y2="1151.11" gradientTransform="translate(-7688.84 -4982.17) rotate(-90) scale(6.93)" xlink:href="#Dégradé_sans_nom_10"/>
    <clipPath id="clippath-6">
      <path class="cls-8" d="M288.92,28.65h1.39v-10.14h-1.39v10.14ZM289.04,14.7c-.16.16-.24.37-.24.61s.08.45.24.61c.16.16.36.25.59.25s.44-.08.59-.25c.16-.16.24-.36.24-.61s-.08-.44-.24-.61c-.16-.16-.36-.24-.59-.24s-.43.08-.59.24"/>
    </clipPath>
    <linearGradient id="Dégradé_sans_nom_10-6" data-name="Dégradé sans nom 10" x1="-751.12" y1="1122.38" x2="-749.58" y2="1122.38" gradientTransform="translate(-10054.49 -6893.88) rotate(-90) scale(9.22)" xlink:href="#Dégradé_sans_nom_10"/>
    <clipPath id="clippath-7">
      <path class="cls-8" d="M294.72,18.42c-.66.29-1.24.69-1.73,1.2-.49.51-.88,1.1-1.17,1.78-.28.68-.43,1.4-.43,2.17s.14,1.49.43,2.17c.29.68.67,1.27,1.17,1.78.49.51,1.07.91,1.73,1.2.66.29,1.37.44,2.12.44s1.46-.15,2.12-.44c.66-.29,1.24-.69,1.73-1.2.49-.51.88-1.1,1.16-1.78l.06-.16h-1.53c-.18.35-.41.66-.67.93-.37.38-.8.68-1.3.89-.49.22-1.02.32-1.57.32s-1.08-.11-1.57-.32c-.49-.22-.93-.51-1.3-.89-.37-.38-.66-.82-.87-1.33-.21-.51-.32-1.04-.32-1.61s.1-1.1.32-1.61c.21-.51.5-.95.87-1.33.37-.38.8-.68,1.3-.89.49-.22,1.02-.33,1.57-.33s1.08.11,1.57.33c.49.22.93.51,1.3.89.26.27.48.58.65.91h1.55l-.06-.14c-.28-.68-.66-1.27-1.16-1.78-.5-.51-1.07-.9-1.73-1.2-.66-.29-1.37-.44-2.12-.44s-1.46.15-2.12.44"/>
    </clipPath>
    <linearGradient id="Dégradé_sans_nom_10-7" data-name="Dégradé sans nom 10" y1="1146.68" y2="1146.68" gradientTransform="translate(-8006.82 -5245.47) rotate(-90) scale(7.24)" xlink:href="#Dégradé_sans_nom_10"/>
    <clipPath id="clippath-8">
      <path class="cls-8" d="M310.25,18.51v5.58c0,.43-.08.84-.24,1.22-.16.38-.37.71-.65.98-.28.28-.6.5-.97.66-.37.16-.77.24-1.19.24s-.82-.08-1.18-.24c-.36-.16-.68-.38-.96-.66-.28-.28-.49-.6-.65-.98-.16-.38-.24-.78-.24-1.22v-.02l-.02-5.56h-1.43l.02,5.56v.02c0,.62.12,1.21.36,1.76.24.55.56,1.04.96,1.45.4.41.87.74,1.41.98.54.24,1.12.37,1.72.37s1.18-.12,1.72-.37c.54-.24,1.01-.57,1.42-.98.4-.41.72-.9.95-1.45.23-.55.35-1.14.35-1.76v-5.58h-1.39Z"/>
    </clipPath>
    <linearGradient id="Dégradé_sans_nom_10-8" data-name="Dégradé sans nom 10" x1="-717.77" y1="1158.46" x2="-716.23" y2="1158.46" gradientTransform="translate(-7318.96 -4696.43) rotate(-90) scale(6.58)" xlink:href="#Dégradé_sans_nom_10"/>
    <clipPath id="clippath-9">
      <path class="cls-8" d="M314.93,18.26c-.44.18-.81.42-1.12.71-.31.29-.55.62-.72,1-.17.38-.23.79-.18,1.24.07.57.26,1.04.57,1.42.32.38.69.66,1.13.85.43.19.91.35,1.43.49.51.13.94.28,1.29.45.34.16.6.37.78.63.18.26.26.61.25,1.07-.03.45-.2.83-.53,1.14-.33.32-.81.48-1.46.48-.57.01-1.04-.1-1.4-.35-.36-.25-.61-.52-.76-.82-.14-.3-.21-.63-.21-.97h-1.39c-.01.58.08,1.08.29,1.51.2.43.48.79.82,1.1.34.31.74.54,1.19.71.45.17.9.25,1.37.25s.91-.07,1.34-.2c.43-.14.8-.33,1.13-.59.33-.26.58-.58.77-.95.19-.38.29-.8.29-1.28,0-.64-.12-1.16-.36-1.58-.24-.42-.57-.77-1-1.04-.43-.28-.89-.5-1.37-.66-.49-.16-.93-.32-1.34-.47-.4-.15-.73-.31-.97-.49-.25-.17-.4-.43-.47-.75-.07-.36.03-.71.29-1.03.26-.32.54-.54.84-.65.3-.11.59-.16.85-.16.4,0,.76.1,1.09.31.33.21.55.51.67.9h1.48c-.03-.2-.12-.45-.27-.73-.15-.29-.36-.57-.62-.84-.27-.28-.59-.5-.98-.68-.39-.18-.85-.27-1.37-.27-.46,0-.91.09-1.35.27"/>
    </clipPath>
    <linearGradient id="Dégradé_sans_nom_10-9" data-name="Dégradé sans nom 10" y1="1147.63" y2="1147.63" gradientTransform="translate(-7994.13 -5245.47) rotate(-90) scale(7.24)" xlink:href="#Dégradé_sans_nom_10"/>
  </defs>
  <g id="Livello_1" data-name="Livello 1">
    <g id="Calque_1" data-name="Calque 1">
      <g>
        <g>
          <g class="cls-28">
            <rect class="cls-21" x="221.82" y="1.22" width="32.23" height="33.72"/>
          </g>
          <path class="cls-19" d="M285.82,21.35c-.16-.38-.38-.71-.65-.99-.28-.29-.6-.51-.97-.67-.37-.16-.76-.24-1.17-.24s-.8.09-1.17.27c-.37.18-.69.41-.97.7-.14.15-.27.31-.38.48,0,.02,0,.04,0,.06,0,2.08,1.69,3.77,3.77,3.77.65,0,1.25-.16,1.79-.45v-1.7c0-.43-.08-.84-.24-1.22"/>
          <g class="cls-9">
            <rect class="cls-25" x="236.76" y="17.98" width="10.89" height="11.16"/>
          </g>
          <g class="cls-23">
            <rect class="cls-12" x="248.63" y="18" width="10.89" height="14.73"/>
          </g>
          <g class="cls-16">
            <rect class="cls-4" x="260.36" y="17.98" width="10.87" height="11.16"/>
          </g>
          <g class="cls-3">
            <rect class="cls-18" x="272.26" y="18.47" width="5.45" height="10.19"/>
          </g>
          <g class="cls-13">
            <rect class="cls-15" x="278.59" y="17.98" width="8.91" height="10.67"/>
          </g>
          <g class="cls-1">
            <rect class="cls-7" x="288.8" y="14.45" width="1.66" height="14.2"/>
          </g>
          <g class="cls-2">
            <rect class="cls-27" x="291.39" y="17.98" width="10.51" height="11.16"/>
          </g>
          <g class="cls-14">
            <rect class="cls-10" x="302.73" y="18.51" width="8.91" height="10.14"/>
          </g>
          <g class="cls-5">
            <rect class="cls-11" x="312.6" y="17.98" width="7.2" height="11.16"/>
          </g>
          <polygon class="cls-20" points="262.85 31.37 262.85 35.56 265.21 35.56 265.21 35.11 263.4 35.11 263.4 33.6 265.02 33.6 265.02 33.15 263.4 33.15 263.4 31.82 265.12 31.82 265.12 31.37 262.85 31.37"/>
          <g>
            <path class="cls-20" d="M268.37,34.74c0,.32,0,.59.02.83h-.49l-.03-.49h-.01c-.14.24-.46.56-1,.56-.47,0-1.04-.27-1.04-1.32v-1.76h.55v1.66c0,.57.18.96.67.96.37,0,.62-.26.72-.5.03-.08.05-.17.05-.28v-1.84h.55v2.18Z"/>
            <path class="cls-20" d="M269.28,33.49c0-.35,0-.66-.02-.94h.48l.02.6h.02c.14-.4.47-.66.84-.66.06,0,.1,0,.15.01v.52c-.06-.01-.11-.01-.19-.01-.39,0-.66.29-.74.7-.01.08-.02.17-.02.26v1.6h-.55v-2.07Z"/>
            <path class="cls-20" d="M273.98,34.03c0,1.11-.78,1.6-1.5,1.6-.81,0-1.44-.6-1.44-1.55,0-1,.67-1.59,1.49-1.59s1.45.63,1.45,1.54M271.6,34.06c0,.66.37,1.16.91,1.16s.91-.49.91-1.17c0-.51-.26-1.15-.9-1.15s-.92.6-.92,1.16"/>
            <path class="cls-20" d="M274.67,33.53c0-.39-.01-.7-.02-.98h.48l.03.52h.01c.22-.37.58-.58,1.07-.58.74,0,1.28.62,1.28,1.52,0,1.08-.67,1.62-1.37,1.62-.4,0-.75-.17-.93-.47h-.01v1.64h-.54v-3.26ZM275.21,34.34c0,.08,0,.16.02.22.1.38.43.64.82.64.58,0,.92-.47.92-1.16,0-.6-.32-1.11-.9-1.11-.37,0-.73.26-.83.67-.02.07-.04.15-.04.22v.52Z"/>
            <path class="cls-20" d="M278.52,34.16c.01.74.48,1.05,1.03,1.05.39,0,.63-.07.84-.16l.1.39c-.19.09-.53.19-1.01.19-.93,0-1.48-.62-1.48-1.52s.53-1.62,1.41-1.62c.99,0,1.24.86,1.24,1.41,0,.11,0,.19-.02.25h-2.12ZM280.12,33.77c0-.34-.14-.88-.76-.88-.56,0-.8.5-.84.88h1.6Z"/>
            <path class="cls-20" d="M281.86,31.26c-.14.52-.41,1.19-.58,1.48l-.35.04c.13-.37.3-1.01.37-1.46l.56-.06Z"/>
            <path class="cls-20" d="M281.94,35.01c.17.1.45.21.73.21.39,0,.58-.19.58-.45s-.16-.4-.55-.55c-.55-.2-.8-.49-.8-.85,0-.49.4-.88,1.04-.88.31,0,.57.08.73.19l-.13.4c-.12-.07-.34-.18-.62-.18-.32,0-.5.19-.5.41,0,.25.17.36.57.52.52.19.79.45.79.9,0,.53-.42.91-1.12.91-.33,0-.63-.09-.85-.21l.13-.41Z"/>
            <path class="cls-20" d="M286.1,34.16c.01.74.48,1.05,1.03,1.05.39,0,.63-.07.84-.16l.1.39c-.19.09-.53.19-1.01.19-.93,0-1.48-.62-1.48-1.52s.53-1.62,1.41-1.62c.99,0,1.24.86,1.24,1.41,0,.11,0,.19-.02.25h-2.12ZM287.71,33.77c0-.34-.14-.88-.76-.88-.56,0-.8.5-.84.88h1.6Z"/>
            <path class="cls-20" d="M289.11,32.55l.65,1.78c.07.2.15.43.2.61h.01c.06-.18.12-.41.19-.63l.6-1.77h.58l-.82,2.15c-.39,1.03-.66,1.55-1.03,1.88-.27.23-.53.32-.67.35l-.14-.45c.14-.04.32-.13.48-.27.15-.12.33-.33.46-.61.02-.06.04-.1.04-.13,0-.03-.01-.08-.04-.14l-1.11-2.78h.6Z"/>
            <path class="cls-20" d="M292.09,34.16c.01.74.48,1.05,1.03,1.05.39,0,.63-.07.83-.16l.1.39c-.19.09-.53.19-1.01.19-.93,0-1.48-.62-1.48-1.52s.53-1.62,1.41-1.62c.99,0,1.24.86,1.24,1.41,0,.11,0,.19-.02.25h-2.12ZM293.69,33.77c0-.34-.14-.88-.76-.88-.56,0-.8.5-.84.88h1.6Z"/>
            <path class="cls-20" d="M294.82,35.01c.17.1.45.21.73.21.39,0,.58-.19.58-.45s-.16-.4-.55-.55c-.55-.2-.8-.49-.8-.85,0-.49.4-.88,1.04-.88.31,0,.57.08.73.19l-.13.4c-.12-.07-.34-.18-.62-.18-.32,0-.5.19-.5.41,0,.25.17.36.57.52.52.19.79.45.79.9,0,.53-.42.91-1.12.91-.33,0-.63-.09-.85-.21l.13-.41Z"/>
            <path class="cls-20" d="M301.41,34.03c0,1.11-.78,1.6-1.5,1.6-.81,0-1.44-.6-1.44-1.55,0-1,.67-1.59,1.49-1.59s1.45.63,1.45,1.54M299.02,34.06c0,.66.37,1.16.91,1.16s.92-.49.92-1.17c0-.51-.26-1.15-.9-1.15s-.92.6-.92,1.16"/>
            <path class="cls-20" d="M302.1,33.37c0-.32,0-.57-.02-.82h.49l.03.5h.01c.15-.28.5-.56,1-.56.42,0,1.06.25,1.06,1.28v1.79h-.55v-1.74c0-.49-.18-.89-.7-.89-.35,0-.63.26-.73.56-.03.07-.04.16-.04.25v1.81h-.55v-2.2Z"/>
            <polygon class="cls-20" points="309.05 33.6 307.43 33.6 307.43 35.11 309.25 35.11 309.25 35.56 306.88 35.56 306.88 31.37 309.15 31.37 309.15 31.82 307.43 31.82 307.43 33.15 309.05 33.15 309.05 33.6"/>
            <path class="cls-20" d="M312.05,34.84c0,.26.01.52.04.72h-.49l-.04-.38h-.02c-.17.24-.49.45-.92.45-.61,0-.92-.43-.92-.87,0-.73.65-1.12,1.81-1.12v-.06c0-.24-.07-.7-.68-.69-.29,0-.58.08-.79.22l-.12-.37c.25-.16.62-.26,1-.26.92,0,1.14.63,1.14,1.23v1.13ZM311.52,34.03c-.6-.01-1.28.09-1.28.68,0,.36.24.52.51.52.4,0,.65-.25.74-.5.02-.06.02-.12.02-.17v-.52Z"/>
            <path class="cls-20" d="M312.93,33.49c0-.35,0-.66-.02-.94h.48l.02.6h.02c.14-.4.47-.66.84-.66.06,0,.1,0,.15.01v.52c-.06-.01-.11-.01-.19-.01-.39,0-.66.29-.74.7-.01.08-.02.17-.02.26v1.6h-.55v-2.07Z"/>
            <path class="cls-20" d="M315.77,31.83v.72h.78v.42h-.78v1.62c0,.37.11.58.41.58.15,0,.24-.01.32-.04l.02.42c-.1.04-.27.08-.48.08-.26,0-.46-.09-.59-.23-.15-.17-.21-.44-.21-.79v-1.64h-.47v-.42h.47v-.56l.53-.16Z"/>
            <path class="cls-20" d="M317.17,31.15h.55v1.88h.01c.09-.16.22-.3.39-.39.16-.09.35-.15.56-.15.4,0,1.05.25,1.05,1.28v1.79h-.55v-1.73c0-.49-.18-.89-.7-.89-.35,0-.63.25-.73.54-.03.08-.04.16-.04.26v1.82h-.55v-4.42Z"/>
          </g>
        </g>
        <g>
          <g>
            <g>
              <path class="cls-29" d="M575.86,8.78v3.71h-10.6v4.3h9.73v3.43h-9.73v4.92h10.83v3.71h-15.24V8.78h15.02Z"/>
              <path class="cls-29" d="M591.25,14.14c-.26-.42-.59-.79-.98-1.11s-.84-.57-1.34-.75c-.5-.18-1.02-.27-1.56-.27-.99,0-1.84.19-2.53.58s-1.26.9-1.69,1.55c-.43.65-.75,1.38-.94,2.21-.2.83-.3,1.68-.3,2.56s.1,1.66.3,2.46c.2.8.51,1.51.94,2.15.43.64.99,1.15,1.69,1.53.69.38,1.54.58,2.53.58,1.35,0,2.4-.41,3.16-1.24.76-.82,1.22-1.91,1.39-3.26h4.27c-.11,1.26-.4,2.39-.87,3.4s-1.09,1.88-1.86,2.59c-.77.71-1.67,1.26-2.7,1.63s-2.17.56-3.4.56c-1.54,0-2.92-.27-4.15-.8-1.23-.53-2.26-1.27-3.11-2.21-.84-.94-1.49-2.04-1.94-3.3-.45-1.27-.68-2.63-.68-4.09s.22-2.89.68-4.18c.45-1.28,1.1-2.4,1.94-3.36.84-.96,1.88-1.71,3.11-2.25,1.23-.54,2.61-.82,4.15-.82,1.11,0,2.15.16,3.14.48.98.32,1.87.78,2.64,1.39.78.61,1.42,1.36,1.93,2.26.51.9.82,1.93.96,3.09h-4.27c-.08-.51-.24-.97-.51-1.39Z"/>
              <path class="cls-29" d="M604.74,8.78l4.7,13.81h.06l4.44-13.81h6.21v20.08h-4.13v-14.23h-.06l-4.92,14.23h-3.4l-4.92-14.09h-.06v14.09h-4.13V8.78h6.21Z"/>
              <path class="cls-29" d="M638.1,28.86l-3.4-13.67h-.06l-3.35,13.67h-4.47l-5.32-20.08h4.42l3.18,13.67h.06l3.49-13.67h4.13l3.43,13.84h.06l3.29-13.84h4.33l-5.4,20.08h-4.39Z"/>
              <path class="cls-29" d="M663.35,8.78v3.71h-9.7v4.64h8.41v3.43h-8.41v8.3h-4.42V8.78h14.12Z"/>
            </g>
            <path class="cls-29" d="M556.55,20.6c-1.01,5.51-5.89,9.6-11.5,9.6-1.63,0-3.37-.41-4.84-1.04-1.54.72-3.25,1.04-4.98,1.04-5.6,0-10.48-4.01-11.48-9.56h7.2c.79,1.78,2.62,2.94,4.57,2.94,2.1,0,4.06-1.43,4.76-3.4.68,2.01,2.63,3.4,4.76,3.4,2,0,3.85-1.16,4.64-2.97l6.85-.02Z"/>
            <path class="cls-29" d="M523.65,19.8h9.88v-2.68h-9.88c-.16.9-.15,1.81,0,2.68"/>
            <path class="cls-29" d="M556.55,16.33c-1.01-5.51-5.89-9.6-11.5-9.6-1.63,0-3.37.41-4.84,1.06-1.54-.74-3.25-1.06-4.98-1.06-5.6,0-10.48,4.01-11.48,9.55l7.2.02c.79-1.79,2.62-2.95,4.57-2.95,2.1,0,4.06,1.43,4.76,3.39.68-2.01,2.63-3.39,4.76-3.39,2,0,3.85,1.16,4.64,2.97l6.85.02Z"/>
          </g>
          <g>
            <path class="cls-29" d="M469.06,16.66v3.61h-.48v-3.61h.48Z"/>
            <path class="cls-29" d="M470.53,16.66l1.14,3.03,1.14-3.03h.66v3.61h-.45v-3h-.01l-1.13,3h-.41l-1.13-3h-.01v3h-.45v-3.61h.66Z"/>
            <path class="cls-29" d="M475.85,16.66c.36,0,.64.09.83.28s.28.45.28.79-.09.6-.28.79-.46.28-.83.28h-1.1v1.47h-.48v-3.61h1.58ZM475.68,18.39c.27,0,.47-.05.6-.17s.19-.28.19-.5-.06-.38-.19-.49c-.13-.11-.33-.17-.6-.17h-.94v1.32h.94Z"/>
            <path class="cls-29" d="M478.02,16.66v3.2h1.91v.4h-2.39v-3.61h.48Z"/>
            <path class="cls-29" d="M482.84,16.66v.4h-2.01v1.15h1.87v.4h-1.87v1.25h2.03v.4h-2.51v-3.61h2.49Z"/>
            <path class="cls-29" d="M484.1,16.66l1.14,3.03,1.14-3.03h.66v3.61h-.45v-3h-.01l-1.13,3h-.41l-1.13-3h-.01v3h-.45v-3.61h.66Z"/>
            <path class="cls-29" d="M490.32,16.66v.4h-2.01v1.15h1.87v.4h-1.87v1.25h2.03v.4h-2.51v-3.61h2.49Z"/>
            <path class="cls-29" d="M491.42,16.66l1.9,2.92h.01v-2.92h.45v3.61h-.53l-1.88-2.89h-.01v2.89h-.45v-3.61h.51Z"/>
            <path class="cls-29" d="M494.18,17.07v-.4h2.88v.4h-1.2v3.2h-.48v-3.2h-1.2Z"/>
            <path class="cls-29" d="M499.95,16.66v.4h-2.01v1.15h1.87v.4h-1.87v1.25h2.03v.4h-2.51v-3.61h2.49Z"/>
            <path class="cls-29" d="M501.79,16.66c.56,0,.98.14,1.28.42.3.28.45.71.45,1.29,0,.3-.03.57-.1.81s-.17.43-.31.59c-.14.16-.32.28-.54.37s-.48.13-.78.13h-1.24v-3.61h1.24ZM501.83,19.86c.05,0,.12,0,.2-.01.08,0,.17-.03.26-.06.09-.03.18-.08.27-.14.09-.06.17-.14.24-.25.07-.1.13-.23.17-.39.05-.16.07-.35.07-.57s-.02-.41-.06-.58c-.04-.17-.11-.31-.21-.43-.1-.12-.22-.21-.37-.27-.15-.06-.34-.09-.56-.09h-.81v2.8h.8Z"/>
            <path class="cls-29" d="M506.82,16.66c.08,0,.16,0,.25,0s.18,0,.27.02c.09,0,.17.02.24.04.08.02.14.04.19.08.12.07.22.17.3.29.08.12.12.28.12.46,0,.19-.05.36-.14.5s-.22.24-.4.31h0c.22.06.39.16.51.31.12.15.18.34.18.57,0,.13-.02.26-.07.38-.05.12-.12.23-.21.33-.09.1-.21.17-.34.23-.14.06-.29.09-.47.09h-1.74v-3.61h1.31ZM506.95,18.21c.27,0,.47-.05.59-.14.12-.1.18-.24.18-.43,0-.13-.02-.23-.06-.3-.04-.07-.1-.13-.17-.17-.07-.04-.15-.07-.24-.08-.09-.01-.19-.02-.3-.02h-.96v1.15h.96ZM507.19,19.86c.21,0,.38-.06.5-.17.12-.11.18-.27.18-.47,0-.12-.02-.22-.07-.29s-.1-.14-.17-.18c-.07-.05-.16-.08-.25-.1-.09-.02-.19-.03-.29-.03h-1.1v1.25h1.2Z"/>
            <path class="cls-29" d="M510.46,20.27h-.48v-1.47l-1.39-2.13h.57l1.08,1.72,1.06-1.72h.55l-1.38,2.13v1.47Z"/>
          </g>
        </g>
        <g>
          <rect class="cls-6" width="54.22" height="36.83"/>
          <rect class="cls-24" x="1.04" y="1.01" width="52.13" height="34.75"/>
          <polygon class="cls-30" points="26 8.58 27.1 7.78 28.2 8.58 27.78 7.28 28.9 6.48 27.52 6.48 27.1 5.17 26.68 6.48 25.3 6.48 26.42 7.28 26 8.58"/>
          <polygon class="cls-30" points="20.3 10.11 21.4 9.31 22.5 10.11 22.09 8.81 23.2 8.01 21.83 8.01 21.4 6.69 20.98 8.01 19.61 8.01 20.72 8.81 20.3 10.11"/>
          <polygon class="cls-30" points="17.24 10.87 16.82 12.19 15.44 12.19 16.56 12.99 16.14 14.29 17.24 13.48 18.34 14.29 17.92 12.99 19.04 12.19 17.66 12.19 17.24 10.87"/>
          <polygon class="cls-30" points="15.71 19.17 16.81 19.97 16.39 18.67 17.51 17.87 16.13 17.87 15.71 16.55 15.29 17.87 13.91 17.87 15.03 18.67 14.61 19.97 15.71 19.17"/>
          <polygon class="cls-30" points="17.66 23.57 17.24 22.26 16.82 23.57 15.44 23.57 16.56 24.38 16.14 25.67 17.24 24.87 18.34 25.67 17.92 24.38 19.04 23.57 17.66 23.57"/>
          <polygon class="cls-30" points="21.83 27.75 21.41 26.43 20.99 27.75 19.61 27.75 20.73 28.55 20.31 29.85 21.41 29.04 22.51 29.85 22.09 28.55 23.21 27.75 21.83 27.75"/>
          <polygon class="cls-30" points="27.52 29.26 27.1 27.94 26.68 29.26 25.3 29.26 26.42 30.06 26 31.36 27.1 30.56 28.2 31.36 27.78 30.06 28.9 29.26 27.52 29.26"/>
          <polygon class="cls-30" points="33.2 27.75 32.78 26.43 32.36 27.75 30.99 27.75 32.1 28.55 31.68 29.85 32.78 29.04 33.88 29.85 33.46 28.55 34.58 27.75 33.2 27.75"/>
          <polygon class="cls-30" points="37.38 23.57 36.96 22.26 36.53 23.57 35.16 23.57 36.28 24.38 35.86 25.67 36.96 24.87 38.06 25.67 37.64 24.38 38.75 23.57 37.38 23.57"/>
          <polygon class="cls-30" points="40.27 17.85 38.89 17.85 38.47 16.54 38.05 17.86 36.67 17.85 37.79 18.66 37.37 19.95 38.47 19.15 39.57 19.95 39.15 18.66 40.27 17.85"/>
          <polygon class="cls-30" points="35.86 14.27 36.96 13.47 38.06 14.27 37.64 12.97 38.76 12.17 37.38 12.17 36.96 10.85 36.54 12.17 35.16 12.17 36.28 12.97 35.86 14.27"/>
          <polygon class="cls-30" points="32.8 6.7 32.38 8.01 31 8.01 32.12 8.81 31.7 10.11 32.8 9.31 33.9 10.11 33.48 8.81 34.6 8.01 33.22 8.01 32.8 6.7"/>
          <g>
            <path class="cls-22" d="M69.37,16.27v-7.81h2.53c.96,0,1.58.04,1.88.12.45.12.82.37,1.12.76.3.39.45.9.45,1.52,0,.48-.09.88-.26,1.21-.17.33-.39.58-.66.77-.27.19-.54.31-.82.37-.38.07-.92.11-1.64.11h-1.03v2.95h-1.58ZM70.94,9.78v2.22h.86c.62,0,1.04-.04,1.25-.12s.37-.21.49-.38c.12-.17.18-.38.18-.61,0-.28-.08-.52-.25-.7-.17-.18-.38-.3-.63-.35-.19-.04-.57-.05-1.13-.05h-.76Z"/>
            <path class="cls-22" d="M76.65,16.27v-7.81h3.32c.83,0,1.44.07,1.82.21.38.14.68.39.91.75s.34.77.34,1.23c0,.59-.17,1.07-.52,1.45-.34.38-.86.62-1.55.72.34.2.62.42.84.66.22.24.52.66.9,1.27l.95,1.52h-1.89l-1.14-1.7c-.41-.61-.68-.99-.83-1.15-.15-.16-.31-.27-.47-.33-.17-.06-.43-.09-.79-.09h-.32v3.26h-1.58ZM78.23,11.77h1.17c.76,0,1.23-.03,1.42-.1.19-.06.34-.17.44-.33.11-.16.16-.35.16-.59,0-.26-.07-.47-.21-.64-.14-.16-.34-.26-.59-.31-.13-.02-.51-.03-1.15-.03h-1.23v1.98Z"/>
            <path class="cls-22" d="M84.2,12.42c0-.8.12-1.46.36-2,.18-.4.42-.75.73-1.07.31-.32.64-.55,1.01-.7.49-.21,1.05-.31,1.68-.31,1.15,0,2.07.36,2.76,1.07.69.71,1.04,1.71,1.04,2.98s-.34,2.25-1.03,2.96c-.69.71-1.6,1.07-2.75,1.07s-2.09-.35-2.77-1.06c-.69-.71-1.03-1.68-1.03-2.93ZM85.83,12.36c0,.88.2,1.55.61,2.01.41.46.93.68,1.56.68s1.14-.23,1.55-.68c.4-.45.6-1.13.6-2.04s-.2-1.56-.59-2c-.39-.44-.91-.66-1.56-.66s-1.17.22-1.57.67-.6,1.12-.6,2.02Z"/>
            <path class="cls-22" d="M96.64,13.4v-1.32h3.4v3.11c-.33.32-.81.6-1.44.84s-1.26.37-1.9.37c-.82,0-1.53-.17-2.14-.51-.61-.34-1.06-.83-1.37-1.47-.31-.64-.46-1.33-.46-2.08,0-.81.17-1.54.51-2.17.34-.63.84-1.12,1.5-1.45.5-.26,1.12-.39,1.87-.39.97,0,1.73.2,2.27.61.55.41.9.97,1.05,1.69l-1.57.29c-.11-.38-.32-.69-.62-.91s-.68-.33-1.14-.33c-.69,0-1.24.22-1.64.66s-.61,1.09-.61,1.94c0,.93.21,1.62.62,2.09.41.46.95.7,1.62.7.33,0,.66-.07.99-.19.33-.13.62-.29.86-.47v-.99h-1.81Z"/>
            <path class="cls-22" d="M101.5,16.27v-7.81h3.32c.83,0,1.44.07,1.82.21.38.14.68.39.91.75s.34.77.34,1.23c0,.59-.17,1.07-.52,1.45-.34.38-.86.62-1.55.72.34.2.62.42.84.66.22.24.52.66.9,1.27l.95,1.52h-1.89l-1.14-1.7c-.41-.61-.68-.99-.83-1.15-.15-.16-.31-.27-.47-.33-.17-.06-.43-.09-.79-.09h-.32v3.26h-1.58ZM103.08,11.77h1.17c.76,0,1.23-.03,1.42-.1.19-.06.34-.17.44-.33.11-.16.16-.35.16-.59,0-.26-.07-.47-.21-.64-.14-.16-.34-.26-.59-.31-.13-.02-.51-.03-1.15-.03h-1.23v1.98Z"/>
            <path class="cls-22" d="M116.42,16.27h-1.72l-.68-1.77h-3.12l-.64,1.77h-1.67l3.04-7.81h1.67l3.13,7.81ZM113.52,13.18l-1.08-2.9-1.05,2.9h2.13Z"/>
            <path class="cls-22" d="M117.24,16.27v-7.81h2.36l1.42,5.33,1.4-5.33h2.37v7.81h-1.47v-6.15l-1.55,6.15h-1.52l-1.55-6.15v6.15h-1.47Z"/>
            <path class="cls-22" d="M126.33,16.27v-7.81h2.36l1.42,5.33,1.4-5.33h2.37v7.81h-1.47v-6.15l-1.55,6.15h-1.52l-1.55-6.15v6.15h-1.47Z"/>
            <path class="cls-22" d="M135.44,16.27v-7.81h5.79v1.32h-4.21v1.73h3.92v1.32h-3.92v2.13h4.36v1.32h-5.94Z"/>
            <path class="cls-22" d="M145.43,12.42c0-.8.12-1.46.36-2,.18-.4.42-.75.73-1.07.31-.32.64-.55,1.01-.7.49-.21,1.05-.31,1.68-.31,1.15,0,2.07.36,2.76,1.07s1.04,1.71,1.04,2.98-.34,2.25-1.03,2.96-1.6,1.07-2.75,1.07-2.09-.35-2.77-1.06c-.69-.71-1.03-1.68-1.03-2.93ZM147.05,12.36c0,.88.2,1.55.61,2.01s.93.68,1.56.68,1.15-.23,1.55-.68c.4-.45.6-1.13.6-2.04s-.2-1.56-.59-2c-.39-.44-.91-.66-1.56-.66s-1.17.22-1.57.67c-.4.45-.6,1.12-.6,2.02Z"/>
            <path class="cls-22" d="M154.25,16.27v-7.81h5.35v1.32h-3.78v1.85h3.26v1.32h-3.26v3.32h-1.58Z"/>
          </g>
          <g>
            <path class="cls-22" d="M93.23,28.49v-7.81h5.79v1.32h-4.21v1.73h3.92v1.32h-3.92v2.13h4.36v1.32h-5.94Z"/>
            <path class="cls-22" d="M100.49,20.68h1.58v4.23c0,.67.02,1.11.06,1.31.07.32.23.58.48.77s.6.29,1.04.29.79-.09,1.01-.27c.23-.18.36-.41.41-.67.05-.27.07-.71.07-1.33v-4.32h1.58v4.1c0,.94-.04,1.6-.13,1.99-.09.39-.24.71-.47.98s-.54.48-.92.64-.88.24-1.5.24c-.75,0-1.31-.09-1.7-.26-.39-.17-.69-.4-.91-.67-.22-.28-.37-.56-.44-.87-.1-.45-.15-1.11-.15-1.98v-4.17Z"/>
            <path class="cls-22" d="M108.39,28.49v-7.81h3.32c.83,0,1.44.07,1.82.21.38.14.68.39.91.75s.34.77.34,1.23c0,.59-.17,1.07-.52,1.45-.34.38-.86.62-1.55.72.34.2.62.42.84.66.22.24.52.66.9,1.27l.95,1.52h-1.89l-1.14-1.7c-.41-.61-.68-.99-.83-1.15-.15-.16-.31-.27-.47-.33-.17-.06-.43-.09-.79-.09h-.32v3.26h-1.58ZM109.97,23.99h1.17c.76,0,1.23-.03,1.42-.1.19-.06.34-.17.44-.33.11-.16.16-.35.16-.59,0-.26-.07-.47-.21-.64-.14-.16-.34-.26-.59-.31-.13-.02-.51-.03-1.15-.03h-1.23v1.98Z"/>
            <path class="cls-22" d="M115.94,24.64c0-.8.12-1.46.36-2,.18-.4.42-.75.73-1.07.31-.32.64-.55,1.01-.7.49-.21,1.05-.31,1.68-.31,1.15,0,2.07.36,2.76,1.07.69.71,1.04,1.71,1.04,2.98s-.34,2.25-1.03,2.96c-.69.71-1.6,1.07-2.75,1.07s-2.09-.35-2.77-1.06c-.69-.71-1.03-1.68-1.03-2.93ZM117.57,24.58c0,.88.2,1.55.61,2.01.41.46.93.68,1.56.68s1.14-.23,1.55-.68c.4-.45.6-1.13.6-2.04s-.2-1.56-.59-2c-.39-.44-.91-.66-1.56-.66s-1.17.22-1.57.67-.6,1.12-.6,2.02Z"/>
            <path class="cls-22" d="M124.75,28.49v-7.81h2.53c.96,0,1.58.04,1.88.12.45.12.82.37,1.12.76.3.39.45.9.45,1.52,0,.48-.09.88-.26,1.21-.17.33-.39.58-.66.77-.27.19-.54.31-.82.37-.38.07-.92.11-1.64.11h-1.03v2.95h-1.58ZM126.33,22v2.22h.86c.62,0,1.04-.04,1.25-.12s.37-.21.49-.38c.12-.17.18-.38.18-.61,0-.28-.08-.52-.25-.7-.17-.18-.38-.3-.63-.35-.19-.04-.57-.05-1.13-.05h-.76Z"/>
            <path class="cls-22" d="M132.03,28.49v-7.81h5.79v1.32h-4.21v1.73h3.92v1.32h-3.92v2.13h4.36v1.32h-5.94Z"/>
            <path class="cls-22" d="M146.35,28.49h-1.72l-.68-1.77h-3.12l-.64,1.77h-1.67l3.04-7.81h1.67l3.13,7.81ZM143.45,25.4l-1.08-2.9-1.05,2.9h2.13Z"/>
            <path class="cls-22" d="M147.2,28.49v-7.81h1.53l3.2,5.22v-5.22h1.47v7.81h-1.58l-3.15-5.09v5.09h-1.47Z"/>
            <path class="cls-22" d="M158.09,20.68h1.58v4.23c0,.67.02,1.11.06,1.31.07.32.23.58.48.77.25.19.6.29,1.04.29s.79-.09,1.01-.27c.23-.18.36-.41.41-.67.05-.27.07-.71.07-1.33v-4.32h1.58v4.1c0,.94-.04,1.6-.13,1.99-.09.39-.24.71-.47.98-.23.27-.54.48-.92.64s-.88.24-1.5.24c-.75,0-1.31-.09-1.7-.26-.39-.17-.69-.4-.91-.67-.22-.28-.37-.56-.44-.87-.1-.45-.15-1.11-.15-1.98v-4.17Z"/>
            <path class="cls-22" d="M166,28.49v-7.81h1.53l3.2,5.22v-5.22h1.47v7.81h-1.58l-3.15-5.09v5.09h-1.47Z"/>
            <path class="cls-22" d="M173.81,28.49v-7.81h1.58v7.81h-1.58Z"/>
            <path class="cls-22" d="M176.57,24.64c0-.8.12-1.46.36-2,.18-.4.42-.75.73-1.07.31-.32.64-.55,1.01-.7.49-.21,1.05-.31,1.68-.31,1.15,0,2.07.36,2.76,1.07s1.04,1.71,1.04,2.98-.34,2.25-1.03,2.96-1.6,1.07-2.75,1.07-2.09-.35-2.77-1.06c-.69-.71-1.03-1.68-1.03-2.93ZM178.2,24.58c0,.88.2,1.55.61,2.01s.93.68,1.56.68,1.15-.23,1.55-.68c.4-.45.6-1.13.6-2.04s-.2-1.56-.59-2c-.39-.44-.91-.66-1.56-.66s-1.17.22-1.57.67c-.4.45-.6,1.12-.6,2.02Z"/>
            <path class="cls-22" d="M185.4,28.49v-7.81h1.53l3.2,5.22v-5.22h1.47v7.81h-1.58l-3.15-5.09v5.09h-1.47Z"/>
          </g>
          <path class="cls-22" d="M70.78,28.49v-6.49h-2.32v-1.32h6.21v1.32h-2.31v6.49h-1.58Z"/>
          <path class="cls-22" d="M75.69,28.49v-7.81h1.58v3.07h3.09v-3.07h1.58v7.81h-1.58v-3.42h-3.09v3.42h-1.58Z"/>
          <path class="cls-22" d="M83.56,28.49v-7.81h5.79v1.32h-4.21v1.73h3.92v1.32h-3.92v2.13h4.36v1.32h-5.94Z"/>
        </g>
        <g>
          <g>
            <path class="cls-26" d="M349.84,17.96c0,9.28,7.45,16.8,16.63,16.8,2.66,0,5.13-.61,7.36-1.74,0,0,.04-.02.02-.06-.02-.04-.06-.02-.06-.02-1.71.68-3.54,1.04-5.49,1.04-8.36,0-15.14-6.87-15.14-15.34s6.78-15.34,15.14-15.34c5.93,0,11.07,3.43,13.55,8.47,0,0,.02.05.06.03.04-.02.02-.06.02-.06-2.44-6.21-8.44-10.57-15.46-10.57-9.18,0-16.63,7.52-16.63,16.79"/>
            <path class="cls-26" d="M371.18,22.02v-6.91h1.13v6.91c.58.23.99.79.99,1.44,0,.85-.69,1.55-1.55,1.55s-1.55-.69-1.55-1.55c0-.66.41-1.22.99-1.44"/>
            <path class="cls-26" d="M373.81,15.24c0-.12-.01-.28-.04-.41-.05-.28-.16-.54-.32-.77-.31-.46-.79-.76-1.3-.86-.51-.1-1.03,0-1.44.26-.41.25-.7.64-.84,1.06-.07.21-.1.42-.1.63v.52c.09,2.68.2,4.34.32,4.34s.25-2.14.32-4.82c0-.71.58-1.29,1.29-1.29s1.29.58,1.29,1.29v6.22c.09.07.18.15.27.22.05.04.08.07.12.11.07.07.14.14.2.22.12.16.22.33.3.51.16.36.22.75.18,1.13-.06.76-.51,1.43-1.11,1.79-.6.37-1.32.43-1.93.25-.61-.18-1.09-.59-1.38-1.05-.29-.46-.4-.98-.38-1.42.01-.45.14-.82.28-1.11.14-.29.3-.49.41-.63.11-.14.17-.21.15-.24-.02-.02-.11.01-.26.12-.15.11-.36.29-.57.59-.2.29-.4.71-.46,1.24-.06.52.01,1.15.34,1.75.32.59.9,1.15,1.67,1.41.77.27,1.72.23,2.53-.25.81-.46,1.44-1.35,1.54-2.38.05-.51-.02-1.05-.23-1.54-.1-.25-.24-.48-.41-.69-.08-.11-.17-.21-.27-.31-.04-.05-.1-.1-.14-.13,0,0,0,0,0,0l-.02-5.77Z"/>
            <path class="cls-26" d="M356.34,17.78s.55-1.85,2.68-2.3c.12-2.54,2.28-4.58,4.94-4.58.98,0,1.9.28,2.67.75,1.01-1.75,2.95-2.92,5.19-2.92,3.27,0,5.92,2.53,5.92,5.64,0,.35-.03.69-.1,1.02,1.2.07,1.99.69,1.99.69.63.45,1,1.01,1.2,1.5.2.49.24.9.24,1.17,0,.27-.05.41-.09.41-.04,0-.07-.14-.14-.38-.07-.24-.17-.6-.4-1.01-.23-.4-.6-.84-1.15-1.17h0c-.45-.28-1.19-.47-2.02-.47-.18,0-.35,0-.51.02.08-.37.14-.77.14-1.16,0-2.87-2.28-5.2-5.1-5.2-2.22,0-4.13,1.42-4.83,3.44-.9-1.05-2.42-1.57-3.97-1.23-2.05.45-3.42,2.26-3.19,4.13-2.17-.09-3.08,1.8-3.08,1.8-.19.36-.27.68-.33.89-.05.22-.08.34-.12.34-.03,0-.07-.12-.09-.36,0-.24.01-.59.16-1.03"/>
          </g>
          <g>
            <path class="cls-26" d="M388.29,16.8c-.1.04-.19.08-.27.12-.08.04-.19.08-.32.12-.11.03-.23.06-.36.09s-.27.04-.43.04c-.3,0-.57-.04-.81-.12s-.45-.21-.63-.39c-.18-.17-.31-.39-.41-.66-.1-.27-.15-.58-.15-.93,0-.34.05-.64.14-.9.1-.27.23-.49.41-.67.17-.18.38-.31.63-.41.25-.09.52-.14.82-.14.22,0,.44.03.66.08s.46.15.73.28v.64h-.04c-.22-.19-.45-.33-.67-.41-.22-.09-.46-.13-.71-.13-.21,0-.39.03-.56.1-.17.07-.31.17-.44.31-.13.14-.22.31-.29.52-.07.21-.11.45-.11.73s.04.53.12.74c.08.21.18.38.3.5.13.14.28.24.45.3.17.06.35.1.54.1.26,0,.51-.04.74-.13s.44-.22.64-.4h.04v.64Z"/>
            <path class="cls-26" d="M389.54,17.1h-.52v-4.27h.52v4.27Z"/>
            <path class="cls-26" d="M391.11,13.52h-.58v-.54h.58v.54ZM391.08,17.1h-.52v-3.06h.52v3.06Z"/>
            <path class="cls-26" d="M396.57,17.1h-.52v-1.75c0-.13,0-.26-.02-.38-.01-.12-.04-.22-.08-.29-.04-.08-.1-.14-.18-.18-.08-.04-.19-.06-.34-.06s-.29.04-.43.11-.29.16-.43.28c0,.04,0,.09.01.15s0,.11,0,.17v1.96h-.52v-1.75c0-.14,0-.26-.02-.39-.01-.12-.04-.22-.08-.29-.04-.08-.1-.14-.18-.18-.08-.04-.19-.06-.34-.06-.14,0-.28.04-.42.1s-.28.16-.42.27v2.29h-.52v-3.06h.52v.34c.16-.13.32-.24.48-.31.16-.08.33-.11.51-.11.21,0,.39.04.53.13s.25.21.33.37c.21-.18.4-.3.57-.38.17-.08.36-.12.55-.12.34,0,.58.1.75.31s.24.49.24.85v1.99Z"/>
            <path class="cls-26" d="M399.95,17.1h-.51v-.33s-.11.07-.18.13c-.08.06-.15.1-.23.13-.09.04-.18.08-.3.11-.11.03-.24.04-.39.04-.28,0-.51-.09-.7-.27-.19-.18-.29-.42-.29-.7,0-.23.05-.42.15-.56s.24-.26.43-.34c.19-.08.41-.14.67-.17.26-.03.54-.05.84-.07v-.08c0-.12-.02-.21-.06-.29s-.1-.14-.18-.18c-.07-.04-.16-.07-.26-.08s-.21-.02-.32-.02c-.13,0-.29.02-.45.05-.17.04-.34.09-.52.16h-.03v-.52c.1-.03.25-.06.44-.09.19-.03.38-.05.56-.05.22,0,.4.02.56.05.16.04.3.1.42.18.12.08.2.19.26.33.06.13.09.3.09.5v2.08ZM399.43,16.34v-.85c-.16,0-.34.02-.56.04-.21.02-.38.04-.51.08-.15.04-.27.11-.36.2-.09.09-.14.21-.14.37,0,.18.05.31.16.4.11.09.27.13.49.13.18,0,.35-.04.5-.11.15-.07.29-.16.42-.25Z"/>
            <path class="cls-26" d="M402.53,17.07c-.1.03-.2.05-.32.06-.11.02-.22.02-.31.02-.31,0-.55-.08-.71-.25-.16-.17-.24-.44-.24-.81v-1.63h-.35v-.43h.35v-.88h.52v.88h1.06v.43h-1.06v1.4c0,.16,0,.29.01.38,0,.09.03.17.08.25.04.07.1.13.17.16.07.03.18.05.32.05.08,0,.17-.01.26-.04.09-.02.16-.04.2-.06h.03v.46Z"/>
            <path class="cls-26" d="M405.72,15.62h-2.26c0,.19.03.35.09.49s.13.25.23.34c.1.09.21.15.34.2s.28.07.43.07c.21,0,.42-.04.63-.12.21-.08.36-.17.45-.25h.03v.56c-.17.07-.35.13-.53.18-.18.05-.37.07-.57.07-.51,0-.91-.14-1.19-.41s-.43-.67-.43-1.17.14-.9.41-1.19c.27-.29.63-.44,1.08-.44.41,0,.73.12.96.36.22.24.34.58.34,1.03v.28ZM405.22,15.23c0-.27-.07-.48-.21-.63-.13-.15-.34-.22-.61-.22s-.5.08-.66.24c-.16.16-.26.37-.28.61h1.76Z"/>
            <path class="cls-26" d="M388.29,23.55c-.1.04-.19.08-.27.12-.08.04-.19.08-.32.12-.11.03-.23.06-.36.09s-.27.04-.43.04c-.3,0-.57-.04-.81-.12s-.45-.21-.63-.39c-.18-.17-.31-.39-.41-.66-.1-.27-.15-.58-.15-.93,0-.34.05-.64.14-.9.1-.27.23-.49.41-.67.17-.18.38-.31.63-.41.25-.09.52-.14.82-.14.22,0,.44.03.66.08s.46.15.73.28v.64h-.04c-.22-.19-.45-.33-.67-.41-.22-.09-.46-.13-.71-.13-.21,0-.39.03-.56.1-.17.07-.31.17-.44.31-.13.14-.22.31-.29.52-.07.21-.11.45-.11.73s.04.53.12.74c.08.21.18.38.3.5.13.14.28.24.45.3.17.06.35.1.54.1.26,0,.51-.04.74-.13s.44-.22.64-.4h.04v.64Z"/>
            <path class="cls-26" d="M391.58,23.84h-.52v-1.75c0-.14,0-.27-.02-.4-.02-.12-.05-.22-.09-.29-.05-.08-.11-.13-.2-.17-.09-.04-.2-.06-.33-.06s-.29.04-.44.1c-.15.07-.3.16-.44.27v2.29h-.52v-4.27h.52v1.54c.16-.13.33-.24.5-.31.17-.08.35-.11.53-.11.33,0,.58.1.76.3s.26.49.26.86v1.99Z"/>
            <path class="cls-26" d="M394.95,23.84h-.51v-.33s-.11.07-.18.13c-.08.06-.15.1-.23.13-.09.04-.18.08-.3.11-.11.03-.24.04-.39.04-.28,0-.51-.09-.7-.27-.19-.18-.29-.42-.29-.7,0-.23.05-.42.15-.56s.24-.26.43-.34c.19-.08.41-.14.67-.17.26-.03.54-.05.84-.07v-.08c0-.12-.02-.21-.06-.29s-.1-.14-.18-.18c-.07-.04-.16-.07-.26-.08s-.21-.02-.32-.02c-.13,0-.29.02-.45.05-.17.04-.34.09-.52.16h-.03v-.52c.1-.03.25-.06.44-.09.19-.03.38-.05.56-.05.22,0,.4.02.56.05.16.04.3.1.42.18.12.08.2.19.26.33.06.13.09.3.09.5v2.08ZM394.44,23.09v-.85c-.16,0-.34.02-.56.04-.21.02-.38.04-.51.08-.15.04-.27.11-.36.2-.09.09-.14.21-.14.37,0,.18.05.31.16.4.11.09.27.13.49.13.18,0,.35-.04.5-.11.15-.07.29-.16.42-.25Z"/>
            <path class="cls-26" d="M398.51,23.84h-.52v-1.75c0-.14,0-.27-.02-.4-.02-.12-.05-.22-.09-.29-.05-.08-.11-.13-.2-.17-.09-.04-.2-.06-.33-.06s-.29.04-.44.1c-.15.07-.3.16-.44.27v2.29h-.52v-3.06h.52v.34c.16-.13.33-.24.5-.31.17-.08.35-.11.53-.11.33,0,.58.1.76.3s.26.49.26.86v1.99Z"/>
            <path class="cls-26" d="M401.99,23.49c0,.52-.12.9-.35,1.14s-.6.37-1.09.37c-.16,0-.32-.01-.48-.04-.15-.02-.31-.05-.46-.1v-.53h.03c.08.03.22.07.4.12.18.05.37.07.55.07s.32-.02.44-.06.21-.1.27-.18c.06-.07.11-.16.14-.26s.04-.21.04-.34v-.28c-.16.12-.3.22-.45.28-.14.06-.32.09-.54.09-.37,0-.66-.13-.87-.4-.22-.26-.32-.64-.32-1.12,0-.26.04-.49.11-.68s.18-.36.3-.5c.12-.13.26-.23.43-.3.17-.07.34-.11.51-.11.18,0,.33.02.45.05.12.04.25.09.38.16l.03-.13h.48v2.72ZM401.47,23v-1.67c-.14-.06-.26-.11-.38-.13s-.24-.04-.35-.04c-.28,0-.51.1-.67.29-.16.19-.24.47-.24.83s.06.6.18.78.32.27.6.27c.15,0,.3-.03.45-.09.15-.06.29-.13.42-.23Z"/>
            <path class="cls-26" d="M405.57,22.36h-2.26c0,.19.03.35.09.49s.13.25.23.34c.1.09.21.15.34.2s.28.07.43.07c.21,0,.42-.04.63-.12.21-.08.36-.17.45-.25h.03v.56c-.17.07-.35.13-.53.18-.18.05-.37.07-.57.07-.51,0-.91-.14-1.19-.41s-.43-.67-.43-1.17.14-.9.41-1.19c.27-.29.63-.44,1.08-.44.41,0,.73.12.96.36.22.24.34.58.34,1.03v.28ZM405.07,21.97c0-.27-.07-.48-.21-.63-.13-.15-.34-.22-.61-.22s-.5.08-.66.24c-.16.16-.26.37-.28.61h1.76Z"/>
            <path class="cls-26" d="M411.34,22.68c0,.16-.04.32-.11.47s-.18.29-.31.4c-.15.12-.32.21-.51.27-.19.07-.43.1-.7.1-.29,0-.56-.03-.79-.08-.23-.06-.47-.14-.72-.24v-.68h.04c.21.17.45.3.72.4.27.09.53.14.76.14.34,0,.6-.06.79-.19.19-.13.28-.29.28-.5,0-.18-.04-.32-.13-.4s-.22-.15-.4-.2c-.14-.04-.29-.07-.45-.09-.16-.02-.33-.05-.51-.09-.36-.08-.63-.21-.81-.39-.17-.19-.26-.43-.26-.73,0-.34.14-.62.43-.84s.66-.33,1.1-.33c.29,0,.55.03.79.08.24.05.45.12.64.2v.64h-.04c-.16-.13-.36-.24-.61-.33-.25-.09-.51-.13-.78-.13-.29,0-.53.06-.7.18-.18.12-.26.28-.26.47,0,.17.04.3.13.4.09.1.24.17.46.22.12.03.28.06.5.09.22.04.4.07.55.11.3.08.53.2.69.36.15.16.23.39.23.68Z"/>
            <path class="cls-26" d="M414.73,22.36h-2.26c0,.19.03.35.09.49s.13.25.23.34c.1.09.21.15.34.2s.28.07.43.07c.21,0,.42-.04.63-.12.21-.08.36-.17.45-.25h.03v.56c-.17.07-.35.13-.53.18-.18.05-.37.07-.57.07-.51,0-.91-.14-1.19-.41s-.43-.67-.43-1.17.14-.9.41-1.19c.27-.29.63-.44,1.08-.44.41,0,.73.12.96.36.22.24.34.58.34,1.03v.28ZM414.23,21.97c0-.27-.07-.48-.21-.63-.13-.15-.34-.22-.61-.22s-.5.08-.66.24c-.16.16-.26.37-.28.61h1.76Z"/>
            <path class="cls-26" d="M417.43,21.34h-.03c-.08-.02-.15-.03-.22-.04-.07,0-.16-.01-.26-.01-.16,0-.31.04-.46.11-.15.07-.29.16-.43.27v2.18h-.52v-3.06h.52v.45c.21-.16.39-.28.54-.35s.32-.1.48-.1c.09,0,.16,0,.2,0,.04,0,.1.01.18.03v.53Z"/>
            <path class="cls-26" d="M420.56,20.78l-1.24,3.06h-.52l-1.23-3.06h.56l.95,2.44.94-2.44h.54Z"/>
            <path class="cls-26" d="M421.79,20.26h-.58v-.54h.58v.54ZM421.76,23.84h-.52v-3.06h.52v3.06Z"/>
            <path class="cls-26" d="M425.05,23.65c-.17.08-.34.15-.49.19s-.32.07-.49.07c-.22,0-.42-.03-.61-.1-.18-.06-.34-.16-.47-.29-.13-.13-.24-.3-.31-.5s-.11-.44-.11-.71c0-.5.14-.89.41-1.18s.64-.43,1.09-.43c.18,0,.35.03.52.07.17.05.32.11.47.18v.57h-.03c-.16-.12-.32-.22-.49-.28-.17-.07-.33-.1-.49-.1-.29,0-.52.1-.69.29-.17.2-.25.49-.25.87s.08.65.25.85c.17.2.4.3.7.3.1,0,.21-.01.32-.04.11-.03.21-.06.29-.11.08-.04.15-.08.21-.12.07-.04.12-.08.16-.11h.03v.57Z"/>
            <path class="cls-26" d="M428.27,22.36h-2.26c0,.19.03.35.09.49s.13.25.23.34c.1.09.21.15.34.2s.28.07.43.07c.21,0,.42-.04.63-.12.21-.08.36-.17.45-.25h.03v.56c-.17.07-.35.13-.53.18-.18.05-.37.07-.57.07-.51,0-.91-.14-1.19-.41s-.43-.67-.43-1.17.14-.9.41-1.19c.27-.29.63-.44,1.08-.44.41,0,.73.12.96.36.22.24.34.58.34,1.03v.28ZM427.77,21.97c0-.27-.07-.48-.21-.63-.13-.15-.34-.22-.61-.22s-.5.08-.66.24c-.16.16-.26.37-.28.61h1.76Z"/>
          </g>
          <g>
            <path class="cls-17" d="M386.62,34.72c-.15.07-.3.13-.44.17-.14.04-.29.06-.44.06-.2,0-.38-.03-.54-.09-.17-.06-.31-.15-.42-.26-.12-.12-.21-.27-.28-.45s-.1-.39-.1-.63c0-.45.12-.8.37-1.05s.57-.38.98-.38c.16,0,.31.02.46.07s.29.1.42.16v.51h-.02c-.14-.11-.29-.19-.44-.25-.15-.06-.3-.09-.44-.09-.26,0-.47.09-.62.26s-.23.43-.23.77.07.58.22.76c.15.18.36.27.62.27.09,0,.19-.01.28-.04.1-.03.18-.06.26-.1.07-.04.13-.07.19-.11.06-.04.11-.07.14-.1h.02v.51Z"/>
            <path class="cls-17" d="M387.68,34.89h-.46v-3.82h.46v3.82Z"/>
            <path class="cls-17" d="M389.09,31.69h-.52v-.48h.52v.48ZM389.06,34.89h-.46v-2.74h.46v2.74Z"/>
            <path class="cls-17" d="M393.97,34.89h-.46v-1.56c0-.12,0-.23-.02-.34-.01-.11-.03-.2-.07-.26-.04-.07-.09-.12-.16-.16-.07-.04-.17-.05-.3-.05s-.26.03-.39.1c-.13.07-.26.15-.39.25,0,.04,0,.08.01.13s0,.1,0,.15v1.75h-.46v-1.56c0-.12,0-.24-.02-.34-.01-.11-.03-.2-.07-.26-.04-.07-.09-.12-.16-.16s-.17-.05-.3-.05-.25.03-.38.09c-.13.06-.25.14-.38.24v2.05h-.46v-2.74h.46v.3c.14-.12.29-.21.43-.28.14-.07.3-.1.46-.1.19,0,.34.04.47.12s.23.19.29.33c.19-.16.36-.27.51-.34.15-.07.32-.1.49-.1.3,0,.52.09.67.27.14.18.21.44.21.76v1.78Z"/>
            <path class="cls-17" d="M396.99,34.89h-.46v-.29s-.1.07-.17.12c-.07.05-.14.09-.2.12-.08.04-.17.07-.26.09s-.22.04-.35.04c-.25,0-.46-.08-.63-.25-.17-.16-.26-.37-.26-.63,0-.21.04-.38.13-.5.09-.13.22-.23.38-.3.17-.07.37-.12.6-.15.23-.03.48-.05.75-.06v-.07c0-.1-.02-.19-.06-.26-.04-.07-.09-.12-.16-.16-.07-.04-.14-.06-.24-.08-.09-.01-.19-.02-.29-.02-.12,0-.26.02-.4.05-.15.03-.3.08-.46.14h-.02v-.47c.09-.03.22-.05.39-.08.17-.03.34-.04.5-.04.19,0,.36.02.5.05.14.03.27.09.37.16.1.08.18.17.24.29.05.12.08.27.08.44v1.86ZM396.53,34.21v-.76c-.14,0-.31.02-.5.04-.19.02-.34.04-.45.07-.13.04-.24.1-.32.18-.08.08-.12.19-.12.33,0,.16.05.28.14.35.09.08.24.12.43.12.16,0,.31-.03.44-.09.13-.06.26-.14.37-.23Z"/>
            <path class="cls-17" d="M399.3,34.87c-.09.02-.18.04-.28.06s-.19.02-.27.02c-.28,0-.49-.08-.64-.23-.15-.15-.22-.39-.22-.72v-1.46h-.31v-.39h.31v-.79h.46v.79h.95v.39h-.95v1.25c0,.14,0,.26,0,.34,0,.08.03.16.07.23.04.07.08.11.15.14.06.03.16.05.29.05.08,0,.15-.01.24-.03.08-.02.14-.04.18-.06h.02v.42Z"/>
            <path class="cls-17" d="M402.15,33.57h-2.02c0,.17.03.32.08.44s.12.23.21.31c.08.08.19.14.3.18s.25.06.39.06c.19,0,.37-.04.56-.11.19-.07.32-.15.4-.22h.02v.5c-.16.07-.31.12-.48.16-.16.04-.33.07-.51.07-.46,0-.81-.12-1.07-.37-.25-.25-.38-.6-.38-1.05s.12-.8.37-1.07.57-.4.97-.4c.37,0,.65.11.85.32.2.22.3.52.3.92v.25ZM401.71,33.21c0-.24-.06-.43-.18-.56-.12-.13-.3-.2-.55-.2s-.44.07-.59.22c-.15.15-.23.33-.25.54h1.57Z"/>
            <path class="cls-17" d="M403.61,34.89h-.59v-.7h.59v.7Z"/>
            <path class="cls-17" d="M406.71,34.72c-.15.07-.3.13-.44.17-.14.04-.29.06-.44.06-.2,0-.38-.03-.54-.09-.17-.06-.31-.15-.42-.26-.12-.12-.21-.27-.28-.45s-.1-.39-.1-.63c0-.45.12-.8.37-1.05s.57-.38.98-.38c.16,0,.31.02.46.07s.29.1.42.16v.51h-.02c-.14-.11-.29-.19-.44-.25-.15-.06-.3-.09-.44-.09-.26,0-.47.09-.62.26s-.23.43-.23.77.07.58.22.76c.15.18.36.27.62.27.09,0,.19-.01.28-.04.1-.03.18-.06.26-.1.07-.04.13-.07.19-.11.06-.04.11-.07.14-.1h.02v.51Z"/>
            <path class="cls-17" d="M409.64,33.52c0,.45-.11.8-.34,1.06-.23.26-.54.39-.92.39s-.7-.13-.92-.39-.34-.61-.34-1.06.11-.8.34-1.06c.23-.26.54-.39.92-.39s.69.13.92.39c.23.26.34.61.34,1.06ZM409.16,33.52c0-.36-.07-.62-.21-.79-.14-.17-.33-.26-.58-.26s-.44.09-.58.26c-.14.17-.21.44-.21.79s.07.6.21.78c.14.18.33.27.58.27s.44-.09.58-.26c.14-.18.21-.44.21-.78Z"/>
            <path class="cls-17" d="M412.76,33.49c0,.22-.03.43-.1.61-.06.18-.15.34-.27.47-.11.12-.23.21-.38.28-.15.07-.3.1-.46.1-.14,0-.27-.02-.39-.05-.12-.03-.23-.08-.35-.15v1.15h-.46v-3.75h.46v.29c.12-.1.26-.19.41-.26.15-.07.32-.1.49-.1.33,0,.59.12.77.38.18.25.28.6.28,1.04ZM412.29,33.5c0-.33-.06-.58-.17-.74-.11-.16-.29-.25-.52-.25-.13,0-.27.03-.4.09-.13.06-.26.13-.39.23v1.55c.13.06.24.1.34.12.09.02.2.03.32.03.26,0,.46-.09.6-.26.14-.17.22-.43.22-.77Z"/>
            <path class="cls-17" d="M415.78,33.57h-2.02c0,.17.03.32.08.44s.12.23.21.31c.08.08.19.14.3.18s.25.06.39.06c.19,0,.37-.04.56-.11.19-.07.32-.15.4-.22h.02v.5c-.16.07-.31.12-.48.16-.16.04-.33.07-.51.07-.46,0-.81-.12-1.07-.37-.25-.25-.38-.6-.38-1.05s.12-.8.37-1.07.57-.4.97-.4c.37,0,.65.11.85.32.2.22.3.52.3.92v.25ZM415.33,33.21c0-.24-.06-.43-.18-.56-.12-.13-.3-.2-.55-.2s-.44.07-.59.22c-.15.15-.23.33-.25.54h1.57Z"/>
            <path class="cls-17" d="M418.19,32.65h-.02c-.07-.02-.14-.03-.2-.04-.06,0-.14-.01-.23-.01-.14,0-.28.03-.41.09-.13.06-.26.14-.38.24v1.95h-.46v-2.74h.46v.41c.18-.15.34-.25.49-.31.14-.06.28-.09.43-.09.08,0,.14,0,.17,0,.04,0,.09.01.16.02v.47Z"/>
            <path class="cls-17" d="M420.91,34.89h-.46v-1.56c0-.13,0-.24-.02-.35s-.04-.2-.08-.26c-.04-.07-.1-.12-.18-.15-.08-.03-.18-.05-.3-.05s-.26.03-.39.09c-.14.06-.27.14-.4.24v2.05h-.46v-2.74h.46v.3c.14-.12.29-.21.45-.28.15-.07.31-.1.47-.1.3,0,.52.09.68.27.16.18.23.44.23.77v1.78Z"/>
            <path class="cls-17" d="M422.3,31.69h-.52v-.48h.52v.48ZM422.27,34.89h-.46v-2.74h.46v2.74Z"/>
            <path class="cls-17" d="M425.21,34.72c-.15.07-.3.13-.44.17-.14.04-.29.06-.44.06-.2,0-.38-.03-.54-.09-.17-.06-.31-.15-.42-.26-.12-.12-.21-.27-.28-.45s-.1-.39-.1-.63c0-.45.12-.8.37-1.05s.57-.38.98-.38c.16,0,.31.02.46.07s.29.1.42.16v.51h-.02c-.14-.11-.29-.19-.44-.25-.15-.06-.3-.09-.44-.09-.26,0-.47.09-.62.26s-.23.43-.23.77.07.58.22.76c.15.18.36.27.62.27.09,0,.19-.01.28-.04.1-.03.18-.06.26-.1.07-.04.13-.07.19-.11.06-.04.11-.07.14-.1h.02v.51Z"/>
            <path class="cls-17" d="M428.07,34.89h-.46v-.3c-.16.12-.3.22-.45.28s-.3.1-.47.1c-.29,0-.51-.09-.67-.26s-.24-.43-.24-.77v-1.78h.46v1.56c0,.14,0,.26.02.36.01.1.04.18.08.25.04.07.1.12.17.16.07.03.17.05.31.05.12,0,.25-.03.39-.09.14-.06.27-.14.4-.24v-2.05h.46v2.74Z"/>
            <path class="cls-17" d="M430.94,34.1c0,.25-.1.46-.31.62-.21.16-.49.24-.85.24-.2,0-.39-.02-.56-.07-.17-.05-.31-.1-.43-.16v-.52h.03c.15.11.31.2.49.26s.35.1.51.1c.2,0,.36-.03.48-.1.11-.07.17-.17.17-.31,0-.11-.03-.19-.09-.25s-.18-.1-.36-.14c-.07-.01-.15-.03-.26-.05-.11-.02-.2-.04-.29-.06-.24-.06-.41-.16-.51-.28-.1-.12-.15-.27-.15-.46,0-.11.02-.22.07-.32.05-.1.12-.19.21-.27.09-.08.21-.14.35-.18.14-.05.3-.07.47-.07.16,0,.33.02.5.06s.31.09.42.15v.49h-.02c-.12-.09-.26-.16-.43-.22-.17-.06-.33-.09-.5-.09s-.31.03-.43.1-.17.16-.17.29c0,.11.04.2.11.26.07.06.18.1.33.14.08.02.18.04.29.06s.19.04.26.05c.21.05.38.13.5.25.12.12.17.28.17.48Z"/>
            <path class="cls-17" d="M432.35,34.89h-.59v-.7h.59v.7Z"/>
            <path class="cls-17" d="M435.72,33.57h-2.02c0,.17.03.32.08.44s.12.23.21.31c.08.08.19.14.3.18s.25.06.39.06c.19,0,.37-.04.56-.11.19-.07.32-.15.4-.22h.02v.5c-.16.07-.31.12-.48.16-.16.04-.33.07-.51.07-.46,0-.81-.12-1.07-.37-.25-.25-.38-.6-.38-1.05s.12-.8.37-1.07.57-.4.97-.4c.37,0,.65.11.85.32.2.22.3.52.3.92v.25ZM435.27,33.21c0-.24-.06-.43-.18-.56-.12-.13-.3-.2-.55-.2s-.44.07-.59.22c-.15.15-.23.33-.25.54h1.57Z"/>
            <path class="cls-17" d="M438.69,34.89h-.46v-.3c-.16.12-.3.22-.45.28s-.3.1-.47.1c-.29,0-.51-.09-.67-.26s-.24-.43-.24-.77v-1.78h.46v1.56c0,.14,0,.26.02.36.01.1.04.18.08.25.04.07.1.12.17.16.07.03.17.05.31.05.12,0,.25-.03.39-.09.14-.06.27-.14.4-.24v-2.05h.46v2.74Z"/>
          </g>
        </g>
      </g>
    </g>
  </g>
</svg>